<svg width="96" height="96" viewBox="0 0 96 96" fill="none" xmlns="http://www.w3.org/2000/svg">
<rect x="0.5" y="0.5" width="95" height="95" rx="3.5" fill="white" stroke="#DDDDDD"/>
<path fill-rule="evenodd" clip-rule="evenodd" d="M8 8H88V88H8V8Z" fill="white"/>
<path fill-rule="evenodd" clip-rule="evenodd" d="M8 8H88V88H8V8Z" fill="white"/>
<path fill-rule="evenodd" clip-rule="evenodd" d="M82.6304 57.9911C82.6304 59.7089 81.5426 60.5095 79.5957 60.5095H75.8749V58.7917H79.5957C79.9393 58.7917 80.2257 58.7348 80.3407 58.6207C80.4548 58.5057 80.5694 58.3339 80.5694 58.1052C80.5694 57.8757 80.4552 57.647 80.3407 57.5329C80.2257 57.4179 79.997 57.3611 79.6534 57.3611C77.8791 57.3034 75.6458 57.4179 75.6458 54.8991C75.6458 53.7536 76.39 52.494 78.3937 52.494H82.2295V54.2118H78.6797C78.3369 54.2118 78.1074 54.2118 77.9356 54.3259C77.7637 54.4978 77.6496 54.6696 77.6496 54.956C77.6496 55.2423 77.8214 55.4141 78.0501 55.5291C78.2796 55.586 78.5087 55.6432 78.7951 55.6432H79.8252C80.913 55.6432 81.6003 55.8719 82.0585 56.2733C82.4013 56.6738 82.6304 57.1897 82.6304 57.9911ZM74.5576 56.2733C74.0994 55.8719 73.4121 55.6432 72.3243 55.6432H71.2942C71.0082 55.6432 70.7787 55.5856 70.55 55.5291C70.3205 55.4141 70.1495 55.2423 70.1495 54.956C70.1495 54.6696 70.2064 54.4978 70.4355 54.3259C70.6073 54.2118 70.836 54.2118 71.1796 54.2118H74.7294V52.494H70.8937C68.8322 52.494 68.1449 53.7536 68.1449 54.8991C68.1449 57.4175 70.3782 57.3034 72.1533 57.3611C72.4961 57.3611 72.7256 57.4179 72.8398 57.5329C72.9539 57.647 73.0693 57.8757 73.0693 58.1052C73.0693 58.3339 72.9543 58.5057 72.8398 58.6207C72.668 58.7348 72.4393 58.7917 72.0956 58.7917H68.374V60.5095H72.0956C74.0417 60.5095 75.1299 59.7085 75.1299 57.9911C75.1299 57.1897 74.9013 56.6738 74.5576 56.2733ZM67.229 58.8498H62.7068V57.2465H67.1148V55.6441H62.7068V54.1549H67.229V52.4948H60.8171V60.5099H67.229V58.8498ZM58.7557 52.8957C58.1256 52.5521 57.3815 52.4944 56.4082 52.4944H52.0002V60.5095H53.9463V57.5897H56.0077C56.6942 57.5897 57.0955 57.6474 57.3819 57.9334C57.7256 58.3339 57.7255 59.0212 57.7255 59.5367V60.5095H59.6144V58.9635C59.6144 58.2194 59.5575 57.8757 59.3284 57.4752C59.1566 57.2457 58.8138 56.9597 58.3556 56.7879C58.8702 56.6169 59.7297 55.9296 59.7297 54.6696C59.7293 53.754 59.3857 53.2385 58.7557 52.8957ZM47.8777 52.4944H41.7514L39.2894 55.1282L36.942 52.4944H29.2128V60.5095H36.8278L39.2898 57.8757L41.6372 60.5095H45.3588V57.8193H47.7635C49.4237 57.8193 51.0846 57.3611 51.0846 55.1282C51.0842 52.9526 49.3664 52.4944 47.8777 52.4944ZM57.2097 55.8155C56.9237 55.9296 56.6373 55.9296 56.2937 55.9296L53.9463 55.9873V54.1545H56.2937C56.6373 54.1545 56.981 54.1545 57.2097 54.3264C57.4392 54.4413 57.6102 54.67 57.6102 55.0136C57.6102 55.3573 57.4392 55.6437 57.2097 55.8155ZM47.8777 56.216H45.3584V54.1545H47.8777C48.565 54.1545 49.0227 54.4413 49.0227 55.1282C49.0227 55.8155 48.5645 56.216 47.8777 56.216ZM40.4917 56.5019L43.4688 53.3535V59.823L40.4917 56.5019ZM35.8542 58.8498H31.102V57.2465H35.3387V55.6441H31.102V54.1549H35.9114L38.0298 56.5024L35.8542 58.8498ZM77.3055 46.7117H74.5576L70.9506 40.7V46.7117H67.058L66.313 44.9367H62.3054L61.5613 46.7117H59.328C58.412 46.7117 57.2097 46.4826 56.5232 45.7954C55.8932 45.1085 55.5495 44.1925 55.5495 42.7611C55.5495 41.5587 55.7214 40.4709 56.5796 39.6122C57.152 38.9822 58.1829 38.6962 59.4994 38.6962H61.3313V40.414H59.4994C58.8129 40.414 58.4116 40.5286 58.0111 40.8722C57.6674 41.2159 57.4956 41.8455 57.4956 42.7042C57.4956 43.5629 57.6674 44.1929 58.0111 44.5938C58.2971 44.8798 58.8129 44.9943 59.3276 44.9943H60.1867L62.9346 38.6966H65.7975L69.0036 46.254V38.6962H71.9811L75.359 44.2498V38.6962H77.3051V46.7117H77.3055ZM54.5763 38.6962H52.6302V46.7117H54.5763V38.6962ZM50.511 39.0399C49.881 38.6962 49.1946 38.6962 48.2213 38.6962H43.8124V46.7117H45.7016V43.7916H47.7627C48.45 43.7916 48.9082 43.8489 49.1941 44.1352C49.5378 44.5361 49.4801 45.2234 49.4801 45.6812V46.7117H51.4262V45.1085C51.4262 44.4216 51.3693 44.0779 51.0834 43.677C50.9115 43.4479 50.5679 43.1616 50.1674 42.9902C50.682 42.7611 51.5416 42.1314 51.5416 40.8718C51.542 39.9558 51.1406 39.4404 50.511 39.0399ZM42.4382 45.0516H37.9725V43.4483H42.381V41.7882H37.9725V40.3568H42.4382V38.6966H36.026V46.7122H42.4382V45.0516ZM34.5945 38.6962H31.4457L29.0983 44.1352L26.579 38.6962H23.4874V46.2536L20.224 38.6962H17.3616L13.9263 46.7117H15.9874L16.7315 44.9367H20.7391L21.4833 46.7117H25.3767V40.414L28.1819 46.7117H29.842L32.6476 40.414V46.7117H34.5941V38.6962H34.5945ZM65.6265 43.2192L64.3092 40.0704L62.9927 43.2192H65.6265ZM49.0227 41.96C48.7368 42.1319 48.4504 42.1319 48.0495 42.1319H45.7016V40.3572H48.0491C48.3927 40.3572 48.7928 40.3572 49.0223 40.4717C49.251 40.6436 49.366 40.8727 49.366 41.2159C49.366 41.5591 49.2514 41.8451 49.0227 41.96ZM17.4184 43.2192L18.7353 40.0704L20.0522 43.2192H17.4184ZM82.1726 13.5619H13.8687V42.4178L16.2161 37.0934H21.1969L21.8842 38.4103V37.0934H27.7241L29.041 39.9558L30.3006 37.0934H48.9082C49.7665 37.0934 50.5106 37.2652 51.0838 37.723V37.0934H56.1791V37.723C57.0374 37.2648 58.1252 37.0934 59.3853 37.0934H66.7708L67.4581 38.4103V37.0934H72.8971L73.6989 38.4103V37.0934H79.0229V48.315H73.6416L72.6115 46.5976V48.315H65.9125L65.1683 46.4831H63.5074L62.7632 48.315H59.2711C57.897 48.315 56.866 47.9714 56.1796 47.6281V48.315H47.8777V45.7385C47.8777 45.3948 47.8204 45.3376 47.5913 45.3376H47.3053V48.3146H31.2739V46.8832L30.7015 48.3146H27.3236L26.7513 46.9404V48.3146H20.2813L19.5944 46.4827H17.9339L17.1897 48.3146H13.8687V82.1518H82.1726V61.5973C81.4285 61.9409 80.3975 62.1128 79.367 62.1128H74.3858V61.4255C73.8134 61.8841 72.7825 62.1128 71.8097 62.1128H56.1219V59.5367C56.1219 59.193 56.065 59.193 55.7782 59.193H55.4923V62.1128H50.3392V59.0785C49.4809 59.479 48.5073 59.479 47.6486 59.479H47.0758V62.1128H40.7781L39.2898 60.395L37.6297 62.1128H27.495V50.8915H37.8007L39.2894 52.6085L40.8927 50.8915H47.8204C48.6214 50.8915 49.9387 51.0057 50.511 51.578V50.8915H56.6942C57.3242 50.8915 58.527 51.0057 59.328 51.578V50.8915H68.6604V51.5784C69.1759 51.1202 70.1495 50.892 71.0078 50.892H76.2177V51.5784C76.7909 51.1779 77.5919 50.892 78.6228 50.892H82.1726V13.5619Z" fill="#0077A6"/>
</svg>
