<svg width="80" height="80" viewBox="0 0 80 80" fill="none" xmlns="http://www.w3.org/2000/svg">
<rect width="80" height="80" fill="white"/>
<path d="M58.6857 10C50.609 10 44.0285 16.569 44.0285 24.631V37.7219C44.0286 38.5284 44.7636 39.262 45.5714 39.2621H58.6857C66.7623 39.2621 73.3428 32.6934 73.3428 24.631C73.3428 16.569 66.7623 10 58.6857 10ZM58.6857 13.0802C65.0947 13.0802 70.2571 18.2335 70.2571 24.631C70.2571 31.0287 65.0947 36.1818 58.6857 36.1818H47.1143V24.631C47.1143 18.2335 52.2767 13.0802 58.6857 13.0802ZM58.6857 15.7754C55.4071 15.8379 53.3252 18.247 53.2857 21.1658C53.2742 21.9795 54.0133 22.7278 54.8285 22.7278C55.6437 22.7278 56.3829 21.9795 56.3714 21.1658C56.4471 19.6931 57.454 18.8708 58.6857 18.8556C60.1679 18.943 60.9862 19.9386 61 21.1658C60.7051 22.8212 59.4054 23.6989 57.9866 24.4145C57.4824 24.6703 57.1433 25.2216 57.1428 25.7861V28.0963C57.1313 28.9099 57.8705 29.6583 58.6857 29.6583C59.5009 29.6583 60.24 28.9099 60.2285 28.0963V26.5802C62.3275 25.4716 64.045 23.295 64.0857 21.1658C64.0857 17.7629 61.6096 15.8148 58.6857 15.7754ZM28.6 17.7969C20.2457 17.7969 15.2007 25.6341 16.8357 33.0776C16.1323 33.5097 15.9279 34.4137 15.775 35.0989C15.744 37.5487 16.8471 40.1744 18.6678 41.6685C18.9883 41.9247 19.3395 42.0417 19.6803 42.1498L20.8857 45.7353V48.7434C15.9943 50.1779 11.1895 52.5106 7.81964 55.8905C7.44217 56.3147 7 56.6596 7 57.6712V62.3636C7.00008 63.17 7.73504 63.9037 8.54286 63.9038L48.6571 64C49.473 64 50.2126 63.2502 50.2 62.4359L50.1035 57.6712C50.0997 56.9195 49.7026 56.3614 49.308 55.8907C45.5966 52.7131 40.8706 49.6412 36.3143 48.7436V45.7355L37.5196 42.15C37.8604 42.0419 38.2117 41.925 38.5321 41.6687C40.2429 39.8205 41.6997 37.5497 41.425 35.0992C41.2592 34.1481 40.9359 33.6544 40.3643 33.1018C41.7143 25.4635 37.0857 17.7629 28.6 17.7969ZM28.6 20.877C35.4402 20.877 39.1733 27.4406 37.158 33.4626C36.8828 34.2938 37.4773 35.299 38.3393 35.46C38.3104 37.0597 37.5085 38.2744 36.3143 39.3104C35.6682 39.3104 35.0456 39.7566 34.8437 40.3692L33.3009 44.9895C33.2515 45.1447 33.227 45.3079 33.2285 45.4708V50.0671C33.2286 50.8735 33.9636 51.6071 34.7714 51.6072C39.4265 52.7944 43.684 54.9123 46.9937 57.912C47.0717 58.8545 47.066 59.9336 47.0901 60.9196L10.0856 60.8233V58.0079C13.4728 55.3656 17.9606 51.7898 22.4285 51.6068C23.2363 51.6067 23.9713 50.8731 23.9713 50.0667V45.4704C23.973 45.3075 23.9484 45.1443 23.899 44.9891L22.3562 40.3689C22.1542 39.7563 21.5316 39.3081 20.8856 39.3101C19.6013 38.4113 18.9899 36.9518 18.8365 35.4595C19.707 35.3103 20.3167 34.3 20.0419 33.4621C17.8 27.7736 21.6571 20.8432 28.6 20.877ZM58.6857 30.4064C57.8336 30.4064 57.1428 31.096 57.1428 31.9465C57.1428 32.7971 57.8336 33.4866 58.6857 33.4866C59.5378 33.4866 60.2285 32.7971 60.2285 31.9465C60.2285 31.096 59.5378 30.4064 58.6857 30.4064Z" fill="#5FCF9D"/>
</svg>
