<svg width="80" height="80" viewBox="0 0 80 80" fill="none" xmlns="http://www.w3.org/2000/svg">
<rect width="80" height="80" fill="white"/>
<path d="M47.3532 48.8748C49.2928 46.4176 50.8309 43.6512 51.9068 40.6844H54.0466C55.9351 40.6844 57.1556 39.1949 57.1556 36.8901V34.8408C57.1562 34.2057 56.9162 33.5954 56.4868 33.1397C56.0574 32.6841 55.4724 32.4189 54.8562 32.4007C56.008 30.3893 56.613 28.0956 56.6077 25.7602C56.6023 23.4249 55.9867 21.1341 54.8256 19.1284C52.0529 14.9154 48.3653 12.4858 44.1604 12.0962C37.2518 11.4582 34.5731 14.1502 33.6673 15.5266C32.0343 15.0611 30.2975 15.1665 28.7288 15.8263C27.0165 16.4878 25.5736 17.7296 24.637 19.3477C24.5763 19.4474 24.5357 19.5588 24.5177 19.6751C24.4998 19.7914 24.5048 19.9103 24.5325 20.0246C24.5602 20.1388 24.61 20.2462 24.679 20.3401C24.7479 20.4341 24.8345 20.5127 24.9337 20.5713C25.0329 20.6299 25.1425 20.6673 25.256 20.6813C25.3695 20.6952 25.4846 20.6853 25.5943 20.6523C25.7041 20.6193 25.8062 20.5638 25.8946 20.4891C25.9831 20.4145 26.0559 20.3222 26.1089 20.2178C26.8587 18.931 28.0157 17.9495 29.3854 17.4383C30.7722 16.8627 32.3179 16.8427 33.7183 17.3823C33.8249 17.4316 33.9402 17.4578 34.057 17.4592C34.1739 17.4606 34.2898 17.4372 34.3974 17.3905C34.5051 17.3438 34.6023 17.2747 34.683 17.1876C34.7637 17.1005 34.8261 16.9973 34.8663 16.8843C34.8799 16.8469 36.2827 13.1215 44.0076 13.8353C47.7438 14.1852 50.906 16.2906 53.4183 20.1058C54.5175 22.0601 55.0245 24.3083 54.8742 26.5617C54.7239 28.8151 53.9232 30.9707 52.5748 32.7518C52.4959 32.8542 52.441 32.9739 52.414 33.1017L52.3382 33.4516C51.8908 35.3939 51.327 37.3058 50.6501 39.1763L45.8213 41.6128C45.3925 41.2736 44.8675 41.0888 44.3268 41.0868C43.8342 41.0868 43.3526 41.2373 42.943 41.5193C42.5334 41.8012 42.2142 42.202 42.0256 42.6709C41.8371 43.1397 41.7878 43.6557 41.8839 44.1535C41.98 44.6512 42.2172 45.1085 42.5656 45.4673C42.9139 45.8262 43.3577 46.0706 43.8409 46.1696C44.3241 46.2686 44.8249 46.2178 45.28 46.0236C45.7352 45.8294 46.1242 45.5005 46.3979 45.0785C46.6716 44.6565 46.8176 44.1604 46.8176 43.6529C46.8163 43.4615 46.7939 43.271 46.7509 43.0848L49.6787 41.6082C48.7614 43.818 47.5413 45.8809 46.0557 47.734C45.3438 48.7089 44.4335 49.5116 43.3888 50.0858C42.344 50.66 41.19 50.9919 40.0076 51.0582C38.941 51.0466 37.8879 50.812 36.9119 50.3687C35.9359 49.9254 35.0574 49.2827 34.3297 48.4794C32.0835 45.914 30.4296 42.8584 29.4918 39.5413C28.8483 37.4967 28.3808 35.3976 28.0947 33.2685C28.0945 33.2271 28.0915 33.1858 28.0857 33.1449C28.0676 33.0189 28.0517 32.8929 28.037 32.7681C28.3404 32.9545 28.6537 33.1232 28.9756 33.2732C29.0797 33.3222 29.1873 33.3665 29.2937 33.412C29.5303 33.5158 29.7704 33.6138 30.0194 33.7036C30.1417 33.7479 30.264 33.791 30.3885 33.833C30.6467 33.9182 30.9082 33.9952 31.1731 34.0663C31.2864 34.0955 31.3894 34.1281 31.4992 34.1561C31.8717 34.2483 32.2476 34.3311 32.6235 34.3976C32.6631 34.4046 32.7005 34.4081 32.7367 34.4151C33.0763 34.4718 33.4126 34.5185 33.7455 34.555C33.8643 34.569 33.9787 34.5772 34.0953 34.5877C34.3519 34.611 34.6037 34.6277 34.8505 34.6378C34.9705 34.6378 35.0871 34.6472 35.2037 34.6495C35.283 34.6495 35.3679 34.6565 35.4471 34.6565C35.6102 34.6565 35.7607 34.646 35.9181 34.6402C36.0189 34.6402 36.123 34.6402 36.2204 34.6297C36.5397 34.6087 36.8454 34.5784 37.1262 34.5317C37.3042 34.5018 37.4685 34.4143 37.595 34.2819C37.7216 34.1494 37.8039 33.9788 37.83 33.7949C37.8561 33.611 37.8247 33.4233 37.7403 33.259C37.6558 33.0947 37.5228 32.9624 37.3605 32.8813C36.4795 32.4302 35.7854 31.6676 35.4052 30.7328C36.1001 31.1988 36.821 31.6222 37.5643 32.0006C40.4053 33.5785 43.7142 34.0121 46.8482 33.2172L49.3277 32.6223C49.9025 32.4762 50.5032 32.4762 51.0781 32.6223C51.1847 32.6562 51.2967 32.6681 51.4078 32.6573C51.5188 32.6466 51.6267 32.6134 51.7254 32.5597C51.824 32.5059 51.9114 32.4327 51.9825 32.3442C52.0537 32.2557 52.1072 32.1536 52.14 32.0438C52.1729 31.934 52.1844 31.8186 52.174 31.7041C52.1636 31.5897 52.1314 31.4785 52.0792 31.3769C52.0271 31.2754 51.956 31.1853 51.8701 31.112C51.7842 31.0387 51.6851 30.9836 51.5785 30.9497C50.727 30.7162 49.8328 30.7014 48.9745 30.9066L46.4746 31.5061C43.7228 32.2155 40.8127 31.832 38.3229 30.4318C36.9541 29.746 35.6754 28.8838 34.5176 27.8658C34.3874 27.7519 34.2268 27.6811 34.0569 27.6628C33.887 27.6445 33.7157 27.6795 33.5654 27.7633C33.4151 27.847 33.2929 27.9755 33.2147 28.132C33.1365 28.2885 33.1061 28.4656 33.1273 28.6403C33.1765 29.0602 33.2491 29.4769 33.3447 29.8883C33.5767 30.9791 34.0407 32.0033 34.7033 32.8871C32.3868 32.7518 29.596 32.0135 28.2351 30.7806C28.0498 30.6165 27.8851 30.4292 27.7449 30.2231C27.6423 30.0693 27.4946 29.9534 27.3235 29.8922C27.1524 29.8311 26.9668 29.8279 26.7938 29.8831C26.6208 29.9384 26.4695 30.0491 26.362 30.1993C26.2544 30.3494 26.1963 30.531 26.1961 30.7176C26.1961 30.7771 26.1961 30.8343 26.1961 30.8984C25.0548 29.1885 24.894 27.1905 25.0571 24.4984C25.1092 23.7869 25.2337 22.8818 25.3005 22.5459C25.3266 22.4319 25.3302 22.3137 25.3111 22.1983C25.292 22.0829 25.2507 21.9725 25.1894 21.8739C25.1282 21.7752 25.0484 21.6903 24.9547 21.624C24.861 21.5577 24.7553 21.5115 24.6439 21.488C24.5326 21.4646 24.4178 21.4645 24.3063 21.4876C24.1949 21.5107 24.0891 21.5566 23.9953 21.6227C23.9014 21.6887 23.8213 21.7734 23.7599 21.8719C23.6984 21.9704 23.6567 22.0806 23.6373 22.196C23.511 22.9183 23.4199 23.6466 23.3645 24.3783C23.1686 27.636 23.4686 30.2196 25.2314 32.4427C24.6908 32.5508 24.2034 32.8488 23.8523 33.286C23.5013 33.7231 23.3084 34.2723 23.3067 34.8396V36.8843C23.3067 39.1938 24.5272 40.6856 26.4168 40.6856H28.0698C29.1011 44.0714 30.8499 47.1789 33.1896 49.7834C33.5371 50.134 33.9062 50.4613 34.2946 50.7631V52.0462L31.5977 52.7705L20.0494 55.8684C17.1839 56.6627 15.3837 58.4753 14.9795 60.9725L14.0115 66.9666C13.9746 67.1955 14.0274 67.4302 14.1584 67.6189C14.2894 67.8077 14.4879 67.9351 14.7101 67.9732C14.9323 68.0112 15.16 67.9568 15.3433 67.8218C15.5265 67.6869 15.6502 67.4824 15.6871 67.2535L16.6563 61.2595C16.8681 60.3219 17.3449 59.4701 18.0264 58.8116C18.7079 58.1531 19.5636 57.7175 20.4853 57.5597L30.384 54.9062L28.4253 59.805C28.3768 59.927 28.3557 60.0588 28.3635 60.1904C28.3713 60.3221 28.4078 60.4502 28.4704 60.5652C28.533 60.6803 28.62 60.7793 28.7249 60.8549C28.8298 60.9304 28.95 60.9806 29.0763 61.0017L32.1332 61.5079L31.6554 62.2299C31.5475 62.3948 31.4972 62.5927 31.5131 62.791C31.5289 62.9892 31.6099 63.176 31.7426 63.3205L35.7551 67.7108C35.8309 67.7968 35.9226 67.8665 36.0248 67.9156C36.1271 67.9648 36.2378 67.9924 36.3505 67.997C36.4632 68.0016 36.5757 67.9829 36.6814 67.9422C36.7871 67.9015 36.8838 67.8395 36.9659 67.7598C37.0481 67.6802 37.114 67.5844 37.1598 67.4782C37.2056 67.372 37.2305 67.2575 37.2328 67.1413C37.2352 67.0251 37.2151 66.9096 37.1736 66.8015C37.1322 66.6934 37.0702 66.5949 36.9914 66.5117L33.4409 62.6335L34.2889 61.3504C34.3694 61.2288 34.4189 61.0882 34.4326 60.9416C34.4463 60.7951 34.424 60.6473 34.3675 60.512C34.311 60.3767 34.2224 60.2583 34.1097 60.1678C33.997 60.0772 33.8639 60.0174 33.7228 59.9939L30.4021 59.4446L32.4401 54.351L34.5912 53.7736L39.0622 67.3912C39.1192 67.5641 39.2272 67.7143 39.3711 67.8209C39.515 67.9276 39.6877 67.9853 39.8649 67.986C40.0415 67.9859 40.2137 67.9291 40.3576 67.8235C40.5014 67.718 40.6098 67.5689 40.6676 67.397L45.245 53.7129L47.1607 54.2366L49.5507 59.4562L46.2844 59.9963C46.1433 60.0198 46.0102 60.0795 45.8975 60.1701C45.7848 60.2607 45.6962 60.3791 45.6397 60.5144C45.5833 60.6496 45.5609 60.7974 45.5746 60.944C45.5883 61.0905 45.6378 61.2311 45.7183 61.3528L46.5663 62.6358L43.0214 66.514C42.9426 66.5972 42.8807 66.6957 42.8392 66.8038C42.7978 66.9119 42.7776 67.0274 42.78 67.1436C42.7824 67.2598 42.8072 67.3744 42.853 67.4806C42.8989 67.5868 42.9648 67.6825 43.0469 67.7622C43.1291 67.8418 43.2258 67.9038 43.3315 67.9446C43.4371 67.9853 43.5496 68.0039 43.6624 67.9993C43.7751 67.9948 43.8858 67.9671 43.988 67.9179C44.0903 67.8688 44.182 67.7992 44.2578 67.7131L48.2725 63.3205C48.4051 63.1753 48.4856 62.9878 48.5006 62.789C48.5156 62.5903 48.4643 62.3922 48.3552 62.2276L47.8774 61.5056L50.9343 60.9994C51.0641 60.9777 51.1874 60.9253 51.2942 60.8462C51.4011 60.7672 51.4887 60.6637 51.5502 60.5438C51.6116 60.424 51.6452 60.2911 51.6484 60.1556C51.6515 60.0201 51.6241 59.8857 51.5683 59.763L49.3039 54.8175L54.1791 56.1437C54.2892 56.1818 54.4058 56.1962 54.5215 56.186C54.6372 56.1758 54.7497 56.1413 54.852 56.0845C54.9543 56.0278 55.0441 55.95 55.116 55.856C55.188 55.762 55.2404 55.6539 55.2701 55.5382C55.2999 55.4225 55.3062 55.3018 55.2888 55.1834C55.2715 55.0651 55.2307 54.9517 55.1691 54.8503C55.1075 54.7489 55.0263 54.6615 54.9306 54.5937C54.8349 54.5259 54.7267 54.479 54.6127 54.4559L47.9827 52.6539H47.9747L45.5553 51.9855V50.6582C46.2048 50.1199 46.8065 49.523 47.3532 48.8748ZM53.9266 34.1433H54.7939C54.8821 34.1444 54.9692 34.1633 55.0502 34.1991C55.1313 34.2348 55.2047 34.2867 55.2663 34.3516C55.3279 34.4166 55.3765 34.4935 55.4093 34.5778C55.4421 34.6621 55.4584 34.7523 55.4573 34.8431V36.8901C55.4573 37.8232 55.2139 38.9348 54.0466 38.9348H52.5454C53.2824 36.7688 53.733 34.9773 53.9266 34.1433ZM44.3291 44.4798C44.1724 44.4798 44.0191 44.4319 43.8888 44.3422C43.7585 44.2525 43.6569 44.125 43.5969 43.9758C43.5369 43.8266 43.5212 43.6624 43.5518 43.5041C43.5824 43.3457 43.6579 43.2002 43.7687 43.086C43.8795 42.9718 44.0208 42.8941 44.1745 42.8626C44.3282 42.8311 44.4876 42.8472 44.6324 42.909C44.7772 42.9708 44.901 43.0755 44.9881 43.2097C45.0752 43.344 45.1216 43.5019 45.1216 43.6633C45.1216 43.8799 45.0381 44.0876 44.8895 44.2407C44.7409 44.3938 44.5393 44.4798 44.3291 44.4798ZM25.0129 36.8843V34.8396C25.0129 34.654 25.0845 34.476 25.2119 34.3448C25.3393 34.2135 25.5121 34.1398 25.6922 34.1398H26.5199C26.7635 35.7581 27.108 37.3586 27.5513 38.9313H26.4214C25.1963 38.936 25.0129 37.6506 25.0129 36.8843ZM43.8525 52.5139L39.8751 64.4029L36.0008 52.5897V51.8549C37.2493 52.4803 38.6192 52.8061 40.0076 52.8078C41.3503 52.8051 42.672 52.4635 43.857 51.8129L43.8525 52.5139Z" fill="#5FCF9D"/>
<path d="M65.0297 61.0038C64.7616 59.7278 64.1333 58.5619 63.2237 57.6527C62.3142 56.7435 61.1641 56.1316 59.9179 55.8939L57.9253 55.3515C57.8167 55.3197 57.7031 55.3105 57.5911 55.3244C57.479 55.3384 57.3708 55.3752 57.2727 55.4327C57.1746 55.4903 57.0887 55.5674 57.0198 55.6595C56.951 55.7517 56.9007 55.8571 56.8719 55.9695C56.8431 56.0819 56.8363 56.1991 56.852 56.3143C56.8676 56.4294 56.9054 56.5402 56.9631 56.6402C57.0208 56.7401 57.0973 56.8272 57.188 56.8963C57.2788 56.9654 57.382 57.0152 57.4917 57.0428L59.499 57.5886C60.4254 57.7411 61.2865 58.1749 61.9723 58.8344C62.658 59.4939 63.1372 60.3491 63.3485 61.2908L64.3131 67.2545C64.35 67.4834 64.4737 67.6878 64.6569 67.8228C64.8402 67.9578 65.0679 68.0122 65.2901 67.9742C65.5123 67.9361 65.7108 67.8087 65.8418 67.6199C65.9728 67.4311 66.0256 67.1965 65.9887 66.9676L65.0297 61.0038Z" fill="#5FCF9D"/>
</svg>
