<svg width="80" height="80" viewBox="0 0 80 80" fill="none" xmlns="http://www.w3.org/2000/svg">
<rect width="80" height="80" fill="white"/>
<path d="M39.9141 44.795C37.4453 44.795 35.2463 43.8546 33.3765 42.0002C29.6259 38.2788 27.918 31.3877 27.918 26.5596C27.918 26.0388 28.3397 25.6165 28.8606 25.6165C29.3814 25.6165 29.8032 26.0388 29.8032 26.5596C29.8032 31.1504 31.4869 37.4689 34.7056 40.6612C36.2241 42.1676 38.0311 42.9197 39.9758 42.9087C47.6223 42.8481 50.1957 31.6558 50.1957 26.5596C50.1957 26.0388 50.6175 25.6165 51.1383 25.6165C51.6592 25.6165 52.0809 26.0388 52.0809 26.5596C52.0809 32.4778 49.1265 44.7223 39.9912 44.7939C39.9648 44.7939 39.9394 44.795 39.9141 44.795Z" fill="#5FCF9D"/>
<path d="M34.0744 45.9441C34.0171 45.9441 33.9588 45.9397 33.8993 45.9287C33.3884 45.8329 33.0503 45.3396 33.1461 44.8275C33.3201 43.9036 33.254 42.7056 33.1648 41.4569C33.1274 40.9371 33.5183 40.4867 34.0381 40.4493C34.5501 40.3975 35.0082 40.8028 35.0456 41.3225C35.1436 42.7001 35.2141 44.0303 35.0005 45.1755C34.9157 45.6281 34.5193 45.9441 34.0744 45.9441Z" fill="#5FCF9D"/>
<path d="M62.2619 67.9994C61.741 67.9994 61.3193 67.5776 61.3193 67.0568C61.3193 62.7391 60.5199 58.5734 59.0674 55.3282C58.8549 54.8525 59.0685 54.2942 59.5431 54.0817C60.0188 53.8725 60.576 54.0817 60.7896 54.5574C62.3467 58.0404 63.2045 62.4792 63.2045 67.0568C63.2045 67.5776 62.7828 67.9994 62.2619 67.9994ZM46.8874 47.9262C46.6495 47.9262 46.4128 47.8381 46.2289 47.6586C44.6333 46.1037 44.7974 43.6426 44.9559 41.263C44.9901 40.7443 45.4548 40.3314 45.9591 40.3854C46.4788 40.4195 46.872 40.8688 46.8367 41.3885C46.6771 43.788 46.6407 45.4265 47.5459 46.3086C47.9181 46.6719 47.9258 47.2688 47.5624 47.6421C47.3774 47.8315 47.1329 47.9262 46.8874 47.9262Z" fill="#5FCF9D"/>
<path d="M62.2649 67.9999H40.6897C40.1688 67.9999 39.7471 67.5782 39.7471 67.0573C39.7471 66.5365 40.1688 66.1147 40.6897 66.1147H62.2649C62.7857 66.1147 63.2075 66.5365 63.2075 67.0573C63.2075 67.5782 62.7857 67.9999 62.2649 67.9999Z" fill="#5FCF9D"/>
<path d="M51.1372 27.5026C51.1295 27.5026 51.1207 27.502 51.113 27.502C46.792 27.3897 42.8068 25.216 39.4769 23.104C36.7724 21.3641 33.4381 22.7329 29.5708 27.1783C29.3836 27.3941 29.138 27.5202 28.8209 27.5015C28.5357 27.4899 28.2703 27.349 28.1007 27.1188C26.1627 24.4898 25.3401 21.8646 25.6539 19.3165C25.6969 18.9685 25.9292 18.6734 26.2563 18.5495C27.755 17.9835 28.9574 17.6152 29.9121 17.4313C31.0893 15.0225 32.4096 13.4842 33.9424 12.7348C34.0999 12.6577 34.2761 12.6258 34.4534 12.644C36.1337 12.818 37.432 13.3278 38.3284 14.1636C40.0264 13.0921 41.7134 12.3885 43.4642 12.0202C43.6812 11.9745 43.9091 12.0069 44.1051 12.1127C46.5409 13.4241 47.8909 14.827 48.2059 16.3802C50.5381 16.9094 52.3165 17.7743 53.4981 18.9564C53.726 19.1844 53.8218 19.5125 53.7525 19.8269C53.1369 22.6096 52.5467 25.0255 52.0445 26.8138C51.9311 27.2218 51.5589 27.5026 51.1372 27.5026ZM37.0797 20.4837C38.4396 20.4837 39.5793 20.927 40.4922 21.515C44.5489 24.0879 47.5771 25.3327 50.4291 25.5761C50.8421 24.0383 51.3079 22.1201 51.7924 19.9535C50.7518 19.1023 49.1958 18.4758 47.1576 18.0887C46.705 18.0023 46.3812 17.602 46.3911 17.1417C46.4187 15.8814 44.9079 14.7312 43.516 13.9417C41.8918 14.3321 40.3105 15.0665 38.6951 16.1804C38.4892 16.3224 38.2359 16.378 37.9881 16.3312C37.7426 16.2855 37.5245 16.144 37.3825 15.9381C36.8715 15.1932 35.9399 14.7389 34.5393 14.5528C33.4216 15.2047 32.37 16.5895 31.4097 18.6751C31.2743 18.9691 30.9979 19.1728 30.6775 19.2157C29.911 19.3176 28.8363 19.6177 27.4797 20.1077C27.4125 21.711 27.9014 23.3363 28.964 25.0393C32.2059 21.6031 34.9203 20.4837 37.0797 20.4837Z" fill="#5FCF9D"/>
<path d="M37.0118 53.7759C36.4909 53.7759 36.0692 53.3541 36.0692 52.8333C36.0692 50.621 34.2831 48.8217 32.0885 48.8217C29.8938 48.8217 28.1088 50.621 28.1088 52.8333C28.1088 53.3541 27.6871 53.7759 27.1662 53.7759C26.6454 53.7759 26.2236 53.3541 26.2236 52.8333C26.2236 49.5815 28.8543 46.9365 32.0885 46.9365C35.3226 46.9365 37.9544 49.5815 37.9544 52.8333C37.9544 53.3541 37.5326 53.7759 37.0118 53.7759Z" fill="#5FCF9D"/>
<path d="M12.9426 53.7759C12.4217 53.7759 12 53.3541 12 52.8333C12 49.5815 14.6307 46.9365 17.8648 46.9365C18.3857 46.9365 18.8074 47.3583 18.8074 47.8791C18.8074 48.4 18.3857 48.8217 17.8648 48.8217C15.6702 48.8217 13.8852 50.621 13.8852 52.8333C13.8852 53.3541 13.4635 53.7759 12.9426 53.7759Z" fill="#5FCF9D"/>
<path d="M27.1664 53.7758H12.9426C12.4217 53.7758 12 53.3541 12 52.8332C12 52.3124 12.4217 51.8906 12.9426 51.8906H27.1664C27.6873 51.8906 28.109 52.3124 28.109 52.8332C28.109 53.3541 27.6873 53.7758 27.1664 53.7758Z" fill="#5FCF9D"/>
<path d="M32.0893 48.8217H17.8655C17.3446 48.8217 16.9229 48.4 16.9229 47.8791C16.9229 47.3583 17.3446 46.9365 17.8655 46.9365H32.0893C32.6101 46.9365 33.0319 47.3583 33.0319 47.8791C33.0319 48.4 32.6101 48.8217 32.0893 48.8217Z" fill="#5FCF9D"/>
<path d="M37.0129 67.9996C36.4921 67.9996 36.0703 67.5779 36.0703 67.057V52.8332C36.0703 52.3124 36.4921 51.8906 37.0129 51.8906C37.5338 51.8906 37.9555 52.3124 37.9555 52.8332V67.057C37.9555 67.5779 37.5338 67.9996 37.0129 67.9996Z" fill="#5FCF9D"/>
<path d="M16.7141 67.9996C16.1932 67.9996 15.7715 67.5779 15.7715 67.057V52.8332C15.7715 52.3124 16.1932 51.8906 16.7141 51.8906C17.2349 51.8906 17.6567 52.3124 17.6567 52.8332V67.057C17.6567 67.5779 17.2349 67.9996 16.7141 67.9996Z" fill="#5FCF9D"/>
<path d="M45.9285 63.0137C45.7897 63.0137 45.6477 62.9829 45.5144 62.9179C45.0464 62.6889 44.8537 62.1229 45.0828 61.656C50.1195 51.3887 57.3619 43.6563 66.6106 38.6746C67.0676 38.4279 67.6413 38.5991 67.888 39.0578C68.1347 39.5159 67.9629 40.0885 67.5048 40.3351C58.6095 45.1263 51.6358 52.579 46.7764 62.4862C46.6123 62.8199 46.2775 63.0137 45.9285 63.0137Z" fill="#5FCF9D"/>
<path d="M49.7258 56.4284C49.7038 56.4284 49.684 56.4284 49.6631 56.4284C49.2413 56.4262 48.8724 56.1454 48.759 55.7391C47.7195 52.0116 48.0708 48.7962 49.8029 46.1809C52.4314 42.2112 58.0353 39.7215 66.9349 38.5696C67.284 38.5234 67.6143 38.6715 67.8181 38.9484C68.0207 39.227 68.0559 39.5937 67.9095 39.9054C62.7549 50.8697 56.6368 56.4284 49.7258 56.4284ZM65.4296 40.6916C58.2103 41.8412 53.4852 44.0348 51.3754 47.2215C50.0452 49.229 49.7225 51.6229 50.3942 54.5223C55.9254 54.1765 60.9754 49.5296 65.4296 40.6916Z" fill="#5FCF9D"/>
<path d="M40.3661 51.3786C40.1767 51.3786 39.9631 51.3786 39.7219 51.3191C39.2176 51.1925 38.9104 50.6804 39.0359 50.175C39.1625 49.6684 39.6713 49.3645 40.18 49.489C40.2329 49.4989 40.2956 49.4934 40.3661 49.4934C42.6202 49.4934 44.8214 48.3272 46.1098 46.4497C46.4049 46.0225 46.9885 45.9102 47.4213 46.2064C47.8496 46.5015 47.9598 47.0884 47.6647 47.5179C46.0052 49.9349 43.2765 51.3786 40.3661 51.3786Z" fill="#5FCF9D"/>
<path d="M53.7619 67.9996C53.2411 67.9996 52.8193 67.5778 52.8193 67.057V63.509C52.8193 62.9882 53.2411 62.5664 53.7619 62.5664C54.2828 62.5664 54.7045 62.9882 54.7045 63.509V67.057C54.7045 67.5778 54.2828 67.9996 53.7619 67.9996Z" fill="#5FCF9D"/>
</svg>
