<svg width="72" height="49" viewBox="0 0 72 49" fill="none" xmlns="http://www.w3.org/2000/svg">
<path d="M57.904 48.176H14.096C6.84796 48.176 0.959961 42.288 0.959961 35.04C0.959961 29.152 4.86396 24.048 10.432 22.448C11.76 18.848 14.864 16.24 18.592 15.536C19.584 6.81599 27.008 0.0159912 36 0.0159912C43.152 0.0159912 49.6 4.44799 52.24 10.992C59.936 11.44 66.112 17.6 66.624 25.28C69.44 27.776 71.04 31.28 71.04 35.056C71.04 42.272 65.152 48.176 57.904 48.176ZM20.672 19.696C17.616 19.696 14.992 21.776 14.288 24.768L13.968 26.176L12.544 26.432C8.36796 27.184 5.34396 30.8 5.34396 35.024C5.34396 39.856 9.27996 43.792 14.112 43.792H57.92C62.752 43.792 66.688 39.856 66.688 35.024C66.688 32.288 65.408 29.744 63.184 28.064L62.32 27.408V26.144C62.32 20.224 57.408 15.312 51.36 15.312L49.12 15.424L48.624 13.776C46.992 8.23999 41.808 4.36799 36.032 4.36799C28.784 4.36799 22.896 10.256 22.896 17.504V19.696H20.672Z" fill="#666C7D"/>
<path d="M38.1921 20.64H33.8081V39.408H38.1921V20.64Z" fill="#666C7D"/>
<path d="M43.216 30.016L36 22.8L28.784 30.016L25.696 26.912L36 16.608L46.304 26.912L43.216 30.016Z" fill="#666C7D"/>
</svg>
