<svg width="288" height="48" viewBox="0 0 288 48" fill="none" xmlns="http://www.w3.org/2000/svg">
<rect width="288" height="48" rx="4" fill="#3B5998"/>
<path d="M90.552 31H92.408V25.928H96.76V24.376H92.408V20.776H97.528V19.208H90.552V31ZM100.91 31.208C101.966 31.208 102.91 30.68 103.71 29.992H103.774L103.918 31H105.422V25.704C105.422 23.368 104.414 21.976 102.222 21.976C100.814 21.976 99.5815 22.552 98.6695 23.128L99.3575 24.376C100.11 23.896 100.974 23.48 101.902 23.48C103.198 23.48 103.566 24.376 103.582 25.4C99.9175 25.8 98.3175 26.776 98.3175 28.664C98.3175 30.216 99.3895 31.208 100.91 31.208ZM101.47 29.752C100.686 29.752 100.094 29.4 100.094 28.536C100.094 27.544 100.974 26.872 103.582 26.568V28.728C102.862 29.384 102.238 29.752 101.47 29.752ZM111.617 31.208C112.625 31.208 113.665 30.84 114.481 30.12L113.713 28.904C113.185 29.352 112.529 29.704 111.793 29.704C110.337 29.704 109.313 28.472 109.313 26.6C109.313 24.744 110.369 23.496 111.857 23.496C112.449 23.496 112.945 23.752 113.425 24.184L114.337 22.984C113.697 22.424 112.881 21.976 111.761 21.976C109.441 21.976 107.409 23.672 107.409 26.6C107.409 29.528 109.233 31.208 111.617 31.208ZM119.54 31.208C120.692 31.208 121.7 30.824 122.516 30.28L121.876 29.112C121.236 29.528 120.564 29.768 119.78 29.768C118.26 29.768 117.204 28.76 117.06 27.08H122.772C122.82 26.856 122.868 26.504 122.868 26.136C122.868 23.656 121.604 21.976 119.268 21.976C117.22 21.976 115.252 23.752 115.252 26.6C115.252 29.512 117.156 31.208 119.54 31.208ZM117.044 25.8C117.22 24.264 118.196 23.416 119.3 23.416C120.58 23.416 121.268 24.296 121.268 25.8H117.044ZM129.019 31.208C131.003 31.208 132.811 29.48 132.811 26.456C132.811 23.752 131.547 21.976 129.323 21.976C128.395 21.976 127.451 22.472 126.699 23.128L126.763 21.624V18.248H124.923V31H126.363L126.539 30.088H126.587C127.339 30.792 128.219 31.208 129.019 31.208ZM128.667 29.688C128.123 29.688 127.435 29.48 126.763 28.888V24.584C127.483 23.864 128.155 23.512 128.843 23.512C130.315 23.512 130.907 24.648 130.907 26.488C130.907 28.552 129.947 29.688 128.667 29.688ZM138.506 31.208C140.682 31.208 142.65 29.528 142.65 26.6C142.65 23.672 140.682 21.976 138.506 21.976C136.33 21.976 134.362 23.672 134.362 26.6C134.362 29.528 136.33 31.208 138.506 31.208ZM138.506 29.704C137.13 29.704 136.266 28.472 136.266 26.6C136.266 24.744 137.13 23.496 138.506 23.496C139.898 23.496 140.762 24.744 140.762 26.6C140.762 28.472 139.898 29.704 138.506 29.704ZM148.334 31.208C150.51 31.208 152.478 29.528 152.478 26.6C152.478 23.672 150.51 21.976 148.334 21.976C146.158 21.976 144.19 23.672 144.19 26.6C144.19 29.528 146.158 31.208 148.334 31.208ZM148.334 29.704C146.958 29.704 146.094 28.472 146.094 26.6C146.094 24.744 146.958 23.496 148.334 23.496C149.726 23.496 150.59 24.744 150.59 26.6C150.59 28.472 149.726 29.704 148.334 29.704ZM154.642 31H156.45V28.712L157.922 27.016L160.306 31H162.306L158.994 25.784L161.97 22.2H159.922L156.514 26.456H156.45V18.248H154.642V31ZM176.239 28.472C176.015 29.096 175.599 30.008 175.247 30.632H171.839L172.703 30.328C172.559 29.8 172.175 29.016 171.791 28.456L170.463 28.888C170.767 29.416 171.103 30.104 171.231 30.632H167.071V31.912H181.039V30.632H176.735C177.039 30.088 177.375 29.448 177.679 28.824L176.239 28.472ZM176.991 27.24H170.847V25.512H176.991V27.24ZM178.575 24.312H169.359V28.44H178.575V24.312ZM179.951 19.576C179.439 20.136 178.623 20.84 177.887 21.416C177.551 21.08 177.263 20.728 176.959 20.376C177.711 19.848 178.575 19.16 179.295 18.52L178.175 17.736C177.711 18.248 176.959 18.92 176.303 19.448C175.903 18.872 175.583 18.264 175.311 17.64L174.015 18.04C174.623 19.464 175.423 20.76 176.399 21.912H171.791C172.607 20.936 173.295 19.832 173.759 18.6L172.767 18.12L172.511 18.184H167.695V19.4H171.807C171.423 20.088 170.943 20.744 170.383 21.368C169.887 20.872 169.103 20.296 168.415 19.912L167.599 20.728C168.255 21.144 169.007 21.736 169.503 22.232C168.575 23.048 167.519 23.736 166.495 24.168C166.783 24.44 167.215 24.952 167.391 25.272C168.767 24.616 170.127 23.672 171.279 22.472V23.176H176.895V22.472C177.967 23.608 179.215 24.536 180.591 25.16C180.831 24.76 181.279 24.184 181.615 23.896C180.575 23.496 179.615 22.904 178.751 22.184C179.503 21.656 180.367 20.984 181.055 20.36L179.951 19.576ZM194.847 25.032C194.159 25.736 193.087 26.616 192.143 27.272C191.583 26.664 191.135 25.976 190.767 25.24V24.84H197.023V23.528H194.975C195.119 21.88 195.231 19.992 195.263 18.424L194.079 18.344L193.823 18.408H184.159V19.784H193.615C193.599 20.168 193.583 20.552 193.567 20.984H184.671V22.312H193.487C193.471 22.728 193.439 23.128 193.407 23.528H183.151V24.84H189.247V27.56C186.991 28.472 184.639 29.416 183.103 29.944L183.919 31.288C185.423 30.648 187.375 29.816 189.247 28.984V30.728C189.247 30.952 189.167 31.032 188.911 31.032C188.671 31.048 187.775 31.048 186.911 31.016C187.119 31.368 187.327 31.912 187.423 32.296C188.639 32.312 189.471 32.296 190.031 32.088C190.591 31.896 190.767 31.528 190.767 30.76V27.672C192.111 29.528 193.951 30.904 196.255 31.656C196.463 31.256 196.911 30.648 197.231 30.36C195.615 29.928 194.207 29.176 193.055 28.2C194.031 27.576 195.183 26.76 196.127 25.976L194.847 25.032ZM184.143 26.056C185.151 26.648 186.415 27.528 187.023 28.136L188.079 27.112C187.407 26.504 186.127 25.688 185.135 25.16L184.143 26.056Z" fill="#F8F8F8"/>
<rect x="24" y="12" width="24" height="24" rx="2" fill="white"/>
<path d="M39.4908 35.9999V26.8769H42.4391L42.8805 23.3216H39.4908V21.0516C39.4908 20.0222 39.766 19.3207 41.1873 19.3207L43 19.3198V16.1399C42.6864 16.0968 41.6104 16 40.3586 16C37.7452 16 35.9559 17.6568 35.9559 20.6996V23.3217H33V26.877H35.9558V36L39.4908 35.9999Z" fill="#3B5998"/>
</svg>
