<svg width="80" height="80" viewBox="0 0 80 80" fill="none" xmlns="http://www.w3.org/2000/svg">
<path d="M61.904 64.176H18.096C10.848 64.176 4.95996 58.288 4.95996 51.04C4.95996 45.152 8.86396 40.048 14.432 38.448C15.76 34.848 18.864 32.24 22.592 31.536C23.584 22.816 31.008 16.016 40 16.016C47.152 16.016 53.6 20.448 56.24 26.992C63.936 27.44 70.112 33.6 70.624 41.28C73.44 43.776 75.04 47.28 75.04 51.056C75.04 58.272 69.152 64.176 61.904 64.176ZM24.672 35.696C21.616 35.696 18.992 37.776 18.288 40.768L17.968 42.176L16.544 42.432C12.368 43.184 9.34396 46.8 9.34396 51.024C9.34396 55.856 13.28 59.792 18.112 59.792H61.92C66.752 59.792 70.688 55.856 70.688 51.024C70.688 48.288 69.408 45.744 67.184 44.064L66.32 43.408V42.144C66.32 36.224 61.408 31.312 55.36 31.312L53.12 31.424L52.624 29.776C50.992 24.24 45.808 20.368 40.032 20.368C32.784 20.368 26.896 26.256 26.896 33.504V35.696H24.672Z" fill="#666C7D"/>
<path d="M42.1921 36.64H37.8081V55.408H42.1921V36.64Z" fill="#666C7D"/>
<path d="M47.216 46.016L40 38.8L32.784 46.016L29.696 42.912L40 32.608L50.304 42.912L47.216 46.016Z" fill="#666C7D"/>
</svg>
