<svg width="288" height="48" viewBox="0 0 288 48" fill="none" xmlns="http://www.w3.org/2000/svg">
<rect width="288" height="48" rx="4" fill="#4285F4"/>
<g clip-path="url(#clip0)">
<path d="M47.4404 24.2245C47.4404 23.2412 47.3606 22.5237 47.1879 21.7796H35.96V26.2176H42.5505C42.4177 27.3205 41.7002 28.9814 40.1056 30.0975L40.0833 30.2461L43.6334 32.9963L43.8793 33.0208C46.1382 30.9347 47.4404 27.8652 47.4404 24.2245Z" fill="white"/>
<path d="M35.9601 35.9177C39.189 35.9177 41.8996 34.8546 43.8795 33.021L40.1058 30.0976C39.096 30.8019 37.7406 31.2935 35.9601 31.2935C32.7977 31.2935 30.1136 29.2074 29.1568 26.324L29.0166 26.3359L25.3251 29.1927L25.2769 29.3269C27.2434 33.2335 31.2828 35.9177 35.9601 35.9177Z" fill="white"/>
<path d="M29.1565 26.324C28.904 25.5799 28.7579 24.7826 28.7579 23.9588C28.7579 23.1349 28.904 22.3377 29.1432 21.5936L29.1365 21.4351L25.3988 18.5324L25.2765 18.5906C24.466 20.2117 24.001 22.0321 24.001 23.9588C24.001 25.8855 24.466 27.7058 25.2765 29.3269L29.1565 26.324Z" fill="white"/>
<path d="M35.9601 16.624C38.2056 16.624 39.7204 17.594 40.5841 18.4046L43.9591 15.1093C41.8863 13.1826 39.1889 12 35.9601 12C31.2828 12 27.2434 14.6841 25.2769 18.5905L29.1435 21.5936C30.1136 18.7102 32.7976 16.624 35.9601 16.624Z" fill="white"/>
</g>
<path d="M106.352 31.208C107.968 31.208 109.296 30.616 110.08 29.832V24.728H106.064V26.248H108.4V29.016C107.984 29.384 107.264 29.592 106.544 29.592C104.112 29.592 102.816 27.88 102.816 25.08C102.816 22.312 104.272 20.616 106.464 20.616C107.6 20.616 108.32 21.08 108.912 21.672L109.904 20.488C109.184 19.736 108.064 19 106.4 19C103.28 19 100.912 21.304 100.912 25.144C100.912 29 103.216 31.208 106.352 31.208ZM116.131 31.208C118.307 31.208 120.275 29.528 120.275 26.6C120.275 23.672 118.307 21.976 116.131 21.976C113.955 21.976 111.987 23.672 111.987 26.6C111.987 29.528 113.955 31.208 116.131 31.208ZM116.131 29.704C114.755 29.704 113.891 28.472 113.891 26.6C113.891 24.744 114.755 23.496 116.131 23.496C117.523 23.496 118.387 24.744 118.387 26.6C118.387 28.472 117.523 29.704 116.131 29.704ZM125.959 31.208C128.135 31.208 130.103 29.528 130.103 26.6C130.103 23.672 128.135 21.976 125.959 21.976C123.783 21.976 121.815 23.672 121.815 26.6C121.815 29.528 123.783 31.208 125.959 31.208ZM125.959 29.704C124.583 29.704 123.719 28.472 123.719 26.6C123.719 24.744 124.583 23.496 125.959 23.496C127.351 23.496 128.215 24.744 128.215 26.6C128.215 28.472 127.351 29.704 125.959 29.704ZM135.275 34.952C138.091 34.952 139.883 33.576 139.883 31.88C139.883 30.376 138.795 29.736 136.715 29.736H135.099C133.979 29.736 133.627 29.4 133.627 28.872C133.627 28.44 133.819 28.2 134.107 27.944C134.491 28.12 134.939 28.216 135.339 28.216C137.179 28.216 138.635 27.112 138.635 25.192C138.635 24.52 138.395 23.928 138.059 23.576H139.739V22.2H136.619C136.283 22.072 135.835 21.976 135.339 21.976C133.515 21.976 131.931 23.144 131.931 25.128C131.931 26.184 132.491 27.016 133.099 27.48V27.544C132.603 27.896 132.107 28.488 132.107 29.176C132.107 29.896 132.459 30.36 132.907 30.632V30.712C132.091 31.208 131.627 31.896 131.627 32.632C131.627 34.168 133.163 34.952 135.275 34.952ZM135.339 27.032C134.427 27.032 133.675 26.312 133.675 25.128C133.675 23.944 134.411 23.272 135.339 23.272C136.267 23.272 137.003 23.96 137.003 25.128C137.003 26.312 136.251 27.032 135.339 27.032ZM135.547 33.736C134.091 33.736 133.195 33.224 133.195 32.36C133.195 31.912 133.419 31.464 133.947 31.08C134.315 31.16 134.715 31.208 135.131 31.208H136.459C137.531 31.208 138.107 31.432 138.107 32.168C138.107 32.984 137.083 33.736 135.547 33.736ZM143.341 31.208C143.805 31.208 144.109 31.144 144.333 31.064L144.093 29.672C143.933 29.704 143.869 29.704 143.789 29.704C143.565 29.704 143.357 29.528 143.357 29.032V18.248H141.517V28.936C141.517 30.36 142.013 31.208 143.341 31.208ZM149.947 31.208C151.099 31.208 152.107 30.824 152.923 30.28L152.283 29.112C151.643 29.528 150.971 29.768 150.187 29.768C148.667 29.768 147.611 28.76 147.467 27.08H153.179C153.227 26.856 153.275 26.504 153.275 26.136C153.275 23.656 152.011 21.976 149.675 21.976C147.627 21.976 145.659 23.752 145.659 26.6C145.659 29.512 147.563 31.208 149.947 31.208ZM147.451 25.8C147.627 24.264 148.603 23.416 149.707 23.416C150.987 23.416 151.675 24.296 151.675 25.8H147.451ZM167.723 28.472C167.499 29.096 167.083 30.008 166.731 30.632H163.323L164.187 30.328C164.043 29.8 163.659 29.016 163.275 28.456L161.947 28.888C162.251 29.416 162.587 30.104 162.715 30.632H158.555V31.912H172.523V30.632H168.219C168.523 30.088 168.859 29.448 169.163 28.824L167.723 28.472ZM168.475 27.24H162.331V25.512H168.475V27.24ZM170.059 24.312H160.843V28.44H170.059V24.312ZM171.435 19.576C170.923 20.136 170.107 20.84 169.371 21.416C169.035 21.08 168.747 20.728 168.443 20.376C169.195 19.848 170.059 19.16 170.779 18.52L169.659 17.736C169.195 18.248 168.443 18.92 167.787 19.448C167.387 18.872 167.067 18.264 166.795 17.64L165.499 18.04C166.107 19.464 166.907 20.76 167.883 21.912H163.275C164.091 20.936 164.779 19.832 165.243 18.6L164.251 18.12L163.995 18.184H159.179V19.4H163.291C162.907 20.088 162.427 20.744 161.867 21.368C161.371 20.872 160.587 20.296 159.899 19.912L159.083 20.728C159.739 21.144 160.491 21.736 160.987 22.232C160.059 23.048 159.003 23.736 157.979 24.168C158.267 24.44 158.699 24.952 158.875 25.272C160.251 24.616 161.611 23.672 162.763 22.472V23.176H168.379V22.472C169.451 23.608 170.699 24.536 172.075 25.16C172.315 24.76 172.763 24.184 173.099 23.896C172.059 23.496 171.099 22.904 170.235 22.184C170.987 21.656 171.851 20.984 172.539 20.36L171.435 19.576ZM186.331 25.032C185.643 25.736 184.571 26.616 183.627 27.272C183.067 26.664 182.619 25.976 182.251 25.24V24.84H188.507V23.528H186.459C186.603 21.88 186.715 19.992 186.747 18.424L185.563 18.344L185.307 18.408H175.643V19.784H185.099C185.083 20.168 185.067 20.552 185.051 20.984H176.155V22.312H184.971C184.955 22.728 184.923 23.128 184.891 23.528H174.635V24.84H180.731V27.56C178.475 28.472 176.123 29.416 174.587 29.944L175.403 31.288C176.907 30.648 178.859 29.816 180.731 28.984V30.728C180.731 30.952 180.651 31.032 180.395 31.032C180.155 31.048 179.259 31.048 178.395 31.016C178.603 31.368 178.811 31.912 178.907 32.296C180.123 32.312 180.955 32.296 181.515 32.088C182.075 31.896 182.251 31.528 182.251 30.76V27.672C183.595 29.528 185.435 30.904 187.739 31.656C187.947 31.256 188.395 30.648 188.715 30.36C187.099 29.928 185.691 29.176 184.539 28.2C185.515 27.576 186.667 26.76 187.611 25.976L186.331 25.032ZM175.627 26.056C176.635 26.648 177.899 27.528 178.507 28.136L179.563 27.112C178.891 26.504 177.611 25.688 176.619 25.16L175.627 26.056Z" fill="#F8F8F8"/>
<defs>
<clipPath id="clip0">
<rect width="23.4528" height="24" fill="white" transform="translate(24 12)"/>
</clipPath>
</defs>
</svg>
