<svg width="48" height="48" viewBox="0 0 48 48" fill="none" xmlns="http://www.w3.org/2000/svg">
<path d="M19.6302 22.7786C18.5181 23.5203 17.4821 23.5203 16.3699 22.7786C16.2971 22.7295 16.2153 22.6953 16.1291 22.6779C16.043 22.6605 15.9543 22.6603 15.8682 22.6773C15.782 22.6943 15.7 22.7281 15.6269 22.7769C15.5539 22.8257 15.4912 22.8884 15.4424 22.9615C15.3937 23.0346 15.3599 23.1166 15.343 23.2028C15.326 23.289 15.3263 23.3777 15.3437 23.4638C15.3612 23.5499 15.3955 23.6317 15.4446 23.7045C15.4938 23.7773 15.5569 23.8396 15.6302 23.888C16.4052 24.4047 17.2027 24.663 18.0001 24.663C18.7974 24.663 19.5947 24.4047 20.3699 23.888C20.516 23.7895 20.6171 23.6371 20.6512 23.4642C20.6853 23.2914 20.6495 23.112 20.5518 22.9654C20.454 22.8188 20.3022 22.7169 20.1296 22.6819C19.9569 22.6469 19.7774 22.6817 19.6302 22.7786Z" fill="white"/>
<path d="M21.3334 19.3333C21.7016 19.3333 22.0001 19.0349 22.0001 18.6667C22.0001 18.2985 21.7016 18 21.3334 18C20.9652 18 20.6667 18.2985 20.6667 18.6667C20.6667 19.0349 20.9652 19.3333 21.3334 19.3333Z" fill="white"/>
<path d="M14.6667 19.3333C15.0349 19.3333 15.3333 19.0349 15.3333 18.6667C15.3333 18.2985 15.0349 18 14.6667 18C14.2985 18 14 18.2985 14 18.6667C14 19.0349 14.2985 19.3333 14.6667 19.3333Z" fill="white"/>
<path d="M28.6667 29.3333H31.3333C31.5101 29.3333 31.6797 29.2631 31.8047 29.1381C31.9298 29.013 32 28.8435 32 28.6667C32 28.4899 31.9298 28.3203 31.8047 28.1953C31.6797 28.0702 31.5101 28 31.3333 28H28.6667C28.4899 28 28.3203 28.0702 28.1953 28.1953C28.0702 28.3203 28 28.4899 28 28.6667C28 28.8435 28.0702 29.013 28.1953 29.1381C28.3203 29.2631 28.4899 29.3333 28.6667 29.3333Z" fill="white"/>
<path d="M34.0001 33.3334H31.3334C31.1566 33.3334 30.987 33.4036 30.862 33.5286C30.737 33.6537 30.6667 33.8232 30.6667 34C30.6667 34.1769 30.737 34.3464 30.862 34.4714C30.987 34.5965 31.1566 34.6667 31.3334 34.6667H34.0001C34.1769 34.6667 34.3465 34.5965 34.4715 34.4714C34.5965 34.3464 34.6667 34.1769 34.6667 34C34.6667 33.8232 34.5965 33.6537 34.4715 33.5286C34.3465 33.4036 34.1769 33.3334 34.0001 33.3334Z" fill="white"/>
<path d="M42 29.3333C41.7729 29.3331 41.5475 29.3715 41.3333 29.4468V26C41.3333 25.8232 41.2631 25.6536 41.1381 25.5286C41.0131 25.4036 40.8435 25.3333 40.6667 25.3333H26C25.8232 25.3333 25.6536 25.4036 25.5286 25.5286C25.4036 25.6536 25.3333 25.8232 25.3333 26V26.6667H22.8026C24.3776 25.7172 25.6394 24.3264 26.4316 22.6667H26.6667C27.5504 22.6657 28.3977 22.3142 29.0226 21.6893C29.6475 21.0644 29.999 20.2171 30 19.3333V16C30 9.38333 24.6167 4 18 4C11.3833 4 6 9.38333 6 16V19.3333C6.00099 20.2171 6.3525 21.0644 6.97741 21.6893C7.60231 22.3142 8.44958 22.6657 9.33333 22.6667H9.56842C10.3606 24.3264 11.6224 25.7172 13.1974 26.6667H7.33333C6.44958 26.6677 5.60231 27.0192 4.97741 27.6441C4.3525 28.269 4.00099 29.1163 4 30V43.3333C4 43.5101 4.07024 43.6797 4.19526 43.8047C4.32029 43.9298 4.48986 44 4.66667 44H40.6667C40.8435 44 41.0131 43.9298 41.1381 43.8047C41.2631 43.6797 41.3333 43.5101 41.3333 43.3333V34.8284L42.471 33.6908L43.4137 32.748C43.6936 32.4683 43.8842 32.112 43.9615 31.724C44.0387 31.336 43.9992 30.9338 43.8479 30.5683C43.6965 30.2027 43.4402 29.8903 43.1113 29.6705C42.7823 29.4507 42.3956 29.3333 42 29.3333ZM26.9507 21.3128C27.205 20.4538 27.3338 19.5625 27.3333 18.6667V17.448C27.7548 17.5973 28.1141 17.8835 28.3539 18.261C28.5936 18.6384 28.7 19.0853 28.6559 19.5303C28.6118 19.9753 28.4199 20.3927 28.1108 20.7158C27.8017 21.0389 27.3933 21.2491 26.9507 21.3128ZM18 5.33333C20.828 5.33651 23.5393 6.46134 25.539 8.46104C27.5387 10.4607 28.6635 13.172 28.6667 16V16.6685C28.2725 16.3714 27.817 16.1659 27.3333 16.0671V16C27.3313 14.2325 26.6283 12.538 25.3785 11.2882C24.1287 10.0384 22.4342 9.33534 20.6667 9.33333C20.4899 9.33333 20.3203 9.40357 20.1953 9.5286C20.0702 9.65362 20 9.82319 20 10C20 12.9408 17.9065 15.3333 15.3333 15.3333H9.33333C9.15652 15.3333 8.98695 15.4036 8.86193 15.5286C8.7369 15.6536 8.66667 15.8232 8.66667 16V16.0671C8.18304 16.1659 7.72754 16.3714 7.33333 16.6685V16C7.33651 13.172 8.46134 10.4607 10.461 8.46104C12.4607 6.46134 15.172 5.33651 18 5.33333ZM11.4004 18H10V16.6667H12.0018C11.7047 17.0609 11.4993 17.5164 11.4004 18ZM14.6667 16.6667C15.0622 16.6667 15.4489 16.784 15.7778 17.0037C16.1067 17.2235 16.3631 17.5358 16.5144 17.9013C16.6658 18.2668 16.7054 18.6689 16.6282 19.0568C16.5511 19.4448 16.3606 19.8012 16.0809 20.0809C15.8012 20.3606 15.4448 20.5511 15.0568 20.6282C14.6689 20.7054 14.2668 20.6658 13.9013 20.5144C13.5358 20.3631 13.2235 20.1067 13.0037 19.7778C12.784 19.4489 12.6667 19.0622 12.6667 18.6667C12.6673 18.1364 12.8782 17.6281 13.2531 17.2531C13.6281 16.8782 14.1364 16.6673 14.6667 16.6667ZM7.33333 19.3333C7.33387 18.9199 7.4623 18.5168 7.70102 18.1792C7.93973 17.8417 8.27704 17.5863 8.66667 17.448V18.6667C8.66616 19.5625 8.79505 20.4538 9.04933 21.3128C8.57327 21.2439 8.13791 21.006 7.82283 20.6425C7.50775 20.2791 7.334 19.8144 7.33333 19.3333ZM10.028 19.3333H11.4004C11.503 19.8394 11.7218 20.3146 12.0394 20.7217C12.357 21.1287 12.7649 21.4564 13.2308 21.6789C13.6967 21.9014 14.208 22.0126 14.7242 22.0038C15.2404 21.995 15.7476 21.8664 16.2056 21.6281C16.6637 21.3898 17.0601 21.0484 17.3637 20.6307C17.6672 20.2131 17.8696 19.7306 17.9549 19.2214C18.0401 18.7122 18.0059 18.1901 17.8549 17.6963C17.704 17.2026 17.4404 16.7506 17.0849 16.3762C19.3463 15.6077 21.0439 13.3923 21.2994 10.7055C22.5943 10.8617 23.7873 11.4864 24.6532 12.4618C25.5192 13.4372 25.9982 14.6957 26 16V18H24.6C24.4348 17.1906 23.9749 16.4715 23.3096 15.9819C22.6443 15.4923 21.8209 15.2672 20.999 15.3502C20.1771 15.4332 19.4154 15.8185 18.8614 16.4312C18.3074 17.044 18.0007 17.8406 18.0007 18.6667C18.0007 19.4927 18.3074 20.2893 18.8614 20.9021C19.4154 21.5149 20.1771 21.9001 20.999 21.9831C21.8209 22.0661 22.6443 21.841 23.3096 21.3515C23.9749 20.8619 24.4348 20.1427 24.6 19.3333H25.9724C25.8047 21.3323 24.8922 23.1953 23.4157 24.5531C21.9391 25.911 20.0064 26.6646 18.0004 26.6646C15.9945 26.6646 14.0617 25.911 12.5852 24.5531C11.1086 23.1953 10.1961 21.3323 10.0284 19.3333H10.028ZM23.3333 18.6667C23.3333 19.0622 23.216 19.4489 22.9963 19.7778C22.7765 20.1067 22.4642 20.3631 22.0987 20.5144C21.7332 20.6658 21.3311 20.7054 20.9432 20.6282C20.5552 20.5511 20.1988 20.3606 19.9191 20.0809C19.6394 19.8012 19.4489 19.4448 19.3718 19.0568C19.2946 18.6689 19.3342 18.2668 19.4856 17.9013C19.6369 17.5358 19.8933 17.2235 20.2222 17.0037C20.5511 16.784 20.9378 16.6667 21.3333 16.6667C21.8636 16.6673 22.3719 16.8782 22.7469 17.2531C23.1218 17.6281 23.3327 18.1364 23.3333 18.6667ZM21.7239 28L18 31.7239L14.2761 28H21.7239ZM22.6667 28.9428V32H19.6095L22.6667 28.9428ZM13.3333 28.9428L16.3905 32H13.3333V28.9428ZM5.33333 42.6667V30C5.33395 29.4698 5.54486 28.9614 5.9198 28.5865C6.29474 28.2115 6.80309 28.0006 7.33333 28H12V32.6667C12 32.8435 12.0702 33.013 12.1953 33.1381C12.3203 33.2631 12.4899 33.3333 12.6667 33.3333H17.3333V42.6667H5.33333ZM18.6667 33.3333H23.3333C23.5101 33.3333 23.6797 33.2631 23.8047 33.1381C23.9298 33.013 24 32.8435 24 32.6667V28H25.3333V42.6667H18.6667V33.3333ZM33.8061 39.1671L34.1667 39.5273L33.6264 39.7073L33.8061 39.1671ZM34.4575 37.9333L40.1144 32.2764L41.0573 33.2193L35.4 38.8758L34.4575 37.9333ZM40 42.6667H26.6667V26.6667H40V30.5049L39.643 30.8619L33.043 37.4619C32.9699 37.5351 32.9149 37.6244 32.8825 37.7227H32.8819L31.9391 40.5511C31.8999 40.6685 31.8942 40.7946 31.9227 40.9151C31.9511 41.0356 32.0126 41.1458 32.1001 41.2334C32.1877 41.321 32.2979 41.3824 32.4184 41.4108C32.5389 41.4393 32.665 41.4336 32.7824 41.3944L35.6108 40.4516V40.451C35.7091 40.4186 35.7984 40.3636 35.8716 40.2905L40 36.1618V42.6667ZM42.4714 31.8048L42 32.2761L41.0572 31.3333L41.5286 30.8619C41.6536 30.7369 41.8232 30.6666 42 30.6666C42.1768 30.6666 42.3464 30.7369 42.4714 30.8619C42.5964 30.9869 42.6667 31.1565 42.6667 31.3333C42.6667 31.5101 42.5964 31.6797 42.4714 31.8048Z" fill="white"/>
<path d="M33.9999 29.3333H37.9999C38.1767 29.3333 38.3463 29.2631 38.4713 29.1381C38.5963 29.013 38.6666 28.8435 38.6666 28.6667C38.6666 28.4899 38.5963 28.3203 38.4713 28.1953C38.3463 28.0702 38.1767 28 37.9999 28H33.9999C33.8231 28 33.6535 28.0702 33.5285 28.1953C33.4035 28.3203 33.3333 28.4899 33.3333 28.6667C33.3333 28.8435 33.4035 29.013 33.5285 29.1381C33.6535 29.2631 33.8231 29.3333 33.9999 29.3333Z" fill="white"/>
<path d="M28.6667 32H34C34.1768 32 34.3464 31.9297 34.4714 31.8047C34.5964 31.6797 34.6667 31.5101 34.6667 31.3333C34.6667 31.1565 34.5964 30.9869 34.4714 30.8619C34.3464 30.7369 34.1768 30.6666 34 30.6666H28.6667C28.4899 30.6666 28.3203 30.7369 28.1953 30.8619C28.0702 30.9869 28 31.1565 28 31.3333C28 31.5101 28.0702 31.6797 28.1953 31.8047C28.3203 31.9297 28.4899 32 28.6667 32Z" fill="white"/>
<path d="M28.6667 34.6667C29.0349 34.6667 29.3333 34.3682 29.3333 34C29.3333 33.6319 29.0349 33.3334 28.6667 33.3334C28.2985 33.3334 28 33.6319 28 34C28 34.3682 28.2985 34.6667 28.6667 34.6667Z" fill="white"/>
<path d="M30 38.6666H28.6667C28.4899 38.6666 28.3203 38.7369 28.1953 38.8619C28.0702 38.9869 28 39.1565 28 39.3333C28 39.5101 28.0702 39.6797 28.1953 39.8047C28.3203 39.9297 28.4899 40 28.6667 40H30C30.1768 40 30.3464 39.9297 30.4714 39.8047C30.5964 39.6797 30.6667 39.5101 30.6667 39.3333C30.6667 39.1565 30.5964 38.9869 30.4714 38.8619C30.3464 38.7369 30.1768 38.6666 30 38.6666Z" fill="white"/>
<path d="M31.3333 36H28.6667C28.4899 36 28.3203 36.0702 28.1953 36.1953C28.0702 36.3203 28 36.4899 28 36.6667C28 36.8435 28.0702 37.013 28.1953 37.1381C28.3203 37.2631 28.4899 37.3333 28.6667 37.3333H31.3333C31.5101 37.3333 31.6797 37.2631 31.8047 37.1381C31.9298 37.013 32 36.8435 32 36.6667C32 36.4899 31.9298 36.3203 31.8047 36.1953C31.6797 36.0702 31.5101 36 31.3333 36Z" fill="white"/>
<path d="M36.6667 32C37.0349 32 37.3333 31.7015 37.3333 31.3333C37.3333 30.9651 37.0349 30.6666 36.6667 30.6666C36.2985 30.6666 36 30.9651 36 31.3333C36 31.7015 36.2985 32 36.6667 32Z" fill="white"/>
</svg>
