<svg width="48" height="48" viewBox="0 0 48 48" fill="none" xmlns="http://www.w3.org/2000/svg">
<path d="M35.3718 7.75174C33.511 6.10461 31.0094 5.32018 28.503 5.59062C24.4102 6.03818 21.1478 9.30714 20.747 13.3629C20.4638 16.2278 21.623 19.0405 23.8454 20.8869C24.391 21.3392 24.7038 21.9994 24.7038 22.6985V24.5132C24.7038 24.9497 25.0614 25.304 25.5038 25.304H33.5038C33.9462 25.304 34.3038 24.9497 34.3038 24.5132V22.6985C34.3038 21.9971 34.6078 21.3439 35.1382 20.9066C37.1502 19.2476 38.3038 16.8153 38.3038 14.2335C38.3038 11.7632 37.235 9.40045 35.3718 7.75174ZM34.1134 19.6912C33.2182 20.4298 32.7038 21.5258 32.7038 22.6985V23.7225H30.3038V20.5595C30.3038 20.3191 30.1934 20.0922 30.0038 19.9419L26.5358 17.1996C26.3878 17.0834 26.3038 16.9094 26.3038 16.7228V16.4247C26.3038 16.0886 26.5806 15.815 26.9206 15.815H27.1446C27.3518 15.815 27.5438 15.9162 27.659 16.087C28.0718 16.6983 28.7606 17.0628 29.5038 17.0628C30.247 17.0628 30.9358 16.6983 31.3486 16.0878C31.463 15.9162 31.655 15.815 31.8622 15.815H32.0862C32.427 15.815 32.7038 16.0886 32.7038 16.4247V16.8161C32.7038 16.979 32.6398 17.1324 32.523 17.2478L30.5382 19.2097L31.6694 20.3278L33.655 18.366C34.0734 17.9516 34.3038 17.4012 34.3038 16.8161V16.4247C34.3038 15.2164 33.3094 14.2335 32.087 14.2335H31.863C31.1198 14.2335 30.4302 14.598 30.0174 15.2093C29.8518 15.4544 29.603 15.4805 29.5038 15.4805C29.4046 15.4805 29.1558 15.4544 28.9902 15.2085C28.5782 14.598 27.8878 14.2335 27.1454 14.2335H26.9214C25.6982 14.2335 24.7038 15.2164 24.7038 16.4247V16.7228C24.7038 17.3925 25.007 18.0157 25.5358 18.434L28.7038 20.939V23.7225H26.3038V22.6985C26.3038 21.5321 25.783 20.4298 24.875 19.6762C23.0558 18.1651 22.1078 15.8624 22.339 13.5163C22.667 10.2007 25.3334 7.52795 28.6798 7.16263C30.7638 6.93252 32.7606 7.56196 34.3046 8.92995C35.8294 10.2798 36.7038 12.2123 36.7038 14.2335C36.7038 16.3448 35.759 18.3343 34.1134 19.6912Z" fill="white"/>
<path d="M33.5038 26.0947H25.5038V27.6762H33.5038V26.0947Z" fill="white"/>
<path d="M27.1038 28.4669C26.6614 28.4669 26.3038 28.8212 26.3038 29.2577C26.3038 31.0021 27.739 32.4207 29.5038 32.4207C31.2686 32.4207 32.7038 31.0021 32.7038 29.2577C32.7038 28.8212 32.3462 28.4669 31.9038 28.4669H27.1038ZM29.5038 30.8392C28.9126 30.8392 28.395 30.5205 28.119 30.0484H30.8894C30.6126 30.5205 30.095 30.8392 29.5038 30.8392Z" fill="white"/>
<path d="M30.3039 0H28.7039V3.95374H30.3039V0Z" fill="white"/>
<path d="M19.243 3.39369L18.1115 4.51196L20.9399 7.30805L22.0714 6.18977L19.243 3.39369Z" fill="white"/>
<path d="M40.1383 3.39462L37.3099 6.19031L38.4413 7.30858L41.2697 4.51289L40.1383 3.39462Z" fill="white"/>
<path d="M43.9038 11.8612H39.9038V13.4427H43.9038V11.8612Z" fill="white"/>
<path d="M19.1038 11.8612H15.1038V13.4427H19.1038V11.8612Z" fill="white"/>
<path d="M42.1486 34.2987C41.5542 33.1236 40.2342 32.5037 38.9366 32.7978L23.0518 36.3665L19.8574 33.6028C19.5646 33.3506 19.1902 33.2114 18.803 33.2114H10.3038C10.3038 32.7749 9.94621 32.4207 9.50381 32.4207H4.70381C4.26141 32.4207 3.90381 32.7749 3.90381 33.2114V44.2819C3.90381 44.7184 4.26141 45.0726 4.70381 45.0726H9.50381C9.94621 45.0726 10.3038 44.7184 10.3038 44.2819V44.1609L14.163 43.5251L21.9278 47.7114C22.2838 47.9035 22.6806 48 23.0774 48C23.4966 48 23.9158 47.8924 24.287 47.6781L41.0246 38.0271C42.331 37.2743 42.8246 35.6358 42.1486 34.2987ZM8.70381 43.4911H5.50381V34.0022H8.70381V43.4911ZM40.219 36.6614L23.4806 46.3117C23.2406 46.4509 22.9382 46.4549 22.695 46.3228L14.687 42.0061C14.5302 41.9215 14.3486 41.8907 14.1726 41.9207L10.3038 42.558V34.7929H18.8038L23.567 38.9127C24.0446 39.3255 24.1198 40.0427 23.7398 40.544C23.5366 40.8113 23.2406 40.9797 22.9054 41.0185C22.5614 41.0572 22.2414 40.9607 21.983 40.7472L18.8166 38.1393L17.7918 39.3539L20.9582 41.9618C21.4718 42.3849 22.0998 42.6087 22.7558 42.6087C22.867 42.6087 22.979 42.6023 23.091 42.5897C23.867 42.5003 24.5518 42.1113 25.0198 41.4937C25.9006 40.3345 25.7254 38.6778 24.6206 37.7234L24.5398 37.6538L39.291 34.3398C39.8662 34.2117 40.4526 34.4845 40.7166 35.0064C41.0182 35.6003 40.7982 36.327 40.219 36.6614Z" fill="white"/>
</svg>
