<svg width="48" height="48" viewBox="0 0 48 48" fill="none" xmlns="http://www.w3.org/2000/svg">
<path d="M40.4959 8.09537C40.1867 7.65762 39.749 7.32682 39.2435 7.14876C38.738 6.9707 38.1897 6.9542 37.6744 7.10152C37.2632 7.23802 36.9076 7.50454 36.6611 7.86087C36.4147 8.2172 36.2908 8.64401 36.3082 9.07691V24.1538C36.3082 24.317 36.373 24.4736 36.4885 24.589C36.6039 24.7044 36.7604 24.7692 36.9236 24.7692C37.0868 24.7692 37.2433 24.7044 37.3587 24.589C37.4741 24.4736 37.539 24.317 37.539 24.1538V9.07691C37.5192 8.90315 37.5602 8.7279 37.655 8.58093C37.7498 8.43397 37.8925 8.32437 38.059 8.27075C38.3111 8.20551 38.5769 8.21595 38.8231 8.30076C39.0693 8.38557 39.2851 8.54101 39.4436 8.74768C40.6744 13.0554 43.4436 24.5538 42.1236 27.8554L38.0097 38.04H31.3113C31.1481 38.04 30.9916 38.1048 30.8761 38.2202C30.7607 38.3356 30.6959 38.4922 30.6959 38.6554C30.6959 38.8186 30.7607 38.9751 30.8761 39.0905C30.9916 39.2059 31.1481 39.2708 31.3113 39.2708H37.9636V40.7692H27.0774V36.6123L31.9544 29.8861C32.0913 29.6976 32.2644 29.5383 32.4636 29.4173C32.6627 29.2963 32.884 29.2162 33.1144 29.1815C33.3472 29.1416 33.5857 29.1483 33.8159 29.2011C34.0462 29.2539 34.2637 29.3518 34.4559 29.4892C34.6754 29.6472 34.8541 29.8552 34.9772 30.096C35.1002 30.3367 35.1642 30.6034 35.1636 30.8738C35.1662 31.201 35.0731 31.5218 34.8959 31.7969L32.6928 35.2308C32.6047 35.3683 32.5748 35.5351 32.6097 35.6947C32.6446 35.8542 32.7415 35.9934 32.879 36.0815C33.0165 36.1697 33.1834 36.1996 33.3429 36.1646C33.5025 36.1297 33.6416 36.0329 33.7298 35.8954L35.9267 32.4615C36.2303 31.9911 36.3916 31.443 36.3913 30.8831C36.3895 30.4201 36.2792 29.9641 36.0692 29.5516C35.8592 29.139 35.5553 28.7815 35.1821 28.5077C34.8606 28.2716 34.4953 28.1019 34.1076 28.0084C33.7198 27.9149 33.3174 27.8995 32.9236 27.9631C32.5331 28.0228 32.1584 28.1596 31.8214 28.3656C31.4843 28.5717 31.1917 28.8427 30.9605 29.1631L25.9636 36.0523C25.8878 36.157 25.8469 36.283 25.8467 36.4123V41.3846C25.8467 41.5478 25.9115 41.7043 26.0269 41.8197C26.1423 41.9352 26.2989 42 26.4621 42H38.5759C38.7391 42 38.8956 41.9352 39.011 41.8197C39.1265 41.7043 39.1913 41.5478 39.1913 41.3846V38.3969L43.2621 28.3138C45.0405 23.9077 40.7759 8.92922 40.5913 8.29229C40.5715 8.22148 40.5392 8.15479 40.4959 8.09537Z" fill="white"/>
<path d="M17.0465 29.1662C16.6777 28.6524 16.1559 28.2684 15.5557 28.0689C14.9555 27.8694 14.3076 27.8647 13.7046 28.0555C13.1016 28.2462 12.5742 28.6227 12.198 29.1311C11.8217 29.6395 11.6158 30.2538 11.6096 30.8862C11.6088 31.4448 11.769 31.9918 12.0711 32.4616L14.2711 35.8986C14.315 35.9666 14.3718 36.0254 14.4383 36.0716C14.5049 36.1177 14.5799 36.1502 14.659 36.1674C14.7382 36.1845 14.8199 36.1859 14.8996 36.1715C14.9793 36.157 15.0553 36.127 15.1234 36.0832C15.1915 36.0393 15.2503 35.9825 15.2964 35.9159C15.3426 35.8494 15.3751 35.7744 15.3923 35.6953C15.4094 35.6161 15.4108 35.5344 15.3963 35.4547C15.3819 35.375 15.3519 35.299 15.308 35.2309L13.108 31.797C12.9307 31.522 12.8376 31.2012 12.8404 30.8739C12.8407 30.6064 12.9041 30.3427 13.0255 30.1043C13.1468 29.8658 13.3227 29.6594 13.5388 29.5016C13.731 29.3642 13.9485 29.2663 14.1788 29.2135C14.4091 29.1607 14.6475 29.154 14.8804 29.1939C15.111 29.229 15.3324 29.3096 15.5315 29.4311C15.7307 29.5526 15.9037 29.7126 16.0404 29.9016L20.9234 36.6124V40.7693H10.0404V39.2709H16.6927C16.8559 39.2709 17.0124 39.206 17.1278 39.0906C17.2432 38.9752 17.308 38.8187 17.308 38.6555C17.308 38.4923 17.2432 38.3357 17.1278 38.2203C17.0124 38.1049 16.8559 38.0401 16.6927 38.0401H9.9942L5.88036 27.8462C4.54805 24.5447 7.32959 13.0524 8.55728 8.73855C8.69994 8.5585 8.89479 8.42697 9.11512 8.36197C9.33546 8.29697 9.5705 8.30169 9.78805 8.37548C9.99577 8.44611 10.1744 8.58329 10.2962 8.76575C10.418 8.94822 10.4763 9.16578 10.4619 9.38471V24.1539C10.4619 24.3171 10.5267 24.4737 10.6421 24.5891C10.7575 24.7045 10.9141 24.7693 11.0773 24.7693C11.2405 24.7693 11.397 24.7045 11.5124 24.5891C11.6278 24.4737 11.6927 24.3171 11.6927 24.1539V9.38471C11.6993 8.9086 11.5535 8.44285 11.2768 8.05539C11 7.66793 10.6067 7.37904 10.1542 7.23086C9.67599 7.07394 9.16008 7.07443 8.68217 7.23225C8.20426 7.39008 7.78952 7.69693 7.49882 8.10778C7.45443 8.16697 7.42107 8.23368 7.40035 8.30471C7.22497 8.92624 2.96036 23.9109 4.73882 28.3139L8.80959 38.397V41.3847C8.80959 41.5479 8.87442 41.7044 8.98983 41.8199C9.10523 41.9353 9.26176 42.0001 9.42497 42.0001H21.5388C21.702 42.0001 21.8586 41.9353 21.974 41.8199C22.0894 41.7044 22.1542 41.5479 22.1542 41.3847V36.4124C22.154 36.2831 22.1131 36.1571 22.0373 36.0524L17.0465 29.1662Z" fill="white"/>
<path d="M35.0773 24.4616V12.7693C35.0783 12.6604 35.0503 12.5531 34.9963 12.4585C34.9422 12.3639 34.864 12.2853 34.7696 12.2308L24.3081 6.38469C24.2146 6.33068 24.1084 6.30225 24.0004 6.30225C23.8924 6.30225 23.7863 6.33068 23.6927 6.38469L13.2312 12.2308C13.1368 12.2853 13.0586 12.3639 13.0045 12.4585C12.9505 12.5531 12.9225 12.6604 12.9235 12.7693V24.4616C12.9225 24.5706 12.9505 24.6778 13.0045 24.7724C13.0586 24.867 13.1368 24.9456 13.2312 25.0001L23.6927 30.8462C23.7863 30.9002 23.8924 30.9287 24.0004 30.9287C24.1084 30.9287 24.2146 30.9002 24.3081 30.8462L34.7696 25.0001C34.864 24.9456 34.9422 24.867 34.9963 24.7724C35.0503 24.6778 35.0783 24.5706 35.0773 24.4616ZM33.8466 24.1016L24.0004 29.6032L14.1543 24.1016V13.1293L24.0004 7.62777L33.8466 13.1293V24.1016Z" fill="white"/>
<path d="M26.462 16.4615H26.1543V15.2308C26.1543 14.9043 26.0246 14.5913 25.7938 14.3605C25.563 14.1297 25.2499 14 24.9235 14H23.0773C22.7509 14 22.4379 14.1297 22.2071 14.3605C21.9762 14.5913 21.8466 14.9043 21.8466 15.2308V16.4615H21.5389C21.2125 16.4615 20.8994 16.5912 20.6686 16.822C20.4378 17.0528 20.3081 17.3659 20.3081 17.6923V21.3846C20.3081 21.711 20.4378 22.0241 20.6686 22.2549C20.8994 22.4857 21.2125 22.6154 21.5389 22.6154H26.462C26.7884 22.6154 27.1014 22.4857 27.3322 22.2549C27.5631 22.0241 27.6927 21.711 27.6927 21.3846V17.6923C27.6927 17.3659 27.5631 17.0528 27.3322 16.822C27.1014 16.5912 26.7884 16.4615 26.462 16.4615ZM23.0773 15.2308H24.9235V16.4615H23.0773V15.2308ZM24.4989 21.3846V20.5938C24.6862 20.4843 24.8322 20.3162 24.9144 20.1154C24.9967 19.9146 25.0105 19.6924 24.9538 19.4829C24.897 19.2735 24.7729 19.0886 24.6006 18.9568C24.4283 18.8249 24.2174 18.7535 24.0004 18.7535C23.7834 18.7535 23.5725 18.8249 23.4002 18.9568C23.2279 19.0886 23.1038 19.2735 23.0471 19.4829C22.9903 19.6924 23.0042 19.9146 23.0864 20.1154C23.1686 20.3162 23.3146 20.4843 23.502 20.5938V21.3846H21.5389V17.6923H26.462V21.3846H24.4989Z" fill="white"/>
<path d="M16.6157 18.6154C16.6157 20.574 17.3937 22.4523 18.7786 23.8372C20.1635 25.222 22.0418 26.0001 24.0003 26.0001C24.1635 26.0001 24.3201 25.9352 24.4355 25.8198C24.5509 25.7044 24.6157 25.5479 24.6157 25.3847C24.6157 25.2215 24.5509 25.0649 24.4355 24.9495C24.3201 24.8341 24.1635 24.7693 24.0003 24.7693C22.8546 24.7711 21.7312 24.453 20.7565 23.8509C19.7817 23.2488 18.9945 22.3865 18.4833 21.3612C17.9721 20.3358 17.7573 19.1881 17.8631 18.0473C17.9688 16.9065 18.391 15.8179 19.0819 14.904C19.7729 13.9901 20.7053 13.2873 21.7741 12.8746C22.8429 12.462 24.0057 12.3559 25.1315 12.5683C26.2574 12.7807 27.3016 13.3032 28.1465 14.0769C28.9915 14.8507 29.6037 15.8449 29.9142 16.9478C29.4393 17.152 29.0537 17.5203 28.8278 17.9854C28.6019 18.4504 28.5509 18.9812 28.684 19.4808C28.8171 19.9803 29.1254 20.4154 29.5527 20.7064C29.98 20.9975 30.4977 21.1251 31.0113 21.0661C31.5249 21.007 32.0001 20.7652 32.3502 20.3847C32.7003 20.0043 32.9018 19.5106 32.918 18.9939C32.9342 18.4771 32.764 17.9718 32.4385 17.5701C32.113 17.1685 31.6538 16.8974 31.145 16.8062C30.6924 15.0737 29.6257 13.5647 28.1435 12.56C26.6613 11.5553 24.8645 11.1234 23.0876 11.3447C21.3107 11.566 19.6747 12.4253 18.4842 13.7628C17.2936 15.1003 16.6296 16.8249 16.6157 18.6154ZM30.7696 18.0001C30.9521 18.0001 31.1306 18.0542 31.2824 18.1556C31.4342 18.2571 31.5525 18.4012 31.6224 18.5699C31.6922 18.7386 31.7105 18.9242 31.6749 19.1032C31.6393 19.2823 31.5514 19.4468 31.4223 19.5759C31.2932 19.7049 31.1287 19.7929 30.9497 19.8285C30.7706 19.8641 30.585 19.8458 30.4163 19.7759C30.2477 19.7061 30.1035 19.5878 30.0021 19.436C29.9006 19.2842 29.8465 19.1057 29.8465 18.9231C29.8465 18.6783 29.9437 18.4435 30.1169 18.2704C30.29 18.0973 30.5248 18.0001 30.7696 18.0001Z" fill="white"/>
</svg>
