<svg width="48" height="48" viewBox="0 0 48 48" fill="none" xmlns="http://www.w3.org/2000/svg">
<path d="M28.7996 16.7966H23.9997C23.5581 16.7966 23.1997 16.4382 23.1997 15.9966C23.1997 15.5551 23.5581 15.1967 23.9997 15.1967H28.7996C29.242 15.1967 29.5996 15.5551 29.5996 15.9966C29.5996 16.4382 29.242 16.7966 28.7996 16.7966Z" fill="white"/>
<path d="M23.9997 16.7966C23.5581 16.7966 23.1997 16.4382 23.1997 15.9966V11.1967C23.1997 10.7551 23.5581 10.3967 23.9997 10.3967C24.4413 10.3967 24.7997 10.7551 24.7997 11.1967V15.9966C24.7997 16.4382 24.4413 16.7966 23.9997 16.7966Z" fill="white"/>
<path d="M23.8765 27.9525C21.8813 27.9525 19.903 27.4557 18.1366 26.4661C17.751 26.2493 17.6134 25.7621 17.8294 25.3773C18.0454 24.9925 18.5326 24.8565 18.9182 25.0701C21.8285 26.7013 25.4117 26.7821 28.502 25.2853C31.5884 23.7902 33.746 20.9318 34.2724 17.6374C34.802 14.3191 33.6868 11.0287 31.2116 8.61118C28.738 6.19601 25.4269 5.15923 22.1245 5.76642C18.9294 6.35361 16.1542 8.43758 14.6999 11.3407C12.9959 14.7431 13.3239 18.9438 15.5374 22.0422C15.7942 22.4014 15.711 22.9014 15.351 23.1582C14.991 23.415 14.4919 23.3318 14.2351 22.9726C11.6815 19.3982 11.3023 14.5511 13.2687 10.6247C14.9463 7.2752 18.1486 4.87123 21.8349 4.19364C25.5973 3.50165 29.522 4.72563 32.3284 7.46719C35.1388 10.212 36.4547 14.1079 35.8515 17.8902C35.2427 21.6998 32.7564 25.0029 29.1988 26.7253C27.5077 27.5445 25.6845 27.9525 23.8765 27.9525Z" fill="white"/>
<path d="M23.9636 24.7741C22.4965 24.7741 21.0237 24.4157 19.6997 23.6741C19.3149 23.4581 19.1765 22.9709 19.3925 22.5854C19.6093 22.2006 20.0965 22.063 20.4813 22.2782C23.3205 23.8685 27.0012 23.3069 29.2324 20.943C31.4819 18.5598 31.8219 14.8319 30.042 12.0783C28.2572 9.31754 24.7036 8.11116 21.5981 9.20795C18.1509 10.4255 16.1342 14.1623 17.0077 17.7142C17.1781 18.4078 17.4501 19.071 17.8165 19.6846C18.0429 20.0646 17.9189 20.555 17.5397 20.7822C17.1605 21.0094 16.6694 20.8838 16.4422 20.5054C15.9942 19.755 15.6622 18.9446 15.4534 18.0966C14.387 13.7551 16.8517 9.18795 21.0653 7.69917C24.862 6.35759 29.2012 7.83357 31.3859 11.2095C33.5619 14.5735 33.1451 19.1286 30.3963 22.0414C28.71 23.8293 26.3444 24.7741 23.9636 24.7741Z" fill="white"/>
<path d="M18.5269 26.5685C18.3941 26.5685 18.2605 26.5357 18.1373 26.4661C17.3813 26.0437 16.9413 25.3261 16.9301 24.4989C16.9181 23.6061 17.4061 22.7341 18.1733 22.2782C18.8853 21.855 19.7253 21.8558 20.4821 22.2782C20.8677 22.4942 21.0053 22.9813 20.7893 23.3669C20.5733 23.7525 20.0861 23.8901 19.7005 23.6741C19.4429 23.5293 19.2101 23.5229 18.9925 23.6525C18.7205 23.8141 18.5261 24.1613 18.5301 24.4773C18.5333 24.7317 18.6605 24.9253 18.9189 25.0701C19.3045 25.2861 19.4421 25.7733 19.2261 26.1589C19.0789 26.4205 18.8069 26.5685 18.5269 26.5685Z" fill="white"/>
<path d="M11.1991 30.2357C10.8191 30.2357 10.4823 29.9637 10.4127 29.5765C10.3343 29.1421 10.6239 28.7261 11.0591 28.6485L12.0919 28.4629C12.5239 28.3845 12.9423 28.6741 13.0207 29.1093C13.0991 29.5445 12.8095 29.9597 12.3743 30.0381L11.3415 30.2237C11.2935 30.2309 11.2463 30.2357 11.1991 30.2357Z" fill="white"/>
<path d="M11.8815 40.1731C11.7663 40.1731 11.6495 40.1483 11.5391 40.0947C11.3359 39.9995 11.1295 39.9115 10.9191 39.8323C10.5055 39.6779 10.2959 39.2163 10.4511 38.8027C10.6063 38.3883 11.0679 38.1811 11.4815 38.3339C11.7335 38.4291 11.9815 38.5339 12.2255 38.6499C12.6247 38.8395 12.7943 39.3171 12.6055 39.7155C12.4671 40.0043 12.1807 40.1731 11.8815 40.1731Z" fill="white"/>
<path d="M7.99994 41.0522H4.79999C4.35839 41.0522 4 40.6938 4 40.2522V28.1868C4 27.7444 4.35839 27.3868 4.79999 27.3868H7.99994C8.44153 27.3868 8.79993 27.7444 8.79993 28.1868V40.2522C8.79993 40.6938 8.44153 41.0522 7.99994 41.0522ZM5.59998 39.4523H7.19995V28.9868H5.59998V39.4523Z" fill="white"/>
<path d="M24.2653 43.6786C23.9149 43.6786 23.5925 43.4458 23.4949 43.0922C23.3773 42.6659 23.6269 42.2251 24.0525 42.1083C27.4796 41.1603 30.79 39.8011 33.8932 38.0675L34.0027 38.0067C34.3899 37.7939 34.8763 37.9315 35.0899 38.3179C35.3059 38.7035 35.1667 39.1915 34.7803 39.4051L34.6723 39.4651C31.458 41.2603 28.0276 42.669 24.4781 43.6498C24.4077 43.6682 24.3357 43.6786 24.2653 43.6786Z" fill="white"/>
<path d="M30.0716 39.9091C28.7068 39.9091 27.4452 39.7859 26.3996 39.6579C25.9605 39.6051 25.6485 39.2067 25.7013 38.7675C25.7541 38.3283 26.1573 38.0163 26.5916 38.0707C28.942 38.3547 30.6556 38.3867 32.326 38.1739C33.1411 38.0707 33.9555 37.9379 34.7699 37.8051C36.1203 37.5851 37.5155 37.3571 38.9155 37.2627C39.3659 37.2251 39.7386 37.5659 39.7674 38.0067C39.7978 38.4475 39.4643 38.8291 39.0227 38.8587C37.6987 38.9483 36.3403 39.1699 35.0275 39.3827C34.1939 39.5187 33.3619 39.6547 32.5276 39.7611C31.6884 39.8667 30.8628 39.9091 30.0716 39.9091Z" fill="white"/>
<path d="M38.9682 38.8604C38.5538 38.8604 38.2042 38.5404 38.1714 38.1212C38.0795 36.9012 37.1275 35.9372 35.9099 35.826C35.4699 35.7868 35.1451 35.398 35.1851 34.9572C35.2251 34.518 35.6203 34.1996 36.0539 34.2324C38.0531 34.414 39.6154 35.998 39.7674 37.9996C39.8018 38.4404 39.4714 38.8244 39.0314 38.8572C39.0098 38.8588 38.9882 38.8604 38.9682 38.8604Z" fill="white"/>
<path d="M26.0668 34.8867C25.8156 34.8867 25.5684 34.7683 25.4124 34.5467C25.158 34.1851 25.2452 33.6867 25.606 33.4316L32.5155 28.5684C32.8779 28.314 33.3755 28.4012 33.6307 28.762C33.8843 29.1236 33.7987 29.622 33.4371 29.8772L26.5276 34.7403C26.3868 34.8395 26.226 34.8867 26.0668 34.8867Z" fill="white"/>
<path d="M23.3996 33.8997C23.1484 33.8997 22.9004 33.7821 22.7444 33.5605C22.4901 33.1997 22.5772 32.6997 22.938 32.4453L28.3684 28.6237C28.7308 28.3701 29.2284 28.4565 29.4835 28.8173C29.7379 29.1789 29.6507 29.6773 29.2899 29.9325L23.8596 33.7541C23.7196 33.8525 23.5588 33.8997 23.3996 33.8997Z" fill="white"/>
<path d="M32.1404 30.6125C31.8948 30.6125 31.654 30.4997 31.4964 30.2893C30.9756 29.5845 30.006 29.4301 29.29 29.9333C28.9292 30.1877 28.4292 30.1005 28.1748 29.7397C27.9204 29.3789 28.0068 28.8797 28.3684 28.6245C29.802 27.6173 31.7396 27.9293 32.782 29.3365C33.0444 29.6917 32.97 30.1925 32.6148 30.4557C32.4724 30.5605 32.306 30.6125 32.1404 30.6125Z" fill="white"/>
<path d="M29.7045 35.2612C29.4533 35.2612 29.2053 35.1436 29.0501 34.9212C28.7957 34.5604 28.8821 34.0612 29.2437 33.8068C29.8477 33.382 30.4573 32.9604 31.0669 32.5396C32.6444 31.4509 34.2756 30.3245 35.79 29.1285C36.1372 28.8549 36.6396 28.9141 36.9132 29.2613C37.1868 29.6085 37.1284 30.1117 36.7812 30.3845C35.226 31.6117 33.5732 32.7532 31.9748 33.8564C31.3693 34.274 30.7629 34.6924 30.1629 35.114C30.0237 35.214 29.8637 35.2612 29.7045 35.2612Z" fill="white"/>
<path d="M36.2867 30.5573C36.0411 30.5573 35.7995 30.4453 35.6427 30.2341C35.1211 29.5293 34.1507 29.3733 33.4355 29.8781C33.0731 30.1325 32.5756 30.0453 32.3204 29.6845C32.0652 29.3237 32.1532 28.8237 32.514 28.5694C33.9467 27.5622 35.8843 27.875 36.9275 29.2813C37.1907 29.6357 37.1155 30.1373 36.7611 30.3997C36.6187 30.5061 36.4515 30.5573 36.2867 30.5573Z" fill="white"/>
<path d="M40.0219 31.6076C39.6979 31.6076 39.3915 31.4076 39.2715 31.086C39.0955 30.6109 38.7051 30.2581 38.1987 30.1165C37.6939 29.9741 37.1772 30.0733 36.7812 30.3861C36.434 30.6589 35.9308 30.6005 35.6572 30.2533C35.3836 29.9061 35.4428 29.4029 35.79 29.1301C36.5916 28.4973 37.6283 28.2941 38.6323 28.5765C39.6211 28.8541 40.4211 29.5845 40.7723 30.5285C40.9259 30.9436 40.7155 31.4036 40.3011 31.5572C40.2091 31.59 40.1155 31.6076 40.0219 31.6076Z" fill="white"/>
<path d="M34.6307 35.7076C34.3796 35.7076 34.1316 35.5892 33.9764 35.3684C33.722 35.0068 33.8084 34.5076 34.17 34.2524C35.9571 32.9948 37.8067 31.6933 39.4931 30.2061C39.8243 29.9125 40.3307 29.9461 40.6219 30.2773C40.9139 30.6085 40.8819 31.1149 40.5507 31.4069C38.7987 32.9508 36.9131 34.2772 35.0899 35.5612C34.9507 35.6604 34.7899 35.7076 34.6307 35.7076Z" fill="white"/>
<path d="M43.1994 33.042C42.757 33.042 42.3994 32.6844 42.3994 32.242C42.3994 31.5972 41.8906 31.318 41.7354 31.2476C41.581 31.1772 41.0355 30.9812 40.5515 31.4076C40.2187 31.698 39.7139 31.6668 39.4219 31.3356C39.1299 31.0044 39.1627 30.498 39.4939 30.206C40.2939 29.502 41.4059 29.342 42.3946 29.7892C43.3834 30.2372 43.9994 31.1764 43.9994 32.242C43.9994 32.6836 43.6418 33.042 43.1994 33.042Z" fill="white"/>
<path d="M16.2534 30.2621C16.179 30.2621 16.1038 30.2517 16.0294 30.2301C14.8486 29.8861 13.5847 29.8181 12.3743 30.0373C11.9359 30.1125 11.5239 29.8261 11.4447 29.3917C11.3663 28.9565 11.6559 28.5405 12.0903 28.4621C13.5439 28.2013 15.0606 28.2805 16.4766 28.6941C16.9006 28.8181 17.1446 29.2621 17.0206 29.6853C16.919 30.0357 16.5998 30.2621 16.2534 30.2621Z" fill="white"/>
<path d="M22.5509 33.3516C22.3869 33.3516 22.2214 33.3012 22.079 33.198C20.2478 31.8572 18.2126 30.8588 16.0318 30.2308C15.607 30.1092 15.3623 29.6652 15.4847 29.2404C15.607 28.8172 16.051 28.5716 16.475 28.6932C18.8374 29.3732 21.0406 30.454 23.0245 31.906C23.3805 32.1668 23.4581 32.6684 23.1973 33.0244C23.0405 33.2388 22.7973 33.3516 22.5509 33.3516Z" fill="white"/>
<path d="M26.9532 35.0124C26.9292 35.0124 26.9044 35.0116 26.8804 35.0092C25.1452 34.8524 23.4853 34.226 22.0789 33.198C21.7221 32.9372 21.6445 32.4372 21.9053 32.0797C22.1661 31.7245 22.6653 31.6453 23.0229 31.9061C24.1949 32.7628 25.578 33.2852 27.0236 33.4156C27.4644 33.4564 27.7884 33.8452 27.7484 34.2852C27.7124 34.6996 27.3628 35.0124 26.9532 35.0124Z" fill="white"/>
<path d="M35.9827 35.8292C35.9587 35.8292 35.9339 35.8284 35.9091 35.826L26.8812 35.0092C26.4404 34.97 26.1164 34.5812 26.1564 34.1404C26.1972 33.7004 26.5852 33.3812 27.0252 33.4156L36.0547 34.2324C36.4939 34.2732 36.8187 34.662 36.7787 35.102C36.7403 35.5164 36.3915 35.8292 35.9827 35.8292Z" fill="white"/>
<path d="M38.265 37.062C38.0139 37.062 37.7667 36.9436 37.6107 36.7228C37.3563 36.3612 37.4435 35.862 37.8043 35.6068C39.5058 34.41 41.137 33.0812 42.6522 31.6581C42.973 31.3549 43.4802 31.3709 43.7826 31.6933C44.0858 32.0149 44.0698 32.5212 43.7474 32.8236C42.1778 34.298 40.489 35.674 38.7258 36.9156C38.585 37.0156 38.4242 37.062 38.265 37.062Z" fill="white"/>
<path d="M18.1487 43.1467C18.0335 43.1467 17.9167 43.1219 17.8063 43.0691L11.5392 40.0947C11.14 39.9059 10.9704 39.4291 11.1592 39.0291C11.3488 38.63 11.8264 38.4604 12.2247 38.6492L18.4919 41.6235C18.891 41.8131 19.0606 42.2899 18.8718 42.6891C18.7343 42.9779 18.4479 43.1467 18.1487 43.1467Z" fill="white"/>
<path d="M21.9221 43.9963C20.5086 43.9963 19.1014 43.6835 17.8054 43.0691C17.4062 42.8795 17.2366 42.4027 17.4254 42.0035C17.6142 41.6043 18.0926 41.4339 18.491 41.6235C20.227 42.4467 22.2021 42.6187 24.0517 42.1067C24.4781 41.9875 24.9181 42.2387 25.0365 42.6643C25.1533 43.0899 24.9037 43.5307 24.4781 43.6483C23.6397 43.8811 22.7797 43.9963 21.9221 43.9963Z" fill="white"/>
</svg>
