<svg width="48" height="48" viewBox="0 0 48 48" fill="none" xmlns="http://www.w3.org/2000/svg">
<path d="M43.3453 28.2345L40.7522 24.7241C40.6659 24.606 40.6194 24.4635 40.6194 24.3172C40.6194 24.1709 40.6659 24.0285 40.7522 23.9103L43.3108 20.3793C43.5732 20.0266 43.7475 19.6163 43.8191 19.1826C43.8908 18.7489 43.8577 18.3044 43.7228 17.886C43.5878 17.4677 43.3549 17.0876 43.0433 16.7776C42.7317 16.4675 42.3505 16.2364 41.9315 16.1034L37.7936 14.7862C37.6541 14.7423 37.5321 14.6552 37.4453 14.5374C37.3585 14.4196 37.3114 14.2773 37.3108 14.131V9.7862C37.3065 9.34674 37.1972 8.91468 36.992 8.52601C36.7869 8.13734 36.4919 7.8033 36.1315 7.55172C35.7801 7.29346 35.3713 7.12408 34.9402 7.05803C34.5091 6.99198 34.0683 7.03122 33.6557 7.17241L29.5177 8.55172C29.3793 8.59728 29.2299 8.59779 29.0912 8.55318C28.9524 8.50858 28.8313 8.42115 28.7453 8.30344L26.166 4.77241C25.91 4.4197 25.5739 4.13268 25.1855 3.93488C24.7971 3.73709 24.3674 3.63414 23.9315 3.63448C23.4937 3.63113 23.0615 3.7342 22.6723 3.93483C22.2831 4.13545 21.9484 4.42762 21.6971 4.7862L19.1729 8.33793C19.0874 8.45826 18.9656 8.54799 18.8253 8.59392C18.685 8.63985 18.5337 8.63956 18.3936 8.5931L14.2557 7.21379C13.8351 7.07157 13.3864 7.03297 12.9477 7.10127C12.509 7.16958 12.0932 7.34276 11.7358 7.60611C11.3783 7.86946 11.0897 8.2152 10.8945 8.61395C10.6992 9.01271 10.6031 9.4527 10.6143 9.89655L10.6488 14.2621C10.6562 14.4133 10.6136 14.5628 10.5276 14.6874C10.4416 14.8121 10.3169 14.905 10.1729 14.9517L6.03499 16.2965C5.61822 16.4302 5.23924 16.6611 4.92935 16.9702C4.61946 17.2792 4.38755 17.6576 4.25279 18.074C4.11803 18.4904 4.08429 18.9329 4.15434 19.3649C4.22439 19.797 4.39624 20.2061 4.65567 20.5586L7.24878 24.0345C7.33509 24.1526 7.3816 24.2951 7.3816 24.4414C7.3816 24.5877 7.33509 24.7302 7.24878 24.8483L4.69016 28.3793C4.42781 28.732 4.25355 29.1423 4.1819 29.576C4.11024 30.0097 4.14327 30.4542 4.27822 30.8726C4.41317 31.2909 4.64614 31.671 4.95772 31.9811C5.2693 32.2911 5.65047 32.5222 6.06947 32.6552L10.2074 33.9724C10.347 34.0163 10.4689 34.1034 10.5557 34.2212C10.6425 34.339 10.6896 34.4813 10.6902 34.6276V38.9931C10.6872 39.4339 10.7899 39.8691 10.9897 40.2621C11.1895 40.6551 11.4805 40.9944 11.8385 41.2518C12.1965 41.5091 12.6109 41.6769 13.0471 41.7411C13.4832 41.8053 13.9284 41.764 14.3453 41.6207L18.4833 40.2414C18.6217 40.1958 18.7711 40.1953 18.9098 40.2399C19.0486 40.2845 19.1697 40.3719 19.2557 40.4897L21.8212 44.0207C22.0773 44.3734 22.4133 44.6604 22.8017 44.8582C23.1901 45.056 23.6198 45.159 24.0557 45.1586C24.4936 45.162 24.9257 45.0589 25.3149 44.8583C25.7042 44.6576 26.0388 44.3655 26.2902 44.0069L28.8281 40.4207C28.9136 40.3004 29.0354 40.2106 29.1757 40.1647C29.316 40.1188 29.4673 40.119 29.6074 40.1655L33.7453 41.5448C34.1659 41.687 34.6146 41.7256 35.0533 41.6573C35.492 41.589 35.9078 41.4159 36.2652 41.1525C36.6227 40.8892 36.9113 40.5434 37.1065 40.1447C37.3018 39.7459 37.3979 39.3059 37.3867 38.8621V34.4965C37.3793 34.3453 37.4219 34.1958 37.5079 34.0712C37.5939 33.9465 37.7185 33.8537 37.8626 33.8069L42.0005 32.4621C42.4173 32.3284 42.7962 32.0975 43.1061 31.7884C43.416 31.4794 43.6479 31.101 43.7827 30.6846C43.9175 30.2682 43.9512 29.8257 43.8811 29.3937C43.8111 28.9616 43.6392 28.5525 43.3798 28.2L43.3453 28.2345ZM42.4419 30.3034C42.3748 30.5117 42.2591 30.7009 42.1044 30.8556C41.9497 31.0103 41.7604 31.126 41.5522 31.1931L37.4143 32.5724C36.9961 32.7087 36.6323 32.9748 36.3756 33.332C36.1188 33.6891 35.9826 34.1188 35.9867 34.5586V38.9241C35.9876 39.1424 35.9368 39.3578 35.8382 39.5526C35.7397 39.7474 35.5963 39.916 35.4199 40.0446C35.2436 40.1732 35.0392 40.2581 34.8236 40.2923C34.608 40.3265 34.3873 40.309 34.1798 40.2414L30.0419 38.8965C29.6244 38.762 29.1749 38.7637 28.7584 38.9013C28.3419 39.0389 27.9799 39.3053 27.7246 39.6621L25.1867 43.2069C25.0598 43.3852 24.8923 43.5307 24.698 43.6314C24.5037 43.7321 24.2883 43.7852 24.0695 43.7862C23.8518 43.7868 23.6372 43.7358 23.443 43.6375C23.2488 43.5392 23.0806 43.3964 22.9522 43.2207L20.3867 39.6897C20.1955 39.4257 19.9447 39.2107 19.6547 39.0621C19.3647 38.9135 19.0436 38.8355 18.7177 38.8345C18.4953 38.8346 18.2742 38.8695 18.0626 38.9379L13.9246 40.3172C13.7172 40.3856 13.4965 40.4038 13.2807 40.3702C13.0649 40.3367 12.8601 40.2523 12.6833 40.1241C12.5063 39.9965 12.3621 39.8286 12.2626 39.6344C12.1631 39.4402 12.1111 39.2251 12.1108 39.0069V34.6069C12.1062 34.1704 11.9636 33.7465 11.7035 33.396C11.4434 33.0454 11.079 32.7861 10.6626 32.6552L6.52464 31.3379C6.31737 31.2707 6.12896 31.1554 5.97485 31.0014C5.82074 30.8473 5.70532 30.659 5.63803 30.4518C5.57075 30.2445 5.55352 30.0243 5.58775 29.8091C5.62198 29.5939 5.70671 29.3899 5.83499 29.2138L8.4005 25.6828C8.66103 25.3278 8.8015 24.8989 8.8015 24.4586C8.8015 24.0183 8.66103 23.5895 8.4005 23.2345L5.76602 19.7034C5.6363 19.5272 5.55038 19.3226 5.51535 19.1066C5.48033 18.8906 5.4972 18.6693 5.56458 18.4611C5.63196 18.2529 5.74791 18.0638 5.90286 17.9092C6.0578 17.7547 6.24729 17.6392 6.45567 17.5724L10.5936 16.2276C11.0118 16.0912 11.3756 15.8252 11.6323 15.468C11.8891 15.1109 12.0253 14.6812 12.0212 14.2414L11.9936 9.89655C11.9927 9.67826 12.0436 9.46287 12.1421 9.26808C12.2406 9.0733 12.384 8.90468 12.5604 8.77608C12.7368 8.64749 12.9412 8.5626 13.1567 8.52839C13.3723 8.49419 13.593 8.51163 13.8005 8.57931L17.9384 9.92413C18.36 10.0598 18.8139 10.0566 19.2335 9.91511C19.6531 9.77359 20.0162 9.50118 20.2695 9.13793L22.8074 5.5931C22.9343 5.41483 23.1018 5.26933 23.2961 5.1686C23.4904 5.06786 23.7058 5.0148 23.9246 5.01379C24.1423 5.01322 24.357 5.06417 24.5511 5.16246C24.7453 5.26074 24.9135 5.40358 25.0419 5.57931L27.6074 9.11034C27.8607 9.47359 28.2238 9.746 28.6434 9.88752C29.063 10.029 29.5169 10.0322 29.9384 9.89655L34.0764 8.51724C34.2838 8.44884 34.5045 8.43068 34.7203 8.46425C34.9361 8.49782 35.1409 8.58217 35.3177 8.71034C35.4947 8.838 35.6389 9.00584 35.7384 9.20007C35.8379 9.39429 35.8899 9.60935 35.8902 9.82758V14.1931C35.9034 14.6225 36.0499 15.0371 36.3094 15.3794C36.5689 15.7217 36.9286 15.9748 37.3384 16.1034L41.4764 17.4207C41.6836 17.4879 41.872 17.6032 42.0262 17.7572C42.1803 17.9113 42.2957 18.0996 42.363 18.3069C42.4303 18.5141 42.4475 18.7343 42.4133 18.9495C42.379 19.1647 42.2943 19.3687 42.166 19.5448L39.6005 23.0759C39.34 23.4308 39.1995 23.8597 39.1995 24.3C39.1995 24.7403 39.34 25.1692 39.6005 25.5241L42.1867 29.0345C42.3287 29.2082 42.4261 29.414 42.4706 29.6339C42.5151 29.8538 42.5052 30.0813 42.4419 30.2965V30.3034ZM30.7177 19.8965H28.3384C28.8695 16.7034 27.6488 15.1241 26.7936 14.4483C26.3683 14.064 25.8472 13.8016 25.2852 13.6888C24.7232 13.5759 24.1412 13.6167 23.6005 13.8069C23.358 13.9127 23.1511 14.0859 23.0044 14.306C22.8576 14.5261 22.7773 14.7838 22.7729 15.0483C22.7729 15.4345 22.7729 15.8138 22.8074 16.1862C22.9471 17.2531 22.8215 18.338 22.4419 19.3448C22.1177 20.0345 20.7522 20.7241 19.6212 21.1034C19.5594 21.0095 19.4755 20.9322 19.377 20.8781C19.2784 20.824 19.1681 20.7948 19.0557 20.7931H14.5246C14.3417 20.7931 14.1663 20.8658 14.037 20.9951C13.9076 21.1244 13.835 21.2998 13.835 21.4828V30.6552C13.835 30.8381 13.9076 31.0135 14.037 31.1428C14.1663 31.2722 14.3417 31.3448 14.5246 31.3448H19.0557C19.1687 31.3424 19.2794 31.3121 19.378 31.2568C19.4767 31.2015 19.5602 31.1228 19.6212 31.0276L21.6902 31.8C22.7645 32.201 23.902 32.4065 25.0488 32.4069H30.5177C31.1892 32.413 31.8398 32.1741 32.3477 31.7348C32.8556 31.2955 33.1857 30.686 33.2764 30.0207L34.1315 23.8138C34.1985 23.3261 34.1602 22.8298 34.0194 22.3581C33.8785 21.8864 33.6383 21.4504 33.3149 21.0793C32.9915 20.7082 32.5924 20.4106 32.1444 20.2066C31.6965 20.0026 31.21 19.8969 30.7177 19.8965ZM18.366 29.9586H15.2143V22.1655H18.366V29.9586ZM32.766 23.6207L31.9108 29.8276C31.8655 30.1603 31.7004 30.465 31.4465 30.6846C31.1926 30.9043 30.8673 31.0238 30.5315 31.0207H25.0764C24.0922 31.0221 23.1159 30.8469 22.1936 30.5034L19.7453 29.5931V22.5172C20.7936 22.1724 23.0488 21.3034 23.6902 19.9172C24.1688 18.7139 24.3395 17.4101 24.1867 16.1241C24.1867 15.7724 24.1522 15.4345 24.1384 15.0828C24.3632 14.9916 24.6073 14.9583 24.8483 14.986C25.0893 15.0137 25.3195 15.1015 25.5177 15.2414C26.9453 15.9931 27.435 17.931 26.8281 20.4138C26.8032 20.5161 26.8021 20.6227 26.8248 20.7255C26.8475 20.8283 26.8935 20.9246 26.9591 21.0069C27.0233 21.0882 27.1051 21.1539 27.1982 21.1993C27.2913 21.2447 27.3935 21.2685 27.4971 21.269H30.7246C31.0219 21.2662 31.3162 21.3275 31.5876 21.4486C31.859 21.5698 32.1011 21.7481 32.2974 21.9712C32.4938 22.1944 32.6397 22.4572 32.7253 22.7419C32.811 23.0265 32.8342 23.3262 32.7936 23.6207H32.766Z" fill="white"/>
</svg>
