<svg width="48" height="48" viewBox="0 0 48 48" fill="none" xmlns="http://www.w3.org/2000/svg">
<path d="M43.0005 31.1252H39.5865C39.6949 30.2548 39.7505 29.2988 39.7505 28.24V18.5148C39.7505 17.9624 39.3029 17.5148 38.7505 17.5148C36.7293 17.5148 34.7841 17.4312 33.1821 16.8044V5C33.1821 4.4476 32.7345 4 32.1821 4H5.00049C4.44809 4 4.00049 4.4476 4.00049 5V37.6296C4.00049 37.6528 4.00569 37.6748 4.00729 37.6976C4.08049 41.1848 6.92129 44 10.4097 44H37.5913C41.1253 44 44.0005 41.1116 44.0005 37.5616V32.1252C44.0005 31.5732 43.5529 31.1252 43.0005 31.1252ZM21.0881 28.2404V19.51C23.7725 19.4756 27.1953 19.176 29.4193 16.556C31.6441 19.1756 35.0661 19.4756 37.7505 19.51V28.24C37.7505 33.3916 36.4917 35.034 34.6013 35.9152C32.0649 37.098 30.2641 38.1236 29.4193 38.6272C28.5749 38.1232 26.7741 37.098 24.2373 35.9152C22.3469 35.034 21.0881 33.3916 21.0881 28.2404ZM6.00049 37.5616V6H31.1821V15.5052C30.8505 15.1664 30.5497 14.7776 30.2937 14.3156C30.1177 13.9976 29.7829 13.8 29.4189 13.8C29.0549 13.8 28.7205 13.9976 28.5441 14.3156C26.9073 17.27 23.6101 17.5148 20.0873 17.5148C19.5349 17.5148 19.0873 17.9624 19.0873 18.5148V28.2404C19.0873 29.2992 19.1425 30.2552 19.2513 31.1256H15.8185C15.2661 31.1256 14.8185 31.5732 14.8185 32.1256V37.562C14.8189 40.0088 12.8409 42 10.4097 42C7.97849 42 6.00049 40.0088 6.00049 37.5616ZM37.5913 42H15.0413C16.1397 40.8436 16.8193 39.2824 16.8193 37.5616V33.1252H19.6421C20.2809 35.3884 21.4933 36.8424 23.3925 37.728C26.7897 39.3124 28.8601 40.6292 28.8805 40.642C29.0445 40.7472 29.2317 40.8 29.4193 40.8C29.6069 40.8 29.7941 40.7472 29.9581 40.6424C29.9789 40.6292 32.0497 39.3124 35.4469 37.728C37.3461 36.8424 38.5585 35.3884 39.1973 33.1252H42.0005V37.5616C42.0005 40.0088 40.0225 42 37.5913 42Z" fill="white"/>
<path d="M11.1617 12.45H26.0209C26.5733 12.45 27.0209 12.0024 27.0209 11.45C27.0209 10.8976 26.5733 10.45 26.0209 10.45H11.1617C10.6093 10.45 10.1617 10.8976 10.1617 11.45C10.1617 12.0024 10.6093 12.45 11.1617 12.45Z" fill="white"/>
<path d="M11.1617 17.9H16.8005C17.3529 17.9 17.8005 17.4524 17.8005 16.9C17.8005 16.3476 17.3529 15.9 16.8005 15.9H11.1617C10.6093 15.9 10.1617 16.3476 10.1617 16.9C10.1617 17.4524 10.6093 17.9 11.1617 17.9Z" fill="white"/>
</svg>
