<svg width="80" height="80" viewBox="0 0 80 80" fill="none" xmlns="http://www.w3.org/2000/svg">
<g clip-path="url(#clip0)">
<path d="M58.0267 13.567H29.434V11.5544C29.434 8.22459 26.7261 5.51666 23.3963 5.51666C20.0665 5.51666 17.3585 8.22459 17.3585 11.5544V13.567H16.3522C14.6878 13.567 13.3334 15.0633 13.3334 16.9038V34.3811C13.3334 36.2216 14.6878 37.7179 16.3522 37.7179H17.3585V49.0055L22.39 60.0746V67.9066H66.6667V22.207L58.0267 13.567ZM58.6164 17.0024L63.2312 21.6173H58.6164V17.0024ZM23.3963 57.4241L22.2149 54.8248H24.5787L23.3963 57.4241ZM25.4924 52.8123H21.2992L19.9266 49.7934H26.8639L25.4924 52.8123ZM27.4214 47.7808H19.3711V26.6487H27.4214V47.7808ZM23.3963 7.52924C25.6161 7.52924 27.4214 9.33452 27.4214 11.5544V24.6362H19.3711V11.5544C19.3711 9.33452 21.1764 7.52924 23.3963 7.52924ZM16.3522 35.7053C15.8068 35.7053 15.346 35.0985 15.346 34.3811V16.9038C15.346 16.1863 15.8068 15.5796 16.3522 15.5796H17.3585V35.7053H16.3522ZM24.4026 65.894V60.0746L29.434 49.0055V15.5796H56.6038V23.6299H64.6541V65.894H24.4026Z" fill="#5FCF9D"/>
<path d="M60.9238 50.4026L58.6164 52.7101V51.1141H46.5409V63.1896H58.6164V55.5559L62.3467 51.8255L60.9238 50.4026ZM56.6038 61.177H48.5535V53.1267H56.6038V54.7226L53.5849 57.7415L51.2775 55.4341L49.8546 56.857L53.5849 60.5873L56.6038 57.5684V61.177Z" fill="#5FCF9D"/>
<path d="M46.5409 45.0764H58.6164V33.001H46.5409V45.0764ZM48.5535 35.0136H56.6038V43.0639H48.5535V35.0136Z" fill="#5FCF9D"/>
<path d="M43.522 51.1141H33.4591V53.1267H43.522V51.1141Z" fill="#5FCF9D"/>
<path d="M43.522 55.1393H33.4591V57.1519H43.522V55.1393Z" fill="#5FCF9D"/>
<path d="M43.522 33.001H33.4591V35.0136H43.522V33.001Z" fill="#5FCF9D"/>
<path d="M43.522 37.0261H33.4591V39.0387H43.522V37.0261Z" fill="#5FCF9D"/>
<path d="M52.5786 20.9255H33.4591V22.9381H52.5786V20.9255Z" fill="#5FCF9D"/>
<path d="M52.5787 24.9506H50.5662V26.9632H52.5787V24.9506Z" fill="#5FCF9D"/>
<path d="M48.5534 24.9506H33.4591V26.9632H48.5534V24.9506Z" fill="#5FCF9D"/>
<path d="M35.4717 41.0512H33.4591V43.0638H35.4717V41.0512Z" fill="#5FCF9D"/>
<path d="M39.497 41.0512H37.4844V43.0638H39.497V41.0512Z" fill="#5FCF9D"/>
<path d="M43.5221 41.0512H41.5095V43.0638H43.5221V41.0512Z" fill="#5FCF9D"/>
<path d="M35.4717 59.1646H33.4591V61.1771H35.4717V59.1646Z" fill="#5FCF9D"/>
<path d="M39.497 59.1646H37.4844V61.1771H39.497V59.1646Z" fill="#5FCF9D"/>
<path d="M43.5221 59.1646H41.5095V61.1771H43.5221V59.1646Z" fill="#5FCF9D"/>
</g>
<defs>
<clipPath id="clip0">
<rect width="53.3333" height="62.3899" fill="white" transform="translate(13.3334 5.51666)"/>
</clipPath>
</defs>
</svg>
