<svg width="48" height="48" viewBox="0 0 48 48" fill="none" xmlns="http://www.w3.org/2000/svg">
<path d="M42.6 32.6553H39.2167L38.4591 29.9613H36.9855L36.2279 32.6553H36.0968V14.0208L29.276 7.20001H9V40.8H36.0968V38.1028L37.7226 36.8585L40.1873 38.745L41.3227 37.9581L40.1066 35.3509L42.6 33.8242V32.6553ZM29.5935 9.05018L34.2466 13.7032H29.5935V9.05018ZM10.0839 39.7161V8.28388H28.5097V14.7871H35.0129V32.6553H33.929H32.8452H30.5457L29.7881 29.9613H28.3146L27.557 32.6553H25.2581H24.1742H21.8748L21.1171 29.9613H19.6436L18.886 32.6553H15.5032V33.8242L17.9967 35.3509L16.7806 37.9581L17.9159 38.745L20.3806 36.8585L22.8454 38.745L23.9807 37.9581L22.7646 35.3509L24.7161 34.1559L26.6676 35.3509L25.4515 37.9581L26.5869 38.745L29.0516 36.8585L31.5163 38.745L32.6517 37.9581L31.4356 35.3509L33.3871 34.1559L35.3386 35.3509L34.1225 37.9581L35.0129 38.5754V39.7161H10.0839ZM31.0031 36.987L29.0516 35.4928L27.1001 36.987L28.0588 34.9319L26.1105 33.7391H28.378L29.0516 31.3449L29.7252 33.7391H31.9927L30.0444 34.9319L31.0031 36.987ZM22.3322 36.987L20.3806 35.4928L18.4291 36.987L19.3878 34.9319L17.4396 33.7391H19.707L20.3806 31.3449L21.0543 33.7391H23.3217L21.3735 34.9319L22.3322 36.987ZM38.7154 34.9319L39.6741 36.987L37.7226 35.4928L35.7711 36.987L36.7298 34.9319L34.7815 33.7391H37.049L37.7226 31.3449L38.3962 33.7391H40.6637L38.7154 34.9319Z" fill="#5FCF9D"/>
<path d="M17.6717 22.3743C21.2577 22.3743 24.1749 19.457 24.1749 15.8711C24.1749 12.2851 21.2577 9.36783 17.6717 9.36783C14.0857 9.36783 11.1685 12.2851 11.1685 15.8711C11.1685 19.457 14.0857 22.3743 17.6717 22.3743ZM13.9947 19.8407C14.4071 18.1531 15.9099 16.9549 17.6717 16.9549C19.4335 16.9549 20.9368 18.1531 21.3487 19.8407C20.3814 20.7371 19.0916 21.2904 17.6717 21.2904C16.2518 21.2904 14.962 20.7371 13.9947 19.8407ZM16.0459 14.2452C16.0459 13.3489 16.7753 12.6194 17.6717 12.6194C18.568 12.6194 19.2975 13.3489 19.2975 14.2452C19.2975 15.1416 18.568 15.8711 17.6717 15.8711C16.7753 15.8711 16.0459 15.1416 16.0459 14.2452ZM17.6717 10.4517C20.6599 10.4517 23.091 12.8828 23.091 15.8711C23.091 16.9858 22.7518 18.0231 22.1725 18.8853C21.6723 17.6659 20.7049 16.7148 19.5034 16.2293C20.0394 15.7339 20.3814 15.0311 20.3814 14.2452C20.3814 12.7511 19.1658 11.5356 17.6717 11.5356C16.1776 11.5356 14.962 12.7511 14.962 14.2452C14.962 15.0311 15.304 15.7339 15.8399 16.2293C14.6385 16.7148 13.6711 17.6659 13.1709 18.8853C12.5916 18.0231 12.2523 16.9858 12.2523 15.8711C12.2523 12.8828 14.6835 10.4517 17.6717 10.4517Z" fill="#5FCF9D"/>
<path d="M33.929 15.8711H25.258V16.955H33.929V15.8711Z" fill="#5FCF9D"/>
<path d="M33.929 18.0388H25.258V19.1227H33.929V18.0388Z" fill="#5FCF9D"/>
<path d="M33.929 20.2066H25.258V21.2905H33.929V20.2066Z" fill="#5FCF9D"/>
<path d="M33.9297 23.4579H11.1685V28.8772H33.9297V23.4579ZM20.9233 24.5418H24.1749V27.7934H20.9233V24.5418ZM19.8394 27.7934H16.5878V24.5418H19.8394V27.7934ZM25.2588 24.5418H28.5104V27.7934H25.2588V24.5418ZM12.2523 24.5418H15.5039V27.7934H12.2523V24.5418ZM32.8459 27.7934H29.5943V24.5418H32.8459V27.7934Z" fill="#5FCF9D"/>
<path d="M12.2523 37.5485H11.1685V38.6323H12.2523V37.5485Z" fill="#5FCF9D"/>
<path d="M12.2523 35.3809H11.1685V36.4647H12.2523V35.3809Z" fill="#5FCF9D"/>
<path d="M12.2523 33.2131H11.1685V34.297H12.2523V33.2131Z" fill="#5FCF9D"/>
</svg>
