<svg width="80" height="80" viewBox="0 0 80 80" fill="none" xmlns="http://www.w3.org/2000/svg">
<path d="M64.5777 39.0309C60.8022 39.0309 57.2977 37.1604 55.2031 34.0257L54.4516 32.9012L53.7001 34.0257C51.6056 37.1604 48.101 39.0309 44.3256 39.0309H40.9032V53.4799C40.9032 56.9723 42.4794 60.2547 45.1132 62.4578H26.4516V58.8536H38.1936V42.6351H19.2258V49.8433H13.8065V13.8021H53.5484V30.0206H55.3548V12H12V51.1174L25.1745 64.2598H47.8897L54.4516 68L62.0839 63.6498C65.7329 61.5702 68 57.6724 68 53.4799V39.0309H64.5777ZM24.6452 61.1837L15.0836 51.6454H24.6452V61.1837ZM21.0323 44.4371H36.3871V57.0516H26.4516V49.8433H21.0323V44.4371ZM66.1936 53.4799C66.1936 57.0281 64.2751 60.325 61.1879 62.0856L54.4516 65.9258L47.7154 62.0856C44.6281 60.325 42.7097 57.0281 42.7097 53.4799V40.833H44.3256C48.2817 40.833 51.9813 39.0625 54.4516 36.0413C56.9219 39.0625 60.6216 40.833 64.5777 40.833H66.1936V53.4799Z" fill="#5FCF9D"/>
<path d="M62.5806 53.4799C62.5806 55.7379 61.3594 57.8364 59.3949 58.9563L60.2909 60.5205C62.8172 59.0807 64.387 56.383 64.387 53.4799V48.0413H62.5806V53.4799Z" fill="#5FCF9D"/>
<path d="M49.9355 15.6041H17.4194V21.0103H49.9355V15.6041ZM48.129 19.2083H19.2258V17.4062H48.129V19.2083Z" fill="#5FCF9D"/>
<path d="M61.942 42.899L49.9354 54.8765L46.9611 51.9094L45.684 53.1834L49.9354 57.4246L63.2192 44.1731L61.942 42.899Z" fill="#5FCF9D"/>
<path d="M34.5806 46.2391H22.8387V48.0412H34.5806V46.2391Z" fill="#5FCF9D"/>
<path d="M34.5806 49.8433H28.2581V51.6454H34.5806V49.8433Z" fill="#5FCF9D"/>
<path d="M34.5806 53.4474H28.2581V55.2495H34.5806V53.4474Z" fill="#5FCF9D"/>
<path d="M46.3226 24.6144H17.4194V26.4165H46.3226V24.6144Z" fill="#5FCF9D"/>
<path d="M46.3226 28.2186H17.4194V30.0206H46.3226V28.2186Z" fill="#5FCF9D"/>
<path d="M46.3226 31.8227H17.4194V33.6248H46.3226V31.8227Z" fill="#5FCF9D"/>
<path d="M34.5807 35.4268H17.4194V37.2289H34.5807V35.4268Z" fill="#5FCF9D"/>
<path d="M34.5807 39.0309H17.4194V40.833H34.5807V39.0309Z" fill="#5FCF9D"/>
<path d="M49.9355 24.6144H48.129V26.4165H49.9355V24.6144Z" fill="#5FCF9D"/>
<path d="M49.9355 28.2186H48.129V30.0206H49.9355V28.2186Z" fill="#5FCF9D"/>
<path d="M49.9355 31.8227H48.129V33.6248H49.9355V31.8227Z" fill="#5FCF9D"/>
<path d="M38.1935 35.4268H36.3871V37.2289H38.1935V35.4268Z" fill="#5FCF9D"/>
<path d="M38.1935 39.0309H36.3871V40.833H38.1935V39.0309Z" fill="#5FCF9D"/>
</svg>
