<svg width="48" height="48" viewBox="0 0 48 48" fill="none" xmlns="http://www.w3.org/2000/svg">
<path d="M40.8 8.8258C40.8 7.92944 40.0706 7.2 39.1742 7.2H8.82582C7.92946 7.2 7.20001 7.92944 7.20001 8.8258C7.20001 9.5314 7.6547 10.1275 8.28388 10.3519V29.9613H14.6354L11.9251 40.8H16.2942L17.2426 37.0064H30.7574L31.7058 40.8H36.0749L33.3647 29.9613H39.7161V10.3519C40.3453 10.1275 40.8 9.5314 40.8 8.8258ZM15.4477 39.7161H13.3136L15.7518 29.9613H17.8864L15.4477 39.7161ZM28.9967 29.9613L29.945 33.7548H18.0555L19.0039 29.9613H28.9967ZM17.5136 35.9226L17.7846 34.8387H30.2155L30.4864 35.9226H17.5136ZM34.6864 39.7161H32.5523L30.113 29.9613H32.2477L34.6864 39.7161ZM39.1742 9.36774H37.5484V10.4516H38.6323V28.8774H9.36775V10.4516H36.4645V9.36774H8.82582C8.52667 9.36774 8.28388 9.12495 8.28388 8.8258C8.28388 8.52666 8.52667 8.28387 8.82582 8.28387H39.1742C39.4734 8.28387 39.7161 8.52666 39.7161 8.8258C39.7161 9.12495 39.4734 9.36774 39.1742 9.36774Z" fill="#5FCF9D"/>
<path d="M17.497 12.6192C13.6124 12.6192 10.4518 15.7798 10.4518 19.6644C10.4518 23.549 13.6124 26.7095 17.497 26.7095C21.3816 26.7095 24.5422 23.549 24.5422 19.6644C24.5422 15.7798 21.3816 12.6192 17.497 12.6192ZM17.497 13.7031C18.0221 13.7031 18.5289 13.7779 19.0144 13.9063L17.1177 19.1224H11.5634C11.8381 16.0887 14.3928 13.7031 17.497 13.7031ZM11.5634 20.2063H17.2726L21.309 24.2427C20.2744 25.1049 18.9456 25.6257 17.497 25.6257C14.3928 25.6257 11.8381 23.2401 11.5634 20.2063ZM22.0753 23.4764L18.124 19.5251L20.0322 14.277C22.0536 15.2324 23.4583 17.2847 23.4583 19.6644C23.4583 21.113 22.9375 22.4418 22.0753 23.4764Z" fill="#5FCF9D"/>
<path d="M35.3806 13.1613C34.1851 13.1613 33.2128 14.1335 33.2128 15.329C33.2128 15.7301 33.3294 16.1008 33.5201 16.4232L31.5979 18.3455C31.2749 18.1552 30.9042 18.0387 30.5032 18.0387C30.1379 18.0387 29.7987 18.1379 29.4963 18.2983L27.2386 15.1377C27.58 14.7546 27.7935 14.2555 27.7935 13.7032C27.7935 12.5077 26.8213 11.5355 25.6257 11.5355C24.4302 11.5355 23.458 12.5077 23.458 13.7032C23.458 14.8987 24.4302 15.871 25.6257 15.871C25.8767 15.871 26.114 15.8195 26.3384 15.7409L28.6877 19.0299C28.4666 19.3692 28.3354 19.7724 28.3354 20.2065C28.3354 21.402 29.3077 22.3742 30.5032 22.3742C31.6987 22.3742 32.6709 21.402 32.6709 20.2065C32.6709 19.8054 32.5544 19.4347 32.3636 19.1123L34.2859 17.19C34.6089 17.3803 34.9796 17.4968 35.3806 17.4968C36.5761 17.4968 37.5483 16.5246 37.5483 15.329C37.5483 14.1335 36.5761 13.1613 35.3806 13.1613ZM24.5419 13.7032C24.5419 13.1055 25.028 12.6194 25.6257 12.6194C26.2235 12.6194 26.7096 13.1055 26.7096 13.7032C26.7096 14.301 26.2235 14.7871 25.6257 14.7871C25.028 14.7871 24.5419 14.301 24.5419 13.7032ZM30.5032 21.2903C29.9054 21.2903 29.4193 20.8042 29.4193 20.2065C29.4193 19.6087 29.9054 19.1226 30.5032 19.1226C31.1009 19.1226 31.587 19.6087 31.587 20.2065C31.587 20.8042 31.1009 21.2903 30.5032 21.2903ZM35.3806 16.4129C34.7828 16.4129 34.2967 15.9268 34.2967 15.329C34.2967 14.7313 34.7828 14.2452 35.3806 14.2452C35.9783 14.2452 36.4645 14.7313 36.4645 15.329C36.4645 15.9268 35.9783 16.4129 35.3806 16.4129Z" fill="#5FCF9D"/>
<path d="M29.9611 27.7935H37.5482V23.458H29.9611V27.7935ZM31.045 24.5419H36.4643V26.7096H31.045V24.5419Z" fill="#5FCF9D"/>
</svg>
