<svg width="80" height="80" viewBox="0 0 80 80" fill="none" xmlns="http://www.w3.org/2000/svg">
<circle cx="40" cy="40" r="40" fill="#F8F8F8"/>
<path d="M20.9062 49H23.8462V37.8H20.9062V49ZM22.3862 36C23.3862 36 24.0862 35.36 24.0862 34.38C24.0862 33.42 23.3862 32.78 22.3862 32.78C21.3662 32.78 20.6662 33.42 20.6662 34.38C20.6662 35.36 21.3662 36 22.3862 36ZM31.7404 49.28C32.9804 49.28 34.3404 48.86 35.4204 47.92L34.2404 45.98C33.6204 46.5 32.8604 46.88 32.0604 46.88C30.4604 46.88 29.2804 45.52 29.2804 43.4C29.2804 41.3 30.4404 39.92 32.1604 39.92C32.7804 39.92 33.3004 40.18 33.8604 40.66L35.2604 38.76C34.4404 38.06 33.3804 37.52 32.0004 37.52C28.9604 37.52 26.2804 39.68 26.2804 43.4C26.2804 47.12 28.6404 49.28 31.7404 49.28ZM41.6018 49.28C44.4018 49.28 46.9818 47.12 46.9818 43.4C46.9818 39.68 44.4018 37.52 41.6018 37.52C38.8018 37.52 36.2218 39.68 36.2218 43.4C36.2218 47.12 38.8018 49.28 41.6018 49.28ZM41.6018 46.88C40.0818 46.88 39.2218 45.52 39.2218 43.4C39.2218 41.3 40.0818 39.92 41.6018 39.92C43.1218 39.92 43.9818 41.3 43.9818 43.4C43.9818 45.52 43.1218 46.88 41.6018 46.88ZM49.4413 49H52.3813V41.3C53.2013 40.48 53.7813 40.04 54.7013 40.04C55.8013 40.04 56.2813 40.64 56.2813 42.38V49H59.2213V42.02C59.2213 39.2 58.1813 37.52 55.7613 37.52C54.2413 37.52 53.1013 38.32 52.1213 39.28H52.0613L51.8413 37.8H49.4413V49Z" fill="black"/>
</svg>
