<svg width="340" height="588" viewBox="0 0 340 588" fill="none" xmlns="http://www.w3.org/2000/svg">
<g opacity="0.4" filter="url(#filter0_f)">
<path fill-rule="evenodd" clip-rule="evenodd" d="M66.0777 575.234H275.482C289.981 575.234 307.246 575.97 307.246 576.88C307.246 577.79 288.808 578.527 275.482 578.527H66.0777C51.3687 578.527 32.5948 577.79 32.5948 576.88C32.5948 575.97 51.0754 575.234 66.0777 575.234Z" fill="url(#paint0_linear)"/>
</g>
<g opacity="0.1" filter="url(#filter1_f)">
<path fill-rule="evenodd" clip-rule="evenodd" d="M48.0985 574.368H293.917C306.415 574.368 331.233 575.538 331.233 576.968C331.233 578.397 308.334 579.567 289.051 579.567H48.0985C31.9844 579.567 8.81763 578.397 8.81763 576.968C8.81763 575.538 31.2702 574.368 48.0985 574.368Z" fill="url(#paint1_linear)"/>
</g>
<path fill-rule="evenodd" clip-rule="evenodd" d="M27.5149 99.7921V79.213L28.2594 78.5198H30.2347V100.485H28.2323L27.5149 99.7921ZM311.863 133.282H313.725L315.587 134.235V199.611L313.725 200.521H311.863V133.282ZM27.2758 120.111V161.009L29.1383 161.919H30.048V119.158H29.095L27.2758 120.111ZM27.2758 213.952V173.054L29.095 172.101H30.048V214.862H29.1383L27.2758 213.952Z" fill="#C0C0C0"/>
<mask id="mask0" mask-type="alpha" maskUnits="userSpaceOnUse" x="27" y="78" width="289" height="137">
<path fill-rule="evenodd" clip-rule="evenodd" d="M27.5149 99.7921V79.213L28.2594 78.5198H30.2347V100.485H28.2323L27.5149 99.7921ZM311.863 133.282H313.725L315.587 134.235V199.611L313.725 200.521H311.863V133.282ZM27.2758 120.111V161.009L29.1383 161.919H30.048V119.158H29.095L27.2758 120.111ZM27.2758 213.952V173.054L29.095 172.101H30.048V214.862H29.1383L27.2758 213.952Z" fill="white"/>
</mask>
<g mask="url(#mask0)">
<g opacity="0.3" filter="url(#filter2_f)">
<path fill-rule="evenodd" clip-rule="evenodd" d="M26.1062 121.974L30.048 119.678V114.826L26.1062 117.122V121.974ZM26.1062 163.999L30.048 166.295V161.443L26.1062 159.147V163.999ZM26.1062 174.873L30.048 172.577V167.725L26.1062 170.021V174.873ZM26.1062 216.941L30.048 219.238V214.385L26.1062 212.089V216.941ZM312.555 128.56V133.412L316.497 135.708V130.856L312.555 128.56ZM312.555 205.027L316.497 202.731V197.879L312.555 200.175V205.027ZM26.7993 79.6896H30.741V74.8374H26.7993V79.6896ZM26.7993 104.385H30.741V99.5322H26.7993V104.385Z" fill="black"/>
</g>
<path opacity="0.9" fill-rule="evenodd" clip-rule="evenodd" d="M28.8785 81.3909V97.3669C28.8785 101.228 27.4848 101.005 27.2292 100.964C27.2034 100.96 27.1892 100.958 27.1892 100.962V77.6099C27.1892 77.6099 28.8785 77.7084 28.8785 81.3909ZM25.4565 116.992H26.3662C27.8822 116.992 29.1384 120.111 29.1384 121.628V159.71C29.1384 161.226 27.8822 164.345 26.3662 164.345H25.4565V116.992ZM26.3661 169.761H25.3699V216.984H26.3661C27.8822 216.984 29.1384 213.865 29.1384 212.349V174.353C29.1384 172.837 27.8822 169.761 26.3661 169.761ZM313.725 135.578C313.725 134.062 314.981 130.942 316.497 130.942H317.667V203.121H316.497C314.981 203.121 313.725 200.001 313.725 198.485V135.578Z" fill="#EFEFEF"/>
<mask id="mask1" mask-type="alpha" maskUnits="userSpaceOnUse" x="25" y="77" width="293" height="140">
<path fill-rule="evenodd" clip-rule="evenodd" d="M28.8785 81.3909V97.3669C28.8785 101.228 27.4848 101.005 27.2292 100.964C27.2034 100.96 27.1892 100.958 27.1892 100.962V77.6099C27.1892 77.6099 28.8785 77.7084 28.8785 81.3909ZM25.4565 116.992H26.3662C27.8822 116.992 29.1384 120.111 29.1384 121.628V159.71C29.1384 161.226 27.8822 164.345 26.3662 164.345H25.4565V116.992ZM26.3661 169.761H25.3699V216.984H26.3661C27.8822 216.984 29.1384 213.865 29.1384 212.349V174.353C29.1384 172.837 27.8822 169.761 26.3661 169.761ZM313.725 135.578C313.725 134.062 314.981 130.942 316.497 130.942H317.667V203.121H316.497C314.981 203.121 313.725 200.001 313.725 198.485V135.578Z" fill="white"/>
</mask>
<g mask="url(#mask1)">
<g opacity="0.7" filter="url(#filter3_f)">
<path fill-rule="evenodd" clip-rule="evenodd" d="M26.1063 79.3428L30.0481 77.3499V72.9741L26.1063 74.9671V79.3428ZM26.1063 103.821L30.0481 105.814V101.438L26.1063 99.4454V103.821ZM26.1063 120.588L30.0481 118.291V113.439L26.1063 115.735V120.588ZM26.1063 165.168L29.0518 166.901L26.1063 168.634V173.487L30.0481 171.191V162.656L26.1063 160.359V165.168ZM26.1063 218.068L30.0481 220.364V215.511L26.1063 213.215V218.068ZM312.339 128.559V133.412L316.281 135.708V130.855L312.339 128.559ZM312.339 205.244L316.281 202.947V198.095L312.339 200.391V205.244Z" fill="black"/>
</g>
<g opacity="0.2" filter="url(#filter4_f)">
<path fill-rule="evenodd" clip-rule="evenodd" d="M26.1063 121.974L30.0481 119.678V114.826L26.1063 117.122V121.974ZM26.1063 163.999L30.0481 166.295V161.443L26.1063 159.146V163.999ZM26.1063 174.873L30.0481 172.577V167.725L26.1063 170.021V174.873ZM26.1063 216.941L30.0481 219.237V214.385L26.1063 212.089V216.941ZM312.555 128.559V133.412L316.497 135.708V130.855L312.555 128.559ZM312.555 205.027L316.497 202.731V197.878L312.555 200.175V205.027ZM26.1063 80.2094L30.0481 77.9132V73.0608L26.1063 75.357V80.2094ZM26.1063 103.561L30.0481 106.247V101.395L26.1063 98.7089V103.561Z" fill="black"/>
</g>
<g filter="url(#filter5_f)">
<path fill-rule="evenodd" clip-rule="evenodd" d="M26.1063 121.714L30.0481 119.418V114.566L26.1063 116.862V121.714ZM26.1063 164.345L30.0481 166.642V161.789L26.1063 159.493V164.345ZM26.1063 174.527L30.0481 172.23V167.378L26.1063 169.674V174.527ZM26.1063 217.288L30.0481 219.584V214.732L26.1063 212.436V217.288ZM312.555 128.776V133.325L316.497 135.621V131.072L312.555 128.776ZM312.555 205.027L316.497 202.731V197.878L312.555 200.175V205.027ZM26.1063 103.475L30.0481 106.031V101.178L26.1063 98.6223V103.475ZM26.1063 80.1227L30.0481 78.2598V73.4075L26.1063 75.2704V80.1227Z" fill="white"/>
</g>
</g>
<path fill-rule="evenodd" clip-rule="evenodd" d="M27.9255 80.6194V97.9627C27.9255 99.8581 27.3526 99.9624 27.3959 99.919L26.1929 99.7488V79.1698L27.2944 78.8865C27.2944 78.8865 27.9255 79.4009 27.9255 80.6194ZM24.2003 117.815L25.3384 117.973C27.3688 118.664 27.978 121.947 27.978 123.917V157.202C27.978 158.617 27.8494 161.859 25.7377 162.299L24.2003 163.566V117.815ZM25.0432 170.791H23.8737V216.279H25.0432C26.5593 216.279 27.8154 213.246 27.8154 211.73V175.297C27.8154 173.824 26.6026 170.791 25.0432 170.791ZM314.841 138.207C314.841 136.576 314.909 133.421 317.349 131.679H318.807V201.951L316.875 200.682C315.193 200.608 314.841 198.381 314.841 196.319V138.207Z" fill="#D0D0D0"/>
<mask id="mask2" mask-type="alpha" maskUnits="userSpaceOnUse" x="23" y="78" width="296" height="139">
<path fill-rule="evenodd" clip-rule="evenodd" d="M27.9255 80.6194V97.9627C27.9255 99.8581 27.3526 99.9624 27.3959 99.919L26.1929 99.7488V79.1698L27.2944 78.8865C27.2944 78.8865 27.9255 79.4009 27.9255 80.6194ZM24.2003 117.815L25.3384 117.973C27.3688 118.664 27.978 121.947 27.978 123.917V157.202C27.978 158.617 27.8494 161.859 25.7377 162.299L24.2003 163.566V117.815ZM25.0432 170.791H23.8737V216.279H25.0432C26.5593 216.279 27.8154 213.246 27.8154 211.73V175.297C27.8154 173.824 26.6026 170.791 25.0432 170.791ZM314.841 138.207C314.841 136.576 314.909 133.421 317.349 131.679H318.807V201.951L316.875 200.682C315.193 200.608 314.841 198.381 314.841 196.319V138.207Z" fill="white"/>
</mask>
<g mask="url(#mask2)">
<g opacity="0.4" filter="url(#filter6_f)">
<rect x="23.5939" y="78.3467" width="3.17393" height="23.3952" fill="black"/>
</g>
<g opacity="0.4" filter="url(#filter7_f)">
<rect x="22.2944" y="116.422" width="4.47343" height="102.241" fill="black"/>
</g>
<g opacity="0.4" filter="url(#filter8_f)">
<rect x="316.816" y="116.422" width="4.47293" height="102.241" fill="black"/>
</g>
</g>
<path opacity="0.5" fill-rule="evenodd" clip-rule="evenodd" d="M26.9898 172.454C26.9898 172.454 27.8121 173.95 27.8121 175.629L27.8561 210.226C27.8561 211.742 27.6828 214.862 26.1667 214.862H26.2534C28.0293 214.818 28.116 211.742 28.116 210.226L28.072 175.662C28.0242 174.133 27.7478 173.496 27.2541 172.488C27.1785 172.333 26.9898 172.454 26.9898 172.454ZM26.7993 119.406C27.7177 120.279 27.9688 122.828 27.9688 124.171V157.067C27.9688 158.583 27.7956 161.703 26.2795 161.703H26.3661C28.1421 161.659 28.2287 158.583 28.2287 157.067V124.171C28.1883 122.877 27.9033 120.257 27.0295 119.406C26.9623 119.34 26.8305 119.29 26.7993 119.406ZM315.055 195.886V138.004C315.055 136.661 315.315 134.019 316.138 133.282C315.055 133.889 314.838 136.661 314.838 138.004V195.886C314.838 197.402 314.882 200.478 316.614 200.521H316.701C315.228 200.521 315.055 197.445 315.055 195.886ZM316.614 133.065C316.441 133.065 316.311 133.152 316.181 133.282C316.311 133.195 316.441 133.152 316.614 133.152V133.065ZM27.4923 99.9055C27.5528 99.8985 27.5191 100.171 27.5719 100.129C28.1674 99.6551 28.1945 98.1049 28.1945 98.1049V80.7819C28.1945 80.7819 28.1674 79.5837 27.6598 78.8932C27.5581 78.7548 27.4995 79.078 27.3891 78.9338C27.8967 79.6108 27.9346 80.7819 27.9346 80.7819V98.1049C27.9346 98.1049 27.917 99.3572 27.4923 99.9055Z" fill="white"/>
<g style="mix-blend-mode:soft-light" opacity="0.6">
<rect x="-175.227" y="-57.6924" width="693.057" height="693.191" fill="#E4E4E4"/>
</g>
</g>
<path fill-rule="evenodd" clip-rule="evenodd" d="M269.153 577.835H187.285C186.332 577.228 182.087 577.141 181.221 577.141H161.685C160.776 577.141 156.531 577.228 155.621 577.835H73.7539C46.2482 577.835 28.7052 560.721 28.7052 530.221V215.988C29.2683 214.385 29.6148 213.086 29.6148 212.263V174.397C29.6148 173.574 29.2683 172.317 28.7052 171.278V163.263C29.2683 161.66 29.6148 160.36 29.6148 159.537V121.671C29.6148 120.848 29.2683 119.591 28.7052 118.552V101.179C29.2683 99.7489 29.3983 98.5791 29.3983 97.7993V80.9894C29.3983 80.2095 29.2683 79.0398 28.7052 78.13V49.3192C28.7052 18.1255 45.3386 0.102539 78.1288 0.102539H264.778C297.568 0.102539 314.201 18.1255 314.201 49.3192V131.592C313.638 133.672 313.292 134.972 313.292 135.795V198.139C313.292 198.962 313.638 200.218 314.201 201.258V530.221C314.201 560.765 296.615 577.835 269.153 577.835Z" fill="#D0D0D0"/>
<mask id="mask3" mask-type="alpha" maskUnits="userSpaceOnUse" x="28" y="0" width="287" height="578">
<path fill-rule="evenodd" clip-rule="evenodd" d="M269.153 577.835H187.285C186.332 577.228 182.087 577.141 181.221 577.141H161.685C160.776 577.141 156.531 577.228 155.621 577.835H73.7539C46.2482 577.835 28.7052 560.721 28.7052 530.221V215.988C29.2683 214.385 29.6148 213.086 29.6148 212.263V174.397C29.6148 173.574 29.2683 172.317 28.7052 171.278V163.263C29.2683 161.66 29.6148 160.36 29.6148 159.537V121.671C29.6148 120.848 29.2683 119.591 28.7052 118.552V101.179C29.2683 99.7489 29.3983 98.5791 29.3983 97.7993V80.9894C29.3983 80.2095 29.2683 79.0398 28.7052 78.13V49.3192C28.7052 18.1255 45.3386 0.102539 78.1288 0.102539H264.778C297.568 0.102539 314.201 18.1255 314.201 49.3192V131.592C313.638 133.672 313.292 134.972 313.292 135.795V198.139C313.292 198.962 313.638 200.218 314.201 201.258V530.221C314.201 560.765 296.615 577.835 269.153 577.835Z" fill="white"/>
</mask>
<g mask="url(#mask3)">
<g style="mix-blend-mode:hard-light" opacity="0.4">
<rect x="-175.227" y="-57.6921" width="693.057" height="693.191" fill="#E4E4E4"/>
</g>
<g opacity="0.49983" filter="url(#filter9_f)">
<path d="M276.04 -2.23706H67.6896C44.6022 -2.23706 25.8463 16.4791 25.8463 39.6144V533.6C25.8463 553.616 39.924 571.509 58.7232 575.885C41.4834 571.076 28.9218 555.956 28.9218 535.333V47.4994C28.9218 16.5658 47.6776 -1.63052 70.8084 -1.63052H271.925C295.055 -1.63052 313.811 16.1325 313.811 45.8964V535.376C313.811 557.775 300.253 572.549 282.017 576.491C302.289 573.372 317.84 554.699 317.84 533.6V39.6144C317.883 16.4791 299.171 -2.23706 276.04 -2.23706Z" fill="black"/>
</g>
<g filter="url(#filter10_f)">
<path fill-rule="evenodd" clip-rule="evenodd" d="M307.27 47.1095C307.27 22.6312 293.409 7.12109 266.163 7.12109H76.6993C49.4535 7.12109 35.5924 22.5879 35.5924 47.1095L35.5924 533.686C35.5924 564.186 54.7814 574.801 76.2661 574.801H266.597C288.081 574.801 307.27 564.186 307.27 533.686V47.1095Z" fill="#EDEDED"/>
</g>
<g opacity="0.7" filter="url(#filter11_f)">
<path fill-rule="evenodd" clip-rule="evenodd" d="M307.27 47.1095C307.27 22.6312 293.409 7.12109 266.163 7.12109H76.6993C49.4535 7.12109 35.5924 22.5879 35.5924 47.1095V529.787C35.5924 560.287 54.7814 570.902 76.2661 570.902H266.597C288.081 570.902 307.27 560.287 307.27 529.787V47.1095Z" fill="white"/>
</g>
<g filter="url(#filter12_f)">
<path fill-rule="evenodd" clip-rule="evenodd" d="M288.298 568.432C297.741 561.89 303.805 551.275 303.805 537.844V45.5064C303.805 25.1439 295.445 12.9698 283.057 7.25098C298.954 13.1431 310.259 28.4799 310.259 46.5462V530.349C310.259 546.336 301.379 560.936 288.298 568.432ZM38.3647 47.1961V537.845C38.3647 548.416 42.0898 557.168 48.2407 563.623C38.9278 555.521 32.6036 543.39 32.6036 530.35V46.5462C32.6036 30.1263 42.4364 15.9159 56.0809 9.07062C45.3819 15.5693 38.3647 27.7868 38.3647 47.1961Z" fill="white"/>
</g>
<g filter="url(#filter13_f)">
<path fill-rule="evenodd" clip-rule="evenodd" d="M288.298 568.432C297.741 561.89 303.805 551.275 303.805 537.844V45.5064C303.805 25.1439 295.445 12.9698 283.057 7.25098C298.954 13.1431 310.259 28.4799 310.259 46.5462V530.349C310.259 546.336 301.379 560.936 288.298 568.432ZM38.3647 47.1961V537.845C38.3647 548.416 42.0898 557.168 48.2407 563.623C38.9278 555.521 32.6036 543.39 32.6036 530.35V46.5462C32.6036 30.1263 42.4364 15.9159 56.0809 9.07062C45.3819 15.5693 38.3647 27.7868 38.3647 47.1961Z" fill="white"/>
</g>
<g filter="url(#filter14_f)">
<path fill-rule="evenodd" clip-rule="evenodd" d="M268.243 11.8435H74.6202C52.2258 11.8435 38.6679 19.7719 34.2063 36.5818C36.1988 15.0928 50.1033 1.79224 75.5732 1.79224H267.29C292.76 1.79224 306.665 15.0928 308.657 36.5818C304.196 19.8152 290.638 11.8435 268.243 11.8435Z" fill="white"/>
</g>
<g opacity="0.2" filter="url(#filter15_f)">
<path d="M66.5032 577.314H276.317C296.562 577.314 313.552 564.013 318.413 546.033V550.972C318.413 574.064 299.149 592.824 275.336 592.824H67.4843C43.7158 592.824 24.4067 574.108 24.4067 550.972V546.033C29.312 564.013 46.3022 577.314 66.5032 577.314Z" fill="black"/>
</g>
<g opacity="0.1" filter="url(#filter16_f)">
<path fill-rule="evenodd" clip-rule="evenodd" d="M66.5061 577.183H276.357C290.993 577.183 303.948 570.251 311.818 559.55C304.523 572.417 290.55 581.082 274.5 581.082H68.3632C52.3126 581.082 38.296 572.374 31.0446 559.55C38.9151 570.251 51.8705 577.183 66.5061 577.183Z" fill="#808080"/>
</g>
<g opacity="0.2" filter="url(#filter17_f)">
<path fill-rule="evenodd" clip-rule="evenodd" d="M70.1153 578.18H272.748C293.669 578.18 310.996 562.93 314.201 543.001V550.106C314.201 573.198 295.489 591.957 272.358 591.957H70.4618C47.3744 591.957 28.6185 573.241 28.6185 550.106V543.001C31.8239 562.93 49.1937 578.18 70.1153 578.18Z" fill="black"/>
</g>
<g opacity="0.9" filter="url(#filter18_f)">
<path fill-rule="evenodd" clip-rule="evenodd" d="M281.194 577.011C300.462 572.785 313.508 557.296 313.508 529.948V48.7758C313.508 12.0583 288.767 0.492379 266.077 0.492379H76.194C51.5581 0.492379 29.1816 13.5203 29.1816 49.2632V527.998C29.1816 558 44.5734 573.326 60.4558 576.621C24.4314 586.215 23.5939 554.179 23.5939 533.513V39.6143C23.5939 16.5224 44.6454 -2.23706 67.7328 -2.23706H276.083C299.17 -2.23706 320.222 16.4791 320.222 39.6143V533.6C320.178 554.959 311.291 581.558 281.194 577.011Z" fill="white"/>
</g>
</g>
<mask id="mask4" mask-type="alpha" maskUnits="userSpaceOnUse" x="28" y="0" width="287" height="578">
<path fill-rule="evenodd" clip-rule="evenodd" d="M309.104 529.788C309.104 544.539 304.76 555.777 296.192 563.188C288.949 569.454 278.715 572.766 266.597 572.766H76.2371C64.119 572.766 53.8851 569.454 46.6418 563.188C38.0739 555.777 33.7297 544.539 33.7297 529.788V47.0953C33.7297 34.3345 37.49 23.7967 44.6038 16.6217C52.0702 9.09107 62.8689 5.27245 76.6993 5.27245H266.135C279.965 5.27245 290.764 9.09107 298.23 16.6217C305.344 23.7967 309.104 34.3345 309.104 47.0953V529.788ZM78.0853 0.189209C45.2808 0.189209 28.7089 18.2121 28.7089 49.4057V530.248C28.7089 560.749 46.2047 577.848 73.6961 577.848H269.138C296.629 577.848 314.186 560.749 314.186 530.248V49.4057C314.186 18.2121 297.553 0.189209 264.749 0.189209H78.0853Z" fill="white"/>
</mask>
<g mask="url(#mask4)">
<path fill-rule="evenodd" clip-rule="evenodd" d="M28.1853 59.587V55.6445H314.634V59.587H28.1853ZM314.634 522.639H28.1853V518.695H314.634V522.639Z" fill="#989899" fill-opacity="0.6"/>
<mask id="mask5" mask-type="alpha" maskUnits="userSpaceOnUse" x="28" y="55" width="287" height="468">
<path fill-rule="evenodd" clip-rule="evenodd" d="M28.1853 59.587V55.6445H314.634V59.587H28.1853ZM314.634 522.639H28.1853V518.695H314.634V522.639Z" fill="white"/>
</mask>
<g mask="url(#mask5)">
<g opacity="0.8" filter="url(#filter19_f)">
<path fill-rule="evenodd" clip-rule="evenodd" d="M304.499 63.4428H310.649V51.7019H304.499V63.4428ZM313.941 51.7452V63.4861H320.049V51.7452H313.941ZM304.499 526.494H310.649V514.754H304.499V526.494ZM313.941 526.494H320.049V514.754H313.941V526.494ZM23.1173 63.4428H29.2249V51.7019H23.074V63.4428H23.1173ZM32.0837 63.4428H38.2346V51.7019H32.0837V63.4428ZM23.1173 526.494H29.2249V514.754H23.074V526.494H23.1173ZM32.0837 526.494H38.2346V514.754H32.0837V526.494Z" fill="white"/>
</g>
<g style="mix-blend-mode:hard-light" opacity="0.15">
<rect x="-175.227" y="-57.6921" width="693.057" height="693.191" fill="#E4E4E4"/>
</g>
</g>
</g>
<path opacity="0.1" fill-rule="evenodd" clip-rule="evenodd" d="M298.564 16.3059C291.027 8.68082 280.111 4.82495 266.12 4.82495H76.6993C62.7515 4.82495 51.8359 8.68082 44.2556 16.3059C37.0651 23.5844 33.2533 34.1989 33.2533 47.1096V529.787C33.2533 544.69 37.6715 556.041 46.3347 563.537C53.6551 569.862 64.0077 573.241 76.2228 573.241H266.597C278.812 573.241 289.164 569.905 296.485 563.537C305.148 556.041 309.566 544.69 309.566 529.787V47.1096C309.566 34.1989 305.754 23.5411 298.564 16.3059ZM76.6992 7.12111H266.12C293.409 7.12111 307.27 22.5879 307.27 47.1096V529.787C307.27 560.287 288.081 570.902 266.596 570.902H76.2661C54.7814 570.902 35.5924 560.287 35.5924 529.787V47.1096C35.5924 22.5879 49.4535 7.12111 76.6992 7.12111ZM294.666 561.458C302.722 554.483 306.794 543.825 306.794 529.788V47.1097C306.794 34.8055 303.329 25.1008 296.571 18.2555C289.554 11.1936 279.332 7.5977 266.12 7.5977H76.6993C63.5312 7.5977 53.2653 11.1936 46.2481 18.2555C39.4475 25.1008 36.0255 34.8055 36.0255 47.1097V529.788C36.0255 543.868 40.0972 554.526 48.154 561.458C54.9546 567.35 64.6574 570.47 76.2228 570.47H266.597C278.119 570.47 287.865 567.35 294.666 561.458ZM296.129 563.137C304.705 555.729 309.037 544.465 309.037 529.734V47.0567C309.037 34.3193 305.268 23.7914 298.164 16.5996C290.714 9.06113 279.885 5.24858 266.067 5.24858H76.6463C62.8285 5.24858 51.9995 9.06113 44.5492 16.5996C37.4453 23.7481 33.6768 34.2759 33.6768 47.0567V529.734C33.6768 544.508 38.0084 555.729 46.585 563.137C53.8188 569.419 64.0414 572.712 76.1699 572.712H266.544C278.672 572.712 288.895 569.419 296.129 563.137Z" fill="black"/>
<path d="M186.549 20.5083H156.271C154.928 20.5083 153.845 21.5914 153.845 22.9345C153.845 24.2775 154.928 25.3606 156.271 25.3606H186.549C187.892 25.3606 188.975 24.2775 188.975 22.9345C188.975 21.5914 187.892 20.5083 186.549 20.5083Z" fill="#DDDDDD"/>
<mask id="mask6" mask-type="alpha" maskUnits="userSpaceOnUse" x="153" y="20" width="36" height="6">
<path d="M186.549 20.5083H156.271C154.928 20.5083 153.845 21.5914 153.845 22.9345C153.845 24.2775 154.928 25.3606 156.271 25.3606H186.549C187.892 25.3606 188.975 24.2775 188.975 22.9345C188.975 21.5914 187.892 20.5083 186.549 20.5083Z" fill="white"/>
</mask>
<g mask="url(#mask6)">
<path opacity="0.503748" fill-rule="evenodd" clip-rule="evenodd" d="M150.053 25.7252L155.093 20.0166L155.316 20.2692L150.276 25.9777L150.053 25.7252ZM156.342 20.0166L151.302 25.7252L151.525 25.9777L156.565 20.2692L156.342 20.0166ZM152.506 25.7252L157.546 20.0166L157.769 20.2692L152.729 25.9777L152.506 25.7252ZM158.751 20.0166L153.711 25.7252L153.934 25.9777L158.974 20.2692L158.751 20.0166ZM154.915 25.7252L159.955 20.0166L160.178 20.2692L155.138 25.9777L154.915 25.7252ZM161.159 20.0166L156.119 25.7252L156.342 25.9777L161.382 20.2692L161.159 20.0166ZM157.368 25.7252L162.408 20.0166L162.631 20.2692L157.591 25.9777L157.368 25.7252ZM163.612 20.0166L158.572 25.7252L158.795 25.9777L163.835 20.2692L163.612 20.0166ZM159.776 25.7252L164.817 20.0166L165.04 20.2692L159.999 25.9777L159.776 25.7252ZM166.021 20.0166L160.981 25.7252L161.204 25.9777L166.244 20.2692L166.021 20.0166ZM162.23 25.7252L167.27 20.0166L167.493 20.2692L162.453 25.9777L162.23 25.7252ZM168.475 20.0166L163.434 25.7252L163.657 25.9777L168.698 20.2692L168.475 20.0166ZM164.639 25.7252L169.679 20.0166L169.902 20.2692L164.862 25.9777L164.639 25.7252ZM170.883 20.0166L165.843 25.7252L166.066 25.9777L171.106 20.2692L170.883 20.0166ZM167.047 25.7252L172.087 20.0166L172.31 20.2692L167.27 25.9777L167.047 25.7252ZM173.336 20.0166L168.296 25.7252L168.519 25.9777L173.559 20.2692L173.336 20.0166ZM169.5 25.7252L174.541 20.0166L174.764 20.2692L169.723 25.9777L169.5 25.7252ZM175.745 20.0166L170.705 25.7252L170.928 25.9777L175.968 20.2692L175.745 20.0166ZM171.909 25.7252L176.949 20.0166L177.172 20.2692L172.132 25.9777L171.909 25.7252ZM178.198 20.0166L173.158 25.7252L173.381 25.9777L178.421 20.2692L178.198 20.0166ZM174.362 25.7252L179.402 20.0166L179.625 20.2692L174.585 25.9777L174.362 25.7252ZM180.607 20.0166L175.566 25.7252L175.789 25.9777L180.83 20.2692L180.607 20.0166ZM176.771 25.7252L181.811 20.0166L182.034 20.2692L176.994 25.9777L176.771 25.7252ZM183.015 20.0166L177.975 25.7252L178.198 25.9777L183.238 20.2692L183.015 20.0166ZM179.224 25.7252L184.264 20.0166L184.487 20.2692L179.447 25.9777L179.224 25.7252ZM185.469 20.0166L180.428 25.7252L180.651 25.9777L185.692 20.2692L185.469 20.0166ZM181.633 25.7252L186.673 20.0166L186.896 20.2692L181.856 25.9777L181.633 25.7252ZM187.877 20.0166L182.837 25.7252L183.06 25.9777L188.1 20.2692L187.877 20.0166ZM184.086 25.7252L189.126 20.0166L189.349 20.2692L184.309 25.9777L184.086 25.7252ZM190.33 20.0166L185.29 25.7252L185.513 25.9777L190.553 20.2692L190.33 20.0166ZM191.535 20.0166L186.495 25.7252L186.718 25.9777L191.758 20.2692L191.535 20.0166Z" fill="white"/>
<path opacity="0.6" fill-rule="evenodd" clip-rule="evenodd" d="M155.093 25.9272L150.053 20.2187L150.276 20.0166L155.316 25.6746L155.093 25.9272ZM151.257 20.2187L156.297 25.9272L156.52 25.6746L151.48 20.0166L151.257 20.2187ZM157.546 25.9272L152.506 20.2187L152.684 20.0166L157.769 25.6746L157.546 25.9272ZM153.711 20.2187L158.751 25.9272L158.974 25.6746L153.934 20.0166L153.711 20.2187ZM159.955 25.9272L154.915 20.2187L155.138 20.0166L160.178 25.6746L159.955 25.9272ZM156.119 20.2187L161.159 25.9272L161.382 25.6746L156.342 20.0166L156.119 20.2187ZM162.408 25.9272L157.368 20.2187L157.546 20.0166L162.631 25.6746L162.408 25.9272ZM158.572 20.2187L163.612 25.9272L163.835 25.6746L158.795 20.0166L158.572 20.2187ZM164.817 25.9272L159.776 20.2187L159.999 20.0166L165.04 25.6746L164.817 25.9272ZM160.981 20.2187L166.021 25.9272L166.244 25.6746L161.204 20.0166L160.981 20.2187ZM167.225 25.9272L162.185 20.2187L162.408 20.0166L167.449 25.6746L167.225 25.9272ZM163.434 20.2187L168.475 25.9272L168.698 25.6746L163.613 20.0166L163.434 20.2187ZM169.679 25.9272L164.639 20.2187L164.862 20.0166L169.902 25.6746L169.679 25.9272ZM165.843 20.2187L170.883 25.9272L171.106 25.6746L166.066 20.0166L165.843 20.2187ZM172.087 25.9272L167.047 20.2187L167.27 20.0166L172.31 25.6746L172.087 25.9272ZM168.296 20.2187L173.336 25.9272L173.559 25.6746L168.474 20.0166L168.296 20.2187ZM174.541 25.9272L169.5 20.2187L169.679 20.0166L174.764 25.6746L174.541 25.9272ZM170.705 20.2187L175.745 25.9272L175.968 25.6746L170.928 20.0166L170.705 20.2187ZM176.949 25.9272L171.909 20.2187L172.132 20.0166L177.172 25.6746L176.949 25.9272ZM173.113 20.2187L178.154 25.9272L178.377 25.6746L173.336 20.0166L173.113 20.2187ZM179.402 25.9272L174.362 20.2187L174.54 20.0166L179.625 25.6746L179.402 25.9272ZM175.566 20.2187L180.607 25.9272L180.83 25.6746L175.789 20.0166L175.566 20.2187ZM181.811 25.9272L176.771 20.2187L176.994 20.0166L182.034 25.6746L181.811 25.9272ZM177.975 20.2187L183.015 25.9272L183.238 25.6746L178.198 20.0166L177.975 20.2187ZM184.22 25.9272L179.179 20.2187L179.402 20.0166L184.443 25.6746L184.22 25.9272ZM180.428 20.2187L185.469 25.9272L185.692 25.6746L180.607 20.0166L180.428 20.2187ZM186.673 25.9272L181.633 20.2187L181.856 20.0166L186.896 25.6746L186.673 25.9272ZM182.837 20.2187L187.877 25.9272L188.1 25.6746L183.06 20.0166L182.837 20.2187ZM189.082 25.9272L184.041 20.2187L184.264 20.0166L189.305 25.6746L189.082 25.9272ZM185.29 20.2187L190.33 25.9272L190.553 25.6746L185.469 20.0166L185.29 20.2187ZM186.718 20.0166L186.495 20.2692L191.535 25.9777L191.758 25.7252L186.718 20.0166Z" fill="white"/>
</g>
<mask id="mask7" mask-type="alpha" maskUnits="userSpaceOnUse" x="153" y="20" width="37" height="6">
<path fill-rule="evenodd" clip-rule="evenodd" d="M156.271 20.0752H186.549C188.152 20.0752 189.451 21.3749 189.451 22.9779C189.451 24.5809 188.152 25.8807 186.549 25.8807H156.271C154.668 25.8807 153.369 24.5809 153.369 22.9779C153.369 21.3749 154.668 20.0752 156.271 20.0752ZM156.218 25.3126H186.496C187.839 25.3126 188.922 24.2295 188.922 22.8865C188.922 21.5434 187.839 20.4603 186.496 20.4603H156.218C154.875 20.4603 153.792 21.5434 153.792 22.8865C153.792 24.2295 154.875 25.3126 156.218 25.3126Z" fill="white"/>
</mask>
<g mask="url(#mask7)">
<g opacity="0.799366" filter="url(#filter20_f)">
<path fill-rule="evenodd" clip-rule="evenodd" d="M152.763 23.1946H189.754V28.4368H152.763V23.1946Z" fill="white"/>
</g>
<g filter="url(#filter21_f)">
<path d="M186.549 20.5086H156.271C154.755 20.5086 153.499 21.6783 153.412 23.1514C153.412 23.0647 153.412 22.9781 153.412 22.9347C153.412 21.3317 154.712 20.032 156.315 20.032H186.592C188.195 20.032 189.495 21.3317 189.495 22.9347C189.495 23.0214 189.495 23.108 189.495 23.1514C189.321 21.6783 188.065 20.5086 186.549 20.5086Z" fill="black"/>
</g>
<g style="mix-blend-mode:soft-light" opacity="0.15">
<rect x="-219.842" y="-56.8257" width="693.057" height="693.191" fill="#E4E4E4"/>
</g>
</g>
<path fill-rule="evenodd" clip-rule="evenodd" d="M156.271 25.8372H186.549C188.109 25.8372 189.365 24.6241 189.451 23.0645C189.451 23.1078 189.451 23.1511 189.451 23.1944C189.451 24.7974 188.152 26.0972 186.549 26.0972H156.271C154.668 26.0972 153.369 24.7974 153.369 23.1944C153.369 23.1511 153.369 23.1078 153.369 23.0645C153.456 24.6241 154.712 25.8372 156.271 25.8372Z" fill="white"/>
<path opacity="0.9" fill-rule="evenodd" clip-rule="evenodd" d="M186.549 20.0751H156.271C154.712 20.0751 153.456 21.2882 153.369 22.8479C153.369 22.8046 153.369 22.7613 153.369 22.7179C153.369 21.1149 154.668 19.8152 156.271 19.8152H186.549C188.152 19.8152 189.451 21.1149 189.451 22.7179C189.451 22.7613 189.451 22.8046 189.451 22.8479C189.365 21.2882 188.109 20.0751 186.549 20.0751Z" fill="white"/>
<g opacity="0.5" filter="url(#filter22_i)">
<path d="M186.549 20.5083H156.271C154.928 20.5083 153.845 21.5914 153.845 22.9345C153.845 24.2775 154.928 25.3606 156.271 25.3606H186.549C187.892 25.3606 188.975 24.2775 188.975 22.9345C188.975 21.5914 187.892 20.5083 186.549 20.5083Z" fill="black" fill-opacity="0.01"/>
</g>
<mask id="mask8" mask-type="alpha" maskUnits="userSpaceOnUse" x="153" y="20" width="36" height="6">
<path d="M186.549 20.5083H156.271C154.928 20.5083 153.845 21.5914 153.845 22.9345C153.845 24.2775 154.928 25.3606 156.271 25.3606H186.549C187.892 25.3606 188.975 24.2775 188.975 22.9345C188.975 21.5914 187.892 20.5083 186.549 20.5083Z" fill="white"/>
</mask>
<g mask="url(#mask8)">
<g style="mix-blend-mode:soft-light" opacity="0.03">
<rect x="-219.842" y="-57.259" width="693.057" height="693.191" fill="#E4E4E4"/>
</g>
</g>
<path d="M206.518 23.281C206.518 25.7072 204.569 27.6568 202.143 27.6568C199.717 27.6568 197.768 25.7072 197.768 23.281C197.768 20.8549 199.717 18.9053 202.143 18.9053C204.569 18.9053 206.518 20.8549 206.518 23.281Z" fill="#E2E2E2"/>
<mask id="mask9" mask-type="alpha" maskUnits="userSpaceOnUse" x="197" y="18" width="10" height="10">
<path d="M206.518 23.281C206.518 25.7072 204.569 27.6568 202.143 27.6568C199.717 27.6568 197.768 25.7072 197.768 23.281C197.768 20.8549 199.717 18.9053 202.143 18.9053C204.569 18.9053 206.518 20.8549 206.518 23.281Z" fill="white"/>
</mask>
<g mask="url(#mask9)">
<g filter="url(#filter23_f)">
<path d="M206.648 27.7435C206.648 30.2564 204.612 32.3359 202.056 32.3359C199.544 32.3359 197.465 30.2997 197.465 27.7435C197.465 25.2307 199.501 23.1511 202.056 23.1511C204.612 23.1511 206.648 25.2307 206.648 27.7435Z" fill="white"/>
</g>
<g opacity="0.1" filter="url(#filter24_f)">
<path d="M206.648 19.4252C206.648 21.938 204.612 24.0176 202.056 24.0176C199.544 24.0176 197.465 21.9813 197.465 19.4252C197.465 16.9123 199.501 14.8328 202.056 14.8328C204.612 14.8328 206.648 16.9123 206.648 19.4252Z" fill="black"/>
</g>
<g style="mix-blend-mode:soft-light" opacity="0.297101">
<rect x="-175.226" y="-57.6921" width="693.057" height="693.191" fill="#E4E4E4"/>
</g>
</g>
<g filter="url(#filter25_i)">
<path d="M204.915 23.2811C204.915 24.7974 203.659 26.0539 202.143 26.0539C200.627 26.0539 199.371 24.7974 199.371 23.2811C199.371 21.7647 200.627 20.5083 202.143 20.5083C203.659 20.5083 204.915 21.7647 204.915 23.2811Z" fill="#E0E0E0"/>
</g>
<mask id="mask10" mask-type="alpha" maskUnits="userSpaceOnUse" x="199" y="20" width="6" height="7">
<path d="M204.915 23.2811C204.915 24.7974 203.659 26.0539 202.143 26.0539C200.627 26.0539 199.371 24.7974 199.371 23.2811C199.371 21.7647 200.627 20.5083 202.143 20.5083C203.659 20.5083 204.915 21.7647 204.915 23.2811Z" fill="white"/>
</mask>
<g mask="url(#mask10)">
<g filter="url(#filter26_f)">
<path fill-rule="evenodd" clip-rule="evenodd" d="M200.064 23.8442C199.761 24.3208 200.93 25.5772 202.056 25.5772C203.139 25.5772 204.525 24.4075 204.309 23.8876C203.919 24.1042 203.053 24.5374 202.1 24.5374C201.147 24.5374 200.367 24.1475 200.064 23.8442Z" fill="white"/>
</g>
<g filter="url(#filter27_f)">
<path fill-rule="evenodd" clip-rule="evenodd" d="M201.666 21.8081C202.273 21.8081 202.749 22.2847 202.749 22.8912C202.749 23.4978 202.273 23.9743 201.666 23.9743C201.06 23.9743 200.584 23.4978 200.584 22.8912C200.584 22.2847 201.06 21.8081 201.666 21.8081Z" fill="white"/>
</g>
<g style="mix-blend-mode:soft-light" opacity="0.297101">
<rect x="-173.927" y="-55.9595" width="693.057" height="693.191" fill="#E4E4E4"/>
</g>
</g>
<path d="M297.004 45.9672V45.9652C296.961 36.5241 294.206 29.2411 289.158 24.3197C284.112 19.3997 276.833 16.8965 267.853 16.8965H245.155C242.794 16.8965 240.867 18.8234 240.867 21.1856V22.8319C240.867 30.651 234.52 36.999 226.703 36.999H115.9C108.082 36.999 101.736 30.651 101.736 22.8319V21.1856C101.736 18.8234 99.809 16.8965 97.4475 16.8965H74.7499C65.7701 16.8965 58.4906 19.3997 53.4551 24.32C48.418 29.242 45.6848 36.5257 45.6848 45.9672V533.282C45.6848 542.753 49.0762 549.754 54.5558 554.386C60.0248 559.008 67.5295 561.226 75.7028 561.226H266.986C275.138 561.226 282.643 559.008 288.117 554.386C293.602 549.754 297.004 542.753 297.004 533.282V45.9672Z" stroke="black" stroke-opacity="0.1" stroke-width="2"/>
<defs>
<filter id="filter0_f" x="24.44" y="567.079" width="290.961" height="19.6025" filterUnits="userSpaceOnUse" color-interpolation-filters="sRGB">
<feFlood flood-opacity="0" result="BackgroundImageFix"/>
<feBlend mode="normal" in="SourceGraphic" in2="BackgroundImageFix" result="shape"/>
<feGaussianBlur stdDeviation="4.07742" result="effect1_foregroundBlur"/>
</filter>
<filter id="filter1_f" x="0.662782" y="566.213" width="338.725" height="21.509" filterUnits="userSpaceOnUse" color-interpolation-filters="sRGB">
<feFlood flood-opacity="0" result="BackgroundImageFix"/>
<feBlend mode="normal" in="SourceGraphic" in2="BackgroundImageFix" result="shape"/>
<feGaussianBlur stdDeviation="4.07742" result="effect1_foregroundBlur"/>
</filter>
<filter id="filter2_f" x="9.79651" y="58.5277" width="323.01" height="177.02" filterUnits="userSpaceOnUse" color-interpolation-filters="sRGB">
<feFlood flood-opacity="0" result="BackgroundImageFix"/>
<feBlend mode="normal" in="SourceGraphic" in2="BackgroundImageFix" result="shape"/>
<feGaussianBlur stdDeviation="8.15485" result="effect1_foregroundBlur"/>
</filter>
<filter id="filter3_f" x="17.9515" y="64.8193" width="306.484" height="163.699" filterUnits="userSpaceOnUse" color-interpolation-filters="sRGB">
<feFlood flood-opacity="0" result="BackgroundImageFix"/>
<feBlend mode="normal" in="SourceGraphic" in2="BackgroundImageFix" result="shape"/>
<feGaussianBlur stdDeviation="4.07742" result="effect1_foregroundBlur"/>
</filter>
<filter id="filter4_f" x="20.6698" y="67.6242" width="301.264" height="157.05" filterUnits="userSpaceOnUse" color-interpolation-filters="sRGB">
<feFlood flood-opacity="0" result="BackgroundImageFix"/>
<feBlend mode="normal" in="SourceGraphic" in2="BackgroundImageFix" result="shape"/>
<feGaussianBlur stdDeviation="2.71828" result="effect1_foregroundBlur"/>
</filter>
<filter id="filter5_f" x="20.6698" y="67.9709" width="301.264" height="157.05" filterUnits="userSpaceOnUse" color-interpolation-filters="sRGB">
<feFlood flood-opacity="0" result="BackgroundImageFix"/>
<feBlend mode="normal" in="SourceGraphic" in2="BackgroundImageFix" result="shape"/>
<feGaussianBlur stdDeviation="2.71828" result="effect1_foregroundBlur"/>
</filter>
<filter id="filter6_f" x="18.1573" y="72.9101" width="14.0471" height="34.2683" filterUnits="userSpaceOnUse" color-interpolation-filters="sRGB">
<feFlood flood-opacity="0" result="BackgroundImageFix"/>
<feBlend mode="normal" in="SourceGraphic" in2="BackgroundImageFix" result="shape"/>
<feGaussianBlur stdDeviation="2.71828" result="effect1_foregroundBlur"/>
</filter>
<filter id="filter7_f" x="16.8579" y="110.985" width="15.3466" height="113.114" filterUnits="userSpaceOnUse" color-interpolation-filters="sRGB">
<feFlood flood-opacity="0" result="BackgroundImageFix"/>
<feBlend mode="normal" in="SourceGraphic" in2="BackgroundImageFix" result="shape"/>
<feGaussianBlur stdDeviation="2.71828" result="effect1_foregroundBlur"/>
</filter>
<filter id="filter8_f" x="311.38" y="110.985" width="15.3461" height="113.114" filterUnits="userSpaceOnUse" color-interpolation-filters="sRGB">
<feFlood flood-opacity="0" result="BackgroundImageFix"/>
<feBlend mode="normal" in="SourceGraphic" in2="BackgroundImageFix" result="shape"/>
<feGaussianBlur stdDeviation="2.71828" result="effect1_foregroundBlur"/>
</filter>
<filter id="filter9_f" x="9.53662" y="-18.5468" width="324.613" height="611.348" filterUnits="userSpaceOnUse" color-interpolation-filters="sRGB">
<feFlood flood-opacity="0" result="BackgroundImageFix"/>
<feBlend mode="normal" in="SourceGraphic" in2="BackgroundImageFix" result="shape"/>
<feGaussianBlur stdDeviation="8.15485" result="effect1_foregroundBlur"/>
</filter>
<filter id="filter10_f" x="-7.9001" y="-36.3714" width="358.663" height="654.665" filterUnits="userSpaceOnUse" color-interpolation-filters="sRGB">
<feFlood flood-opacity="0" result="BackgroundImageFix"/>
<feBlend mode="normal" in="SourceGraphic" in2="BackgroundImageFix" result="shape"/>
<feGaussianBlur stdDeviation="21.7463" result="effect1_foregroundBlur"/>
</filter>
<filter id="filter11_f" x="-7.9001" y="-36.3714" width="358.663" height="650.766" filterUnits="userSpaceOnUse" color-interpolation-filters="sRGB">
<feFlood flood-opacity="0" result="BackgroundImageFix"/>
<feBlend mode="normal" in="SourceGraphic" in2="BackgroundImageFix" result="shape"/>
<feGaussianBlur stdDeviation="21.7463" result="effect1_foregroundBlur"/>
</filter>
<filter id="filter12_f" x="10.8574" y="-14.4953" width="321.148" height="604.673" filterUnits="userSpaceOnUse" color-interpolation-filters="sRGB">
<feFlood flood-opacity="0" result="BackgroundImageFix"/>
<feBlend mode="normal" in="SourceGraphic" in2="BackgroundImageFix" result="shape"/>
<feGaussianBlur stdDeviation="10.8731" result="effect1_foregroundBlur"/>
</filter>
<filter id="filter13_f" x="10.8574" y="-14.4953" width="321.148" height="604.673" filterUnits="userSpaceOnUse" color-interpolation-filters="sRGB">
<feFlood flood-opacity="0" result="BackgroundImageFix"/>
<feBlend mode="normal" in="SourceGraphic" in2="BackgroundImageFix" result="shape"/>
<feGaussianBlur stdDeviation="10.8731" result="effect1_foregroundBlur"/>
</filter>
<filter id="filter14_f" x="1.58692" y="-30.8271" width="339.69" height="100.028" filterUnits="userSpaceOnUse" color-interpolation-filters="sRGB">
<feFlood flood-opacity="0" result="BackgroundImageFix"/>
<feBlend mode="normal" in="SourceGraphic" in2="BackgroundImageFix" result="shape"/>
<feGaussianBlur stdDeviation="16.3097" result="effect1_foregroundBlur"/>
</filter>
<filter id="filter15_f" x="8.09705" y="529.724" width="326.626" height="79.4099" filterUnits="userSpaceOnUse" color-interpolation-filters="sRGB">
<feFlood flood-opacity="0" result="BackgroundImageFix"/>
<feBlend mode="normal" in="SourceGraphic" in2="BackgroundImageFix" result="shape"/>
<feGaussianBlur stdDeviation="8.15485" result="effect1_foregroundBlur"/>
</filter>
<filter id="filter16_f" x="14.7349" y="543.24" width="313.393" height="54.1515" filterUnits="userSpaceOnUse" color-interpolation-filters="sRGB">
<feFlood flood-opacity="0" result="BackgroundImageFix"/>
<feBlend mode="normal" in="SourceGraphic" in2="BackgroundImageFix" result="shape"/>
<feGaussianBlur stdDeviation="8.15485" result="effect1_foregroundBlur"/>
</filter>
<filter id="filter17_f" x="17.7454" y="532.128" width="307.329" height="70.7016" filterUnits="userSpaceOnUse" color-interpolation-filters="sRGB">
<feFlood flood-opacity="0" result="BackgroundImageFix"/>
<feBlend mode="normal" in="SourceGraphic" in2="BackgroundImageFix" result="shape"/>
<feGaussianBlur stdDeviation="5.43656" result="effect1_foregroundBlur"/>
</filter>
<filter id="filter18_f" x="15.439" y="-10.3919" width="312.937" height="596.918" filterUnits="userSpaceOnUse" color-interpolation-filters="sRGB">
<feFlood flood-opacity="0" result="BackgroundImageFix"/>
<feBlend mode="normal" in="SourceGraphic" in2="BackgroundImageFix" result="shape"/>
<feGaussianBlur stdDeviation="4.07742" result="effect1_foregroundBlur"/>
</filter>
<filter id="filter19_f" x="13.9195" y="42.5474" width="315.284" height="493.101" filterUnits="userSpaceOnUse" color-interpolation-filters="sRGB">
<feFlood flood-opacity="0" result="BackgroundImageFix"/>
<feBlend mode="normal" in="SourceGraphic" in2="BackgroundImageFix" result="shape"/>
<feGaussianBlur stdDeviation="4.57724" result="effect1_foregroundBlur"/>
</filter>
<filter id="filter20_f" x="142.144" y="12.5763" width="58.2282" height="26.4788" filterUnits="userSpaceOnUse" color-interpolation-filters="sRGB">
<feFlood flood-opacity="0" result="BackgroundImageFix"/>
<feBlend mode="normal" in="SourceGraphic" in2="BackgroundImageFix" result="shape"/>
<feGaussianBlur stdDeviation="5.30914" result="effect1_foregroundBlur"/>
</filter>
<filter id="filter21_f" x="150.694" y="17.3137" width="41.5189" height="8.55594" filterUnits="userSpaceOnUse" color-interpolation-filters="sRGB">
<feFlood flood-opacity="0" result="BackgroundImageFix"/>
<feBlend mode="normal" in="SourceGraphic" in2="BackgroundImageFix" result="shape"/>
<feGaussianBlur stdDeviation="1.35914" result="effect1_foregroundBlur"/>
</filter>
<filter id="filter22_i" x="153.845" y="20.5083" width="35.1294" height="5.85234" filterUnits="userSpaceOnUse" color-interpolation-filters="sRGB">
<feFlood flood-opacity="0" result="BackgroundImageFix"/>
<feBlend mode="normal" in="SourceGraphic" in2="BackgroundImageFix" result="shape"/>
<feColorMatrix in="SourceAlpha" type="matrix" values="0 0 0 0 0 0 0 0 0 0 0 0 0 0 0 0 0 0 127 0" result="hardAlpha"/>
<feOffset dy="1"/>
<feGaussianBlur stdDeviation="1.5"/>
<feComposite in2="hardAlpha" operator="arithmetic" k2="-1" k3="1"/>
<feColorMatrix type="matrix" values="0 0 0 0 0 0 0 0 0 0 0 0 0 0 0 0 0 0 0.297186 0"/>
<feBlend mode="normal" in2="shape" result="effect1_innerShadow"/>
</filter>
<filter id="filter23_f" x="186.592" y="12.278" width="30.9294" height="30.9311" filterUnits="userSpaceOnUse" color-interpolation-filters="sRGB">
<feFlood flood-opacity="0" result="BackgroundImageFix"/>
<feBlend mode="normal" in="SourceGraphic" in2="BackgroundImageFix" result="shape"/>
<feGaussianBlur stdDeviation="5.43656" result="effect1_foregroundBlur"/>
</filter>
<filter id="filter24_f" x="186.592" y="3.95964" width="30.9294" height="30.931" filterUnits="userSpaceOnUse" color-interpolation-filters="sRGB">
<feFlood flood-opacity="0" result="BackgroundImageFix"/>
<feBlend mode="normal" in="SourceGraphic" in2="BackgroundImageFix" result="shape"/>
<feGaussianBlur stdDeviation="5.43656" result="effect1_foregroundBlur"/>
</filter>
<filter id="filter25_i" x="199.371" y="20.5083" width="5.54427" height="5.54555" filterUnits="userSpaceOnUse" color-interpolation-filters="sRGB">
<feFlood flood-opacity="0" result="BackgroundImageFix"/>
<feBlend mode="normal" in="SourceGraphic" in2="BackgroundImageFix" result="shape"/>
<feColorMatrix in="SourceAlpha" type="matrix" values="0 0 0 0 0 0 0 0 0 0 0 0 0 0 0 0 0 0 127 0" result="hardAlpha"/>
<feOffset/>
<feGaussianBlur stdDeviation="2.5"/>
<feComposite in2="hardAlpha" operator="arithmetic" k2="-1" k3="1"/>
<feColorMatrix type="matrix" values="0 0 0 0 0 0 0 0 0 0 0 0 0 0 0 0 0 0 0.281646 0"/>
<feBlend mode="normal" in2="shape" result="effect1_innerShadow"/>
</filter>
<filter id="filter26_f" x="197.297" y="21.126" width="9.7527" height="7.16956" filterUnits="userSpaceOnUse" color-interpolation-filters="sRGB">
<feFlood flood-opacity="0" result="BackgroundImageFix"/>
<feBlend mode="normal" in="SourceGraphic" in2="BackgroundImageFix" result="shape"/>
<feGaussianBlur stdDeviation="1.35914" result="effect1_foregroundBlur"/>
</filter>
<filter id="filter27_f" x="197.865" y="19.0898" width="7.6023" height="7.60279" filterUnits="userSpaceOnUse" color-interpolation-filters="sRGB">
<feFlood flood-opacity="0" result="BackgroundImageFix"/>
<feBlend mode="normal" in="SourceGraphic" in2="BackgroundImageFix" result="shape"/>
<feGaussianBlur stdDeviation="1.35914" result="effect1_foregroundBlur"/>
</filter>
<linearGradient id="paint0_linear" x1="295.35" y1="575.382" x2="45.9505" y2="561.049" gradientUnits="userSpaceOnUse">
<stop stop-opacity="0.01"/>
<stop offset="0.0674672"/>
<stop offset="0.928003"/>
<stop offset="1" stop-opacity="0.01"/>
</linearGradient>
<linearGradient id="paint1_linear" x1="320.503" y1="574.573" x2="23.45" y2="572.937" gradientUnits="userSpaceOnUse">
<stop stop-opacity="0.01"/>
<stop offset="0.0782494"/>
<stop offset="0.921377"/>
<stop offset="1" stop-opacity="0.01"/>
</linearGradient>
</defs>
</svg>
