<svg width="368" height="638" viewBox="0 0 368 638" fill="none" xmlns="http://www.w3.org/2000/svg">
<g opacity="0.4" filter="url(#filter0_f)">
<path fill-rule="evenodd" clip-rule="evenodd" d="M71.0967 624.823H298.597C314.35 624.823 333.107 625.623 333.107 626.611C333.107 627.599 313.075 628.399 298.597 628.399H71.0967C55.1165 628.399 34.7202 627.599 34.7202 626.611C34.7202 625.623 54.7978 624.823 71.0967 624.823Z" fill="url(#paint0_linear)"/>
</g>
<g opacity="0.1" filter="url(#filter1_f)">
<path fill-rule="evenodd" clip-rule="evenodd" d="M51.5637 623.882H318.625C332.204 623.882 359.167 625.153 359.167 626.706C359.167 628.259 334.289 629.53 313.339 629.53H51.5637C34.057 629.53 8.88818 628.259 8.88818 626.706C8.88818 625.153 33.2811 623.882 51.5637 623.882Z" fill="url(#paint1_linear)"/>
</g>
<path fill-rule="evenodd" clip-rule="evenodd" d="M29.2012 108.395V86.0415L30.01 85.2886H32.156V109.148H29.9806L29.2012 108.395ZM338.122 144.772H340.145L342.168 145.807V216.819L340.145 217.807H338.122V144.772ZM28.9414 130.466V174.889L30.965 175.878H31.9532V129.43H30.9179L28.9414 130.466ZM28.9414 232.396V187.972L30.9179 186.937H31.9532V233.384H30.965L28.9414 232.396Z" fill="#C0C0C0"/>
<mask id="mask0" mask-type="alpha" maskUnits="userSpaceOnUse" x="28" y="85" width="315" height="149">
<path fill-rule="evenodd" clip-rule="evenodd" d="M29.2012 108.395V86.0415L30.01 85.2886H32.156V109.148H29.9806L29.2012 108.395ZM338.122 144.772H340.145L342.168 145.807V216.819L340.145 217.807H338.122V144.772ZM28.9414 130.466V174.889L30.965 175.878H31.9532V129.43H30.9179L28.9414 130.466ZM28.9414 232.396V187.972L30.9179 186.937H31.9532V233.384H30.965L28.9414 232.396Z" fill="white"/>
</mask>
<g mask="url(#mask0)">
<g opacity="0.3" filter="url(#filter2_f)">
<path fill-rule="evenodd" clip-rule="evenodd" d="M27.6708 132.489L31.9532 129.995V124.724L27.6708 127.218V132.489ZM27.6708 178.137L31.9532 180.631V175.36L27.6708 172.866V178.137ZM27.6708 189.948L31.9532 187.454V182.184L27.6708 184.678V189.948ZM27.6708 235.643L31.9532 238.137V232.866L27.6708 230.372V235.643ZM338.875 139.642V144.913L343.157 147.407V142.136L338.875 139.642ZM338.875 222.702L343.157 220.207V214.937L338.875 217.431V222.702ZM28.4237 86.5591H32.7061V81.2886H28.4237V86.5591ZM28.4237 113.383H32.7061V108.112H28.4237V113.383Z" fill="black"/>
</g>
<path opacity="0.9" fill-rule="evenodd" clip-rule="evenodd" d="M30.6826 88.4073V105.76C30.6826 109.955 29.1684 109.712 28.8907 109.668C28.8627 109.663 28.8473 109.661 28.8473 109.665V84.3003C28.8473 84.3003 30.6826 84.4073 30.6826 88.4073ZM26.9649 127.077H27.9531C29.6002 127.077 30.9649 130.466 30.9649 132.113V173.478C30.9649 175.125 29.6002 178.513 27.9531 178.513H26.9649V127.077ZM27.9531 184.395H26.8707V235.69H27.9531C29.6002 235.69 30.9649 232.302 30.9649 230.654V189.384C30.9649 187.737 29.6002 184.395 27.9531 184.395ZM340.145 147.266C340.145 145.618 341.51 142.23 343.157 142.23H344.428V220.631H343.157C341.51 220.631 340.145 217.243 340.145 215.596V147.266Z" fill="#EFEFEF"/>
<mask id="mask1" mask-type="alpha" maskUnits="userSpaceOnUse" x="26" y="84" width="319" height="152">
<path fill-rule="evenodd" clip-rule="evenodd" d="M30.6826 88.4073V105.76C30.6826 109.955 29.1684 109.712 28.8907 109.668C28.8627 109.663 28.8473 109.661 28.8473 109.665V84.3003C28.8473 84.3003 30.6826 84.4073 30.6826 88.4073ZM26.9649 127.077H27.9531C29.6002 127.077 30.9649 130.466 30.9649 132.113V173.478C30.9649 175.125 29.6002 178.513 27.9531 178.513H26.9649V127.077ZM27.9531 184.395H26.8707V235.69H27.9531C29.6002 235.69 30.9649 232.302 30.9649 230.654V189.384C30.9649 187.737 29.6002 184.395 27.9531 184.395ZM340.145 147.266C340.145 145.618 341.51 142.23 343.157 142.23H344.428V220.631H343.157C341.51 220.631 340.145 217.243 340.145 215.596V147.266Z" fill="white"/>
</mask>
<g mask="url(#mask1)">
<g opacity="0.7" filter="url(#filter3_f)">
<path fill-rule="evenodd" clip-rule="evenodd" d="M27.6708 86.1828L31.9532 84.018V79.265L27.6708 81.4297V86.1828ZM27.6708 112.771L31.9532 114.936V110.183L27.6708 108.018V112.771ZM27.6708 130.983L31.9532 128.489V123.218L27.6708 125.712V130.983ZM27.6708 179.407L30.8708 181.289L27.6708 183.172V188.443L31.9532 185.948V176.678L27.6708 174.183V179.407ZM27.6708 236.867L31.9532 239.361V234.09L27.6708 231.596V236.867ZM338.639 139.642V144.913L342.922 147.407V142.136L338.639 139.642ZM338.639 222.937L342.922 220.443V215.172L338.639 217.666V222.937Z" fill="black"/>
</g>
<g opacity="0.2" filter="url(#filter4_f)">
<path fill-rule="evenodd" clip-rule="evenodd" d="M27.6708 132.489L31.9532 129.995V124.724L27.6708 127.218V132.489ZM27.6708 178.137L31.9532 180.631V175.36L27.6708 172.866V178.137ZM27.6708 189.948L31.9532 187.454V182.184L27.6708 184.678V189.948ZM27.6708 235.643L31.9532 238.137V232.867L27.6708 230.372V235.643ZM338.875 139.642V144.913L343.157 147.407V142.136L338.875 139.642ZM338.875 222.702L343.157 220.208V214.937L338.875 217.431V222.702ZM27.6708 87.124L31.9532 84.6298V79.3591L27.6708 81.8533V87.124ZM27.6708 112.489L31.9532 115.407V110.136L27.6708 107.218V112.489Z" fill="black"/>
</g>
<g filter="url(#filter5_f)">
<path fill-rule="evenodd" clip-rule="evenodd" d="M27.6708 132.207L31.9532 129.713V124.442L27.6708 126.936V132.207ZM27.6708 178.513L31.9532 181.007V175.737L27.6708 173.242V178.513ZM27.6708 189.572L31.9532 187.078V181.807L27.6708 184.301V189.572ZM27.6708 236.019L31.9532 238.514V233.243L27.6708 230.749V236.019ZM338.875 139.877V144.818L343.157 147.313V142.371L338.875 139.877ZM338.875 222.702L343.157 220.207V214.937L338.875 217.431V222.702ZM27.6708 112.395L31.9532 115.171V109.901L27.6708 107.124V112.395ZM27.6708 87.0298L31.9532 85.0062V79.7356L27.6708 81.7591V87.0298Z" fill="white"/>
</g>
</g>
<path fill-rule="evenodd" clip-rule="evenodd" d="M29.6472 87.5691V106.407C29.6472 108.466 29.0248 108.58 29.0719 108.532L27.7649 108.348V85.9945L28.9616 85.6868C28.9616 85.6868 29.6472 86.2456 29.6472 87.5691ZM25.6001 127.971L26.8365 128.143C29.0425 128.893 29.7043 132.459 29.7043 134.599V170.754C29.7043 172.29 29.5645 175.813 27.2703 176.29L25.6001 177.666V127.971ZM26.5158 185.514H25.2452V234.923H26.5158C28.1629 234.923 29.5277 231.629 29.5277 229.982V190.408C29.5277 188.808 28.21 185.514 26.5158 185.514ZM341.358 150.121C341.358 148.349 341.432 144.923 344.083 143.03H345.667V219.36L343.568 217.982C341.741 217.901 341.358 215.482 341.358 213.243V150.121Z" fill="#D0D0D0"/>
<mask id="mask2" mask-type="alpha" maskUnits="userSpaceOnUse" x="25" y="85" width="321" height="150">
<path fill-rule="evenodd" clip-rule="evenodd" d="M29.6472 87.5691V106.407C29.6472 108.466 29.0248 108.58 29.0719 108.532L27.7649 108.348V85.9945L28.9616 85.6868C28.9616 85.6868 29.6472 86.2456 29.6472 87.5691ZM25.6001 127.971L26.8365 128.143C29.0425 128.893 29.7043 132.459 29.7043 134.599V170.754C29.7043 172.29 29.5645 175.813 27.2703 176.29L25.6001 177.666V127.971ZM26.5158 185.514H25.2452V234.923H26.5158C28.1629 234.923 29.5277 231.629 29.5277 229.982V190.408C29.5277 188.808 28.21 185.514 26.5158 185.514ZM341.358 150.121C341.358 148.349 341.432 144.923 344.083 143.03H345.667V219.36L343.568 217.982C341.741 217.901 341.358 215.482 341.358 213.243V150.121Z" fill="white"/>
</mask>
<g mask="url(#mask2)">
<g opacity="0.4" filter="url(#filter6_f)">
<rect x="24.9413" y="85.1003" width="3.44822" height="25.412" fill="black"/>
</g>
<g opacity="0.4" filter="url(#filter7_f)">
<rect x="23.5295" y="126.458" width="4.86002" height="111.055" fill="black"/>
</g>
<g opacity="0.4" filter="url(#filter8_f)">
<rect x="343.504" y="126.458" width="4.8595" height="111.055" fill="black"/>
</g>
</g>
<path opacity="0.5" fill-rule="evenodd" clip-rule="evenodd" d="M28.6307 187.32C28.6307 187.32 29.5241 188.945 29.5241 190.769L29.5719 228.349C29.5719 229.996 29.3837 233.384 27.7366 233.384H27.8307C29.7601 233.337 29.8542 229.996 29.8542 228.349L29.8065 190.805C29.7546 189.144 29.4543 188.453 28.9179 187.357C28.8357 187.189 28.6307 187.32 28.6307 187.32ZM28.4238 129.699C29.4215 130.648 29.6944 133.417 29.6944 134.876V170.607C29.6944 172.254 29.5062 175.642 27.8591 175.642H27.9532C29.8826 175.595 29.9767 172.254 29.9767 170.607V134.876C29.9328 133.469 29.6232 130.624 28.6739 129.699C28.6009 129.628 28.4576 129.573 28.4238 129.699ZM341.59 212.772V149.901C341.59 148.442 341.873 145.572 342.767 144.772C341.59 145.43 341.355 148.442 341.355 149.901V212.772C341.355 214.419 341.402 217.76 343.284 217.807H343.378C341.779 217.807 341.59 214.466 341.59 212.772ZM343.284 144.536C343.096 144.536 342.955 144.63 342.814 144.772C342.955 144.677 343.096 144.63 343.284 144.63V144.536ZM29.1767 108.518C29.2425 108.51 29.2058 108.806 29.2631 108.76C29.9102 108.246 29.9396 106.562 29.9396 106.562V87.7456C29.9396 87.7456 29.9102 86.4441 29.3587 85.6941C29.2481 85.5438 29.1845 85.8949 29.0646 85.7382C29.616 86.4735 29.6572 87.7456 29.6572 87.7456V106.562C29.6572 106.562 29.638 107.922 29.1767 108.518Z" fill="white"/>
<g style="mix-blend-mode:soft-light" opacity="0.6">
<rect x="-191.061" y="-62.666" width="752.951" height="752.949" fill="#E4E4E4"/>
</g>
</g>
<path fill-rule="evenodd" clip-rule="evenodd" d="M291.721 627.648H202.779C201.744 626.989 197.132 626.895 196.191 626.895H174.967C173.979 626.895 169.367 626.989 168.378 627.648H79.4362C49.5534 627.648 30.4944 609.059 30.4944 575.93V234.608C31.1062 232.867 31.4826 231.455 31.4826 230.561V189.431C31.4826 188.537 31.1062 187.172 30.4944 186.043V177.337C31.1062 175.596 31.4826 174.184 31.4826 173.29V132.16C31.4826 131.266 31.1062 129.901 30.4944 128.771V109.901C31.1062 108.348 31.2473 107.077 31.2473 106.23V87.971C31.2473 87.124 31.1062 85.8534 30.4944 84.8651V53.5706C30.4944 19.6879 48.5652 0.111206 84.1892 0.111206H286.968C322.592 0.111206 340.663 19.6879 340.663 53.5706V142.936C340.051 145.195 339.675 146.607 339.675 147.501V215.22C339.675 216.114 340.051 217.478 340.663 218.608V575.93C340.663 609.106 321.557 627.648 291.721 627.648Z" fill="#D0D0D0"/>
<mask id="mask3" mask-type="alpha" maskUnits="userSpaceOnUse" x="30" y="0" width="311" height="628">
<path fill-rule="evenodd" clip-rule="evenodd" d="M291.721 627.648H202.779C201.744 626.989 197.132 626.895 196.191 626.895H174.967C173.979 626.895 169.367 626.989 168.378 627.648H79.4362C49.5534 627.648 30.4944 609.059 30.4944 575.93V234.608C31.1062 232.867 31.4826 231.455 31.4826 230.561V189.431C31.4826 188.537 31.1062 187.172 30.4944 186.043V177.337C31.1062 175.596 31.4826 174.184 31.4826 173.29V132.16C31.4826 131.266 31.1062 129.901 30.4944 128.771V109.901C31.1062 108.348 31.2473 107.077 31.2473 106.23V87.971C31.2473 87.124 31.1062 85.8534 30.4944 84.8651V53.5706C30.4944 19.6879 48.5652 0.111206 84.1892 0.111206H286.968C322.592 0.111206 340.663 19.6879 340.663 53.5706V142.936C340.051 145.195 339.675 146.607 339.675 147.501V215.22C339.675 216.114 340.051 217.478 340.663 218.608V575.93C340.663 609.106 321.557 627.648 291.721 627.648Z" fill="white"/>
</mask>
<g mask="url(#mask3)">
<g style="mix-blend-mode:hard-light" opacity="0.4">
<rect x="-191.061" y="-62.6658" width="752.95" height="752.948" fill="#E4E4E4"/>
</g>
<g opacity="0.49983" filter="url(#filter9_f)">
<path d="M299.204 -2.42993H72.8478C47.7651 -2.42993 27.3884 17.8997 27.3884 43.0294V579.6C27.3884 601.341 42.6827 620.777 63.1065 625.53C44.3769 620.306 30.7296 603.883 30.7296 581.482V51.5942C30.7296 17.9938 51.1064 -1.7711 76.2361 -1.7711H294.733C319.863 -1.7711 340.239 17.5232 340.239 49.853V581.529C340.239 605.859 325.51 621.906 305.698 626.189C327.722 622.801 344.616 602.518 344.616 579.6V43.0294C344.663 17.8997 324.333 -2.42993 299.204 -2.42993Z" fill="black"/>
</g>
<g filter="url(#filter10_f)">
<path fill-rule="evenodd" clip-rule="evenodd" d="M333.133 51.1706C333.133 24.5821 318.074 7.73486 288.474 7.73486H82.6361C53.0358 7.73486 37.9768 24.535 37.9768 51.1706L37.9768 579.693C37.9768 612.823 58.8241 624.352 82.1655 624.352H288.944C312.286 624.352 333.133 612.823 333.133 579.693V51.1706Z" fill="#EDEDED"/>
</g>
<g opacity="0.7" filter="url(#filter11_f)">
<path fill-rule="evenodd" clip-rule="evenodd" d="M333.133 51.1706C333.133 24.5821 318.074 7.73486 288.474 7.73486H82.6361C53.0358 7.73486 37.9768 24.535 37.9768 51.1706V575.458C37.9768 608.588 58.8241 620.118 82.1655 620.118H288.944C312.286 620.118 333.133 608.588 333.133 575.458V51.1706Z" fill="white"/>
</g>
<g filter="url(#filter12_f)">
<path fill-rule="evenodd" clip-rule="evenodd" d="M312.521 617.434C322.78 610.328 329.368 598.799 329.368 584.21V49.4293C329.368 27.3114 320.286 14.0878 306.827 7.87598C324.098 14.276 336.38 30.935 336.38 50.5587V576.069C336.38 593.434 326.733 609.293 312.521 617.434ZM40.9886 51.2646V584.211C40.9886 595.693 45.0357 605.199 51.7182 612.211C41.6004 603.411 34.7297 590.234 34.7297 576.069V50.5588C34.7297 32.7233 45.4122 17.2879 60.2359 9.85249C48.6123 16.9114 40.9886 30.1821 40.9886 51.2646Z" fill="white"/>
</g>
<g filter="url(#filter13_f)">
<path fill-rule="evenodd" clip-rule="evenodd" d="M312.521 617.434C322.78 610.328 329.368 598.799 329.368 584.21V49.4293C329.368 27.3114 320.286 14.0878 306.827 7.87598C324.098 14.276 336.38 30.935 336.38 50.5587V576.069C336.38 593.434 326.733 609.293 312.521 617.434ZM40.9886 51.2646V584.211C40.9886 595.693 45.0357 605.199 51.7182 612.211C41.6004 603.411 34.7297 590.234 34.7297 576.069V50.5588C34.7297 32.7233 45.4122 17.2879 60.2359 9.85249C48.6123 16.9114 40.9886 30.1821 40.9886 51.2646Z" fill="white"/>
</g>
<g filter="url(#filter14_f)">
<path fill-rule="evenodd" clip-rule="evenodd" d="M290.733 12.8643H80.3774C56.0477 12.8643 41.3181 21.4761 36.4709 39.7351C38.6357 16.3937 53.7418 1.94653 81.4128 1.94653H289.698C317.369 1.94653 332.475 16.3937 334.64 39.7351C329.793 21.5232 315.063 12.8643 290.733 12.8643Z" fill="white"/>
</g>
<g opacity="0.2" filter="url(#filter15_f)">
<path d="M71.5589 627.082H299.504C321.499 627.082 339.958 612.634 345.239 593.105V598.47C345.239 623.552 324.309 643.929 298.438 643.929H72.6247C46.8022 643.929 25.8245 623.599 25.8245 598.47V593.105C31.1537 612.634 49.6122 627.082 71.5589 627.082Z" fill="black"/>
</g>
<g opacity="0.1" filter="url(#filter16_f)">
<path fill-rule="evenodd" clip-rule="evenodd" d="M71.5621 626.94H299.548C315.449 626.94 329.524 619.41 338.074 607.787C330.148 621.763 314.968 631.175 297.531 631.175H73.5797C56.1421 631.175 40.9142 621.716 33.036 607.787C41.5867 619.41 55.6617 626.94 71.5621 626.94Z" fill="#808080"/>
</g>
<g opacity="0.2" filter="url(#filter17_f)">
<path fill-rule="evenodd" clip-rule="evenodd" d="M75.4832 628.023H295.627C318.357 628.023 337.18 611.458 340.663 589.812V597.529C340.663 622.611 320.333 642.987 295.204 642.987H75.8596C50.777 642.987 30.4003 622.658 30.4003 597.529V589.812C33.8827 611.458 52.7535 628.023 75.4832 628.023Z" fill="black"/>
</g>
<g opacity="0.9" filter="url(#filter18_f)">
<path fill-rule="evenodd" clip-rule="evenodd" d="M304.803 626.753C325.737 622.163 339.909 605.339 339.909 575.633V52.9806C339.909 13.0978 313.031 0.534805 288.379 0.534805H82.0872C55.3222 0.534805 31.0121 14.6858 31.0121 53.51V573.515C31.0121 606.104 47.7339 622.751 64.9889 626.329C25.8513 636.751 24.9414 601.953 24.9414 579.505V43.0294C24.9414 17.9467 47.8122 -2.42993 72.8949 -2.42993H299.25C324.333 -2.42993 347.204 17.8997 347.204 43.0294V579.6C347.157 602.8 337.502 631.692 304.803 626.753Z" fill="white"/>
</g>
</g>
<mask id="mask4" mask-type="alpha" maskUnits="userSpaceOnUse" x="30" y="0" width="311" height="628">
<path fill-rule="evenodd" clip-rule="evenodd" d="M335.125 575.459C335.125 591.482 330.406 603.688 321.097 611.739C313.229 618.545 302.11 622.142 288.945 622.142H82.134C68.9687 622.142 57.8504 618.545 49.9811 611.739C40.6728 603.688 35.9532 591.482 35.9532 575.459V51.1551C35.9532 37.2942 40.0384 25.8479 47.767 18.0544C55.8786 9.87459 67.6105 5.72677 82.6361 5.72677H288.443C303.468 5.72677 315.2 9.87459 323.312 18.0544C331.04 25.8479 335.125 37.2942 335.125 51.1551V575.459ZM84.1419 0.205322C48.5025 0.205322 30.4984 19.782 30.4984 53.6646V575.959C30.4984 609.089 49.5063 627.662 79.3734 627.662H291.705C321.572 627.662 340.647 609.089 340.647 575.959V53.6646C340.647 19.782 322.576 0.205322 286.937 0.205322H84.1419Z" fill="white"/>
</mask>
<g mask="url(#mask4)">
<path fill-rule="evenodd" clip-rule="evenodd" d="M29.9297 64.7238V60.4414H341.133V64.7238H29.9297ZM341.133 567.694H29.9297V563.41H341.133V567.694Z" fill="#989899" fill-opacity="0.6"/>
<mask id="mask5" mask-type="alpha" maskUnits="userSpaceOnUse" x="29" y="60" width="313" height="508">
<path fill-rule="evenodd" clip-rule="evenodd" d="M29.9297 64.7238V60.4414H341.133V64.7238H29.9297ZM341.133 567.694H29.9297V563.41H341.133V567.694Z" fill="white"/>
</mask>
<g mask="url(#mask5)">
<g opacity="0.8" filter="url(#filter19_f)">
<path fill-rule="evenodd" clip-rule="evenodd" d="M330.122 68.9119H336.804V56.1589H330.122V68.9119ZM340.38 56.206V68.959H347.016V56.206H340.38ZM330.122 571.882H336.804V559.129H330.122V571.882ZM340.38 571.882H347.016V559.129H340.38V571.882ZM24.4238 68.9119H31.0592V56.1589H24.3767V68.9119H24.4238ZM34.1651 68.9119H40.8475V56.1589H34.1651V68.9119ZM24.4238 571.882H31.0591V559.129H24.3767V571.882H24.4238ZM34.1651 571.882H40.8475V559.129H34.1651V571.882Z" fill="white"/>
</g>
<g style="mix-blend-mode:hard-light" opacity="0.15">
<rect x="-191.061" y="-62.6658" width="752.95" height="752.949" fill="#E4E4E4"/>
</g>
</g>
</g>
<path opacity="0.1" fill-rule="evenodd" clip-rule="evenodd" d="M323.674 17.7114C315.486 9.429 303.627 5.24072 288.427 5.24072H82.6362C67.4831 5.24072 55.6241 9.429 47.3888 17.7114C39.5769 25.6174 35.4357 37.1469 35.4357 51.1706V575.458C35.4357 591.646 40.2357 603.976 49.6476 612.117C57.6006 618.988 68.8478 622.658 82.1186 622.658H288.945C302.215 622.658 313.462 619.035 321.415 612.117C330.827 603.976 335.627 591.646 335.627 575.458V51.1706C335.627 37.1469 331.486 25.5703 323.674 17.7114ZM82.6362 7.73483H288.427C318.074 7.73483 333.133 24.535 333.133 51.1706V575.458C333.133 608.588 312.286 620.118 288.944 620.118H82.1656C58.8242 620.118 37.9769 608.588 37.9769 575.458V51.1706C37.9769 24.535 53.0359 7.73483 82.6362 7.73483ZM319.439 609.86C328.192 602.283 332.616 590.706 332.616 575.459V51.1707C332.616 37.8058 328.851 27.2645 321.51 19.8291C313.886 12.1584 302.78 8.25251 288.427 8.25251H82.6362C68.3302 8.25251 57.1771 12.1584 49.5535 19.8291C42.1652 27.2645 38.4475 37.8058 38.4475 51.1707V575.459C38.4475 590.754 42.8711 602.33 51.6241 609.86C59.0124 616.26 69.5537 619.648 82.1186 619.648H288.945C301.462 619.648 312.051 616.26 319.439 609.86ZM321.029 611.683C330.346 603.636 335.052 591.401 335.052 575.401V51.1131C335.052 37.2777 330.958 25.8422 323.24 18.0304C315.146 9.84208 303.381 5.70086 288.369 5.70086H82.5787C67.5668 5.70086 55.8019 9.84208 47.7077 18.0304C39.99 25.7952 35.8958 37.2306 35.8958 51.1131V575.401C35.8958 591.448 40.6017 603.636 49.9195 611.683C57.7784 618.507 68.8844 622.084 82.0611 622.084H288.887C302.064 622.084 313.17 618.507 321.029 611.683Z" fill="black"/>
<path d="M201.979 22.276H169.085C167.626 22.276 166.449 23.4525 166.449 24.9113C166.449 26.3702 167.626 27.5466 169.085 27.5466H201.979C203.438 27.5466 204.615 26.3702 204.615 24.9113C204.615 23.4525 203.438 22.276 201.979 22.276Z" fill="#DDDDDD"/>
<mask id="mask6" mask-type="alpha" maskUnits="userSpaceOnUse" x="166" y="22" width="39" height="6">
<path d="M201.979 22.276H169.085C167.626 22.276 166.449 23.4525 166.449 24.9113C166.449 26.3702 167.626 27.5466 169.085 27.5466H201.979C203.438 27.5466 204.615 26.3702 204.615 24.9113C204.615 23.4525 203.438 22.276 201.979 22.276Z" fill="white"/>
</mask>
<g mask="url(#mask6)">
<path opacity="0.503748" fill-rule="evenodd" clip-rule="evenodd" d="M162.329 27.9426L167.805 21.7419L168.047 22.0163L162.571 28.217L162.329 27.9426ZM169.162 21.7419L163.686 27.9426L163.928 28.217L169.404 22.0163L169.162 21.7419ZM164.994 27.9426L170.47 21.7419L170.713 22.0163L165.237 28.217L164.994 27.9426ZM171.779 21.7419L166.303 27.9426L166.545 28.217L172.021 22.0163L171.779 21.7419ZM167.611 27.9426L173.087 21.7419L173.329 22.0163L167.854 28.217L167.611 27.9426ZM174.396 21.7419L168.92 27.9426L169.162 28.217L174.638 22.0163L174.396 21.7419ZM170.276 27.9426L175.752 21.7419L175.995 22.0163L170.519 28.217L170.276 27.9426ZM177.061 21.7419L171.585 27.9426L171.827 28.217L177.303 22.0163L177.061 21.7419ZM172.893 27.9426L178.369 21.7419L178.611 22.0163L173.135 28.217L172.893 27.9426ZM179.677 21.7419L174.202 27.9426L174.444 28.217L179.92 22.0163L179.677 21.7419ZM175.558 27.9426L181.034 21.7419L181.277 22.0163L175.801 28.217L175.558 27.9426ZM182.343 21.7419L176.867 27.9426L177.109 28.217L182.585 22.0163L182.343 21.7419ZM178.175 27.9426L183.651 21.7419L183.894 22.0163L178.418 28.217L178.175 27.9426ZM184.959 21.7419L179.484 27.9426L179.726 28.217L185.202 22.0163L184.959 21.7419ZM180.792 27.9426L186.268 21.7419L186.51 22.0163L181.034 28.217L180.792 27.9426ZM187.625 21.7419L182.149 27.9426L182.391 28.217L187.867 22.0163L187.625 21.7419ZM183.457 27.9426L188.933 21.7419L189.175 22.0163L183.699 28.217L183.457 27.9426ZM190.242 21.7419L184.766 27.9426L185.008 28.217L190.484 22.0163L190.242 21.7419ZM186.074 27.9426L191.55 21.7419L191.792 22.0163L186.316 28.217L186.074 27.9426ZM192.907 21.7419L187.431 27.9426L187.673 28.217L193.149 22.0163L192.907 21.7419ZM188.739 27.9426L194.215 21.7419L194.457 22.0163L188.981 28.217L188.739 27.9426ZM195.523 21.7419L190.048 27.9426L190.29 28.217L195.766 22.0163L195.523 21.7419ZM191.356 27.9426L196.832 21.7419L197.074 22.0163L191.598 28.217L191.356 27.9426ZM198.14 21.7419L192.664 27.9426L192.907 28.217L198.383 22.0163L198.14 21.7419ZM194.021 27.9426L199.497 21.7419L199.74 22.0163L194.264 28.217L194.021 27.9426ZM200.806 21.7419L195.33 27.9426L195.572 28.217L201.048 22.0163L200.806 21.7419ZM196.638 27.9426L202.114 21.7419L202.356 22.0163L196.88 28.217L196.638 27.9426ZM203.422 21.7419L197.946 27.9426L198.189 28.217L203.665 22.0163L203.422 21.7419ZM199.303 27.9426L204.779 21.7419L205.021 22.0163L199.546 28.217L199.303 27.9426ZM206.088 21.7419L200.612 27.9426L200.854 28.217L206.33 22.0163L206.088 21.7419ZM207.396 21.7419L201.92 27.9426L202.162 28.217L207.638 22.0163L207.396 21.7419Z" fill="white"/>
<path opacity="0.6" fill-rule="evenodd" clip-rule="evenodd" d="M167.805 28.1621L162.329 21.9614L162.571 21.7419L168.047 27.8877L167.805 28.1621ZM163.637 21.9614L169.113 28.1621L169.356 27.8877L163.88 21.7419L163.637 21.9614ZM170.47 28.1621L164.994 21.9614L165.188 21.7419L170.713 27.8877L170.47 28.1621ZM166.303 21.9614L171.779 28.1621L172.021 27.8877L166.545 21.7419L166.303 21.9614ZM173.087 28.1621L167.611 21.9614L167.854 21.7419L173.329 27.8877L173.087 28.1621ZM168.92 21.9614L174.396 28.1621L174.638 27.8877L169.162 21.7419L168.92 21.9614ZM175.752 28.1621L170.276 21.9614L170.47 21.7419L175.995 27.8877L175.752 28.1621ZM171.585 21.9614L177.061 28.1621L177.303 27.8877L171.827 21.7419L171.585 21.9614ZM178.369 28.1621L172.893 21.9614L173.135 21.7419L178.611 27.8877L178.369 28.1621ZM174.202 21.9614L179.677 28.1621L179.92 27.8877L174.444 21.7419L174.202 21.9614ZM180.986 28.1621L175.51 21.9614L175.752 21.7419L181.228 27.8877L180.986 28.1621ZM176.867 21.9614L182.343 28.1621L182.585 27.8877L177.061 21.7419L176.867 21.9614ZM183.651 28.1621L178.175 21.9614L178.418 21.7419L183.894 27.8877L183.651 28.1621ZM179.484 21.9614L184.959 28.1621L185.202 27.8877L179.726 21.7419L179.484 21.9614ZM186.268 28.1621L180.792 21.9614L181.034 21.7419L186.51 27.8877L186.268 28.1621ZM182.149 21.9614L187.625 28.1621L187.867 27.8877L182.342 21.7419L182.149 21.9614ZM188.933 28.1621L183.457 21.9614L183.651 21.7419L189.175 27.8877L188.933 28.1621ZM184.766 21.9614L190.242 28.1621L190.484 27.8877L185.008 21.7419L184.766 21.9614ZM191.55 28.1621L186.074 21.9614L186.316 21.7419L191.792 27.8877L191.55 28.1621ZM187.382 21.9614L192.858 28.1621L193.101 27.8877L187.625 21.7419L187.382 21.9614ZM194.215 28.1621L188.739 21.9614L188.933 21.7419L194.457 27.8877L194.215 28.1621ZM190.048 21.9614L195.523 28.1621L195.766 27.8877L190.29 21.7419L190.048 21.9614ZM196.832 28.1621L191.356 21.9614L191.598 21.7419L197.074 27.8877L196.832 28.1621ZM192.664 21.9614L198.14 28.1621L198.383 27.8877L192.907 21.7419L192.664 21.9614ZM199.449 28.1621L193.973 21.9614L194.215 21.7419L199.691 27.8877L199.449 28.1621ZM195.33 21.9614L200.806 28.1621L201.048 27.8877L195.524 21.7419L195.33 21.9614ZM202.114 28.1621L196.638 21.9614L196.88 21.7419L202.356 27.8877L202.114 28.1621ZM197.946 21.9614L203.422 28.1621L203.665 27.8877L198.189 21.7419L197.946 21.9614ZM204.731 28.1621L199.255 21.9614L199.497 21.7419L204.973 27.8877L204.731 28.1621ZM200.612 21.9614L206.088 28.1621L206.33 27.8877L200.805 21.7419L200.612 21.9614ZM202.162 21.7419L201.92 22.0163L207.396 28.217L207.638 27.9426L202.162 21.7419Z" fill="white"/>
</g>
<mask id="mask7" mask-type="alpha" maskUnits="userSpaceOnUse" x="165" y="21" width="41" height="8">
<path fill-rule="evenodd" clip-rule="evenodd" d="M169.085 21.8054H201.979C203.721 21.8054 205.132 23.2172 205.132 24.9584C205.132 26.6996 203.721 28.1114 201.979 28.1114H169.085C167.343 28.1114 165.932 26.6996 165.932 24.9584C165.932 23.2172 167.343 21.8054 169.085 21.8054ZM169.027 27.4944H201.922C203.381 27.4944 204.557 26.3179 204.557 24.859C204.557 23.4002 203.381 22.2237 201.922 22.2237H169.027C167.568 22.2237 166.392 23.4002 166.392 24.859C166.392 26.3179 167.568 27.4944 169.027 27.4944Z" fill="white"/>
</mask>
<g mask="url(#mask7)">
<g opacity="0.799366" filter="url(#filter20_f)">
<path fill-rule="evenodd" clip-rule="evenodd" d="M165.273 25.1937H205.462V30.8879H165.273V25.1937Z" fill="white"/>
</g>
<g filter="url(#filter21_f)">
<path d="M201.979 22.276H169.085C167.438 22.276 166.073 23.5466 165.979 25.1466C165.979 25.0525 165.979 24.9584 165.979 24.9113C165.979 23.1701 167.391 21.7583 169.132 21.7583H202.026C203.768 21.7583 205.179 23.1701 205.179 24.9113C205.179 25.0054 205.179 25.0995 205.179 25.1466C204.991 23.5466 203.626 22.276 201.979 22.276Z" fill="black"/>
</g>
<g style="mix-blend-mode:soft-light" opacity="0.15">
<rect x="-239.532" y="-61.725" width="752.951" height="752.949" fill="#E4E4E4"/>
</g>
</g>
<path fill-rule="evenodd" clip-rule="evenodd" d="M169.085 28.0643H201.979C203.674 28.0643 205.038 26.7466 205.132 25.0525C205.132 25.0995 205.132 25.1466 205.132 25.1937C205.132 26.9349 203.721 28.3467 201.979 28.3467H169.085C167.343 28.3467 165.932 26.9349 165.932 25.1937C165.932 25.1466 165.932 25.0995 165.932 25.0525C166.026 26.7466 167.39 28.0643 169.085 28.0643Z" fill="white"/>
<path opacity="0.9" fill-rule="evenodd" clip-rule="evenodd" d="M201.979 21.8054H169.085C167.39 21.8054 166.026 23.1231 165.932 24.8172C165.932 24.7702 165.932 24.7231 165.932 24.6761C165.932 22.9349 167.343 21.5231 169.085 21.5231H201.979C203.721 21.5231 205.132 22.9349 205.132 24.6761C205.132 24.7231 205.132 24.7702 205.132 24.8172C205.038 23.1231 203.674 21.8054 201.979 21.8054Z" fill="white"/>
<g opacity="0.5" filter="url(#filter22_i)">
<path d="M201.979 22.276H169.085C167.626 22.276 166.449 23.4525 166.449 24.9113C166.449 26.3702 167.626 27.5466 169.085 27.5466H201.979C203.438 27.5466 204.615 26.3702 204.615 24.9113C204.615 23.4525 203.438 22.276 201.979 22.276Z" fill="black" fill-opacity="0.01"/>
</g>
<mask id="mask8" mask-type="alpha" maskUnits="userSpaceOnUse" x="166" y="22" width="39" height="6">
<path d="M201.979 22.276H169.085C167.626 22.276 166.449 23.4525 166.449 24.9113C166.449 26.3702 167.626 27.5466 169.085 27.5466H201.979C203.438 27.5466 204.615 26.3702 204.615 24.9113C204.615 23.4525 203.438 22.276 201.979 22.276Z" fill="white"/>
</mask>
<g mask="url(#mask8)">
<g style="mix-blend-mode:soft-light" opacity="0.03">
<rect x="-239.532" y="-62.1954" width="752.951" height="752.949" fill="#E4E4E4"/>
</g>
</g>
<path d="M223.674 25.2879C223.674 27.9232 221.556 30.0409 218.921 30.0409C216.285 30.0409 214.168 27.9232 214.168 25.2879C214.168 22.6526 216.285 20.5349 218.921 20.5349C221.556 20.5349 223.674 22.6526 223.674 25.2879Z" fill="#E2E2E2"/>
<mask id="mask9" mask-type="alpha" maskUnits="userSpaceOnUse" x="214" y="20" width="10" height="11">
<path d="M223.674 25.2879C223.674 27.9232 221.556 30.0409 218.921 30.0409C216.285 30.0409 214.168 27.9232 214.168 25.2879C214.168 22.6526 216.285 20.5349 218.921 20.5349C221.556 20.5349 223.674 22.6526 223.674 25.2879Z" fill="white"/>
</mask>
<g mask="url(#mask9)">
<g filter="url(#filter23_f)">
<path d="M223.815 30.135C223.815 32.8645 221.603 35.1233 218.826 35.1233C216.097 35.1233 213.838 32.9116 213.838 30.135C213.838 27.4056 216.05 25.1467 218.826 25.1467C221.603 25.1467 223.815 27.4056 223.815 30.135Z" fill="white"/>
</g>
<g opacity="0.1" filter="url(#filter24_f)">
<path d="M223.815 21.0996C223.815 23.8291 221.603 26.0879 218.826 26.0879C216.097 26.0879 213.838 23.8761 213.838 21.0996C213.838 18.3702 216.05 16.1113 218.826 16.1113C221.603 16.1113 223.815 18.3702 223.815 21.0996Z" fill="black"/>
</g>
<g style="mix-blend-mode:soft-light" opacity="0.297101">
<rect x="-191.061" y="-62.6658" width="752.951" height="752.949" fill="#E4E4E4"/>
</g>
</g>
<g filter="url(#filter25_i)">
<path d="M221.932 25.2879C221.932 26.935 220.568 28.2997 218.921 28.2997C217.274 28.2997 215.909 26.935 215.909 25.2879C215.909 23.6408 217.274 22.2761 218.921 22.2761C220.568 22.2761 221.932 23.6408 221.932 25.2879Z" fill="#E0E0E0"/>
</g>
<mask id="mask10" mask-type="alpha" maskUnits="userSpaceOnUse" x="215" y="22" width="7" height="7">
<path d="M221.932 25.2879C221.932 26.935 220.568 28.2997 218.921 28.2997C217.274 28.2997 215.909 26.935 215.909 25.2879C215.909 23.6408 217.274 22.2761 218.921 22.2761C220.568 22.2761 221.932 23.6408 221.932 25.2879Z" fill="white"/>
</mask>
<g mask="url(#mask10)">
<g filter="url(#filter26_f)">
<path fill-rule="evenodd" clip-rule="evenodd" d="M216.662 25.8998C216.332 26.4174 217.603 27.7822 218.826 27.7822C220.003 27.7822 221.509 26.5116 221.273 25.9468C220.85 26.1821 219.909 26.6527 218.873 26.6527C217.838 26.6527 216.991 26.2292 216.662 25.8998Z" fill="white"/>
</g>
<g filter="url(#filter27_f)">
<path fill-rule="evenodd" clip-rule="evenodd" d="M218.403 23.6879C219.062 23.6879 219.579 24.2055 219.579 24.8643C219.579 25.5232 219.062 26.0408 218.403 26.0408C217.744 26.0408 217.227 25.5232 217.227 24.8643C217.227 24.2055 217.744 23.6879 218.403 23.6879Z" fill="white"/>
</g>
<g style="mix-blend-mode:soft-light" opacity="0.297101">
<rect x="-189.649" y="-60.7836" width="752.951" height="752.949" fill="#E4E4E4"/>
</g>
</g>
<path d="M321.98 49.9298V49.9277C321.933 39.6727 318.94 31.7619 313.456 26.4162C307.973 21.0721 300.065 18.353 290.309 18.353H265.65C263.084 18.353 260.991 20.4461 260.991 23.0119V24.8001C260.991 33.2933 254.096 40.1885 245.603 40.1885H125.225C116.731 40.1885 109.836 33.2933 109.836 24.8001V23.0119C109.836 20.4461 107.743 18.353 105.177 18.353H80.5184C70.7626 18.353 62.854 21.072 57.3833 26.4165C51.9109 31.7629 48.9415 39.6745 48.9415 49.9298V579.255C48.9415 589.542 52.626 597.147 58.5791 602.177C64.5208 607.199 72.674 609.608 81.5537 609.608H289.368C298.225 609.608 306.378 607.199 312.324 602.177C318.284 597.147 321.98 589.542 321.98 579.255V49.9298Z" stroke="black" stroke-opacity="0.1" stroke-width="2"/>
<defs>
<filter id="filter0_f" x="26.5654" y="616.668" width="314.697" height="19.8864" filterUnits="userSpaceOnUse" color-interpolation-filters="sRGB">
<feFlood flood-opacity="0" result="BackgroundImageFix"/>
<feBlend mode="normal" in="SourceGraphic" in2="BackgroundImageFix" result="shape"/>
<feGaussianBlur stdDeviation="4.07742" result="effect1_foregroundBlur"/>
</filter>
<filter id="filter1_f" x="0.733338" y="615.727" width="366.589" height="21.9572" filterUnits="userSpaceOnUse" color-interpolation-filters="sRGB">
<feFlood flood-opacity="0" result="BackgroundImageFix"/>
<feBlend mode="normal" in="SourceGraphic" in2="BackgroundImageFix" result="shape"/>
<feGaussianBlur stdDeviation="4.07742" result="effect1_foregroundBlur"/>
</filter>
<filter id="filter2_f" x="11.3611" y="64.9789" width="348.106" height="189.468" filterUnits="userSpaceOnUse" color-interpolation-filters="sRGB">
<feFlood flood-opacity="0" result="BackgroundImageFix"/>
<feBlend mode="normal" in="SourceGraphic" in2="BackgroundImageFix" result="shape"/>
<feGaussianBlur stdDeviation="8.15485" result="effect1_foregroundBlur"/>
</filter>
<filter id="filter3_f" x="19.5159" y="71.1102" width="331.561" height="176.405" filterUnits="userSpaceOnUse" color-interpolation-filters="sRGB">
<feFlood flood-opacity="0" result="BackgroundImageFix"/>
<feBlend mode="normal" in="SourceGraphic" in2="BackgroundImageFix" result="shape"/>
<feGaussianBlur stdDeviation="4.07742" result="effect1_foregroundBlur"/>
</filter>
<filter id="filter4_f" x="22.2342" y="73.9226" width="326.36" height="169.651" filterUnits="userSpaceOnUse" color-interpolation-filters="sRGB">
<feFlood flood-opacity="0" result="BackgroundImageFix"/>
<feBlend mode="normal" in="SourceGraphic" in2="BackgroundImageFix" result="shape"/>
<feGaussianBlur stdDeviation="2.71828" result="effect1_foregroundBlur"/>
</filter>
<filter id="filter5_f" x="22.2342" y="74.299" width="326.36" height="169.651" filterUnits="userSpaceOnUse" color-interpolation-filters="sRGB">
<feFlood flood-opacity="0" result="BackgroundImageFix"/>
<feBlend mode="normal" in="SourceGraphic" in2="BackgroundImageFix" result="shape"/>
<feGaussianBlur stdDeviation="2.71828" result="effect1_foregroundBlur"/>
</filter>
<filter id="filter6_f" x="19.5047" y="79.6638" width="14.3213" height="36.2851" filterUnits="userSpaceOnUse" color-interpolation-filters="sRGB">
<feFlood flood-opacity="0" result="BackgroundImageFix"/>
<feBlend mode="normal" in="SourceGraphic" in2="BackgroundImageFix" result="shape"/>
<feGaussianBlur stdDeviation="2.71828" result="effect1_foregroundBlur"/>
</filter>
<filter id="filter7_f" x="18.093" y="121.021" width="15.7331" height="121.928" filterUnits="userSpaceOnUse" color-interpolation-filters="sRGB">
<feFlood flood-opacity="0" result="BackgroundImageFix"/>
<feBlend mode="normal" in="SourceGraphic" in2="BackgroundImageFix" result="shape"/>
<feGaussianBlur stdDeviation="2.71828" result="effect1_foregroundBlur"/>
</filter>
<filter id="filter8_f" x="338.067" y="121.021" width="15.7326" height="121.928" filterUnits="userSpaceOnUse" color-interpolation-filters="sRGB">
<feFlood flood-opacity="0" result="BackgroundImageFix"/>
<feBlend mode="normal" in="SourceGraphic" in2="BackgroundImageFix" result="shape"/>
<feGaussianBlur stdDeviation="2.71828" result="effect1_foregroundBlur"/>
</filter>
<filter id="filter9_f" x="11.0787" y="-18.7396" width="349.847" height="661.238" filterUnits="userSpaceOnUse" color-interpolation-filters="sRGB">
<feFlood flood-opacity="0" result="BackgroundImageFix"/>
<feBlend mode="normal" in="SourceGraphic" in2="BackgroundImageFix" result="shape"/>
<feGaussianBlur stdDeviation="8.15485" result="effect1_foregroundBlur"/>
</filter>
<filter id="filter10_f" x="-5.5157" y="-35.7576" width="382.141" height="703.602" filterUnits="userSpaceOnUse" color-interpolation-filters="sRGB">
<feFlood flood-opacity="0" result="BackgroundImageFix"/>
<feBlend mode="normal" in="SourceGraphic" in2="BackgroundImageFix" result="shape"/>
<feGaussianBlur stdDeviation="21.7463" result="effect1_foregroundBlur"/>
</filter>
<filter id="filter11_f" x="-5.5157" y="-35.7576" width="382.141" height="699.368" filterUnits="userSpaceOnUse" color-interpolation-filters="sRGB">
<feFlood flood-opacity="0" result="BackgroundImageFix"/>
<feBlend mode="normal" in="SourceGraphic" in2="BackgroundImageFix" result="shape"/>
<feGaussianBlur stdDeviation="21.7463" result="effect1_foregroundBlur"/>
</filter>
<filter id="filter12_f" x="12.9835" y="-13.8703" width="345.143" height="653.051" filterUnits="userSpaceOnUse" color-interpolation-filters="sRGB">
<feFlood flood-opacity="0" result="BackgroundImageFix"/>
<feBlend mode="normal" in="SourceGraphic" in2="BackgroundImageFix" result="shape"/>
<feGaussianBlur stdDeviation="10.8731" result="effect1_foregroundBlur"/>
</filter>
<filter id="filter13_f" x="12.9835" y="-13.8703" width="345.143" height="653.051" filterUnits="userSpaceOnUse" color-interpolation-filters="sRGB">
<feFlood flood-opacity="0" result="BackgroundImageFix"/>
<feBlend mode="normal" in="SourceGraphic" in2="BackgroundImageFix" result="shape"/>
<feGaussianBlur stdDeviation="10.8731" result="effect1_foregroundBlur"/>
</filter>
<filter id="filter14_f" x="3.85157" y="-30.6728" width="363.408" height="103.027" filterUnits="userSpaceOnUse" color-interpolation-filters="sRGB">
<feFlood flood-opacity="0" result="BackgroundImageFix"/>
<feBlend mode="normal" in="SourceGraphic" in2="BackgroundImageFix" result="shape"/>
<feGaussianBlur stdDeviation="16.3097" result="effect1_foregroundBlur"/>
</filter>
<filter id="filter15_f" x="9.51477" y="576.795" width="352.034" height="83.4437" filterUnits="userSpaceOnUse" color-interpolation-filters="sRGB">
<feFlood flood-opacity="0" result="BackgroundImageFix"/>
<feBlend mode="normal" in="SourceGraphic" in2="BackgroundImageFix" result="shape"/>
<feGaussianBlur stdDeviation="8.15485" result="effect1_foregroundBlur"/>
</filter>
<filter id="filter16_f" x="16.7263" y="591.477" width="337.658" height="56.0078" filterUnits="userSpaceOnUse" color-interpolation-filters="sRGB">
<feFlood flood-opacity="0" result="BackgroundImageFix"/>
<feBlend mode="normal" in="SourceGraphic" in2="BackgroundImageFix" result="shape"/>
<feGaussianBlur stdDeviation="8.15485" result="effect1_foregroundBlur"/>
</filter>
<filter id="filter17_f" x="19.5271" y="578.938" width="332.009" height="74.9219" filterUnits="userSpaceOnUse" color-interpolation-filters="sRGB">
<feFlood flood-opacity="0" result="BackgroundImageFix"/>
<feBlend mode="normal" in="SourceGraphic" in2="BackgroundImageFix" result="shape"/>
<feGaussianBlur stdDeviation="5.43656" result="effect1_foregroundBlur"/>
</filter>
<filter id="filter18_f" x="16.7866" y="-10.5848" width="338.572" height="646.97" filterUnits="userSpaceOnUse" color-interpolation-filters="sRGB">
<feFlood flood-opacity="0" result="BackgroundImageFix"/>
<feBlend mode="normal" in="SourceGraphic" in2="BackgroundImageFix" result="shape"/>
<feGaussianBlur stdDeviation="4.07742" result="effect1_foregroundBlur"/>
</filter>
<filter id="filter19_f" x="15.2222" y="47.0045" width="340.949" height="534.032" filterUnits="userSpaceOnUse" color-interpolation-filters="sRGB">
<feFlood flood-opacity="0" result="BackgroundImageFix"/>
<feBlend mode="normal" in="SourceGraphic" in2="BackgroundImageFix" result="shape"/>
<feGaussianBlur stdDeviation="4.57724" result="effect1_foregroundBlur"/>
</filter>
<filter id="filter20_f" x="154.655" y="14.5754" width="61.4251" height="26.9307" filterUnits="userSpaceOnUse" color-interpolation-filters="sRGB">
<feFlood flood-opacity="0" result="BackgroundImageFix"/>
<feBlend mode="normal" in="SourceGraphic" in2="BackgroundImageFix" result="shape"/>
<feGaussianBlur stdDeviation="5.30914" result="effect1_foregroundBlur"/>
</filter>
<filter id="filter21_f" x="163.26" y="19.04" width="44.6371" height="8.82485" filterUnits="userSpaceOnUse" color-interpolation-filters="sRGB">
<feFlood flood-opacity="0" result="BackgroundImageFix"/>
<feBlend mode="normal" in="SourceGraphic" in2="BackgroundImageFix" result="shape"/>
<feGaussianBlur stdDeviation="1.35914" result="effect1_foregroundBlur"/>
</filter>
<filter id="filter22_i" x="166.449" y="22.276" width="38.1653" height="6.27065" filterUnits="userSpaceOnUse" color-interpolation-filters="sRGB">
<feFlood flood-opacity="0" result="BackgroundImageFix"/>
<feBlend mode="normal" in="SourceGraphic" in2="BackgroundImageFix" result="shape"/>
<feColorMatrix in="SourceAlpha" type="matrix" values="0 0 0 0 0 0 0 0 0 0 0 0 0 0 0 0 0 0 127 0" result="hardAlpha"/>
<feOffset dy="1"/>
<feGaussianBlur stdDeviation="1.5"/>
<feComposite in2="hardAlpha" operator="arithmetic" k2="-1" k3="1"/>
<feColorMatrix type="matrix" values="0 0 0 0 0 0 0 0 0 0 0 0 0 0 0 0 0 0 0.297186 0"/>
<feBlend mode="normal" in2="shape" result="effect1_innerShadow"/>
</filter>
<filter id="filter23_f" x="202.965" y="14.2736" width="31.723" height="31.7229" filterUnits="userSpaceOnUse" color-interpolation-filters="sRGB">
<feFlood flood-opacity="0" result="BackgroundImageFix"/>
<feBlend mode="normal" in="SourceGraphic" in2="BackgroundImageFix" result="shape"/>
<feGaussianBlur stdDeviation="5.43656" result="effect1_foregroundBlur"/>
</filter>
<filter id="filter24_f" x="202.965" y="5.2382" width="31.723" height="31.7228" filterUnits="userSpaceOnUse" color-interpolation-filters="sRGB">
<feFlood flood-opacity="0" result="BackgroundImageFix"/>
<feBlend mode="normal" in="SourceGraphic" in2="BackgroundImageFix" result="shape"/>
<feGaussianBlur stdDeviation="5.43656" result="effect1_foregroundBlur"/>
</filter>
<filter id="filter25_i" x="215.909" y="22.2761" width="6.02341" height="6.02362" filterUnits="userSpaceOnUse" color-interpolation-filters="sRGB">
<feFlood flood-opacity="0" result="BackgroundImageFix"/>
<feBlend mode="normal" in="SourceGraphic" in2="BackgroundImageFix" result="shape"/>
<feColorMatrix in="SourceAlpha" type="matrix" values="0 0 0 0 0 0 0 0 0 0 0 0 0 0 0 0 0 0 127 0" result="hardAlpha"/>
<feOffset/>
<feGaussianBlur stdDeviation="2.5"/>
<feComposite in2="hardAlpha" operator="arithmetic" k2="-1" k3="1"/>
<feColorMatrix type="matrix" values="0 0 0 0 0 0 0 0 0 0 0 0 0 0 0 0 0 0 0.281646 0"/>
<feBlend mode="normal" in2="shape" result="effect1_innerShadow"/>
</filter>
<filter id="filter26_f" x="213.891" y="23.1815" width="10.1257" height="7.31896" filterUnits="userSpaceOnUse" color-interpolation-filters="sRGB">
<feFlood flood-opacity="0" result="BackgroundImageFix"/>
<feBlend mode="normal" in="SourceGraphic" in2="BackgroundImageFix" result="shape"/>
<feGaussianBlur stdDeviation="1.35914" result="effect1_foregroundBlur"/>
</filter>
<filter id="filter27_f" x="214.508" y="20.9696" width="7.78945" height="7.78953" filterUnits="userSpaceOnUse" color-interpolation-filters="sRGB">
<feFlood flood-opacity="0" result="BackgroundImageFix"/>
<feBlend mode="normal" in="SourceGraphic" in2="BackgroundImageFix" result="shape"/>
<feGaussianBlur stdDeviation="1.35914" result="effect1_foregroundBlur"/>
</filter>
<linearGradient id="paint0_linear" x1="320.183" y1="624.984" x2="49.2304" y2="609.409" gradientUnits="userSpaceOnUse">
<stop stop-opacity="0.01"/>
<stop offset="0.0674672"/>
<stop offset="0.928003"/>
<stop offset="1" stop-opacity="0.01"/>
</linearGradient>
<linearGradient id="paint1_linear" x1="347.509" y1="624.105" x2="24.7851" y2="622.327" gradientUnits="userSpaceOnUse">
<stop stop-opacity="0.01"/>
<stop offset="0.0782494"/>
<stop offset="0.921377"/>
<stop offset="1" stop-opacity="0.01"/>
</linearGradient>
</defs>
</svg>
