<svg width="856" height="4" viewBox="0 0 856 4" fill="none" xmlns="http://www.w3.org/2000/svg">
<path fill-rule="evenodd" clip-rule="evenodd" d="M0 1C0 0.447715 0.447715 0 1 0H11C11.5523 0 12 0.447715 12 1V3C12 3.55228 11.5523 4 11 4H1C0.447715 4 0 3.55228 0 3V1ZM80 1C80 0.447715 80.4477 0 81 0H91C91.5523 0 92 0.447715 92 1V3C92 3.55228 91.5523 4 91 4H81C80.4477 4 80 3.55228 80 3V1ZM41 0C40.4477 0 40 0.447715 40 1V3C40 3.55228 40.4477 4 41 4H51C51.5523 4 52 3.55228 52 3V1C52 0.447715 51.5523 0 51 0H41ZM120 1C120 0.447715 120.448 0 121 0H131C131.552 0 132 0.447715 132 1V3C132 3.55228 131.552 4 131 4H121C120.448 4 120 3.55228 120 3V1ZM21 0C20.4477 0 20 0.447715 20 1V3C20 3.55228 20.4477 4 21 4H31C31.5523 4 32 3.55228 32 3V1C32 0.447715 31.5523 0 31 0H21ZM100 1C100 0.447715 100.448 0 101 0H111C111.552 0 112 0.447715 112 1V3C112 3.55228 111.552 4 111 4H101C100.448 4 100 3.55228 100 3V1ZM61 0C60.4477 0 60 0.447715 60 1V3C60 3.55228 60.4477 4 61 4H71C71.5523 4 72 3.55228 72 3V1C72 0.447715 71.5523 0 71 0H61ZM140 1C140 0.447715 140.448 0 141 0H151C151.552 0 152 0.447715 152 1V3C152 3.55228 151.552 4 151 4H141C140.448 4 140 3.55228 140 3V1ZM160 1C160 0.447715 160.448 0 161 0H171C171.552 0 172 0.447715 172 1V3C172 3.55228 171.552 4 171 4H161C160.448 4 160 3.55228 160 3V1ZM200 1C200 0.447715 200.448 0 201 0H211C211.552 0 212 0.447715 212 1V3C212 3.55228 211.552 4 211 4H201C200.448 4 200 3.55228 200 3V1ZM181 0C180.448 0 180 0.447715 180 1V3C180 3.55228 180.448 4 181 4H191C191.552 4 192 3.55228 192 3V1C192 0.447715 191.552 0 191 0H181ZM220 1C220 0.447715 220.448 0 221 0H231C231.552 0 232 0.447715 232 1V3C232 3.55228 231.552 4 231 4H221C220.448 4 220 3.55228 220 3V1Z" fill="#EFEFEF"/>
<path fill-rule="evenodd" clip-rule="evenodd" d="M312 1C312 0.447715 312.448 0 313 0H323C323.552 0 324 0.447715 324 1V3C324 3.55228 323.552 4 323 4H313C312.448 4 312 3.55228 312 3V1ZM392 1C392 0.447715 392.448 0 393 0H403C403.552 0 404 0.447715 404 1V3C404 3.55228 403.552 4 403 4H393C392.448 4 392 3.55228 392 3V1ZM353 0C352.448 0 352 0.447715 352 1V3C352 3.55228 352.448 4 353 4H363C363.552 4 364 3.55228 364 3V1C364 0.447715 363.552 0 363 0H353ZM432 1C432 0.447715 432.448 0 433 0H443C443.552 0 444 0.447715 444 1V3C444 3.55228 443.552 4 443 4H433C432.448 4 432 3.55228 432 3V1ZM333 0C332.448 0 332 0.447715 332 1V3C332 3.55228 332.448 4 333 4H343C343.552 4 344 3.55228 344 3V1C344 0.447715 343.552 0 343 0H333ZM412 1C412 0.447715 412.448 0 413 0H423C423.552 0 424 0.447715 424 1V3C424 3.55228 423.552 4 423 4H413C412.448 4 412 3.55228 412 3V1ZM373 0C372.448 0 372 0.447715 372 1V3C372 3.55228 372.448 4 373 4H383C383.552 4 384 3.55228 384 3V1C384 0.447715 383.552 0 383 0H373ZM452 1C452 0.447715 452.448 0 453 0H463C463.552 0 464 0.447715 464 1V3C464 3.55228 463.552 4 463 4H453C452.448 4 452 3.55228 452 3V1ZM472 1C472 0.447715 472.448 0 473 0H483C483.552 0 484 0.447715 484 1V3C484 3.55228 483.552 4 483 4H473C472.448 4 472 3.55228 472 3V1ZM512 1C512 0.447715 512.448 0 513 0H523C523.552 0 524 0.447715 524 1V3C524 3.55228 523.552 4 523 4H513C512.448 4 512 3.55228 512 3V1ZM493 0C492.448 0 492 0.447715 492 1V3C492 3.55228 492.448 4 493 4H503C503.552 4 504 3.55228 504 3V1C504 0.447715 503.552 0 503 0H493ZM532 1C532 0.447715 532.448 0 533 0H543C543.552 0 544 0.447715 544 1V3C544 3.55228 543.552 4 543 4H533C532.448 4 532 3.55228 532 3V1Z" fill="#EFEFEF"/>
<path fill-rule="evenodd" clip-rule="evenodd" d="M624 1C624 0.447715 624.448 0 625 0H635C635.552 0 636 0.447715 636 1V3C636 3.55228 635.552 4 635 4H625C624.448 4 624 3.55228 624 3V1ZM704 1C704 0.447715 704.448 0 705 0H715C715.552 0 716 0.447715 716 1V3C716 3.55228 715.552 4 715 4H705C704.448 4 704 3.55228 704 3V1ZM665 0C664.448 0 664 0.447715 664 1V3C664 3.55228 664.448 4 665 4H675C675.552 4 676 3.55228 676 3V1C676 0.447715 675.552 0 675 0H665ZM744 1C744 0.447715 744.448 0 745 0H755C755.552 0 756 0.447715 756 1V3C756 3.55228 755.552 4 755 4H745C744.448 4 744 3.55228 744 3V1ZM645 0C644.448 0 644 0.447715 644 1V3C644 3.55228 644.448 4 645 4H655C655.552 4 656 3.55228 656 3V1C656 0.447715 655.552 0 655 0H645ZM724 1C724 0.447715 724.448 0 725 0H735C735.552 0 736 0.447715 736 1V3C736 3.55228 735.552 4 735 4H725C724.448 4 724 3.55228 724 3V1ZM685 0C684.448 0 684 0.447715 684 1V3C684 3.55228 684.448 4 685 4H695C695.552 4 696 3.55228 696 3V1C696 0.447715 695.552 0 695 0H685ZM764 1C764 0.447715 764.448 0 765 0H775C775.552 0 776 0.447715 776 1V3C776 3.55228 775.552 4 775 4H765C764.448 4 764 3.55228 764 3V1ZM784 1C784 0.447715 784.448 0 785 0H795C795.552 0 796 0.447715 796 1V3C796 3.55228 795.552 4 795 4H785C784.448 4 784 3.55228 784 3V1ZM824 1C824 0.447715 824.448 0 825 0H835C835.552 0 836 0.447715 836 1V3C836 3.55228 835.552 4 835 4H825C824.448 4 824 3.55228 824 3V1ZM805 0C804.448 0 804 0.447715 804 1V3C804 3.55228 804.448 4 805 4H815C815.552 4 816 3.55228 816 3V1C816 0.447715 815.552 0 815 0H805ZM844 1C844 0.447715 844.448 0 845 0H855C855.552 0 856 0.447715 856 1V3C856 3.55228 855.552 4 855 4H845C844.448 4 844 3.55228 844 3V1Z" fill="#EFEFEF"/>
</svg>
