<svg width="220" height="80" viewBox="0 0 220 80" fill="none" xmlns="http://www.w3.org/2000/svg">
<path d="M45.2867 37.8049H43.5V35.474H45.2867V32.3522H48.0084V35.474H50.5015V37.8049H48.0084V41.7591C48.0084 41.995 48.0291 42.217 48.0707 42.4251C48.1261 42.6193 48.2231 42.7858 48.3616 42.9246C48.5555 43.1465 48.8325 43.2575 49.1926 43.2575C49.4281 43.2575 49.615 43.2367 49.7535 43.1951C49.8921 43.1396 50.0236 43.0702 50.1483 42.987L50.917 45.3803C50.5984 45.5329 50.2522 45.6439 49.8782 45.7133C49.5181 45.7966 49.1164 45.8382 48.6732 45.8382C48.1607 45.8382 47.6967 45.7619 47.2812 45.6093C46.8795 45.4428 46.5402 45.2208 46.2632 44.9433C45.6122 44.3189 45.2867 43.431 45.2867 42.2794V37.8049Z" fill="white"/>
<path d="M52.3886 30.7706H55.1103V34.9537L54.944 36.8059H55.1103C55.4011 36.3203 55.8166 35.9249 56.3568 35.6197C56.9108 35.3006 57.5272 35.141 58.2059 35.141C59.5217 35.141 60.4912 35.5295 61.1145 36.3065C61.7516 37.0834 62.0702 38.1448 62.0702 39.4907V45.6717H59.3485V39.8236C59.3485 39.116 59.1823 38.5819 58.8499 38.2211C58.5175 37.8465 58.0535 37.6592 57.4579 37.6592C57.084 37.6592 56.7516 37.7425 56.4607 37.909C56.1698 38.0616 55.9205 38.2766 55.7128 38.5541C55.5188 38.8316 55.3665 39.1577 55.2557 39.5323C55.1587 39.893 55.1103 40.2815 55.1103 40.6977V45.6717H52.3886V30.7706Z" fill="white"/>
<path d="M73.7151 43.2159C73.2442 44.0484 72.607 44.7213 71.8037 45.2346C71.0142 45.748 70.0447 46.0047 68.8951 46.0047C68.1195 46.0047 67.3992 45.8729 66.7344 45.6093C66.0834 45.3318 65.5155 44.9502 65.0308 44.4646C64.546 43.979 64.1651 43.4102 63.8881 42.7581C63.6249 42.0921 63.4933 41.3637 63.4933 40.5728C63.4933 39.8375 63.6249 39.1438 63.8881 38.4917C64.1513 37.8257 64.5183 37.2499 64.9892 36.7643C65.4601 36.2648 66.0142 35.8694 66.6513 35.578C67.3023 35.2867 68.0156 35.141 68.7912 35.141C69.6084 35.141 70.3355 35.2797 70.9727 35.5572C71.6098 35.8208 72.1431 36.1954 72.5724 36.6811C73.0018 37.1528 73.3273 37.7147 73.5489 38.3668C73.7705 39.0189 73.8813 39.7265 73.8813 40.4896C73.8813 40.5867 73.8813 40.67 73.8813 40.7393C73.8675 40.8226 73.8605 40.8989 73.8605 40.9683C73.8467 41.0376 73.8398 41.1139 73.8398 41.1972H66.1734C66.2288 41.6134 66.3396 41.9742 66.5059 42.2794C66.6859 42.5708 66.9006 42.8205 67.1499 43.0286C67.4131 43.2228 67.697 43.3685 68.0017 43.4657C68.3064 43.5489 68.6181 43.5905 68.9366 43.5905C69.5599 43.5905 70.0724 43.4518 70.4741 43.1743C70.8896 42.8829 71.2151 42.5222 71.4505 42.0921L73.7151 43.2159ZM71.2428 39.2617C71.2289 39.0813 71.1666 38.8802 71.0558 38.6582C70.9588 38.4362 70.8065 38.2281 70.5987 38.0338C70.4048 37.8396 70.1555 37.68 69.8508 37.5551C69.5599 37.4303 69.2067 37.3678 68.7912 37.3678C68.2095 37.3678 67.697 37.5343 67.2538 37.8673C66.8106 38.2003 66.4989 38.6651 66.3189 39.2617H71.2428Z" fill="white"/>
<path d="M186.566 45.6717V30.7706H189.288V45.6717H186.566Z" fill="white"/>
<path d="M197.602 44.5895H197.436C197.117 44.978 196.729 45.311 196.272 45.5884C195.829 45.8659 195.254 46.0047 194.548 46.0047C194.022 46.0047 193.523 45.9145 193.052 45.7341C192.595 45.5676 192.193 45.3318 191.847 45.0265C191.501 44.7213 191.231 44.3536 191.037 43.9235C190.843 43.4934 190.746 43.0217 190.746 42.5083C190.746 41.9811 190.85 41.5094 191.057 41.0931C191.265 40.663 191.556 40.2953 191.93 39.9901C192.304 39.6849 192.74 39.4559 193.239 39.3033C193.751 39.1368 194.305 39.0536 194.901 39.0536C195.566 39.0536 196.113 39.1091 196.542 39.2201C196.972 39.3172 197.325 39.4213 197.602 39.5323V39.2201C197.602 38.679 197.387 38.235 196.958 37.8881C196.528 37.5274 195.995 37.347 195.358 37.347C194.416 37.347 193.62 37.7424 192.969 38.5333L190.995 37.1805C192.076 35.8208 193.551 35.141 195.42 35.141C196.999 35.141 198.204 35.5156 199.035 36.2648C199.866 37.0002 200.282 38.0962 200.282 39.5531V45.6717H197.602V44.5895ZM197.602 41.5302C197.283 41.3775 196.951 41.2596 196.605 41.1764C196.272 41.0792 195.905 41.0307 195.504 41.0307C194.853 41.0307 194.347 41.1764 193.987 41.4677C193.641 41.7452 193.467 42.0921 193.467 42.5083C193.467 42.9245 193.634 43.2575 193.966 43.5073C194.312 43.757 194.707 43.8819 195.15 43.8819C195.51 43.8819 195.843 43.8195 196.148 43.6946C196.452 43.5558 196.709 43.3824 196.916 43.1743C197.138 42.9523 197.304 42.7026 197.415 42.4251C197.54 42.1337 197.602 41.8354 197.602 41.5302Z" fill="white"/>
<path d="M82.0358 44.5895H81.8696C81.551 44.978 81.1632 45.311 80.7061 45.5884C80.2629 45.8659 79.6881 46.0047 78.9817 46.0047C78.4554 46.0047 77.9568 45.9145 77.4859 45.7341C77.0288 45.5676 76.6271 45.3318 76.2809 45.0265C75.9346 44.7213 75.6645 44.3536 75.4706 43.9235C75.2767 43.4934 75.1797 43.0217 75.1797 42.5083C75.1797 41.9811 75.2836 41.5094 75.4914 41.0931C75.6991 40.663 75.99 40.2953 76.364 39.9901C76.7379 39.6849 77.1742 39.4559 77.6729 39.3033C78.1853 39.1368 78.7394 39.0536 79.3349 39.0536C79.9998 39.0536 80.5469 39.1091 80.9762 39.2201C81.4056 39.3172 81.7588 39.4213 82.0358 39.5323V39.2201C82.0358 38.679 81.8211 38.235 81.3917 37.8881C80.9624 37.5274 80.4291 37.347 79.792 37.347C78.8502 37.347 78.0538 37.7424 77.4028 38.5333L75.4291 37.1805C76.5094 35.8208 77.9845 35.141 79.8543 35.141C81.4333 35.141 82.6383 35.5156 83.4693 36.2648C84.3004 37.0002 84.7159 38.0962 84.7159 39.5531V45.6717H82.0358V44.5895ZM82.0358 41.5302C81.7172 41.3775 81.3848 41.2596 81.0386 41.1764C80.7061 41.0792 80.3391 41.0307 79.9374 41.0307C79.2865 41.0307 78.7809 41.1764 78.4208 41.4677C78.0745 41.7452 77.9014 42.0921 77.9014 42.5083C77.9014 42.9245 78.0676 43.2575 78.4 43.5073C78.7463 43.757 79.141 43.8819 79.5842 43.8819C79.9444 43.8819 80.2768 43.8195 80.5815 43.6946C80.8862 43.5558 81.1424 43.3824 81.3502 43.1743C81.5718 42.9523 81.738 42.7026 81.8488 42.4251C81.9735 42.1337 82.0358 41.8354 82.0358 41.5302Z" fill="#5FCF9D"/>
<path d="M90.6128 46.0047C89.948 46.0047 89.3524 45.9214 88.8261 45.7549C88.3136 45.5884 87.8635 45.3734 87.4757 45.1098C87.1017 44.8323 86.7831 44.5201 86.52 44.1732C86.2568 43.8125 86.056 43.4518 85.9175 43.091L88.3483 42.0505C88.5837 42.5777 88.8954 42.9731 89.2832 43.2367C89.6848 43.4865 90.1281 43.6113 90.6128 43.6113C91.1115 43.6113 91.5062 43.5212 91.7971 43.3408C92.0879 43.1604 92.2334 42.9454 92.2334 42.6956C92.2334 42.4181 92.1087 42.1961 91.8594 42.0296C91.6239 41.8493 91.2084 41.6897 90.6128 41.551L89.1793 41.2388C88.8607 41.1694 88.5283 41.0584 88.1821 40.9058C87.8496 40.7532 87.5449 40.559 87.2679 40.3231C86.9909 40.0872 86.7624 39.8028 86.5823 39.4698C86.4023 39.1368 86.3122 38.7483 86.3122 38.3044C86.3122 37.8049 86.4161 37.3609 86.6239 36.9724C86.8455 36.5839 87.1433 36.2579 87.5172 35.9943C87.8912 35.7168 88.3275 35.5087 88.8261 35.3699C89.3386 35.2173 89.8857 35.141 90.4674 35.141C91.4369 35.141 92.3026 35.3352 93.0644 35.7237C93.8262 36.0983 94.3871 36.7019 94.7472 37.5343L92.3996 38.4917C92.2057 38.0893 91.9217 37.7979 91.5478 37.6176C91.1738 37.4372 90.7998 37.347 90.4259 37.347C90.038 37.347 89.6987 37.4303 89.4078 37.5968C89.117 37.7494 88.9715 37.9506 88.9715 38.2003C88.9715 38.4362 89.0893 38.6235 89.3247 38.7622C89.574 38.901 89.9065 39.0258 90.322 39.1368L91.8802 39.5114C92.919 39.7612 93.6877 40.1635 94.1863 40.7185C94.6988 41.2596 94.955 41.9048 94.955 42.654C94.955 43.098 94.8511 43.5211 94.6434 43.9235C94.4356 44.3259 94.1378 44.6866 93.75 45.0057C93.376 45.311 92.919 45.5538 92.3788 45.7341C91.8525 45.9145 91.2638 46.0047 90.6128 46.0047Z" fill="#5FCF9D"/>
<path d="M100.568 46.0047C99.9031 46.0047 99.3076 45.9214 98.7812 45.7549C98.2688 45.5884 97.8186 45.3734 97.4308 45.1098C97.0568 44.8323 96.7383 44.5201 96.4751 44.1732C96.212 43.8125 96.0111 43.4518 95.8726 43.091L98.3034 42.0505C98.5389 42.5777 98.8505 42.9731 99.2383 43.2367C99.64 43.4865 100.083 43.6113 100.568 43.6113C101.067 43.6113 101.461 43.5212 101.752 43.3408C102.043 43.1604 102.188 42.9454 102.188 42.6956C102.188 42.4181 102.064 42.1961 101.815 42.0296C101.579 41.8493 101.164 41.6897 100.568 41.551L99.1344 41.2388C98.8159 41.1694 98.4835 41.0584 98.1372 40.9058C97.8048 40.7532 97.5001 40.559 97.2231 40.3231C96.946 40.0872 96.7175 39.8028 96.5374 39.4698C96.3574 39.1368 96.2674 38.7483 96.2674 38.3044C96.2674 37.8049 96.3712 37.3609 96.579 36.9724C96.8006 36.5839 97.0984 36.2579 97.4724 35.9943C97.8463 35.7168 98.2826 35.5087 98.7812 35.3699C99.2937 35.2173 99.8408 35.141 100.423 35.141C101.392 35.141 102.258 35.3352 103.02 35.7237C103.781 36.0983 104.342 36.7019 104.702 37.5343L102.355 38.4917C102.161 38.0893 101.877 37.7979 101.503 37.6176C101.129 37.4372 100.755 37.347 100.381 37.347C99.9932 37.347 99.6538 37.4303 99.363 37.5968C99.0721 37.7494 98.9267 37.9506 98.9267 38.2003C98.9267 38.4362 99.0444 38.6235 99.2799 38.7622C99.5292 38.901 99.8616 39.0258 100.277 39.1368L101.835 39.5114C102.874 39.7612 103.643 40.1635 104.141 40.7185C104.654 41.2596 104.91 41.9048 104.91 42.654C104.91 43.098 104.806 43.5211 104.599 43.9235C104.391 44.3259 104.093 44.6866 103.705 45.0057C103.331 45.311 102.874 45.5538 102.334 45.7341C101.808 45.9145 101.219 46.0047 100.568 46.0047Z" fill="#5FCF9D"/>
<path d="M108.009 33.9964C107.774 33.9964 107.545 33.9547 107.324 33.8715C107.116 33.7744 106.929 33.6495 106.763 33.4969C106.61 33.3304 106.486 33.1431 106.389 32.935C106.306 32.7268 106.264 32.4979 106.264 32.2482C106.264 31.9984 106.306 31.7695 106.389 31.5614C106.486 31.3533 106.61 31.1729 106.763 31.0203C106.929 30.8538 107.116 30.7289 107.324 30.6457C107.545 30.5486 107.774 30.5 108.009 30.5C108.494 30.5 108.91 30.6734 109.256 31.0203C109.602 31.3533 109.775 31.7626 109.775 32.2482C109.775 32.7338 109.602 33.15 109.256 33.4969C108.91 33.8299 108.494 33.9964 108.009 33.9964ZM106.659 45.6717V35.474H109.38V45.6717H106.659Z" fill="#5FCF9D"/>
<path d="M116.815 50.5C116.095 50.5 115.45 50.4029 114.883 50.2086C114.329 50.0283 113.844 49.7855 113.428 49.4802C113.013 49.1889 112.666 48.8628 112.389 48.5021C112.112 48.1413 111.912 47.7806 111.787 47.4199L114.384 46.3793C114.578 46.9204 114.896 47.3366 115.34 47.628C115.783 47.9332 116.275 48.0858 116.815 48.0858C117.673 48.0858 118.352 47.8153 118.851 47.2742C119.349 46.747 119.599 46.0047 119.599 45.0473V44.3397H119.433C119.114 44.7837 118.691 45.1375 118.165 45.4011C117.653 45.6509 117.043 45.7757 116.337 45.7757C115.727 45.7757 115.132 45.6509 114.55 45.4011C113.982 45.1514 113.477 44.7976 113.034 44.3397C112.59 43.868 112.23 43.3061 111.953 42.654C111.676 42.0019 111.538 41.2735 111.538 40.4688C111.538 39.6641 111.676 38.9356 111.953 38.2836C112.23 37.6176 112.59 37.0557 113.034 36.5978C113.477 36.1261 113.982 35.7653 114.55 35.5156C115.132 35.2659 115.727 35.141 116.337 35.141C117.043 35.141 117.653 35.2728 118.165 35.5364C118.691 35.7862 119.114 36.133 119.433 36.577H119.599V35.474H122.196V44.9433C122.196 45.8035 122.064 46.5735 121.801 47.2534C121.538 47.9471 121.171 48.5298 120.7 49.0016C120.229 49.4872 119.661 49.8548 118.996 50.1046C118.345 50.3682 117.618 50.5 116.815 50.5ZM116.919 43.32C117.251 43.32 117.577 43.2575 117.895 43.1327C118.228 43.0078 118.518 42.8274 118.768 42.5916C119.017 42.3418 119.218 42.0435 119.37 41.6967C119.523 41.3359 119.599 40.9266 119.599 40.4688C119.599 40.0109 119.523 39.6016 119.37 39.2409C119.218 38.8802 119.017 38.5819 118.768 38.346C118.518 38.0962 118.228 37.9089 117.895 37.7841C117.577 37.6592 117.251 37.5968 116.919 37.5968C116.586 37.5968 116.261 37.6592 115.942 37.7841C115.624 37.9089 115.34 38.0962 115.09 38.346C114.841 38.5957 114.64 38.901 114.488 39.2617C114.335 39.6086 114.259 40.0109 114.259 40.4688C114.259 40.9266 114.335 41.3359 114.488 41.6967C114.64 42.0435 114.841 42.3418 115.09 42.5916C115.34 42.8274 115.624 43.0078 115.942 43.1327C116.261 43.2575 116.586 43.32 116.919 43.32Z" fill="#5FCF9D"/>
<path d="M127.227 36.8059H127.393C127.712 36.2926 128.141 35.8902 128.681 35.5988C129.221 35.2936 129.838 35.141 130.53 35.141C131.167 35.141 131.728 35.245 132.213 35.4532C132.698 35.6613 133.093 35.9596 133.397 36.3481C133.716 36.7227 133.951 37.1805 134.104 37.7216C134.27 38.2489 134.353 38.8385 134.353 39.4906V45.6717H131.631V39.8236C131.631 39.0883 131.465 38.5472 131.133 38.2003C130.814 37.8396 130.343 37.6592 129.72 37.6592C129.346 37.6592 129.014 37.7424 128.723 37.9089C128.446 38.0616 128.203 38.2766 127.996 38.5541C127.802 38.8177 127.649 39.1368 127.539 39.5114C127.442 39.8722 127.393 40.2607 127.393 40.6769V45.6717H124.671V35.474H127.227V36.8059Z" fill="#5FCF9D"/>
<path d="M136.358 35.474H138.913V36.8059H139.08C139.398 36.3064 139.828 35.9041 140.368 35.5988C140.922 35.2936 141.531 35.141 142.196 35.141C142.972 35.141 143.623 35.3214 144.149 35.6821C144.675 36.0428 145.049 36.4868 145.271 37.014C145.589 36.5007 146.04 36.0636 146.621 35.7029C147.203 35.3283 147.909 35.141 148.74 35.141C149.364 35.141 149.904 35.245 150.361 35.4532C150.818 35.6474 151.192 35.9249 151.483 36.2856C151.788 36.6464 152.016 37.0834 152.168 37.5968C152.321 38.0962 152.397 38.6443 152.397 39.2409V45.6717H149.675V39.7404C149.675 38.3529 149.107 37.6592 147.972 37.6592C147.612 37.6592 147.293 37.7424 147.016 37.9089C146.739 38.0616 146.504 38.2766 146.31 38.5541C146.13 38.8177 145.984 39.1368 145.873 39.5114C145.776 39.886 145.728 40.2884 145.728 40.7185V45.6717H143.006V39.7404C143.006 38.3529 142.411 37.6592 141.22 37.6592C140.873 37.6592 140.569 37.7424 140.305 37.9089C140.042 38.0616 139.821 38.2766 139.641 38.5541C139.461 38.8177 139.322 39.1368 139.225 39.5114C139.128 39.886 139.08 40.2884 139.08 40.7185V45.6717H136.358V35.474Z" fill="#5FCF9D"/>
<path d="M164.61 43.2159C164.139 44.0484 163.502 44.7213 162.698 45.2346C161.909 45.748 160.939 46.0047 159.79 46.0047C159.014 46.0047 158.294 45.8729 157.629 45.6093C156.978 45.3318 156.41 44.9502 155.925 44.4646C155.441 43.979 155.06 43.4102 154.783 42.7581C154.52 42.0921 154.388 41.3637 154.388 40.5728C154.388 39.8375 154.52 39.1438 154.783 38.4917C155.046 37.8257 155.413 37.2499 155.884 36.7643C156.355 36.2648 156.909 35.8694 157.546 35.578C158.197 35.2867 158.91 35.141 159.686 35.141C160.503 35.141 161.23 35.2797 161.867 35.5572C162.504 35.8208 163.038 36.1954 163.467 36.6811C163.896 37.1528 164.222 37.7147 164.443 38.3668C164.665 39.0189 164.776 39.7265 164.776 40.4896C164.776 40.5867 164.776 40.67 164.776 40.7393C164.762 40.8226 164.755 40.8989 164.755 40.9683C164.741 41.0376 164.734 41.1139 164.734 41.1972H157.068C157.123 41.6134 157.234 41.9742 157.4 42.2794C157.581 42.5708 157.795 42.8205 158.044 43.0286C158.308 43.2228 158.592 43.3685 158.896 43.4657C159.201 43.5489 159.513 43.5905 159.831 43.5905C160.455 43.5905 160.967 43.4518 161.369 43.1743C161.784 42.8829 162.11 42.5222 162.345 42.0921L164.61 43.2159ZM162.137 39.2617C162.124 39.0813 162.061 38.8802 161.95 38.6582C161.853 38.4362 161.701 38.2281 161.493 38.0338C161.299 37.8396 161.05 37.68 160.745 37.5551C160.455 37.4303 160.101 37.3678 159.686 37.3678C159.104 37.3678 158.592 37.5343 158.148 37.8673C157.705 38.2003 157.394 38.6651 157.213 39.2617H162.137Z" fill="#5FCF9D"/>
<path d="M169.212 36.8059H169.378C169.696 36.2926 170.126 35.8902 170.666 35.5988C171.206 35.2936 171.822 35.141 172.515 35.141C173.152 35.141 173.713 35.245 174.198 35.4532C174.683 35.6613 175.077 35.9596 175.382 36.3481C175.701 36.7227 175.936 37.1805 176.088 37.7216C176.255 38.2489 176.338 38.8385 176.338 39.4906V45.6717H173.616V39.8236C173.616 39.0883 173.45 38.5472 173.117 38.2003C172.799 37.8396 172.328 37.6592 171.705 37.6592C171.331 37.6592 170.998 37.7424 170.707 37.9089C170.43 38.0616 170.188 38.2766 169.98 38.5541C169.786 38.8177 169.634 39.1368 169.523 39.5114C169.426 39.8722 169.378 40.2607 169.378 40.6769V45.6717H166.656V35.474H169.212V36.8059Z" fill="#5FCF9D"/>
<path d="M179.464 37.8049H177.678V35.474H179.464V32.3522H182.186V35.474H184.679V37.8049H182.186V41.7591C182.186 41.995 182.207 42.217 182.248 42.4251C182.304 42.6193 182.401 42.7858 182.539 42.9246C182.733 43.1465 183.01 43.2575 183.37 43.2575C183.606 43.2575 183.793 43.2367 183.931 43.1951C184.07 43.1396 184.201 43.0702 184.326 42.987L185.095 45.3803C184.776 45.5329 184.43 45.6439 184.056 45.7133C183.696 45.7966 183.294 45.8382 182.851 45.8382C182.338 45.8382 181.874 45.7619 181.459 45.6093C181.057 45.4428 180.718 45.2208 180.441 44.9433C179.79 44.3189 179.464 43.431 179.464 42.2794V37.8049Z" fill="#5FCF9D"/>
<path d="M202.148 30.7706H204.87V35.2451L204.704 36.7019H204.87C205.119 36.2718 205.507 35.9041 206.033 35.5989C206.56 35.2936 207.211 35.141 207.986 35.141C208.637 35.141 209.254 35.2798 209.835 35.5572C210.431 35.8209 210.95 36.1955 211.394 36.6811C211.851 37.1528 212.211 37.7217 212.474 38.3876C212.737 39.0536 212.869 39.782 212.869 40.5729C212.869 41.3637 212.737 42.0921 212.474 42.7581C212.211 43.4241 211.851 43.9998 211.394 44.4854C210.95 44.9572 210.431 45.3318 209.835 45.6093C209.254 45.8729 208.637 46.0047 207.986 46.0047C207.211 46.0047 206.56 45.8521 206.033 45.5468C205.507 45.2416 205.119 44.8739 204.87 44.4438H204.704V45.6717H202.148V30.7706ZM207.425 43.4865C207.786 43.4865 208.125 43.4171 208.443 43.2784C208.776 43.1396 209.067 42.9454 209.316 42.6956C209.565 42.4459 209.766 42.1407 209.919 41.7799C210.071 41.4192 210.147 41.0168 210.147 40.5729C210.147 40.1289 210.071 39.7265 209.919 39.3658C209.766 39.005 209.565 38.6998 209.316 38.4501C209.067 38.2003 208.776 38.0061 208.443 37.8673C208.125 37.7286 207.786 37.6592 207.425 37.6592C207.065 37.6592 206.719 37.7286 206.387 37.8673C206.068 37.9922 205.784 38.1795 205.535 38.4293C205.285 38.679 205.085 38.9842 204.932 39.345C204.78 39.7057 204.704 40.115 204.704 40.5729C204.704 41.0307 204.78 41.44 204.932 41.8007C205.085 42.1615 205.285 42.4667 205.535 42.7165C205.784 42.9662 206.068 43.1604 206.387 43.2992C206.719 43.4241 207.065 43.4865 207.425 43.4865Z" fill="white"/>
<path d="M215.713 45.7966C215.215 45.7966 214.785 45.6232 214.425 45.2763C214.079 44.9156 213.906 44.4854 213.906 43.986C213.906 43.4865 214.079 43.0633 214.425 42.7165C214.785 42.3696 215.215 42.1962 215.713 42.1962C216.212 42.1962 216.634 42.3696 216.981 42.7165C217.327 43.0633 217.5 43.4865 217.5 43.986C217.5 44.4854 217.327 44.9156 216.981 45.2763C216.634 45.6232 216.212 45.7966 215.713 45.7966Z" fill="#5FCF9D"/>
<path d="M19.4843 24C12.6004 24 7 29.6004 7 36.4839V41.0667C7 49.301 13.699 56 21.9333 56H31.9682V36.4839C31.9685 29.6004 26.3682 24 19.4843 24ZM29.9415 53.6818C27.544 53.1659 25.7868 51.0613 25.7868 48.5052C25.7868 45.9982 27.5746 43.8652 29.9415 43.3369V53.6818ZM29.9415 41.2821C26.4553 41.8382 23.7598 44.8864 23.7598 48.5049C23.7598 50.6674 24.7248 52.6247 26.2412 53.9726H21.9333C14.8169 53.9726 9.02702 48.1828 9.02702 41.0663V36.4839C9.02702 30.7179 13.7182 26.027 19.4843 26.027C25.2503 26.027 29.9415 30.7179 29.9415 36.4839V41.2821Z" fill="#5FCF9D"/>
<path d="M19.4843 32.2684C18.4233 30.8196 16.6619 29.9413 14.7383 30.075C12.0727 30.2603 9.8715 32.4967 9.72644 35.1662C9.56822 38.0793 11.7599 40.5892 14.6431 40.843C14.7177 40.8604 14.7956 40.87 14.8756 40.87H17.1732C17.373 40.87 17.5693 40.9511 17.7108 41.0926L18.7679 42.1493C18.9659 42.347 19.2251 42.4459 19.4843 42.4459C19.7435 42.4459 20.0031 42.347 20.2007 42.1493L21.2578 41.0923C21.3993 40.9511 21.5952 40.8697 21.7954 40.8697H23.9312C24.0827 40.8697 24.733 40.8334 24.8621 40.7691C27.5391 40.2599 29.4413 37.8037 29.2343 35.0503C29.0356 32.3993 26.8852 30.2606 24.2324 30.075C22.3067 29.9371 20.546 30.8188 19.4843 32.2684ZM27.2137 35.2025C27.3474 36.9852 26.0692 38.5689 24.3028 38.8071C24.2484 38.8142 24.1958 38.8263 24.1449 38.8427H21.7954C21.0615 38.8427 20.3433 39.1399 19.8249 39.6587L19.4843 39.9993L19.1437 39.659C18.6249 39.1403 17.9071 38.8427 17.1732 38.8427H15.0356C15.0015 38.8373 14.9673 38.8334 14.9321 38.8316C13.0768 38.7285 11.6496 37.1335 11.7506 35.2757C11.8413 33.6089 13.2151 32.2126 14.8788 32.0967C16.711 31.9708 18.2772 33.285 18.4767 35.0887C18.5335 35.6021 18.9677 35.9908 19.4843 35.9908C20.0009 35.9908 20.4351 35.6021 20.4919 35.0887C20.6914 33.2832 22.2687 31.9691 24.0912 32.0967C25.72 32.2112 27.0914 33.5751 27.2137 35.2025Z" fill="#5FCF9D"/>
<path d="M15.1914 36.9817C16.0287 36.9817 16.7075 36.3029 16.7075 35.4656C16.7075 34.6283 16.0287 33.9495 15.1914 33.9495C14.3541 33.9495 13.6753 34.6283 13.6753 35.4656C13.6753 36.3029 14.3541 36.9817 15.1914 36.9817Z" fill="white"/>
<path d="M23.7773 36.9817C24.6146 36.9817 25.2934 36.3029 25.2934 35.4656C25.2934 34.6283 24.6146 33.9495 23.7773 33.9495C22.94 33.9495 22.2612 34.6283 22.2612 35.4656C22.2612 36.3029 22.94 36.9817 23.7773 36.9817Z" fill="white"/>
</svg>
