<svg width="192" height="80" viewBox="0 0 192 80" fill="none" xmlns="http://www.w3.org/2000/svg">
<path d="M50.14 35.24V38.56H55.88V41.12H50.14V44.44H56.52V47H47.44V32.68H56.52V35.24H50.14ZM65.1919 45.82H65.0319C64.7919 46.2333 64.4185 46.5867 63.9119 46.88C63.4052 47.1733 62.7785 47.32 62.0319 47.32C61.4052 47.32 60.8052 47.1933 60.2319 46.94C59.6719 46.6733 59.1719 46.3133 58.7319 45.86C58.3052 45.3933 57.9652 44.84 57.7119 44.2C57.4585 43.56 57.3319 42.86 57.3319 42.1C57.3319 41.34 57.4585 40.64 57.7119 40C57.9652 39.36 58.3052 38.8133 58.7319 38.36C59.1719 37.8933 59.6719 37.5333 60.2319 37.28C60.8052 37.0133 61.4052 36.88 62.0319 36.88C62.7785 36.88 63.4052 37.0267 63.9119 37.32C64.4185 37.6133 64.7919 37.9667 65.0319 38.38H65.1919L65.0319 36.98V32.68H67.6519V47H65.1919V45.82ZM62.5719 44.9C62.9185 44.9 63.2452 44.84 63.5519 44.72C63.8719 44.5867 64.1519 44.4 64.3919 44.16C64.6319 43.92 64.8252 43.6267 64.9719 43.28C65.1185 42.9333 65.1919 42.54 65.1919 42.1C65.1919 41.66 65.1185 41.2667 64.9719 40.92C64.8252 40.5733 64.6319 40.28 64.3919 40.04C64.1519 39.8 63.8719 39.62 63.5519 39.5C63.2452 39.3667 62.9185 39.3 62.5719 39.3C62.2252 39.3 61.8919 39.3667 61.5719 39.5C61.2652 39.6333 60.9919 39.82 60.7519 40.06C60.5119 40.3 60.3185 40.5933 60.1719 40.94C60.0252 41.2867 59.9519 41.6733 59.9519 42.1C59.9519 42.5267 60.0252 42.9133 60.1719 43.26C60.3185 43.6067 60.5119 43.9 60.7519 44.14C60.9919 44.38 61.2652 44.5667 61.5719 44.7C61.8919 44.8333 62.2252 44.9 62.5719 44.9ZM76.2641 45.72H76.1041C75.7974 46.2133 75.3841 46.6067 74.8641 46.9C74.3441 47.18 73.7507 47.32 73.0841 47.32C71.8441 47.32 70.9174 46.94 70.3041 46.18C69.7041 45.42 69.4041 44.4067 69.4041 43.14V37.2H72.0241V42.82C72.0241 43.5267 72.1774 44.0533 72.4841 44.4C72.8041 44.7333 73.2641 44.9 73.8641 44.9C74.2241 44.9 74.5374 44.8267 74.8041 44.68C75.0841 44.52 75.3174 44.3133 75.5041 44.06C75.7041 43.7933 75.8507 43.4867 75.9441 43.14C76.0507 42.78 76.1041 42.4 76.1041 42V37.2H78.7241V47H76.2641V45.72ZM87.583 35.24V38.56H93.323V41.12H87.583V44.44H93.963V47H84.883V32.68H93.963V35.24H87.583ZM97.9702 42.02L94.6102 37.2H97.7102L99.4902 39.92H99.6302L101.31 37.2H104.51L101.07 42.02L104.51 47H101.43L99.5902 44.2H99.4502L97.6702 47H94.5702L97.9702 42.02ZM105.324 37.2H107.784V38.38H107.944C108.184 37.9667 108.557 37.6133 109.064 37.32C109.57 37.0267 110.197 36.88 110.944 36.88C111.57 36.88 112.164 37.0133 112.724 37.28C113.297 37.5333 113.797 37.8933 114.224 38.36C114.664 38.8133 115.01 39.36 115.264 40C115.517 40.64 115.644 41.34 115.644 42.1C115.644 42.86 115.517 43.56 115.264 44.2C115.01 44.84 114.664 45.3933 114.224 45.86C113.797 46.3133 113.297 46.6733 112.724 46.94C112.164 47.1933 111.57 47.32 110.944 47.32C110.197 47.32 109.57 47.1733 109.064 46.88C108.557 46.5867 108.184 46.2333 107.944 45.82H107.784L107.944 47.22V51.32H105.324V37.2ZM110.404 44.9C110.75 44.9 111.077 44.8333 111.384 44.7C111.704 44.5667 111.984 44.38 112.224 44.14C112.464 43.9 112.657 43.6067 112.804 43.26C112.95 42.9133 113.024 42.5267 113.024 42.1C113.024 41.6733 112.95 41.2867 112.804 40.94C112.657 40.5933 112.464 40.3 112.224 40.06C111.984 39.82 111.704 39.6333 111.384 39.5C111.077 39.3667 110.75 39.3 110.404 39.3C110.057 39.3 109.724 39.3667 109.404 39.5C109.097 39.62 108.824 39.8 108.584 40.04C108.344 40.28 108.15 40.5733 108.004 40.92C107.857 41.2667 107.784 41.66 107.784 42.1C107.784 42.54 107.857 42.9333 108.004 43.28C108.15 43.6267 108.344 43.92 108.584 44.16C108.824 44.4 109.097 44.5867 109.404 44.72C109.724 44.84 110.057 44.9 110.404 44.9ZM126.198 44.64C125.744 45.44 125.131 46.0867 124.358 46.58C123.598 47.0733 122.664 47.32 121.558 47.32C120.811 47.32 120.118 47.1933 119.478 46.94C118.851 46.6733 118.304 46.3067 117.838 45.84C117.371 45.3733 117.004 44.8267 116.738 44.2C116.484 43.56 116.358 42.86 116.358 42.1C116.358 41.3933 116.484 40.7267 116.738 40.1C116.991 39.46 117.344 38.9067 117.798 38.44C118.251 37.96 118.784 37.58 119.398 37.3C120.024 37.02 120.711 36.88 121.458 36.88C122.244 36.88 122.944 37.0133 123.558 37.28C124.171 37.5333 124.684 37.8933 125.098 38.36C125.511 38.8133 125.824 39.3533 126.038 39.98C126.251 40.6067 126.358 41.2867 126.358 42.02C126.358 42.1133 126.358 42.1933 126.358 42.26C126.344 42.34 126.338 42.4133 126.338 42.48C126.324 42.5467 126.318 42.62 126.318 42.7H118.938C118.991 43.1 119.098 43.4467 119.258 43.74C119.431 44.02 119.638 44.26 119.878 44.46C120.131 44.6467 120.404 44.7867 120.698 44.88C120.991 44.96 121.291 45 121.598 45C122.198 45 122.691 44.8667 123.078 44.6C123.478 44.32 123.791 43.9733 124.018 43.56L126.198 44.64ZM123.818 40.84C123.804 40.6667 123.744 40.4733 123.638 40.26C123.544 40.0467 123.398 39.8467 123.198 39.66C123.011 39.4733 122.771 39.32 122.478 39.2C122.198 39.08 121.858 39.02 121.458 39.02C120.898 39.02 120.404 39.18 119.978 39.5C119.551 39.82 119.251 40.2667 119.078 40.84H123.818ZM130.091 38.56H130.251C130.518 38.0667 130.904 37.6733 131.411 37.38C131.931 37.0733 132.504 36.92 133.131 36.92C133.358 36.92 133.538 36.9267 133.671 36.94C133.804 36.9533 133.931 36.98 134.051 37.02V39.62C133.904 39.5533 133.738 39.5 133.551 39.46C133.378 39.42 133.164 39.4 132.911 39.4C132.084 39.4 131.431 39.6533 130.951 40.16C130.484 40.6533 130.251 41.3333 130.251 42.2V47H127.631V37.2H130.091V38.56ZM136.951 39.44H135.231V37.2H136.951V34.2H139.571V37.2H141.971V39.44H139.571V43.24C139.571 43.4667 139.591 43.68 139.631 43.88C139.684 44.0667 139.778 44.2267 139.911 44.36C140.098 44.5733 140.364 44.68 140.711 44.68C140.938 44.68 141.118 44.66 141.251 44.62C141.384 44.5667 141.511 44.5 141.631 44.42L142.371 46.72C142.064 46.8667 141.731 46.9733 141.371 47.04C141.024 47.12 140.638 47.16 140.211 47.16C139.718 47.16 139.271 47.0867 138.871 46.94C138.484 46.78 138.158 46.5667 137.891 46.3C137.264 45.7 136.951 44.8467 136.951 43.74V39.44ZM159.944 44.7C159.238 45.5533 158.404 46.2067 157.444 46.66C156.484 47.1 155.411 47.32 154.224 47.32C153.158 47.32 152.164 47.1267 151.244 46.74C150.338 46.3533 149.551 45.8267 148.884 45.16C148.218 44.4933 147.691 43.7067 147.304 42.8C146.918 41.88 146.724 40.8933 146.724 39.84C146.724 38.7867 146.918 37.8067 147.304 36.9C147.691 35.98 148.218 35.1867 148.884 34.52C149.551 33.8533 150.338 33.3267 151.244 32.94C152.164 32.5533 153.158 32.36 154.224 32.36C155.371 32.36 156.378 32.56 157.244 32.96C158.124 33.36 158.904 33.94 159.584 34.7L157.684 36.54C157.258 36.0467 156.764 35.6533 156.204 35.36C155.658 35.0667 155.004 34.92 154.244 34.92C153.578 34.92 152.951 35.04 152.364 35.28C151.778 35.5067 151.264 35.8333 150.824 36.26C150.398 36.6867 150.058 37.2067 149.804 37.82C149.551 38.42 149.424 39.0933 149.424 39.84C149.424 40.5867 149.551 41.2667 149.804 41.88C150.058 42.48 150.398 42.9933 150.824 43.42C151.264 43.8467 151.778 44.18 152.364 44.42C152.951 44.6467 153.578 44.76 154.244 44.76C155.044 44.76 155.751 44.6 156.364 44.28C156.991 43.9467 157.544 43.48 158.024 42.88L159.944 44.7ZM167.041 45.96H166.881C166.575 46.3333 166.201 46.6533 165.761 46.92C165.335 47.1867 164.781 47.32 164.101 47.32C163.595 47.32 163.115 47.2333 162.661 47.06C162.221 46.9 161.835 46.6733 161.501 46.38C161.168 46.0867 160.908 45.7333 160.721 45.32C160.535 44.9067 160.441 44.4533 160.441 43.96C160.441 43.4533 160.541 43 160.741 42.6C160.941 42.1867 161.221 41.8333 161.581 41.54C161.941 41.2467 162.361 41.0267 162.841 40.88C163.335 40.72 163.868 40.64 164.441 40.64C165.081 40.64 165.608 40.6933 166.021 40.8C166.435 40.8933 166.775 40.9933 167.041 41.1V40.8C167.041 40.28 166.835 39.8533 166.421 39.52C166.008 39.1733 165.495 39 164.881 39C163.975 39 163.208 39.38 162.581 40.14L160.681 38.84C161.721 37.5333 163.141 36.88 164.941 36.88C166.461 36.88 167.621 37.24 168.421 37.96C169.221 38.6667 169.621 39.72 169.621 41.12V47H167.041V45.96ZM167.041 43.02C166.735 42.8733 166.415 42.76 166.081 42.68C165.761 42.5867 165.408 42.54 165.021 42.54C164.395 42.54 163.908 42.68 163.561 42.96C163.228 43.2267 163.061 43.56 163.061 43.96C163.061 44.36 163.221 44.68 163.541 44.92C163.875 45.16 164.255 45.28 164.681 45.28C165.028 45.28 165.348 45.22 165.641 45.1C165.935 44.9667 166.181 44.8 166.381 44.6C166.595 44.3867 166.755 44.1467 166.861 43.88C166.981 43.6 167.041 43.3133 167.041 43.02ZM171.304 37.2H173.764V38.56H173.924C174.044 38.32 174.204 38.1 174.404 37.9C174.604 37.7 174.824 37.5267 175.064 37.38C175.318 37.2333 175.584 37.12 175.864 37.04C176.158 36.96 176.444 36.92 176.724 36.92C177.071 36.92 177.364 36.9533 177.604 37.02C177.858 37.0867 178.071 37.1733 178.244 37.28L177.544 39.66C177.384 39.58 177.204 39.52 177.004 39.48C176.818 39.4267 176.584 39.4 176.304 39.4C175.944 39.4 175.618 39.4733 175.324 39.62C175.031 39.7533 174.778 39.9467 174.564 40.2C174.364 40.4533 174.204 40.7533 174.084 41.1C173.978 41.4333 173.924 41.8 173.924 42.2V47H171.304V37.2ZM187.723 44.64C187.27 45.44 186.657 46.0867 185.883 46.58C185.123 47.0733 184.19 47.32 183.083 47.32C182.337 47.32 181.643 47.1933 181.003 46.94C180.377 46.6733 179.83 46.3067 179.363 45.84C178.897 45.3733 178.53 44.8267 178.263 44.2C178.01 43.56 177.883 42.86 177.883 42.1C177.883 41.3933 178.01 40.7267 178.263 40.1C178.517 39.46 178.87 38.9067 179.323 38.44C179.777 37.96 180.31 37.58 180.923 37.3C181.55 37.02 182.237 36.88 182.983 36.88C183.77 36.88 184.47 37.0133 185.083 37.28C185.697 37.5333 186.21 37.8933 186.623 38.36C187.037 38.8133 187.35 39.3533 187.563 39.98C187.777 40.6067 187.883 41.2867 187.883 42.02C187.883 42.1133 187.883 42.1933 187.883 42.26C187.87 42.34 187.863 42.4133 187.863 42.48C187.85 42.5467 187.843 42.62 187.843 42.7H180.463C180.517 43.1 180.623 43.4467 180.783 43.74C180.957 44.02 181.163 44.26 181.403 44.46C181.657 44.6467 181.93 44.7867 182.223 44.88C182.517 44.96 182.817 45 183.123 45C183.723 45 184.217 44.8667 184.603 44.6C185.003 44.32 185.317 43.9733 185.543 43.56L187.723 44.64ZM185.343 40.84C185.33 40.6667 185.27 40.4733 185.163 40.26C185.07 40.0467 184.923 39.8467 184.723 39.66C184.537 39.4733 184.297 39.32 184.003 39.2C183.723 39.08 183.383 39.02 182.983 39.02C182.423 39.02 181.93 39.18 181.503 39.5C181.077 39.82 180.777 40.2667 180.603 40.84H185.343Z" fill="#5FCF9D"/>
<path d="M22.0002 24C15.1075 24 9.5 29.6004 9.5 36.4839V41.0667C9.5 49.301 16.2076 56 24.4524 56H33.5C34.0523 56 34.5 55.5523 34.5 55V36.4839C34.5004 29.6004 28.8929 24 22.0002 24ZM32.4708 53.6818C30.0702 53.1659 28.3108 51.0613 28.3108 48.5052C28.3108 45.9982 30.1008 43.8652 32.4708 43.3369V53.6818ZM32.4708 41.2821C28.9801 41.8382 26.2812 44.8864 26.2812 48.5049C26.2812 50.6674 27.2474 52.6247 28.7658 53.9726H24.4524C17.3269 53.9726 11.5296 48.1828 11.5296 41.0663V36.4839C11.5296 30.7179 16.2268 26.027 22.0002 26.027C27.7736 26.027 32.4708 30.7179 32.4708 36.4839V41.2821Z" fill="#5FCF9D"/>
<path d="M23.8614 29.0351C22.7125 28.4085 21.2881 28.4093 20.1396 29.0365C19.2303 29.533 18.1422 30.013 17.248 30.0751C14.579 30.2604 12.375 32.4968 12.2297 35.1663C12.0713 38.0794 14.2658 40.5892 17.1526 40.8431C17.2274 40.8605 17.3054 40.8701 17.3855 40.8701H19.686C19.8861 40.8701 20.0826 40.9512 20.2243 41.0927L21.2827 42.1494C21.481 42.3471 21.7405 42.446 22 42.446C22.2596 42.446 22.5195 42.3471 22.7174 42.1494L23.7758 41.0924C23.9175 40.9512 24.1137 40.8698 24.3141 40.8698H26.4527C26.6043 40.8698 27.2555 40.8335 27.3847 40.7692C30.0651 40.26 31.9697 37.8038 31.7625 35.0504C31.5635 32.3994 29.4104 30.2607 26.7542 30.0751C25.8592 30.0111 24.7709 29.5311 23.8614 29.0351ZM29.7393 35.2026C29.8732 36.9853 28.5933 38.569 26.8247 38.8072C26.7702 38.8143 26.7175 38.8264 26.6666 38.8428H24.3141C23.5793 38.8428 22.8602 39.14 22.3411 39.6588L22 39.9994L21.659 39.6591C21.1396 39.1404 20.4208 38.8428 19.686 38.8428H17.5457C17.5115 38.8374 17.4773 38.8335 17.4421 38.8317C15.5844 38.7286 14.1554 37.1336 14.2565 35.2758C14.3473 33.609 15.7229 32.2127 17.3887 32.0968C19.2232 31.9709 20.7914 33.2851 20.9911 35.0888C21.0481 35.6022 21.4828 35.9908 22 35.9908C22.5173 35.9908 22.952 35.6022 23.009 35.0888C23.2087 33.2833 24.788 31.9692 26.6129 32.0968C28.2437 32.2113 29.6169 33.5752 29.7393 35.2026Z" fill="#5FCF9D"/>
<path d="M17.7019 36.9817C18.5402 36.9817 19.2199 36.3029 19.2199 35.4656C19.2199 34.6283 18.5402 33.9495 17.7019 33.9495C16.8635 33.9495 16.1838 34.6283 16.1838 35.4656C16.1838 36.3029 16.8635 36.9817 17.7019 36.9817Z" fill="#5FCF9D"/>
<path d="M26.2987 36.9817C27.137 36.9817 27.8167 36.3029 27.8167 35.4656C27.8167 34.6283 27.137 33.9495 26.2987 33.9495C25.4603 33.9495 24.7806 34.6283 24.7806 35.4656C24.7806 36.3029 25.4603 36.9817 26.2987 36.9817Z" fill="#5FCF9D"/>
</svg>
