<svg width="274" height="592" viewBox="0 0 274 592" fill="none" xmlns="http://www.w3.org/2000/svg">
<path d="M273.039 31.5768V31.5746C272.991 21.3197 269.998 13.4088 264.514 8.06313C259.032 2.71904 251.124 0 241.368 0H216.708C214.143 0 212.05 2.09307 212.05 4.65886V6.44712C212.05 14.9402 205.154 21.8355 196.661 21.8355H76.2832C67.79 21.8355 60.8948 14.9402 60.8948 6.44712V4.65886C60.8948 2.09307 58.8016 0 56.236 0H31.5768C21.8211 0 13.9124 2.71897 8.44182 8.06346C2.96934 13.4098 0 21.3214 0 31.5768V560.902C0 571.189 3.68443 578.794 9.6376 583.824C15.5793 588.846 23.7325 591.255 32.6122 591.255H240.426C249.283 591.255 257.436 588.846 263.383 583.824C269.342 578.794 273.039 571.189 273.039 560.902V296.239V31.5768Z" fill="#DDDDDD"/>
</svg>
