<svg width="52" height="42" viewBox="0 0 52 42" fill="none" xmlns="http://www.w3.org/2000/svg">
<path d="M49.054 38.8376V38.9336H49.1435C49.1603 38.9339 49.1769 38.9297 49.1915 38.9214C49.1974 38.9172 49.2021 38.9117 49.2052 38.9053C49.2084 38.8989 49.2098 38.8918 49.2095 38.8846C49.2098 38.8776 49.2083 38.8707 49.2052 38.8644C49.202 38.8582 49.1973 38.8528 49.1915 38.8489C49.1771 38.8402 49.1604 38.8359 49.1435 38.8366H49.054V38.8376ZM49.1445 38.7697C49.1829 38.7673 49.2209 38.7784 49.252 38.8009C49.2645 38.8111 49.2744 38.8241 49.281 38.8389C49.2875 38.8536 49.2905 38.8697 49.2897 38.8858C49.2903 38.8997 49.2879 38.9136 49.2826 38.9264C49.2774 38.9393 49.2695 38.9509 49.2595 38.9605C49.2354 38.9814 49.2053 38.9939 49.1735 38.9962L49.2935 39.133H49.2011L49.0907 38.9972H49.055V39.133H48.9777V38.7699H49.1457L49.1445 38.7697ZM49.1205 39.2583C49.161 39.2587 49.2012 39.2505 49.2383 39.2343C49.2742 39.2189 49.3067 39.1968 49.3343 39.1693C49.362 39.1418 49.3841 39.1092 49.3994 39.0733C49.4309 38.9972 49.4309 38.9118 49.3994 38.8357C49.3838 38.7999 49.3618 38.7674 49.3343 38.7397C49.3067 38.7121 49.2741 38.6901 49.2383 38.6746C49.201 38.6593 49.1609 38.6517 49.1205 38.6521C49.0794 38.6517 49.0386 38.6594 49.0005 38.6746C48.9639 38.6898 48.9305 38.7119 48.9023 38.7397C48.8599 38.7832 48.8312 38.8383 48.8198 38.8981C48.8084 38.9578 48.8148 39.0196 48.8383 39.0757C48.8529 39.1117 48.8747 39.1444 48.9023 39.1717C48.9306 39.1995 48.9639 39.2216 49.0005 39.2367C49.0384 39.2529 49.0793 39.2611 49.1205 39.2607V39.2583ZM49.1205 38.5647C49.226 38.5646 49.3273 38.606 49.4025 38.6799C49.4388 38.7154 49.4676 38.7578 49.4875 38.8045C49.508 38.8525 49.5185 38.9041 49.5185 38.9563C49.5185 39.0085 49.508 39.0601 49.4875 39.1081C49.4672 39.1546 49.4384 39.1968 49.4025 39.2326C49.3657 39.268 49.3228 39.2964 49.276 39.3167C49.2268 39.3375 49.1739 39.3482 49.1205 39.3479C49.0664 39.3482 49.0129 39.3376 48.9631 39.3167C48.9157 39.2969 48.8725 39.2684 48.8356 39.2326C48.7997 39.1955 48.7713 39.1518 48.7519 39.104C48.7313 39.056 48.7208 39.0044 48.7208 38.9522C48.7208 38.9 48.7313 38.8484 48.7519 38.8004C48.7717 38.7537 48.8005 38.7113 48.8368 38.6758C48.8732 38.6395 48.9165 38.6109 48.9643 38.5918C49.0141 38.5709 49.0676 38.5603 49.1217 38.5606L49.1205 38.5647ZM12.3717 37.1624C12.3717 36.47 12.8253 35.9012 13.5667 35.9012C14.2752 35.9012 14.7533 36.4455 14.7533 37.1624C14.7533 37.8793 14.2752 38.4236 13.5667 38.4236C12.8253 38.4236 12.3717 37.8548 12.3717 37.1624ZM15.5609 37.1624V35.192H14.7043V35.672C14.4326 35.3172 14.0205 35.0948 13.4601 35.0948C12.3561 35.0948 11.4897 35.9607 11.4897 37.1633C11.4897 38.366 12.3557 39.2319 13.4601 39.2319C14.0203 39.2319 14.4326 39.0092 14.7043 38.6547V39.133H15.5599V37.1624H15.5609ZM44.5029 37.1624C44.5029 36.47 44.9565 35.9012 45.6981 35.9012C46.4073 35.9012 46.8847 36.4455 46.8847 37.1624C46.8847 37.8793 46.4073 38.4236 45.6981 38.4236C44.9567 38.4236 44.5029 37.8548 44.5029 37.1624ZM47.693 37.1624V33.6104H46.8357V35.672C46.564 35.3172 46.1519 35.0948 45.5915 35.0948C44.4875 35.0948 43.6211 35.9607 43.6211 37.1633C43.6211 38.366 44.4871 39.2319 45.5915 39.2319C46.1519 39.2319 46.564 39.0092 46.8357 38.6547V39.133H47.693V37.1624ZM26.1919 35.8606C26.7439 35.8606 27.0984 36.2067 27.1888 36.8161H25.145C25.2364 36.2473 25.5818 35.8606 26.1921 35.8606H26.1919ZM26.2092 35.0926C25.0548 35.0926 24.2472 35.9326 24.2472 37.1612C24.2472 38.4138 25.0872 39.2298 26.2665 39.2298C26.8598 39.2298 27.4032 39.0817 27.8812 38.6778L27.4615 38.043C27.1312 38.307 26.7108 38.455 26.3155 38.455C25.7635 38.455 25.2609 38.1994 25.1373 37.4902H28.0622C28.0706 37.3837 28.0792 37.2762 28.0792 37.1609C28.0706 35.9329 27.3112 35.0924 26.2087 35.0924L26.2092 35.0926ZM36.5503 37.1609C36.5503 36.4685 37.0039 35.8997 37.7452 35.8997C38.4537 35.8997 38.9318 36.4441 38.9318 37.1609C38.9318 37.8778 38.4537 38.4222 37.7452 38.4222C37.0039 38.4222 36.55 37.8534 36.55 37.1609H36.5503ZM39.7391 37.1609V35.192H38.8831V35.672C38.6104 35.3172 38.1993 35.0948 37.6389 35.0948C36.5349 35.0948 35.6685 35.9607 35.6685 37.1633C35.6685 38.366 36.5344 39.2319 37.6389 39.2319C38.1993 39.2319 38.6104 39.0092 38.8831 38.6547V39.133H39.7394V37.1624L39.7391 37.1609ZM31.7131 37.1609C31.7131 38.3559 32.5449 39.2295 33.8145 39.2295C34.4078 39.2295 34.8031 39.0975 35.2305 38.7598L34.8191 38.0674C34.4976 38.2986 34.1599 38.4222 33.7872 38.4222C33.1034 38.4138 32.6006 37.9194 32.6006 37.1609C32.6006 36.4025 33.1034 35.9084 33.7872 35.8997C34.1589 35.8997 34.4966 36.0233 34.8191 36.2545L35.2305 35.5621C34.8024 35.2244 34.4071 35.0924 33.8145 35.0924C32.5449 35.0924 31.7131 35.9657 31.7131 37.1609ZM42.7555 35.0924C42.2613 35.0924 41.9395 35.3235 41.717 35.6696V35.192H40.8681V39.1309H41.7256V36.9229C41.7256 36.271 42.0057 35.9089 42.5656 35.9089C42.749 35.9062 42.931 35.9399 43.1013 36.008L43.3653 35.2006C43.1757 35.126 42.9285 35.0931 42.755 35.0931L42.7555 35.0924ZM19.7957 35.5052C19.3836 35.2335 18.8157 35.0931 18.1893 35.0931C17.1914 35.0931 16.5489 35.5714 16.5489 36.3541C16.5489 36.9963 17.0273 37.3925 17.9081 37.5162L18.3127 37.5738C18.7824 37.6398 19.0041 37.7634 19.0041 37.9858C19.0041 38.2904 18.6921 38.4642 18.1063 38.4642C17.513 38.4642 17.0849 38.2746 16.7961 38.0521L16.3937 38.72C16.8633 39.0661 17.4566 39.2312 18.0991 39.2312C19.2367 39.2312 19.896 38.6955 19.896 37.9455C19.896 37.2531 19.3771 36.8909 18.5198 36.7673L18.1161 36.7088C17.7453 36.6608 17.4482 36.5861 17.4482 36.3221C17.4482 36.0341 17.7283 35.8609 18.1982 35.8609C18.701 35.8609 19.1877 36.0505 19.4263 36.1985L19.7971 35.5061L19.7957 35.5052ZM30.8479 35.0938C30.3537 35.0938 30.0319 35.3249 29.8104 35.671V35.192H28.9615V39.1309H29.818V36.9229C29.818 36.271 30.0981 35.9089 30.658 35.9089C30.8414 35.9062 31.0235 35.9399 31.1937 36.008L31.4577 35.2006C31.2681 35.126 31.0209 35.0931 30.8474 35.0931L30.8479 35.0938ZM23.5384 35.192H22.1378V33.997H21.2719V35.192H20.4729V35.9749H21.2719V37.7718C21.2719 38.6857 21.6266 39.23 22.6399 39.23C23.0116 39.23 23.4398 39.1148 23.7115 38.9254L23.464 38.192C23.2084 38.3401 22.9284 38.4147 22.7056 38.4147C22.2775 38.4147 22.1378 38.1507 22.1378 37.7554V35.9756H23.5384V35.192ZM10.7323 39.1318V36.6598C10.7323 35.7289 10.139 35.1024 9.18263 35.094C8.67983 35.0856 8.16119 35.2421 7.79807 35.7949C7.52639 35.358 7.09823 35.094 6.49631 35.094C6.07559 35.094 5.66447 35.2176 5.34263 35.6789V35.192H4.48535V39.1309H5.34935V36.9469C5.34935 36.2631 5.72855 35.8997 6.31415 35.8997C6.88295 35.8997 7.17071 36.2705 7.17071 36.9382V39.1304H8.03663V36.9464C8.03663 36.2626 8.43191 35.8993 9.00047 35.8993C9.58534 35.8993 9.86446 36.2701 9.86446 36.9377V39.1299L10.7323 39.1318Z" fill="white"/>
<path d="M49.5424 26.0291V25.4531H49.3924L49.2189 25.8484L49.0463 25.4531H48.8958V26.0291H49.0024V25.5952L49.1646 25.9696H49.275L49.4373 25.5942V26.0291H49.5429H49.5424ZM48.5908 26.0291V25.5518H48.7828V25.4546H48.2922V25.5518H48.4842V26.0291H48.5898H48.5908Z" fill="#F79410"/>
<path d="M32.4938 28.4999H19.5132V5.17188H32.4941L32.4938 28.4999Z" fill="#FF5F00"/>
<path d="M20.336 16.8351C20.336 12.103 22.5517 7.88767 26.0019 5.17111C23.3903 3.11179 20.16 1.99413 16.8342 1.99904C8.64128 1.99904 2 8.64127 2 16.8351C2 25.0289 8.64128 31.6711 16.8342 31.6711C20.1601 31.6761 23.3904 30.5584 26.0022 28.4991C22.5522 25.783 20.336 21.5674 20.336 16.8351Z" fill="#EB001B"/>
<path d="M50.0057 16.8361C50.0057 25.0299 43.3645 31.6721 35.1716 31.6721C31.8453 31.677 28.6147 30.5594 26.0024 28.5C29.4536 25.7835 31.6693 21.5684 31.6693 16.8361C31.6693 12.1038 29.4536 7.88864 26.0024 5.17209C28.6146 3.11283 31.8451 1.99519 35.1714 2.00002C43.3642 2.00002 50.0055 8.64224 50.0055 16.8361" fill="#F79E1B"/>
</svg>
