<svg width="96" height="96" viewBox="0 0 96 96" fill="none" xmlns="http://www.w3.org/2000/svg">
<rect x="0.5" y="0.5" width="95" height="95" rx="3.5" fill="white" stroke="#DDDDDD"/>
<path d="M82.5723 75.2495V75.3935H82.7065C82.7317 75.3939 82.7566 75.3876 82.7785 75.3751C82.7873 75.369 82.7943 75.3607 82.799 75.351C82.8037 75.3414 82.806 75.3308 82.8055 75.3201C82.806 75.3096 82.8037 75.2991 82.799 75.2897C82.7943 75.2803 82.7872 75.2723 82.7785 75.2664C82.7568 75.2534 82.7318 75.247 82.7065 75.2481H82.5723V75.2495ZM82.708 75.1476C82.7655 75.1441 82.8225 75.1607 82.8692 75.1944C82.8879 75.2098 82.9028 75.2293 82.9126 75.2514C82.9224 75.2736 82.9269 75.2977 82.9257 75.3219C82.9266 75.3427 82.923 75.3634 82.9152 75.3827C82.9073 75.4021 82.8955 75.4195 82.8804 75.4338C82.8443 75.4651 82.7991 75.484 82.7515 75.4874L82.9315 75.6926H82.7929L82.6273 75.4889H82.5737V75.6926H82.4578V75.148H82.7098L82.708 75.1476ZM82.672 75.8805C82.7327 75.8811 82.793 75.8688 82.8487 75.8445C82.9024 75.8214 82.9513 75.7883 82.9927 75.747C83.0342 75.7057 83.0673 75.6568 83.0902 75.603C83.1375 75.4889 83.1375 75.3607 83.0902 75.2466C83.0669 75.193 83.0339 75.1442 82.9927 75.1027C82.9513 75.0614 82.9024 75.0283 82.8487 75.0051C82.7926 74.9821 82.7325 74.9706 82.672 74.9713C82.6103 74.9707 82.5492 74.9822 82.492 75.0051C82.4371 75.0278 82.3871 75.0609 82.3448 75.1027C82.2811 75.168 82.238 75.2506 82.2209 75.3402C82.2038 75.4298 82.2135 75.5224 82.2487 75.6066C82.2706 75.6606 82.3033 75.7096 82.3448 75.7506C82.3871 75.7923 82.4371 75.8254 82.492 75.8481C82.5489 75.8724 82.6101 75.8847 82.672 75.8841V75.8805ZM82.672 74.8403C82.8302 74.8401 82.9821 74.9021 83.0949 75.013C83.1493 75.0663 83.1926 75.1298 83.2223 75.1998C83.2531 75.2718 83.269 75.3493 83.269 75.4275C83.269 75.5058 83.2531 75.5832 83.2223 75.6552C83.1919 75.7249 83.1487 75.7883 83.0949 75.842C83.0397 75.895 82.9754 75.9376 82.9052 75.968C82.8315 75.9993 82.7521 76.0152 82.672 76.0148C82.5909 76.0154 82.5106 75.9994 82.4358 75.968C82.3648 75.9383 82.3 75.8956 82.2447 75.842C82.1909 75.7863 82.1483 75.7208 82.1191 75.6491C82.0883 75.5771 82.0724 75.4997 82.0724 75.4214C82.0724 75.3431 82.0883 75.2657 82.1191 75.1937C82.1488 75.1236 82.1921 75.0601 82.2465 75.0069C82.301 74.9524 82.366 74.9095 82.4376 74.8809C82.5124 74.8495 82.5927 74.8335 82.6738 74.8341L82.672 74.8403ZM27.5557 72.737C27.5557 71.6986 28.236 70.8455 29.3479 70.8455C30.4105 70.8455 31.1275 71.6618 31.1275 72.737C31.1275 73.8122 30.4105 74.6286 29.3479 74.6286C28.236 74.6286 27.5557 73.7755 27.5557 72.737ZM32.3387 72.737V69.7818H31.0541V70.5017C30.6466 69.9697 30.0285 69.636 29.1881 69.636C27.5323 69.636 26.2328 70.9347 26.2328 72.7385C26.2328 74.5422 27.5315 75.8409 29.1881 75.8409C30.0282 75.8409 30.6466 75.5069 31.0541 74.9752V75.6926H32.3373V72.737H32.3387ZM75.7464 72.737C75.7464 71.6986 76.4267 70.8455 77.539 70.8455C78.6027 70.8455 79.3186 71.6618 79.3186 72.737C79.3186 73.8122 78.6027 74.6286 77.539 74.6286C76.4271 74.6286 75.7464 73.7755 75.7464 72.737ZM80.531 72.737V67.4097H79.2452V70.5017C78.8377 69.9697 78.2197 69.636 77.3792 69.636C75.7234 69.636 74.424 70.9347 74.424 72.7385C74.424 74.5422 75.7227 75.8409 77.3792 75.8409C78.2197 75.8409 78.8377 75.5069 79.2452 74.9752V75.6926H80.531V72.737ZM48.2833 70.7846C49.1112 70.7846 49.6429 71.3037 49.7786 72.2176H46.7132C46.8503 71.3645 47.3683 70.7846 48.2837 70.7846H48.2833ZM48.3092 69.6328C46.5778 69.6328 45.3666 70.8926 45.3666 72.7352C45.3666 74.6138 46.6264 75.8377 48.3952 75.8377C49.2851 75.8377 50.1 75.6156 50.817 75.0098L50.1875 74.0577C49.6922 74.4537 49.0615 74.6757 48.4687 74.6757C47.6408 74.6757 46.887 74.2924 46.7017 73.2287H51.0884C51.101 73.0689 51.114 72.9077 51.114 72.7349C51.101 70.893 49.9621 69.6324 48.3085 69.6324L48.3092 69.6328ZM63.819 72.7349C63.819 71.6964 64.4993 70.8433 65.6112 70.8433C66.6738 70.8433 67.3908 71.6597 67.3908 72.7349C67.3908 73.8101 66.6738 74.6264 65.6112 74.6264C64.4993 74.6264 63.8186 73.7733 63.8186 72.7349H63.819ZM68.6017 72.7349V69.7818H67.3177V70.5017C66.9088 69.9697 66.2922 69.636 65.4517 69.636C63.7959 69.636 62.4965 70.9347 62.4965 72.7385C62.4965 74.5422 63.7952 75.8409 65.4517 75.8409C66.2922 75.8409 66.9088 75.5069 67.3177 74.9752V75.6926H68.602V72.737L68.6017 72.7349ZM56.5641 72.7349C56.5641 74.5271 57.8117 75.8373 59.7158 75.8373C60.6056 75.8373 61.1985 75.6394 61.8396 75.1329L61.2226 74.0944C60.7403 74.4411 60.2338 74.6264 59.6748 74.6264C58.6493 74.6138 57.8952 73.8723 57.8952 72.7349C57.8952 71.5974 58.6493 70.8563 59.6748 70.8433C60.2324 70.8433 60.7388 71.0287 61.2226 71.3753L61.8396 70.3369C61.1974 69.8304 60.6046 69.6324 59.7158 69.6324C57.8117 69.6324 56.5641 70.9423 56.5641 72.7349ZM73.1256 69.6324C72.3844 69.6324 71.9017 69.9791 71.5681 70.4981V69.7818H70.2949V75.6894H71.581V72.3778C71.581 71.4002 72.0011 70.857 72.8409 70.857C73.1159 70.853 73.3889 70.9035 73.6443 71.0056L74.0402 69.7948C73.7559 69.6828 73.3851 69.6335 73.1249 69.6335L73.1256 69.6324ZM38.6901 70.2515C38.0721 69.8441 37.2204 69.6335 36.281 69.6335C34.7843 69.6335 33.8207 70.3509 33.8207 71.5247C33.8207 72.4879 34.5381 73.0822 35.8591 73.2676L36.466 73.354C37.1704 73.453 37.503 73.6384 37.503 73.972C37.503 74.4288 37.0351 74.6894 36.1564 74.6894C35.2666 74.6894 34.6245 74.4051 34.1914 74.0714L33.5878 75.0731C34.2922 75.5922 35.182 75.8398 36.1456 75.8398C37.8518 75.8398 38.8406 75.0364 38.8406 73.9116C38.8406 72.8731 38.0624 72.3299 36.7766 72.1445L36.1712 72.0567C35.615 71.9847 35.1694 71.8728 35.1694 71.4768C35.1694 71.0449 35.5895 70.785 36.2943 70.785C37.0484 70.785 37.7784 71.0694 38.1362 71.2915L38.6923 70.253L38.6901 70.2515ZM55.2664 69.6346C54.5253 69.6346 54.0426 69.9812 53.7103 70.5003V69.7818H52.4372V75.6894H53.7219V72.3778C53.7219 71.4002 54.1419 70.857 54.9817 70.857C55.2567 70.853 55.5298 70.9035 55.7851 71.0056L56.1811 69.7948C55.8967 69.6828 55.526 69.6335 55.2657 69.6335L55.2664 69.6346ZM44.3036 69.7818H42.2029V67.9896H40.9042V69.7818H39.7059V70.956H40.9042V73.651C40.9042 75.0217 41.4362 75.838 42.956 75.838C43.5135 75.838 44.1557 75.6653 44.5632 75.3813L44.1921 74.2812C43.8087 74.5033 43.3886 74.6153 43.0546 74.6153C42.4124 74.6153 42.2029 74.2193 42.2029 73.6265V70.9571H44.3036V69.7818ZM25.0968 75.6908V71.9833C25.0968 70.587 24.207 69.6475 22.7726 69.6349C22.0185 69.6223 21.2406 69.857 20.696 70.686C20.2885 70.0309 19.6464 69.6349 18.7436 69.6349C18.1126 69.6349 17.496 69.8203 17.0133 70.5122V69.7818H15.7275V75.6894H17.0234V72.4138C17.0234 71.3883 17.5921 70.8433 18.4704 70.8433C19.3235 70.8433 19.7551 71.3994 19.7551 72.4008V75.6887H21.0538V72.4131C21.0538 71.3876 21.6466 70.8426 22.4994 70.8426C23.3766 70.8426 23.7952 71.3987 23.7952 72.4001V75.6879L25.0968 75.6908Z" fill="#231F20"/>
<path d="M83.3047 56.0394V55.1755H83.0797L82.8195 55.7684L82.5607 55.1755H82.335V56.0394H82.4948V55.3886L82.7381 55.9502H82.9037L83.147 55.3872V56.0394H83.3054H83.3047ZM81.8775 56.0394V55.3235H82.1654V55.1777H81.4297V55.3235H81.7177V56.0394H81.876H81.8775Z" fill="#F79410"/>
<path d="M57.7346 59.7445H38.2661V24.7568H57.735L57.7346 59.7445Z" fill="#FF5F00"/>
<path d="M39.5006 42.2514C39.5006 35.1541 42.8237 28.8319 47.9984 24.7575C44.0814 21.6689 39.2367 19.9927 34.2485 20C21.9607 20 12 29.9621 12 42.2514C12 54.5406 21.9607 64.5027 34.2485 64.5027C39.2368 64.5101 44.0816 62.8339 47.9987 59.7452C42.8244 55.6716 39.5006 49.3489 39.5006 42.2514Z" fill="#EB001B"/>
<path d="M84 42.2514C84 54.5406 74.0394 64.5027 61.7516 64.5027C56.7627 64.51 51.9173 62.8338 47.9995 59.7452C53.1757 55.6708 56.4988 49.3489 56.4988 42.2514C56.4988 35.1538 53.1757 28.8319 47.9995 24.7575C51.9172 21.669 56.7625 19.9928 61.7512 20C74.039 20 83.9997 29.9621 83.9997 42.2514" fill="#F79E1B"/>
</svg>
