<svg width="89" height="91" viewBox="0 0 89 91" fill="none" xmlns="http://www.w3.org/2000/svg">
<path d="M81.1638 45.7115C83.314 46.8969 85.3687 48.245 87.3161 49.75C85.1141 51.2201 82.7934 52.488 80.3611 53.521C82.2245 55.1302 83.9528 56.8872 85.5469 58.7708C83.0917 59.7452 80.5595 60.4932 77.9672 60.9869C79.4572 62.9572 80.785 65.0407 81.954 67.2218C79.3521 67.6525 76.7219 67.8482 74.0852 67.7828C75.1373 70.0226 76.0109 72.3409 76.7088 74.7179C74.0756 74.5917 71.4639 74.2306 68.8981 73.6176C69.4692 76.0294 69.8493 78.4778 70.0467 80.9505C67.496 80.2766 65.0142 79.3763 62.6299 78.2365C62.6954 80.7156 62.5644 83.1925 62.2489 85.6545C59.8914 84.4585 57.6479 83.0537 55.5504 81.4335C55.1039 83.8735 54.4619 86.2676 53.6461 88.6076C51.5873 86.9376 49.6817 85.0867 47.9672 83.0579C47.0288 85.3501 45.9083 87.5552 44.6349 89.6733C42.9689 87.605 41.4821 85.4002 40.2153 83.0579C38.8317 85.1045 37.288 87.0311 35.6067 88.836C34.3894 86.4637 33.3888 83.9929 32.6311 81.4335C30.8556 83.1404 28.9478 84.6975 26.9308 86.1045C26.2329 83.5274 25.765 80.8981 25.5526 78.2365C23.4634 79.5306 21.2777 80.6506 19.016 81.6008C18.8659 78.9346 18.9486 76.2662 19.2856 73.6172C16.9767 74.4438 14.6096 75.0808 12.2039 75.5396C12.6012 72.8974 13.2269 70.305 14.0966 67.7825C11.6682 68.1086 9.22288 68.2371 6.77531 68.1782C7.70285 65.6773 8.84503 63.27 10.2156 60.9866C7.7744 60.7931 5.35494 60.4017 2.97285 59.8232C4.39418 57.5747 6.00971 55.4608 7.82295 53.521C5.47408 52.8141 3.19068 51.916 0.980424 50.8484C2.8355 48.9519 4.85156 47.2317 7.01998 45.7118C4.86881 44.5251 2.8141 43.1767 0.867676 41.672C3.06963 40.2019 5.39039 38.934 7.82295 37.901C5.95733 36.2918 4.22873 34.5348 2.63588 32.6512C5.09207 31.6748 7.62332 30.9265 10.2156 30.4341C8.72462 28.4648 7.39783 26.3817 6.22754 24.2015C8.8297 23.7689 11.4609 23.5742 14.0963 23.6382C13.0445 21.3982 12.1729 19.0811 11.4727 16.7042C14.1072 16.8303 16.7199 17.1901 19.2856 17.8058C18.7126 15.3939 18.3335 12.9432 18.1348 10.4705C20.6865 11.1457 23.1673 12.0438 25.5529 13.1859C25.4865 10.7067 25.6184 8.22853 25.9327 5.76782C28.2911 6.96388 30.5359 8.36764 32.6315 9.98881C33.0789 7.54881 33.72 5.15442 34.538 2.81568C36.5968 4.48473 38.5014 6.33333 40.2156 8.36441C41.155 6.07322 42.2735 3.86842 43.5467 1.74902C45.2149 3.8173 46.7007 6.02211 47.9672 8.36441C49.3521 6.31586 50.8958 4.38897 52.5768 2.58759C53.7921 4.95804 54.7934 7.42943 55.5504 9.98914C57.3278 8.28094 59.2347 6.72609 61.2517 5.31877C61.9505 7.89368 62.4162 10.5229 62.6312 13.1859C64.7201 11.8918 66.9048 10.773 69.1664 9.82058C69.3178 12.488 69.2351 15.1551 68.8981 17.8061C71.2061 16.9785 73.5723 16.3415 75.9789 15.8837C75.5819 18.524 74.9572 21.1183 74.0852 23.6385C76.5136 23.3134 78.959 23.1863 81.4075 23.2451C80.479 25.745 79.3368 28.1523 77.9672 30.4348C80.4084 30.6282 82.8282 31.022 85.209 31.5982C83.7877 33.8479 82.1731 35.9605 80.3611 37.9013C82.7078 38.6092 84.9921 39.5073 87.2024 40.574C85.3499 42.473 83.3312 44.1909 81.1657 45.7147L81.1638 45.7115Z" fill="#FF7F00" stroke="black"/>
<path d="M9.24463 45.7116C9.24463 65.1754 24.8767 81.0079 44.0913 81.0079C63.3067 81.0079 78.9379 65.1763 78.9379 45.7116C78.9379 26.2476 63.3067 10.4121 44.0913 10.4121C24.8774 10.4111 9.24463 26.2459 9.24463 45.7116Z" fill="black"/>
<path d="M26.5358 27.9255C21.8403 32.6816 19.2544 38.998 19.2544 45.7095C19.2544 59.5818 30.3961 70.8663 44.0929 70.8663C57.7885 70.8663 68.9305 59.5818 68.9305 45.7095C68.9305 31.8365 57.7885 20.5498 44.0929 20.5498C37.4654 20.5485 31.231 23.1677 26.5345 27.9239L26.5358 27.9255Z" fill="#FF7F00"/>
<path d="M28.1297 29.5416C23.8603 33.8671 21.5085 39.6083 21.5085 45.7099C21.5085 58.3231 31.6403 68.5833 44.0928 68.5833C56.543 68.5833 66.6748 58.3231 66.6748 45.7099C66.6748 33.0961 56.543 22.835 44.0928 22.835C38.0657 22.8333 32.3995 25.2148 28.1285 29.5403L28.1297 29.5416Z" fill="black"/>
<path d="M29.0872 30.5108C25.0723 34.5775 22.8621 39.9739 22.8621 45.7102C22.8621 57.5667 32.3872 67.2138 44.0926 67.2138C55.798 67.2138 65.3219 57.5667 65.3219 45.7102C65.3219 33.8522 55.798 24.2051 44.0926 24.2051C38.4297 24.2038 33.102 26.4439 29.0856 30.5092L29.0872 30.5108Z" fill="#FF7F00"/>
<path d="M18.5091 25.9161L21.3345 27.0556L19.7059 24.4448L21.0662 22.7744L21.4955 23.1332L21.4642 23.183C21.3323 23.3668 21.2719 23.5091 21.285 23.6104C21.2978 23.7117 21.3923 23.8356 21.5661 23.9812L23.3739 25.4904C23.5422 25.6318 23.6712 25.7026 23.7603 25.7013C23.813 25.6991 23.8763 25.6719 23.9536 25.624C24.0309 25.5752 24.1018 25.513 24.166 25.4402L24.2059 25.3979L24.6374 25.7589L23.112 27.6334L22.6782 27.2724L22.7213 27.2135C22.7759 27.1407 22.82 27.0614 22.8523 26.9754C22.8845 26.8906 22.8973 26.822 22.8909 26.7699C22.8737 26.6829 22.7804 26.5677 22.6108 26.4263L20.7912 24.9061L22.7472 28.0802L22.277 28.6577L18.7978 27.2733L20.657 28.8272C20.8266 28.9686 20.9544 29.0381 21.0435 29.0381C21.094 29.0359 21.1585 29.011 21.2358 28.9608C21.3131 28.9107 21.3818 28.8521 21.444 28.7848L21.4904 28.7337L21.9209 29.0948L20.7315 30.5561L20.3022 30.1973L20.3428 30.142C20.3974 30.0679 20.4405 29.9877 20.4737 29.9007C20.506 29.8146 20.5187 29.7454 20.5101 29.6939C20.4951 29.6069 20.4028 29.4927 20.231 29.3494L18.4244 27.8401C18.2558 27.6988 18.1258 27.6282 18.0348 27.626C17.9865 27.6305 17.923 27.6554 17.8482 27.7043C17.7719 27.7521 17.7013 27.8107 17.6355 27.8803L17.5892 27.9314L17.1609 27.5726L18.5091 25.9161Z" fill="white"/>
<path d="M24.5365 19.7506C25.0699 19.343 25.641 19.156 26.2475 19.1906C26.9336 19.2317 27.5047 19.5581 27.9598 20.1702C28.3013 20.627 28.4664 21.1314 28.4559 21.6849C28.4514 22.0939 28.3572 22.4724 28.1767 22.8202C27.9943 23.1683 27.7343 23.4714 27.3942 23.7312C26.9285 24.0881 26.4206 24.265 25.8732 24.2631C25.1133 24.2611 24.4927 23.9379 24.0127 23.2922C23.7131 22.891 23.5403 22.4539 23.4943 21.9806C23.447 21.4772 23.5607 20.9932 23.8367 20.5267C24.0076 20.2411 24.2414 19.9822 24.5365 19.7506ZM24.9511 20.2986C24.6904 20.4999 24.5509 20.7587 24.5378 21.0761C24.5141 21.5348 24.6774 22.0004 25.0316 22.4743C25.1842 22.6778 25.3535 22.8551 25.5426 23.0072C25.7304 23.1583 25.9131 23.2637 26.0881 23.3226C26.2395 23.3737 26.3996 23.3825 26.5688 23.3508C26.7375 23.3194 26.8908 23.2518 27.0262 23.1476C27.3213 22.9224 27.4577 22.6157 27.4363 22.2265C27.4127 21.8134 27.2453 21.3957 26.9317 20.9748C26.5989 20.53 26.2565 20.2495 25.901 20.1324C25.564 20.0227 25.2484 20.0767 24.9511 20.2986Z" fill="white"/>
<path d="M30.05 16.4842L32.5889 18.2784L31.9469 16.8724C31.8546 16.6702 31.7687 16.5495 31.6872 16.5091C31.6422 16.4907 31.5745 16.4861 31.4854 16.4958C31.3962 16.5055 31.3071 16.5285 31.2193 16.5622L31.1548 16.5871L30.9219 16.0759L32.5911 15.2939L32.8252 15.8061L32.763 15.8378C32.5716 15.941 32.4602 16.0423 32.4292 16.14C32.3979 16.239 32.4301 16.3933 32.5256 16.601L33.9911 19.8106L33.2226 20.1707L29.7922 17.7867L30.8121 20.0245C30.9066 20.228 30.9922 20.3477 31.0708 20.3846C31.118 20.4053 31.1867 20.4108 31.279 20.4007C31.3704 20.3897 31.4572 20.3681 31.5419 20.3344L31.6042 20.3082L31.838 20.8204L30.1688 21.601L29.9359 21.0898L29.996 21.0572C30.0755 21.0148 30.1483 20.9614 30.217 20.8983C30.2835 20.8333 30.3234 20.7767 30.3381 20.7265C30.3607 20.6427 30.3275 20.4981 30.2339 20.2937L29.2486 18.1364C29.1553 17.9332 29.0681 17.8113 28.9889 17.7731C28.9439 17.7534 28.8752 17.7492 28.7861 17.7579C28.697 17.7676 28.6088 17.7893 28.521 17.8262L28.4565 17.8524L28.2236 17.3402L30.0525 16.4842H30.05Z" fill="white"/>
<path d="M37.6038 15.0649L38.0835 17.1545L37.5661 17.2762C37.5156 17.1348 37.4588 17.0141 37.3955 16.9119C37.331 16.8106 37.2668 16.7414 37.2023 16.7022C37.11 16.6414 36.889 16.6534 36.5411 16.7369L36.7235 17.5272C36.8031 17.8776 36.8599 18.0762 36.8954 18.1241C36.9631 18.2209 37.1403 18.2361 37.4256 18.1688C37.8357 18.072 38.1707 17.8947 38.4314 17.6369C38.6933 17.3781 38.921 16.9986 39.1142 16.4984L39.6317 16.6126L39.2634 18.3651L35.283 19.3024L35.1562 18.7534L35.2444 18.7262C35.3204 18.7055 35.3967 18.6709 35.474 18.6207C35.5513 18.5706 35.6005 18.524 35.6232 18.4816C35.6628 18.4033 35.6586 18.2555 35.6091 18.0368L35.0767 15.7229C35.0272 15.5033 34.9671 15.3674 34.8966 15.313C34.8579 15.2849 34.7934 15.2661 34.7075 15.2577C34.6215 15.248 34.5347 15.2512 34.4497 15.2665L34.3596 15.2817L34.2332 14.7326L38.1021 13.8203L39.082 15.0545L38.6818 15.3862C38.0679 14.8155 37.4374 14.6065 36.7903 14.7598C36.453 14.8381 36.262 14.9306 36.217 15.0338C36.1869 15.1002 36.2051 15.2729 36.2697 15.5515L36.3997 16.1202L36.5843 16.0788C36.7775 16.0342 36.9085 15.9918 36.9771 15.9526C37.0458 15.9145 37.0921 15.8572 37.1167 15.7809C37.1566 15.6547 37.1467 15.4557 37.0867 15.1862L37.5945 15.0649H37.6038Z" fill="white"/>
<path d="M43.5159 16.0601L43.5386 16.8844C43.544 17.1064 43.5763 17.252 43.6341 17.3183C43.6696 17.3565 43.7309 17.3888 43.8178 17.415C43.9046 17.4412 43.9928 17.4555 44.0797 17.4574L44.156 17.4584L44.171 18.0258L41.7662 18.0922L41.7512 17.5257L41.8221 17.5189C41.9144 17.5124 42.0004 17.494 42.0863 17.4623C42.1722 17.4309 42.23 17.3959 42.2623 17.3558C42.3182 17.2863 42.3418 17.1394 42.3373 16.9165L42.3159 16.1478L41.3389 14.6939C41.1651 14.4351 41.0169 14.261 40.8943 14.1707C40.7742 14.0814 40.6087 14.0239 40.3995 13.9976L40.3845 13.4399L42.9704 13.3681L42.9854 13.9313C42.9512 13.9333 42.9231 13.9346 42.8995 13.9346C42.6044 13.942 42.4571 14.0041 42.4616 14.1183C42.4616 14.1413 42.498 14.2215 42.5721 14.36L43.1604 15.3668L43.666 14.4664C43.7842 14.251 43.8433 14.1164 43.842 14.063C43.8398 14.0174 43.8021 13.9805 43.7283 13.9533C43.6533 13.9262 43.5565 13.9129 43.4342 13.9164C43.4105 13.9174 43.3783 13.9197 43.3355 13.9229L43.3205 13.3597L45.3997 13.3008L45.4148 13.864C45.1733 13.8902 44.9778 13.9575 44.8296 14.0685C44.6814 14.1795 44.5227 14.3775 44.3531 14.6612L43.5162 16.0601H43.5159Z" fill="white"/>
<path d="M52.3312 16.744C52.5276 16.8721 52.6736 17.0168 52.7681 17.1766C52.9291 17.4483 52.9687 17.7463 52.8895 18.0692C52.81 18.3966 52.6417 18.6531 52.3881 18.8411C52.1907 18.988 51.9738 19.0695 51.7355 19.087C51.4972 19.1044 51.173 19.0621 50.7629 18.9598L48.0557 18.2811L48.1889 17.7343L48.2703 17.7508C48.3498 17.766 48.4358 17.7693 48.53 17.7605C48.6223 17.7518 48.689 17.7343 48.7277 17.7062C48.7986 17.6551 48.8609 17.5215 48.9142 17.3028L49.478 14.9931C49.5307 14.7744 49.538 14.6243 49.4994 14.545C49.4767 14.5036 49.4272 14.458 49.3502 14.4056C49.2729 14.3545 49.1956 14.3176 49.1206 14.2937L49.0346 14.2684L49.1688 13.7217L51.7397 14.3655C52.4053 14.5318 52.8368 14.7602 53.0364 15.0517C53.2252 15.3299 53.2811 15.6292 53.2029 15.9465C53.1524 16.151 53.0515 16.3241 52.8978 16.4652C52.7445 16.6059 52.5561 16.6994 52.3325 16.744H52.3312ZM50.3285 16.5832L50.0376 17.7793C50.0066 17.9068 50.0098 17.9967 50.0484 18.0469C50.1149 18.1381 50.2794 18.2164 50.5422 18.2827C50.8556 18.361 51.1111 18.3426 51.312 18.2283C51.4976 18.1219 51.6221 17.9446 51.6812 17.701C51.7448 17.4422 51.7157 17.2377 51.5966 17.0844C51.4765 16.932 51.2529 16.8158 50.9255 16.7334L50.325 16.5832H50.3285ZM50.4787 15.9753L51.0552 16.12C51.3289 16.1885 51.5544 16.1918 51.7291 16.1297C51.9042 16.0679 52.0137 15.9459 52.0587 15.7644C52.106 15.5654 52.0674 15.3946 51.9406 15.2523C51.8141 15.1099 51.6036 15.0022 51.3094 14.9281C51.1203 14.8812 50.9725 14.8631 50.8661 14.8747C50.8156 14.8792 50.7792 14.8999 50.7556 14.9355C50.731 14.9724 50.7061 15.042 50.6805 15.1442L50.4793 15.9753H50.4787Z" fill="white"/>
<path d="M58.2723 16.875L58.02 20.4829C57.9941 20.845 57.9963 21.0692 58.0264 21.1562C58.0577 21.2423 58.179 21.3639 58.3914 21.5237L58.1487 22.0303L55.9135 20.9278L56.1582 20.4212C56.3591 20.4994 56.5041 20.5428 56.5919 20.5506C56.6801 20.558 56.7379 20.5331 56.7657 20.4755C56.7925 20.4202 56.8139 20.3212 56.8302 20.1788L56.8947 19.5635L55.5766 18.9132L55.1288 19.3425C55.0492 19.4186 54.9991 19.4807 54.9742 19.5308C54.9387 19.6049 54.9451 19.6699 54.9914 19.7266C55.0387 19.7832 55.1773 19.8909 55.4047 20.0498L55.161 20.5564L53.2695 19.6224L53.5132 19.1157C53.7611 19.1863 53.9556 19.2005 54.0974 19.1562C54.2402 19.1115 54.4408 18.9744 54.6995 18.745L57.323 16.4072L58.2748 16.875H58.2723ZM56.0333 18.4694L56.9554 18.9249L57.0832 17.4981L56.0323 18.4694H56.0333Z" fill="white"/>
<path d="M62.8236 23.5588L63.0929 24.135C62.7987 24.3233 62.4595 24.4307 62.073 24.4602C61.4805 24.5025 60.9299 24.3262 60.4176 23.9283C59.9324 23.552 59.6232 23.08 59.49 22.5126C59.3227 21.7992 59.4837 21.1198 59.9711 20.4737C60.2952 20.0454 60.6836 19.7442 61.1369 19.5669C61.4933 19.4255 61.8584 19.3877 62.2276 19.4527C62.5981 19.518 62.9533 19.6821 63.2935 19.9451C63.6167 20.1961 63.8582 20.5041 64.0182 20.8694L64.2351 20.7128L64.5615 20.9661L64.0054 22.708L63.472 22.5362C63.5301 22.0554 63.5461 21.7206 63.5225 21.5313C63.4666 21.091 63.3078 20.7672 63.0415 20.5604C62.77 20.3495 62.4704 20.2938 62.1439 20.3928C61.7447 20.5125 61.3646 20.8082 61.0059 21.2822C60.5993 21.8205 60.4412 22.3175 60.5316 22.7753C60.5917 23.0719 60.7376 23.3104 60.9673 23.4896C61.1027 23.5941 61.2637 23.6724 61.4528 23.7245C61.6393 23.7779 61.8284 23.7963 62.0175 23.7821C62.2251 23.7633 62.4934 23.6895 62.8191 23.5588H62.8236Z" fill="white"/>
<path d="M67.1964 26.2064L66.6649 27.9919C66.5403 28.4083 66.4803 28.6975 66.4835 28.8586C66.4867 29.0207 66.5566 29.2086 66.6927 29.4218L66.2707 29.7894L64.5897 27.8071L65.0117 27.4406C65.1449 27.5907 65.2477 27.6865 65.3231 27.7298C65.3962 27.7722 65.4595 27.7722 65.5099 27.7266C65.5368 27.7049 65.5613 27.6625 65.5831 27.6017C65.585 27.5897 65.5981 27.5441 65.6217 27.4626C65.6367 27.417 65.6485 27.3778 65.6581 27.3452L66.0788 26.0446L65.3509 25.9349L64.8676 26.3568C64.6939 26.5069 64.6015 26.6276 64.5907 26.7188C64.5798 26.8101 64.6399 26.9537 64.7708 27.1514L64.7858 27.1743L64.363 27.5419L62.8289 25.7305L63.2508 25.3629L63.2981 25.4131C63.3626 25.4814 63.4332 25.5393 63.5108 25.5858C63.5903 25.6328 63.6545 25.6554 63.7063 25.6567C63.7922 25.6567 63.9199 25.5849 64.0883 25.438L65.8683 23.8896C66.0347 23.745 66.1261 23.6276 66.143 23.5373C66.1471 23.4885 66.1321 23.4212 66.0989 23.3374C66.0657 23.2536 66.0203 23.1721 65.9635 23.0947L65.9216 23.0404L66.3445 22.6738L67.8796 24.4833L67.4567 24.8508L67.4372 24.8324C67.2571 24.6713 67.1239 24.5897 67.037 24.5868C66.9501 24.5836 66.8188 24.6573 66.646 24.8087L65.9481 25.4154L67.5145 25.5752C67.6669 25.5917 67.7569 25.5991 67.7873 25.5968C67.8163 25.5959 67.8454 25.5839 67.871 25.5609C67.9074 25.5283 67.9182 25.4826 67.8987 25.426C67.8793 25.3684 67.8288 25.2911 67.7483 25.1954C67.7355 25.1802 67.7141 25.1552 67.6838 25.1193L68.1067 24.7531L69.6012 26.5157L69.2125 26.8537C68.9665 26.6483 68.7381 26.5069 68.5296 26.4286C68.3191 26.3513 68.0026 26.2882 67.5765 26.2426L67.1868 26.2064H67.1964Z" fill="white"/>
<path d="M30.2765 40.6318V48.0796C30.2765 48.3362 30.2915 48.519 30.3228 48.6319C30.3519 48.7429 30.4142 48.8386 30.5087 48.9192C30.6438 49.0431 30.9016 49.1191 31.2817 49.1453L31.6404 49.1605L31.9419 49.1757L32.1105 49.189V50.3482H26.0496V49.189L26.2814 49.1822C27.0867 49.1453 27.5568 49.0256 27.6922 48.8257C27.7673 48.7212 27.806 48.4928 27.806 48.1363V43.2689C27.806 42.9612 27.7929 42.7655 27.7705 42.6826C27.7456 42.5989 27.6814 42.5293 27.5741 42.4717C27.4517 42.4012 27.3281 42.3556 27.2048 42.3336C27.0803 42.3119 26.7497 42.2824 26.2109 42.2446L26.0499 42.2304V41.1278C26.8551 41.1081 27.4217 41.0754 27.7526 41.0311C28.0832 40.9854 28.6974 40.8528 29.5968 40.6322H30.2768L30.2765 40.6318Z" fill="black"/>
<path d="M37.4122 40.4023C38.6393 40.4023 39.6269 40.82 40.373 41.655C41.221 42.6042 41.6452 43.8763 41.6452 45.47C41.6452 46.5748 41.437 47.5489 41.0195 48.3885C40.618 49.2148 40.0255 49.813 39.244 50.1889C38.6729 50.4629 38.0385 50.602 37.3416 50.602C36.1327 50.602 35.1441 50.2083 34.3776 49.4189C33.4919 48.5185 33.0498 47.2355 33.0498 45.5696C33.0498 44.5774 33.228 43.6761 33.5832 42.865C34.0029 41.9158 34.6363 41.2374 35.4833 40.8294C36.0519 40.5544 36.6939 40.412 37.4157 40.4023H37.4122ZM37.3419 41.7579C36.9682 41.7579 36.6549 41.9177 36.4016 42.2354C36.1825 42.5149 36.0301 42.8301 35.9465 43.1814C35.7682 43.9067 35.6791 44.6625 35.6791 45.449C35.6791 47.0517 35.9206 48.1585 36.4016 48.7699C36.6549 49.0873 36.9682 49.2461 37.3419 49.2461C37.7262 49.2461 38.0417 49.0873 38.2899 48.7699C38.7719 48.1546 39.0124 47.0692 39.0124 45.5143C39.0124 44.745 38.9514 44.0808 38.8265 43.5185C38.7032 42.9575 38.5237 42.5289 38.2899 42.2354C38.0376 41.9216 37.7214 41.7631 37.3413 41.7566L37.3419 41.7579Z" fill="black"/>
<path d="M46.8089 40.4023C48.038 40.4023 49.0237 40.82 49.7698 41.655C50.6178 42.6042 51.042 43.8763 51.042 45.47C51.042 46.5748 50.8337 47.5489 50.4172 48.3885C50.0157 49.2148 49.4232 49.813 48.6417 50.1889C48.0706 50.4629 47.435 50.602 46.7384 50.602C45.5307 50.602 44.5431 50.2083 43.7743 49.4189C42.8896 48.5185 42.4475 47.2355 42.4475 45.5696C42.4475 44.5774 42.6257 43.6761 42.98 42.865C43.4019 41.9158 44.0353 41.2374 44.8814 40.8294C45.4499 40.5544 46.0919 40.412 46.8105 40.4023H46.8089ZM46.7419 41.7579C46.3682 41.7579 46.0548 41.9177 45.8015 42.2354C45.5824 42.5149 45.4301 42.8301 45.3451 43.1814C45.1682 43.9067 45.0778 44.6625 45.0778 45.449C45.0778 47.0517 45.3193 48.1585 45.8015 48.7699C46.0548 49.0873 46.3682 49.2461 46.7419 49.2461C47.1261 49.2461 47.4417 49.0873 47.6895 48.7699C48.1715 48.1546 48.412 47.0692 48.412 45.5143C48.412 44.745 48.3497 44.0808 48.2274 43.5185C48.1019 42.9575 47.9224 42.5289 47.6895 42.2354C47.434 41.9216 47.121 41.7631 46.7409 41.7566L46.7419 41.7579Z" fill="black"/>
<path d="M54.4554 40.4023C55.1788 40.4023 55.7908 40.6534 56.2932 41.1562C56.7761 41.6431 57.0189 42.2403 57.0189 42.9449C57.0189 43.6311 56.7998 44.2083 56.3641 44.6771C55.8658 45.2118 55.2283 45.4791 54.449 45.4791C53.7875 45.4791 53.21 45.2807 52.7185 44.8828C52.1074 44.3911 51.8027 43.7498 51.8027 42.9591C51.8027 42.2817 52.0305 41.6977 52.4866 41.2053C52.9816 40.6812 53.6396 40.4127 54.4605 40.403L54.4554 40.4023ZM54.4138 41.5735C53.8213 41.5735 53.5249 42.0193 53.5249 42.9087C53.5249 43.8252 53.8213 44.2843 54.4138 44.2843C55.0009 44.2843 55.2941 43.833 55.2941 42.9294C55.2909 42.03 55.0003 41.5803 54.4126 41.5738L54.4138 41.5735ZM61.5109 40.632L55.0625 50.3481H53.8118L60.226 40.632H61.5131H61.5109ZM60.9104 45.5043C61.6275 45.5043 62.235 45.7567 62.7352 46.2591C63.2162 46.7508 63.4577 47.3487 63.4577 48.0575C63.4577 48.747 63.2395 49.3277 62.8061 49.7975C62.3091 50.3345 61.6748 50.6043 60.9037 50.6043C60.2435 50.6043 59.667 50.4041 59.1774 50.0042C58.5686 49.5105 58.2648 48.8647 58.2648 48.0708C58.2648 47.3924 58.4913 46.8052 58.9455 46.3092C59.4342 45.7851 60.0889 45.5134 60.913 45.5069L60.9104 45.5043ZM60.8593 46.6722C60.2774 46.6722 59.9867 47.1222 59.9867 48.0184C59.9867 48.945 60.2777 49.406 60.8593 49.406C61.441 49.406 61.7332 48.9514 61.7332 48.0404C61.7332 47.1345 61.4426 46.6784 60.8581 46.6719L60.8593 46.6722Z" fill="black"/>
<path d="M22.6463 67.7567L23.0565 67.3523L24.7333 69.0854L24.2964 69.5179L24.2587 69.4788C24.2146 69.4329 24.145 69.3872 24.0504 69.3439C23.9559 69.2983 23.884 69.2743 23.8358 69.2743C23.7435 69.2789 23.6103 69.3659 23.4356 69.5396L22.4336 70.5296L21.8734 69.9492L22.0602 69.5251C21.7919 69.4532 21.6073 69.3989 21.5064 69.362C21.2027 69.2468 20.9139 69.0488 20.6389 68.7638C20.3384 68.4529 20.1323 68.0919 20.0228 67.6807C19.8995 67.2219 19.9359 66.7457 20.1365 66.2497C20.2952 65.8495 20.5338 65.4949 20.8513 65.1798C21.24 64.7948 21.6747 64.5402 22.1567 64.4144C22.6559 64.284 23.1443 64.3209 23.6231 64.5208C23.9492 64.658 24.2414 64.8624 24.4989 65.1274C24.6493 65.284 24.7854 65.4733 24.9067 65.6929C25.0291 65.9126 25.1096 66.1171 25.1482 66.3041L25.3769 66.2322L25.703 66.5694L24.8205 68.0896L24.3203 67.8372C24.4299 67.4633 24.4858 67.1611 24.4858 66.9262C24.4835 66.4001 24.3452 65.9932 24.068 65.7062C23.9016 65.5344 23.6847 65.4432 23.4164 65.4322C23.1813 65.4234 22.9182 65.4907 22.6243 65.6386C22.3314 65.7868 22.0532 65.9889 21.7913 66.2497C21.4026 66.6366 21.1729 67.0304 21.102 67.437C21.0279 67.8612 21.1234 68.209 21.3885 68.483C21.6172 68.7201 21.8932 68.8266 22.2161 68.8049C22.4244 68.7897 22.5962 68.7137 22.7335 68.5765C22.9683 68.3468 22.9392 68.075 22.6463 67.758V67.7567Z" fill="white"/>
<path d="M27.754 69.7596L26.6923 71.395C26.5658 71.5908 26.4796 71.7538 26.4358 71.8819C26.3918 72.0104 26.3777 72.1385 26.3959 72.2647C26.4119 72.3844 26.456 72.5018 26.5301 72.617C26.6032 72.7322 26.6933 72.826 26.8006 72.8975C26.9101 72.9693 27.0366 73.0301 27.1807 73.0757C27.3244 73.1214 27.4499 73.1411 27.5541 73.1388C27.6872 73.1323 27.8137 73.0803 27.9341 72.98C28.0542 72.8823 28.1833 72.7257 28.3248 72.5083L29.3983 70.8554C29.5334 70.6467 29.5934 70.4943 29.5797 70.3989C29.5637 70.3054 29.4596 70.1728 29.2629 70.001L29.2092 69.9489L29.5388 69.44L31.2361 70.571L30.9065 71.0822L30.8356 71.0476C30.6047 70.9343 30.4437 70.891 30.3514 70.9149C30.2591 70.9389 30.145 71.054 30.0099 71.263L28.9569 72.8855C28.6812 73.3096 28.4471 73.5859 28.2539 73.7118C27.9575 73.9052 27.5991 73.9554 27.174 73.8642C26.8412 73.7901 26.5234 73.6532 26.2228 73.453C25.7654 73.1463 25.4403 72.7833 25.2493 72.3591C25.1343 72.1068 25.0979 71.87 25.1388 71.648C25.1816 71.4242 25.3147 71.1391 25.5402 70.7933L26.677 69.0427C26.8134 68.834 26.8734 68.6816 26.8584 68.5859C26.8453 68.4904 26.7402 68.3575 26.5451 68.1902L26.4869 68.1378L26.8175 67.6289L28.9795 69.0686L28.6499 69.5775L28.5822 69.5471C28.3484 69.4338 28.1871 69.3882 28.0948 69.4122C28.0031 69.4348 27.8894 69.5545 27.754 69.7616V69.7596Z" fill="white"/>
<path d="M34.9017 72.0626L34.9716 75.9791C34.978 76.3706 35.0017 76.6119 35.0425 76.7035C35.0834 76.7928 35.2272 76.9144 35.4709 77.0645L35.2575 77.6343L32.7467 76.6643L32.9601 76.0946C33.1856 76.16 33.3446 76.1904 33.4398 76.1904C33.5353 76.1904 33.5953 76.16 33.6212 76.0946C33.6439 76.0315 33.6576 75.9228 33.6611 75.7662L33.6771 75.0878L32.1957 74.5158L31.7492 75.0335C31.6719 75.1224 31.6215 75.1946 31.601 75.2509C31.5688 75.3334 31.5815 75.4029 31.6374 75.4595C31.6933 75.5162 31.8521 75.6184 32.114 75.7662L31.8993 76.336L29.7715 75.5162L29.9874 74.9442C30.2611 74.9985 30.4716 74.994 30.6208 74.9309C30.7699 74.8701 30.9731 74.7025 31.2295 74.4307L33.8359 71.6514L34.9027 72.0655L34.9017 72.0626ZM32.6371 74.0037L33.6733 74.4039L33.6752 72.8533L32.6371 74.0018V74.0037Z" fill="white"/>
<path d="M40.7658 76.2166L41.5119 77.5475C41.6333 77.7672 41.7406 77.9151 41.8351 77.9911C41.9274 78.0652 42.082 78.1305 42.2966 78.1849L42.2107 78.787L40.5253 78.5414L39.2649 76.1558L38.9321 76.1056L38.7967 77.0516C38.7644 77.2842 38.773 77.4453 38.8257 77.5301C38.8775 77.6171 39.0008 77.6802 39.1962 77.7216L39.3531 77.7562L39.2681 78.3583L36.7014 77.9866L36.7864 77.3822L36.9505 77.3952C37.1492 77.4104 37.2843 77.3845 37.3575 77.3169C37.4293 77.2496 37.483 77.0972 37.5165 76.8627L37.8835 74.2748C37.9167 74.0419 37.9081 73.8833 37.8567 73.7963C37.8049 73.7093 37.6826 73.6462 37.4884 73.6048L37.3262 73.5702L37.4121 72.9678L40.2084 73.3744C40.8578 73.4679 41.341 73.6226 41.6607 73.8355C41.8734 73.9768 42.0258 74.179 42.1191 74.4421C42.1845 74.631 42.2018 74.8248 42.1737 75.0289C42.1309 75.325 42.0009 75.5815 41.7818 75.7966C41.5326 76.049 41.1909 76.1881 40.7661 76.2205L40.7658 76.2166ZM39.0314 75.4045L39.5038 75.4741C39.8271 75.522 40.0794 75.5087 40.2627 75.4372C40.517 75.3392 40.6629 75.1567 40.7019 74.8892C40.7233 74.7348 40.7019 74.5935 40.6374 74.465C40.5741 74.3347 40.4764 74.2366 40.3432 74.1671C40.2209 74.1017 40.0331 74.0496 39.7817 74.0127C39.5811 73.9846 39.4288 73.9888 39.3234 74.0257C39.2806 74.039 39.2493 74.0603 39.2342 74.0888C39.2183 74.1169 39.2052 74.1735 39.1943 74.2541L39.0314 75.4026V75.4045Z" fill="white"/>
<path d="M46.7484 73.499L48.4595 77.0134C48.6313 77.3657 48.7536 77.5744 48.8287 77.6375C48.9037 77.7029 49.0842 77.7485 49.3675 77.7792L49.4138 78.3881L46.7344 78.5948L46.6881 77.9859C46.919 77.9491 47.0768 77.9099 47.1636 77.8685C47.2505 77.8271 47.2914 77.7705 47.2847 77.7032C47.2805 77.6356 47.2473 77.5314 47.1847 77.39L46.9132 76.7679L45.3319 76.8895L45.146 77.5508C45.1128 77.666 45.0978 77.7507 45.1032 77.8119C45.1096 77.8989 45.1501 77.9575 45.2255 77.9837C45.2987 78.0118 45.4852 78.0358 45.7838 78.0578L45.8308 78.6644L43.5614 78.8407L43.5142 78.2315C43.7847 78.1619 43.9735 78.0662 44.0821 77.9468C44.1903 77.8248 44.304 77.588 44.4222 77.2289L45.6094 73.5864L46.7433 73.499H46.7484ZM45.5187 76.2263L46.6242 76.1393L45.9736 74.7433L45.52 76.225L45.5187 76.2263Z" fill="white"/>
<path d="M51.5202 72.5704L53.9719 74.8777L53.4932 73.275C53.4245 73.0446 53.3494 72.901 53.2689 72.8467C53.2226 72.8185 53.1517 72.8052 53.0543 72.801C52.9566 72.7988 52.8579 72.8098 52.7592 72.8314L52.6873 72.8512L52.5123 72.2663L54.4134 71.6836L54.5884 72.2663L54.5197 72.2925C54.2987 72.373 54.1633 72.4642 54.116 72.5665C54.0687 72.6664 54.0796 72.836 54.1502 73.0731L55.2451 76.7331L54.3712 77.0003L51.0497 73.9256L51.8141 76.4766C51.8837 76.7092 51.9578 76.8509 52.0373 76.903C52.0843 76.9311 52.1574 76.9486 52.2564 76.9505C52.3574 76.9551 52.4538 76.944 52.5484 76.9201L52.6202 76.9004L52.794 77.4853L50.8929 78.0683L50.7191 77.4853L50.7878 77.4594C50.8801 77.4267 50.9673 77.3811 51.0475 77.3223C51.1277 77.2634 51.1807 77.209 51.2043 77.1569C51.242 77.0699 51.2257 76.9111 51.157 76.6784L50.4195 74.2187C50.3499 73.9861 50.2758 73.8425 50.1953 73.7904C50.149 73.7622 50.0771 73.7467 49.9807 73.7444C49.8842 73.7402 49.7852 73.7512 49.6856 73.7748L49.6137 73.7946L49.4399 73.2096L51.5129 72.5626L51.5202 72.5704Z" fill="white"/>
<path d="M58.9016 69.2344L60.1543 70.2955L59.786 70.7436C59.4663 70.5524 59.2204 70.4327 59.0463 70.3848C58.678 70.2781 58.3797 70.2891 58.1501 70.4175C58.0836 70.4544 58.0501 70.4848 58.0501 70.511C58.0501 70.5372 58.0833 70.609 58.1478 70.7284L59.5197 73.2532C59.6356 73.4641 59.7365 73.588 59.8224 73.623C59.8739 73.6427 59.9489 73.6427 60.0479 73.623C60.147 73.6055 60.237 73.5751 60.314 73.536L60.4386 73.4687L60.7305 74.008L58.3689 75.3257L58.0769 74.7887L58.1865 74.7214C58.266 74.6757 58.3388 74.6149 58.4075 74.5389C58.4771 74.4629 58.5193 74.3998 58.5298 74.3432C58.549 74.2519 58.5017 74.0973 58.3858 73.8844L57.0204 71.3748C56.9657 71.2745 56.9249 71.2137 56.898 71.1965C56.8712 71.1768 56.8335 71.1833 56.7843 71.2095C56.5892 71.3182 56.4314 71.5097 56.3119 71.7815C56.1842 72.0707 56.1401 72.3949 56.1797 72.7556L55.5926 72.8404L55.3435 71.2202L58.8984 69.237L58.9016 69.2344Z" fill="white"/>
<path d="M63.2421 67.2453L64.7322 69.0024L64.3006 69.3764C64.1825 69.2677 64.0678 69.1806 63.9573 69.1153C63.8464 69.0499 63.7509 69.0153 63.6695 69.0108C63.5513 68.9978 63.3485 69.1195 63.0585 69.376L63.6222 70.0393C63.8682 70.3308 64.0196 70.4896 64.0751 70.5177C64.1866 70.5744 64.3626 70.498 64.6031 70.2916C64.9446 69.9936 65.1787 69.6543 65.302 69.2761C65.4256 68.8998 65.4566 68.4236 65.3952 67.8516L65.9491 67.6973L66.4655 69.5695L63.1195 72.4793L62.7266 72.016L62.7975 71.9442C62.8621 71.8875 62.9176 71.8138 62.9659 71.7267C63.0154 71.6397 63.04 71.5702 63.04 71.5178C63.04 71.4223 62.9627 71.2829 62.8062 71.1001L61.1561 69.1515C61.0006 68.969 60.8751 68.8688 60.7815 68.8516C60.7297 68.8448 60.6601 68.8581 60.5723 68.895C60.4841 68.9296 60.4036 68.9775 60.3308 69.0341L60.2503 69.093L59.8584 68.6297L63.109 65.8027L64.6549 66.4857L64.4338 67.0053C63.5772 66.7791 62.8771 66.903 62.3341 67.377C62.0517 67.6206 61.9134 67.8031 61.9198 67.9228C61.9243 67.9988 62.0217 68.1512 62.214 68.3773L62.6199 68.8558L62.7768 68.7254C62.9377 68.5863 63.0409 68.4818 63.0882 68.41C63.1345 68.3382 63.1505 68.2599 63.1355 68.1751C63.1096 68.0337 63.0023 67.849 62.8113 67.6183L63.2361 67.2463L63.2421 67.2453Z" fill="white"/>
<path d="M67.1805 62.7451L68.9946 64.1543L68.6468 64.6131C68.5095 64.5306 68.3785 64.4694 68.2571 64.4283C68.1358 64.3892 68.0348 64.374 67.9553 64.3869C67.8371 64.4002 67.6611 64.561 67.4296 64.8719L68.1153 65.407C68.4213 65.6438 68.6037 65.7723 68.6673 65.7897C68.7909 65.8224 68.9496 65.7137 69.1416 65.4594C69.4175 65.0942 69.5763 64.7156 69.6171 64.3177C69.6599 63.9198 69.5913 63.4432 69.4108 62.891L69.9219 62.6257L70.8085 64.3523L68.1195 67.9014L67.6417 67.5296L67.6953 67.4449C67.7467 67.3753 67.7876 67.2925 67.8177 67.1967C67.8477 67.1013 67.8585 67.0291 67.8477 66.9771C67.8282 66.8836 67.7231 66.7639 67.5343 66.616L65.5269 65.0544C65.3378 64.9065 65.1941 64.8347 65.0996 64.8389C65.0469 64.8434 64.9814 64.8693 64.9019 64.9237C64.8236 64.9761 64.7549 65.0388 64.6936 65.1107L64.6272 65.1847L64.1506 64.813L66.7636 61.3662L68.4082 61.7078L68.2977 62.2624C67.4088 62.219 66.7467 62.4843 66.3085 63.0605C66.082 63.3604 65.9843 63.5671 66.0143 63.6846C66.0344 63.7587 66.1625 63.889 66.3998 64.0718L66.8936 64.4568L67.016 64.2915C67.146 64.122 67.2264 63.9958 67.2574 63.9152C67.2897 63.8369 67.2897 63.7564 67.2574 63.6758C67.206 63.5432 67.0642 63.3866 66.8323 63.2019L67.1805 62.7457V62.7451Z" fill="white"/>
<path d="M14.6789 41.7188L15.4688 44.184H18.0281L15.9584 45.711L16.7483 48.173L14.6789 46.6525L12.6069 48.173L13.3981 45.711L11.3284 44.184H13.8887L14.6789 41.7188Z" fill="white"/>
<path d="M73.5461 41.7188L74.3382 44.184H76.8966L74.8269 45.711L75.6158 48.173L73.5461 46.6525L71.4764 48.173L72.2653 45.711L70.1956 44.184H72.754L73.5461 41.7188Z" fill="white"/>
<path d="M36.8085 29.0371L37.5974 31.502H40.1558L38.0861 33.0261L38.8782 35.4914L36.8085 33.9676L34.7388 35.4914L35.5277 33.0261L33.458 31.502H36.0164L36.8085 29.0371Z" fill="white"/>
<path d="M44.3337 29.0371L45.1226 31.502H47.6842L45.6113 33.0261L46.4066 35.4914L44.3337 33.9676L42.264 35.4914L43.0529 33.0261L40.9832 31.502H43.5416L44.3337 29.0371Z" fill="white"/>
<path d="M51.8588 29.0371L52.6509 31.502H55.2093L53.1396 33.0261L53.9317 35.4914L51.8588 33.9676L49.7891 35.4914L50.578 33.0261L48.5083 31.502H51.0699L51.8588 29.0371Z" fill="white"/>
<path d="M36.8085 55.3066L37.5974 57.7719H40.1558L38.0861 59.2957L38.8782 61.7609L36.8085 60.2371L34.7388 61.7609L35.5277 59.2957L33.458 57.7719H36.0164L36.8085 55.3066Z" fill="white"/>
<path d="M44.3337 55.3066L45.1226 57.7719H47.6842L45.6113 59.2957L46.4066 61.7609L44.3337 60.2371L42.264 61.7609L43.0529 59.2957L40.9832 57.7719H43.5416L44.3337 55.3066Z" fill="white"/>
<path d="M51.8588 55.3066L52.6509 57.7719H55.2093L53.1396 59.2957L53.9317 61.7609L51.8588 60.2371L49.7891 61.7609L50.578 59.2957L48.5083 57.7719H51.0699L51.8588 55.3066Z" fill="white"/>
</svg>
