<svg width="100" height="100" viewBox="0 0 100 100" fill="none" xmlns="http://www.w3.org/2000/svg">
<path d="M49.9607 10C32.7509 10 18.75 24.0009 18.75 41.2098V52.6667C18.75 73.2524 35.4976 90 56.0833 90H80.1704C80.7227 90 81.1704 89.5523 81.1704 89V41.2098C81.1713 24.0009 67.1704 10 49.9607 10ZM76.1038 84.2045C70.11 82.9147 65.7171 77.6533 65.7171 71.2631C65.7171 64.9956 70.1864 59.6631 76.1038 58.3422V84.2045ZM76.1038 53.2053C67.3882 54.5956 60.6495 62.216 60.6495 71.2622C60.6495 76.6684 63.062 81.5618 66.8531 84.9316H56.0833C38.2922 84.9316 23.8176 70.4569 23.8176 52.6658V41.2098C23.8176 26.7947 35.5456 15.0676 49.9607 15.0676C64.3758 15.0676 76.1038 26.7947 76.1038 41.2098V53.2053Z" fill="#5FCF9D"/>
<path d="M51.7813 20.9054C50.6794 20.197 49.2423 20.1977 48.1409 20.907C45.7262 22.4621 41.3852 24.9592 38.0957 25.1878C31.4317 25.6509 25.9286 31.2421 25.5659 37.9158C25.1704 45.1985 30.6495 51.4732 37.8575 52.1078C38.0441 52.1514 38.2388 52.1754 38.4388 52.1754H44.1828C44.6824 52.1754 45.173 52.3781 45.5268 52.7318L48.1695 55.3736C48.6646 55.8678 49.3126 56.1149 49.9606 56.1149C50.6086 56.1149 51.2575 55.8678 51.7517 55.3736L54.3944 52.7309C54.7481 52.3781 55.2379 52.1745 55.7384 52.1745H61.0779C61.4566 52.1745 63.0824 52.0838 63.405 51.9229C70.0975 50.6501 74.853 44.5096 74.3357 37.6261C73.8388 30.9985 68.4628 25.6518 61.8308 25.1878C58.538 24.9519 54.1966 22.4581 51.7813 20.9054ZM69.2841 38.0065C69.6184 42.4634 66.4228 46.4225 62.0068 47.0181C61.8708 47.0358 61.7392 47.066 61.6121 47.1069H55.7384C53.9037 47.1069 52.1081 47.8501 50.8121 49.1469L49.9606 49.9985L49.109 49.1478C47.8121 47.8509 46.0175 47.1069 44.1828 47.1069H38.8388C38.7535 47.0936 38.6681 47.0838 38.5801 47.0794C33.9419 46.8216 30.3739 42.8341 30.6264 38.1896C30.853 34.0225 34.2877 30.5318 38.4468 30.2421C43.0272 29.9274 46.9428 33.2127 47.4415 37.7221C47.5837 39.0056 48.669 39.9772 49.9606 39.9772C51.2521 39.9772 52.3375 39.0056 52.4797 37.7221C52.9784 33.2083 56.9215 29.9229 61.4779 30.2421C65.5499 30.5283 68.9784 33.9381 69.2841 38.0065Z" fill="#5FCF9D"/>
<path d="M39.2285 42.4542C41.3217 42.4542 43.0187 40.7572 43.0187 38.6639C43.0187 36.5707 41.3217 34.8737 39.2285 34.8737C37.1352 34.8737 35.4382 36.5707 35.4382 38.6639C35.4382 40.7572 37.1352 42.4542 39.2285 42.4542Z" fill="#5FCF9D"/>
<path d="M60.6933 42.4542C62.7866 42.4542 64.4835 40.7572 64.4835 38.6639C64.4835 36.5707 62.7866 34.8737 60.6933 34.8737C58.6 34.8737 56.9031 36.5707 56.9031 38.6639C56.9031 40.7572 58.6 42.4542 60.6933 42.4542Z" fill="#5FCF9D"/>
</svg>
