<svg width="136" height="35" viewBox="0 0 136 35" fill="none" xmlns="http://www.w3.org/2000/svg">
<path d="M25.5209 3.42856C23.9454 1.63279 21.0974 0.8629 17.4541 0.8629H6.87991C6.51925 0.862709 6.17036 0.991247 5.89602 1.22538C5.62169 1.45951 5.43992 1.78387 5.38344 2.14008L0.982487 30.0658C0.96208 30.1953 0.970001 30.3278 1.0057 30.454C1.04141 30.5802 1.10404 30.6971 1.18929 30.7968C1.27455 30.8964 1.38039 30.9764 1.49953 31.0312C1.61867 31.086 1.74828 31.1144 1.87943 31.1143H8.40744L10.047 20.7152L9.99615 21.0408C10.0516 20.6853 10.2321 20.3613 10.5053 20.1271C10.7784 19.893 11.1262 19.7641 11.486 19.7636H14.5882C20.6823 19.7636 25.4541 17.2883 26.848 10.1279C26.8894 9.9161 26.9251 9.70998 26.9562 9.50857C27.3703 6.86197 26.9534 5.06056 25.5218 3.4295" fill="#003087"/>
<path d="M105.438 16.7172C105.039 19.3374 103.038 19.3374 101.103 19.3374H100.002L100.775 14.4452C100.822 14.1497 101.076 13.9322 101.375 13.9322H101.881C103.198 13.9322 104.443 13.9322 105.084 14.6824C105.467 15.1313 105.583 15.7977 105.438 16.7172ZM104.596 9.88047H97.2962C97.0544 9.88059 96.8206 9.96688 96.6367 10.1239C96.4529 10.2808 96.3309 10.4982 96.2929 10.7369L93.3433 29.4542C93.3297 29.5409 93.335 29.6296 93.359 29.7141C93.3829 29.7986 93.4248 29.877 93.4818 29.9438C93.5389 30.0105 93.6097 30.0642 93.6894 30.1011C93.7691 30.1379 93.8559 30.1571 93.9437 30.1572H97.6896C98.0388 30.1572 98.3362 29.9031 98.3908 29.5586L99.2284 24.2504C99.3056 23.7582 99.731 23.3939 100.23 23.3939H102.539C107.349 23.3939 110.123 21.0683 110.848 16.4555C111.175 14.4395 110.861 12.8546 109.917 11.7449C108.879 10.5252 107.039 9.87953 104.597 9.87953" fill="#009CDE"/>
<path d="M53.3723 16.7177C52.9733 19.338 50.9723 19.338 49.0363 19.338H47.9352L48.7079 14.4457C48.7549 14.1502 49.009 13.9328 49.3083 13.9328H49.8137C51.1314 13.9328 52.3756 13.9328 53.0175 14.6829C53.4015 15.1318 53.5173 15.7982 53.3723 16.7177ZM52.53 9.881H45.2302C44.7314 9.881 44.306 10.2443 44.2278 10.7375L41.2773 29.4547C41.2635 29.5415 41.2688 29.6302 41.2926 29.7148C41.3165 29.7994 41.3584 29.8778 41.4155 29.9446C41.4725 30.0114 41.5434 30.0651 41.6232 30.1019C41.703 30.1387 41.7898 30.1577 41.8777 30.1578H45.3638C45.8627 30.1578 46.2871 29.7945 46.3653 29.3013L47.1624 24.2519C47.2396 23.7587 47.665 23.3954 48.1639 23.3954H50.4735C55.2829 23.3954 58.0575 21.0688 58.7822 16.4561C59.1088 14.4401 58.7954 12.8551 57.8514 11.7455C56.8133 10.5257 54.9733 9.88006 52.5309 9.88006L52.53 9.881ZM69.4778 23.4377C69.139 25.4349 67.555 26.7761 65.5324 26.7761C64.5187 26.7761 63.7065 26.4495 63.1851 25.8321C62.6674 25.2203 62.4735 24.3479 62.6373 23.3775C62.9517 21.3973 64.563 20.0137 66.5545 20.0137C67.5474 20.0137 68.3521 20.3431 68.8848 20.9662C69.4204 21.594 69.6312 22.4711 69.4778 23.4377ZM74.3493 16.633H70.8538C70.7085 16.6328 70.5679 16.6846 70.4574 16.7791C70.347 16.8735 70.2739 17.0043 70.2514 17.1478L70.099 18.1248L69.8543 17.7709C69.0976 16.6725 67.41 16.3045 65.7253 16.3045C61.8637 16.3045 58.5648 19.2316 57.9229 23.3351C57.5888 25.3841 58.0632 27.3408 59.2246 28.7065C60.2909 29.961 61.8128 30.4834 63.6265 30.4834C66.7399 30.4834 68.466 28.4843 68.466 28.4843L68.3098 29.4556C68.296 29.5425 68.3013 29.6313 68.3252 29.716C68.3491 29.8006 68.3911 29.8791 68.4483 29.9459C68.5055 30.0128 68.5765 30.0664 68.6564 30.1031C68.7363 30.1399 68.8232 30.1588 68.9112 30.1587H72.0585C72.5573 30.1587 72.9827 29.7963 73.0609 29.3022L74.9507 17.337C74.9643 17.2501 74.9589 17.1612 74.9349 17.0766C74.9109 16.992 74.8688 16.9135 74.8116 16.8467C74.7543 16.7799 74.6833 16.7263 74.6033 16.6895C74.5233 16.6528 74.4364 16.6339 74.3484 16.634" fill="#003087"/>
<path d="M121.544 23.4377C121.205 25.4349 119.621 26.7761 117.598 26.7761C116.585 26.7761 115.772 26.4495 115.251 25.8321C114.733 25.2203 114.539 24.3479 114.703 23.3775C115.018 21.3973 116.628 20.0137 118.62 20.0137C119.613 20.0137 120.418 20.3432 120.951 20.9662C121.486 21.594 121.697 22.4712 121.544 23.4377ZM126.415 16.633H122.92C122.774 16.6329 122.634 16.6847 122.523 16.7791C122.413 16.8735 122.34 17.0043 122.317 17.1479L122.165 18.1248L121.92 17.7709C121.163 16.6726 119.476 16.3046 117.791 16.3046C113.93 16.3046 110.632 19.2316 109.989 23.3352C109.655 25.3841 110.13 27.3408 111.291 28.7065C112.358 29.961 113.88 30.4834 115.693 30.4834C118.808 30.4834 120.534 28.4843 120.534 28.4843L120.378 29.4556C120.364 29.5424 120.368 29.6312 120.392 29.7158C120.416 29.8005 120.458 29.879 120.515 29.9459C120.572 30.0127 120.643 30.0664 120.722 30.1032C120.802 30.1399 120.889 30.1589 120.977 30.1587H124.123C124.622 30.1587 125.048 29.7963 125.127 29.3022L127.017 17.337C127.03 17.2501 127.025 17.1613 127.001 17.0766C126.977 16.992 126.935 16.9135 126.877 16.8467C126.82 16.7799 126.749 16.7263 126.669 16.6896C126.589 16.6528 126.502 16.6339 126.414 16.634" fill="#009CDE"/>
<path d="M92.9666 16.6336H89.4523C89.1163 16.6336 88.8029 16.8002 88.6146 17.0787L83.7676 24.2166L81.713 17.3573C81.6503 17.1481 81.5219 16.9647 81.3468 16.8341C81.1717 16.7036 80.9592 16.6329 80.7408 16.6326H77.2876C77.1908 16.6327 77.0953 16.6558 77.0092 16.7001C76.9231 16.7444 76.8489 16.8086 76.7925 16.8874C76.7362 16.9662 76.6995 17.0572 76.6854 17.1531C76.6713 17.2489 76.6803 17.3466 76.7116 17.4383L80.5798 28.7945L76.9412 33.9287C76.8769 34.0198 76.8389 34.1268 76.8313 34.2381C76.8237 34.3494 76.8468 34.4606 76.898 34.5597C76.9493 34.6587 77.0268 34.7418 77.122 34.7998C77.2173 34.8578 77.3267 34.8886 77.4382 34.8887H80.9488C81.2801 34.8887 81.5916 34.7258 81.7817 34.4529L93.4655 17.5889C93.5289 17.4977 93.5662 17.3909 93.5732 17.2801C93.5802 17.1692 93.5568 17.0586 93.5054 16.9601C93.4539 16.8617 93.3766 16.7792 93.2816 16.7216C93.1866 16.6641 93.0777 16.6336 92.9666 16.6336Z" fill="#003087"/>
<path d="M130.535 10.3953L127.538 29.4551C127.525 29.542 127.53 29.6308 127.554 29.7153C127.578 29.7999 127.62 29.8783 127.677 29.9451C127.734 30.0119 127.805 30.0655 127.885 30.1023C127.965 30.1391 128.052 30.1582 128.14 30.1582H131.152C131.651 30.1582 132.077 29.7949 132.155 29.3017L135.109 10.5836C135.123 10.4967 135.118 10.4079 135.094 10.3232C135.07 10.2386 135.028 10.1601 134.971 10.0933C134.914 10.0264 134.843 9.97281 134.763 9.93607C134.683 9.89934 134.596 9.88038 134.508 9.88051H131.136C130.991 9.88014 130.851 9.93177 130.741 10.026C130.63 10.1203 130.557 10.251 130.535 10.3944" fill="#009CDE"/>
<path d="M25.5209 3.42856C23.9454 1.63279 21.0974 0.8629 17.4541 0.8629H6.87991C6.51925 0.862709 6.17036 0.991247 5.89602 1.22538C5.62169 1.45951 5.43992 1.78387 5.38344 2.14008L0.982487 30.0658C0.96208 30.1953 0.970001 30.3278 1.0057 30.454C1.04141 30.5802 1.10404 30.6971 1.18929 30.7968C1.27455 30.8964 1.38039 30.9764 1.49953 31.0312C1.61867 31.086 1.74828 31.1144 1.87943 31.1143H8.40744L10.047 20.7152L9.99615 21.0408C10.0516 20.6853 10.2321 20.3613 10.5053 20.1271C10.7784 19.893 11.1262 19.7641 11.486 19.7636H14.5882C20.6823 19.7636 25.4541 17.2883 26.848 10.1279C26.8894 9.9161 26.9251 9.70998 26.9562 9.50857C27.3703 6.86197 26.9534 5.06056 25.5218 3.4295" fill="#003087"/>
<path d="M11.808 9.54335C11.8575 9.2321 12.0163 8.94866 12.2559 8.74392C12.4955 8.53917 12.8002 8.42651 13.1153 8.42617H21.4052C22.3869 8.42617 23.3027 8.49017 24.1394 8.62381C24.5968 8.69741 25.0494 8.79862 25.4947 8.92688C26.0003 9.06903 26.4896 9.26399 26.9544 9.50852C27.3704 6.86099 26.9525 5.06051 25.521 3.42851C23.9445 1.63368 21.0975 0.863794 17.4542 0.863794H6.87908C6.51875 0.864052 6.17031 0.99279 5.89636 1.22688C5.62242 1.46098 5.44093 1.78508 5.38449 2.14098L0.981659 30.0639C0.961114 30.1934 0.968899 30.3259 1.00448 30.4521C1.04006 30.5783 1.10258 30.6954 1.18775 30.7951C1.27292 30.8949 1.3787 30.975 1.4978 31.0299C1.6169 31.0848 1.7465 31.1133 1.87766 31.1133H8.40662L10.0462 20.7133L11.808 9.54335Z" fill="#003087"/>
<path d="M26.9553 9.50791C26.923 9.71498 26.887 9.92144 26.8471 10.1272C25.4532 17.2867 20.6815 19.763 14.5873 19.763H11.4843C11.1245 19.7632 10.7767 19.8921 10.5037 20.1263C10.2306 20.3605 10.0503 20.6847 9.99532 21.0402L8.40661 31.1127L7.95484 33.9701C7.93688 34.0835 7.94373 34.1995 7.97492 34.31C8.00611 34.4206 8.06091 34.523 8.13552 34.6104C8.21013 34.6977 8.30279 34.7678 8.40711 34.8158C8.51143 34.8639 8.62493 34.8887 8.73979 34.8887H14.2429C14.8942 34.8887 15.4476 34.4143 15.5502 33.7715L15.6038 33.491L16.641 26.9178L16.7069 26.5545C16.7562 26.243 16.915 25.9594 17.1549 25.7546C17.3947 25.5498 17.6997 25.4373 18.0151 25.4374H18.8386C24.1695 25.4374 28.3436 23.2726 29.5634 17.0082C30.0716 14.3917 29.8081 12.2053 28.4622 10.6703C28.0348 10.1943 27.5242 9.80044 26.9553 9.50791Z" fill="#009CDE"/>
<path d="M25.4957 8.92708C25.283 8.86402 25.0637 8.80755 24.8378 8.75767C24.6119 8.70779 24.3785 8.66355 24.1394 8.62591C23.3018 8.48944 22.3869 8.42544 21.4043 8.42544H13.1154C12.7999 8.42505 12.4946 8.53757 12.2549 8.74264C12.0151 8.94771 11.8566 9.2318 11.8081 9.54355L10.0462 20.7153L9.99536 21.04C10.0504 20.6845 10.2307 20.3604 10.5037 20.1262C10.7768 19.892 11.1246 19.7631 11.4843 19.7629H14.5874C20.6815 19.7629 25.4533 17.2876 26.8472 10.1271C26.8886 9.91532 26.9234 9.71014 26.9554 9.50779C26.5873 9.31518 26.2039 9.15337 25.8091 9.02402C25.7065 8.99014 25.602 8.95814 25.4957 8.92614" fill="#012169"/>
</svg>
