<svg width="602" height="54" viewBox="0 0 602 54" fill="none" xmlns="http://www.w3.org/2000/svg">
<path d="M1.48941 1C1.29328 1 1.1161 1.23925 1.0392 1.60791C0.962301 1.97657 1.00054 2.40343 1.13636 2.69253L12.5565 27L1.13636 51.3075C1.00054 51.5966 0.962301 52.0234 1.0392 52.3921C1.1161 52.7607 1.29328 53 1.48941 53H588.766C588.898 53 589.026 52.889 589.119 52.6925L600.864 27.6925C601.045 27.3056 601.045 26.6944 600.864 26.3075L589.119 1.30747C589.026 1.11104 588.898 1 588.766 1H1.48941Z" fill="#F8F8F8" stroke="#5FCF9D" stroke-width="2" stroke-linecap="round" stroke-linejoin="round"/>
<path opacity="0.1" d="M201 2H389.462L401 27L389.462 52H201L212.538 27L201 2Z" fill="#5FCF9D"/>
<path d="M273.268 21.0053C272.537 20.4785 271.076 19.7307 270.056 19.2889L268.935 20.7673C269.971 21.2941 271.416 22.1098 272.095 22.6536L273.268 21.0053ZM272.282 25.6445C271.535 25.1347 270.073 24.421 269.071 23.9791L268 25.4916C269.037 26.0014 270.481 26.8001 271.161 27.3269L272.282 25.6445ZM271.654 28.1256C270.651 30.0799 269.343 32.1871 268.442 33.4786L270.141 34.8381C271.178 33.1897 272.248 31.2524 273.149 29.4681L271.654 28.1256ZM279.505 32.544V29.0772H282.75V27.157H279.505V24.1661H283.362V22.2458H278.179L279.828 21.651C279.59 20.9203 278.995 19.8157 278.485 19.017L276.616 19.6458C277.092 20.4615 277.601 21.5321 277.805 22.2458H273.285V24.1661H277.397V27.157H273.965V29.0772H277.397V32.544H272.775V34.4642H283.804V32.544H279.505ZM295.36 25.6955V22.0079H297.11V25.6955H295.36ZM292.131 27.6498H293.372C293.27 29.5191 292.981 31.5243 292.114 33.1217C292.131 33.0198 292.131 32.9178 292.131 32.7989V27.6498ZM288.681 25.6955V25.6785V22.0079H290.194V25.6955H288.681ZM300.713 25.6955H299.115V20.1386H293.406V25.6955H292.131V20.1386H286.744V25.6785V25.6955H284.977V27.6498H286.693C286.574 29.706 286.183 31.9832 284.926 33.6655C285.3 33.9204 286.064 34.7022 286.353 35.11C287.9 33.1387 288.46 30.1648 288.613 27.6498H290.194V32.7819C290.194 33.0028 290.109 33.0878 289.871 33.0878C289.65 33.1048 288.936 33.1047 288.273 33.0708C288.528 33.5466 288.817 34.3623 288.902 34.8721C290.024 34.8721 290.84 34.8381 291.383 34.5152C291.706 34.3453 291.91 34.1074 292.012 33.7845C292.437 34.1074 293.066 34.7191 293.321 35.059C294.697 33.0878 295.173 30.1478 295.309 27.6498H297.11V32.6969C297.11 32.9348 297.042 33.0198 296.787 33.0368C296.583 33.0368 295.836 33.0368 295.19 33.0028C295.462 33.5126 295.734 34.3793 295.802 34.9061C296.957 34.9061 297.773 34.8721 298.351 34.5322C298.928 34.2093 299.115 33.6825 299.115 32.7309V27.6498H300.713V25.6955ZM315.276 19.7307C314.529 21.2432 313.271 22.7216 311.98 23.6733C312.404 24.0301 313.084 24.7778 313.407 25.1687C314.784 24.0131 316.245 22.1608 317.146 20.3425L315.276 19.7307ZM304.044 21.3281H306.848V30.3688H308.377V19.7307H302.565V30.4367H304.044V21.3281ZM305.607 31.3034C306.1 29.9099 306.219 28.4485 306.219 27.14V22.1268H304.706V27.14C304.706 29.2302 304.468 32.1191 301.851 33.6316C302.208 33.9035 302.701 34.4473 302.905 34.7871C304.231 33.9204 305.046 32.7819 305.505 31.5413C306.219 32.459 307.068 33.6485 307.425 34.4303L308.7 33.4106C308.292 32.6459 307.357 31.4394 306.61 30.5727L305.607 31.3034ZM317.537 27.2079V25.3726H311.657V19.3909H309.804V25.3726H308.7V27.2079H309.804V32.1531C309.804 32.9008 309.329 33.2577 308.989 33.4446C309.261 33.8015 309.618 34.5662 309.736 35.008C310.076 34.7531 310.688 34.4812 313.9 33.1897C313.815 32.7649 313.747 31.9322 313.747 31.3884L311.657 32.1191V27.2079H312.659C313.39 30.3178 314.597 33.0368 316.551 34.6002C316.857 34.0904 317.469 33.3766 317.91 33.0368C316.262 31.8472 315.157 29.655 314.529 27.2079H317.537ZM322.941 26.1713C322.941 25.9334 322.941 25.6785 322.941 25.4746V23.5033H330.945V26.1713H322.941ZM327.41 21.634L328.463 21.3281C328.26 20.6994 327.852 19.7137 327.478 19L325.456 19.4928C325.744 20.1556 326.084 20.9883 326.288 21.634H320.816V25.4746C320.816 27.9387 320.646 31.4394 318.811 33.8525C319.304 34.0564 320.205 34.7022 320.595 35.093C322.023 33.1897 322.618 30.4877 322.839 28.0576H330.945V28.9413H333.018V21.634H327.41Z" fill="#5FCF9D"/>
<path d="M366 29H380.17L376.59 32.59L378 34L384 28L378 22L376.59 23.41L380.17 27H366V29Z" fill="white"/>
<path opacity="0.1" d="M401 2H589.462L601 27L589.462 52H401L412.538 27L401 2Z" fill="#5FCF9D"/>
<path d="M461.639 26.6931V29.639C461.639 31.4066 461.976 31.9957 463.575 31.9957H464.854C466.066 31.9957 466.571 31.4234 466.773 29.1845C466.218 29.0666 465.393 28.7468 465.023 28.4101C464.972 29.942 464.905 30.1608 464.635 30.1608H463.928C463.659 30.1608 463.609 30.1103 463.609 29.639V26.6931H466.521V24.9592H462.346V23.0065H465.847V21.3231H462.346V19.303H460.36V21.3231H459.03C459.181 20.9359 459.316 20.5319 459.434 20.1447L457.548 19.7239C457.161 21.1884 456.437 22.6529 455.528 23.5788C455.983 23.8145 456.791 24.3195 457.178 24.6393C457.565 24.1848 457.919 23.6293 458.255 23.0065H460.36V24.9592H455.781V26.6931H458.525C458.289 28.3428 457.683 29.6558 455.427 30.4639C455.882 30.851 456.404 31.6086 456.639 32.1304C459.434 30.9689 460.242 29.0835 460.562 26.6931H461.639ZM455.377 22.3331C454.838 21.5587 453.677 20.4477 452.717 19.6902L451.202 20.8181C452.145 21.6429 453.256 22.8045 453.727 23.6125L455.377 22.3331ZM455.006 25.683H451.236V27.5348H453.087V31.8442C452.397 32.2314 451.673 32.7533 451 33.3593L452.33 35.11C453.239 34.0495 454.148 33.0731 454.788 33.0731C455.158 33.0731 455.68 33.5781 456.353 33.9653C457.498 34.6218 458.811 34.8238 460.814 34.8238C462.447 34.8238 464.955 34.7397 466.201 34.6555C466.218 34.1168 466.538 33.1236 466.74 32.5849C465.124 32.8206 462.531 32.9553 460.848 32.9553C459.114 32.9553 457.666 32.8711 456.623 32.2482C455.865 31.7937 455.461 31.3897 455.006 31.3055V25.683ZM473.574 28.0398L473.305 26.2386L471.807 26.6426V24.2185H473.591V22.3836H471.807V19.2188H469.871V22.3836H467.969V24.2185H469.871V27.1644C469.063 27.3496 468.339 27.5348 467.733 27.6694L468.171 29.5885C468.709 29.437 469.265 29.3023 469.871 29.1171V32.7869C469.871 33.0058 469.787 33.0731 469.585 33.0731C469.383 33.0899 468.777 33.0899 468.187 33.0563C468.44 33.595 468.676 34.4198 468.743 34.9248C469.837 34.9248 470.595 34.8743 471.116 34.5545C471.638 34.2346 471.807 33.7465 471.807 32.7869V28.5616L473.574 28.0398ZM479.348 29.538H482.345V27.7873H479.348V26.4742H477.345V27.7873H474.214V29.538H477.345V30.7164H473.372V32.4839H477.345V34.9417H479.348V32.4839H483.422V30.7164H479.348V29.538ZM479.988 21.6597C479.533 22.1984 478.995 22.7034 478.406 23.1748C477.85 22.7203 477.362 22.1984 476.941 21.6597H479.988ZM481.57 19.8249L481.25 19.8922H474.012V21.6597H475.022C475.561 22.5856 476.2 23.4105 476.941 24.1512C475.763 24.8077 474.45 25.3464 473.086 25.6999C473.456 26.0534 473.928 26.8109 474.13 27.2654C475.611 26.8109 477.059 26.1544 478.355 25.3295C479.601 26.1881 481.015 26.8782 482.614 27.2991C482.866 26.8109 483.422 26.0366 483.826 25.6494C482.378 25.3295 481.048 24.8245 479.921 24.1848C481.116 23.158 482.092 21.9123 482.765 20.4645L481.57 19.8249ZM495.66 27.3328C494.92 28.6121 493.876 29.6558 492.596 30.4639C491.283 29.639 490.257 28.5785 489.516 27.3328H495.66ZM497.175 25.2959L496.822 25.3632H493.505V23.4105H499.65V21.4241H493.505V19.2188H491.418V21.4241H485.307V23.4105H491.418V25.3632H486.132V27.3328H488.337L487.428 27.6526C488.287 29.2013 489.314 30.4807 490.576 31.5076C488.809 32.2482 486.755 32.7364 484.516 33.0226C484.903 33.4603 485.425 34.4198 485.594 34.9417C488.119 34.5377 490.475 33.8643 492.495 32.8038C494.314 33.797 496.485 34.4535 499.111 34.8238C499.364 34.2346 499.936 33.3256 500.374 32.8543C498.152 32.6186 496.216 32.1472 494.583 31.4907C496.334 30.144 497.697 28.3933 498.572 26.1207L497.175 25.2959ZM505.424 19.303C504.532 21.7776 503 24.2017 501.401 25.7335C501.754 26.2217 502.36 27.3328 502.579 27.8209C502.966 27.4169 503.37 26.9624 503.757 26.4742V34.908H505.811V23.3431C506.434 22.2153 506.956 21.0706 507.41 19.9427L505.424 19.303ZM517.191 22.8381H515.339V19.404H513.252V22.8381H506.838V24.8582H513.252V32.5008C513.252 32.8711 513.1 33.0058 512.679 33.0058C512.292 33.0226 510.811 33.0226 509.514 32.9721C509.817 33.494 510.171 34.3861 510.289 34.9585C512.141 34.9753 513.403 34.9417 514.228 34.6218C515.036 34.3188 515.339 33.797 515.339 32.5008V24.8582H517.191V22.8381ZM511.686 29.9588C511.181 28.9488 510.137 27.2991 509.38 26.0702L507.595 26.8951C508.353 28.1745 509.346 29.9083 509.784 30.9352L511.686 29.9588ZM533.705 23.865V21.9123H526.803L527.964 21.4072C527.712 20.7676 527.207 19.7575 526.752 19L524.783 19.7407C525.119 20.414 525.524 21.2557 525.793 21.9123H518.689V23.865H522.931C522.763 27.4169 522.443 31.2045 518.403 33.3593C518.941 33.7801 519.564 34.4703 519.867 35.009C522.897 33.2751 524.143 30.649 524.715 27.8378H530.018C529.783 30.851 529.479 32.2819 529.042 32.6691C528.806 32.8543 528.587 32.8879 528.217 32.8879C527.712 32.8879 526.534 32.8711 525.389 32.7701C525.776 33.3088 526.062 34.1505 526.096 34.7397C527.241 34.7902 528.352 34.7902 529.008 34.7228C529.766 34.6555 530.304 34.4872 530.809 33.9316C531.5 33.2078 531.853 31.3392 532.156 26.7772C532.207 26.5079 532.223 25.9019 532.223 25.9019H525.002C525.086 25.2117 525.12 24.5383 525.17 23.865H533.705ZM540.674 27.8883H543.367V25.9524H536.146V27.8883H538.688V31.9452C537.476 32.1472 536.364 32.3156 535.506 32.4503L536.061 34.4703C538.233 33.999 541.196 33.3929 543.957 32.7869L543.805 31.0025C542.778 31.2045 541.701 31.4066 540.674 31.5917V27.8883ZM550.555 24.0333V22.0806H548.973L550.118 21.0874C549.663 20.5319 548.67 19.7407 547.912 19.2188L546.583 20.313C547.256 20.8181 548.098 21.5082 548.552 22.0806H545.892C545.859 21.1716 545.859 20.2289 545.876 19.303H543.721C543.721 20.2289 543.738 21.1716 543.771 22.0806H535.506V24.0333H543.872C544.276 29.9588 545.539 34.9417 548.418 34.9417C550.017 34.9417 550.69 34.1673 550.993 30.9857C550.438 30.7669 549.697 30.2787 549.242 29.8073C549.158 31.9452 548.956 32.8374 548.603 32.8374C547.374 32.8374 546.347 28.9488 545.993 24.0333H550.555Z" fill="#5FCF9D"/>
<path d="M571.59 30.58L567.42 26.41L566 27.82L571.59 33.41L583.59 21.41L582.18 20L571.59 30.58Z" fill="white"/>
<path d="M1 2H189.462L201 27L189.462 52H1L12.5385 27L1 2Z" fill="#5FCF9D"/>
<path d="M58.6716 29.5053H63.0074V30.2422H58.6716V29.5053ZM63.0074 24.1755V24.8953H58.6716V24.1755H63.0074ZM63.0074 26.6262H58.6716V25.9407H63.0074V26.6262ZM58.6716 27.7059H63.0074V28.4085H58.6716V27.7059ZM66.1779 30.2422H64.8411V22.8902H61.1737C61.2594 22.616 61.3279 22.3247 61.3965 22.0334H65.7666V20.4053H61.7906C61.8935 19.994 61.9792 19.5827 62.0477 19.1885L59.8712 19.12C59.837 19.5141 59.8027 19.9426 59.7513 20.4053H56.1181V22.0334H59.5114C59.4771 22.3247 59.4257 22.616 59.3743 22.8902H56.8893V30.2422H55.6211L55.4326 29.1969L53.856 29.7281V24.9467H55.6211V23.0102H53.856V19.3085H51.9365V23.0102H50.2399V24.9467H51.9365V30.3451C51.1996 30.585 50.5484 30.7906 50 30.9277L50.7541 32.9671C52.1765 32.4359 53.9245 31.7675 55.5697 31.0991V31.9731H58.3803C57.4548 32.5901 56.0838 33.2756 54.9528 33.6698C55.3812 34.0468 55.9296 34.6295 56.2038 35.0408C57.5748 34.5266 59.3228 33.6183 60.5053 32.83L59.3571 31.9731H62.2705L61.3279 32.8986C62.5104 33.5155 64.0871 34.4752 64.8411 35.1093L66.1607 33.704C65.5095 33.1899 64.2927 32.5044 63.2473 31.9731H66.1779V30.2422ZM72.7073 26.729C72.8101 26.2663 72.9129 25.7865 73.0158 25.2895H80.4192V23.5415H73.3585L73.6327 22.1533L71.5762 21.9648C71.2334 24.0727 70.6679 26.8147 70.2052 28.5114H79.0139C78.7568 31.2362 78.4312 32.5558 77.9856 32.9157C77.78 33.0871 77.5401 33.1214 77.1802 33.1214C76.6832 33.1214 75.5521 33.1042 74.4382 33.0185C74.7981 33.5327 75.0723 34.3381 75.1065 34.9208C76.2205 34.9551 77.3173 34.9722 77.9342 34.9037C78.6883 34.8523 79.2024 34.698 79.6994 34.1839C80.3678 33.4812 80.7619 31.7161 81.139 27.5859C81.1732 27.3117 81.2075 26.729 81.2075 26.729H72.7073ZM77.7114 29.6767H68.2172V31.5618H77.7114V29.6767ZM67.8745 19.8569V23.7128H69.8967V21.742H80.5734V23.7128H82.6985V19.8569H67.8745ZM89.6392 21.9305C89.0394 21.1765 87.7541 20.0283 86.8286 19.2399L85.4748 20.5252C86.383 21.3993 87.6341 22.616 88.1825 23.3701L89.6392 21.9305ZM89.1079 30.9106V24.3298H84.635V26.2835H87.1371V31.459C87.1371 32.2302 86.5544 32.8129 86.1774 33.0699C86.503 33.4641 86.9829 34.321 87.12 34.8008C87.497 34.3895 88.1482 33.8925 91.9699 31.3048C91.7642 30.8763 91.4901 30.0195 91.4044 29.4368L89.1079 30.9106ZM100.384 20.371H90.8902V22.4275H95.4317V32.4016C95.4317 32.7101 95.2946 32.8129 94.9518 32.83C94.6091 32.8472 93.3409 32.8643 92.2612 32.7786C92.5869 33.3613 92.981 34.3724 93.0667 34.9894C94.6776 34.9894 95.8087 34.9379 96.5799 34.5781C97.3511 34.2182 97.6082 33.6183 97.6082 32.4359V22.4275H100.384V20.371ZM105.354 27.5345V26.352H108.473V27.5345H105.354ZM105.354 23.6443H108.473V24.8096H105.354V23.6443ZM113.82 24.8096H110.581V23.6443H113.82V24.8096ZM113.82 27.5345H110.581V26.352H113.82V27.5345ZM117.299 30.3279H110.581V29.214H115.928V21.9819H113.478C113.94 21.3307 114.454 20.6109 114.917 19.8569L112.655 19.2057C112.329 20.0625 111.73 21.1422 111.181 21.9819H107.514L108.251 21.622C107.908 20.9194 107.137 19.874 106.468 19.1542L104.72 19.9254C105.217 20.5424 105.783 21.3307 106.126 21.9819H103.366V29.214H108.473V30.3279H101.858V32.2302H108.473V35.0236H110.581V32.2302H117.299V30.3279ZM123.777 21.7763C123.16 21.0736 121.858 20.0111 120.898 19.2913L119.613 20.5938C120.555 21.3821 121.824 22.5303 122.389 23.2673L123.777 21.7763ZM134.591 29.2997H130.769V27.6202H133.803V25.7693H130.769V24.107H134.3V22.239H132.723C133.134 21.4335 133.546 20.5252 133.94 19.6341L131.866 19C131.609 19.994 131.078 21.2793 130.598 22.239H127.736L128.987 21.7763C128.764 21.0394 128.147 19.9254 127.616 19.12L125.799 19.7541C126.262 20.5252 126.742 21.5021 126.982 22.239H124.994V24.107H128.713V25.7693H125.525V27.6202H128.713V29.2997H124.6V30.9106C124.48 30.6021 124.377 30.2765 124.308 30.0366L122.955 31.0649V24.3298H118.704V26.2835H121.001V31.6818C121.001 32.6072 120.521 33.2413 120.144 33.5498C120.47 33.824 121.018 34.5609 121.189 34.9722C121.498 34.5609 122.012 34.0982 124.977 31.7846C124.891 31.6304 124.805 31.4247 124.72 31.202H128.713V35.075H130.769V31.202H134.591V29.2997ZM137.076 27.4145C137.436 26.095 137.71 24.0556 137.744 22.6332L136.305 22.4447C136.219 23.8328 135.962 25.7522 135.602 26.9176L137.076 27.4145ZM143.588 31.1163V30.3279H148.712V31.1163H143.588ZM148.712 28.0829V28.8884H143.588V28.0829H148.712ZM150.632 26.5919H141.703V35.0922H143.588V32.5215H148.712V33.0871C148.712 33.2927 148.627 33.3613 148.387 33.3613C148.164 33.3613 147.358 33.3784 146.656 33.327C146.896 33.824 147.136 34.5609 147.204 35.0579C148.387 35.0579 149.244 35.0579 149.843 34.7666C150.46 34.4924 150.632 34.0125 150.632 33.1214V26.5919ZM147.119 24.484V23.7471H150.803V22.3761H147.119V21.6906H151.266V20.2339H147.119V19.0686H145.096V20.2339H141.086V21.6906H145.096V22.3761H141.549V23.73C141.343 23.0959 140.949 22.1362 140.589 21.3993L139.612 21.8106V19.0686H137.779V35.0579H139.612V22.5989C139.887 23.2673 140.126 23.987 140.246 24.484L141.583 23.8328L141.549 23.7471H145.096V24.484H140.555V25.9407H151.78V24.484H147.119Z" fill="#F8F8F8"/>
<path d="M166 28H180.17L176.59 31.59L178 33L184 27L178 21L176.59 22.41L180.17 26H166V28Z" fill="white"/>
</svg>
