<svg width="96" height="96" viewBox="0 0 96 96" fill="none" xmlns="http://www.w3.org/2000/svg">
<rect x="0.5" y="0.5" width="95" height="95" rx="3.5" fill="white" stroke="#DDDDDD"/>
<path d="M43.2127 58.969H37.3376L41.0095 36.4032H46.8851L43.2127 58.969ZM32.3952 36.4032L26.7942 51.9241L26.1314 48.5819L26.132 48.5831L24.1551 38.435C24.1551 38.435 23.9161 36.4032 21.3682 36.4032H12.1087L12 36.7853C12 36.7853 14.8316 37.3744 18.1455 39.3646L23.2497 58.9696H29.371L38.7181 36.4032H32.3952ZM78.6054 58.969H84L79.2966 36.4026H74.5738C72.393 36.4026 71.8618 38.0843 71.8618 38.0843L63.0996 58.969H69.2239L70.4487 55.6171H77.9173L78.6054 58.969ZM72.1406 50.9867L75.2276 42.5421L76.9642 50.9867H72.1406ZM63.559 41.8298L64.3974 36.9839C64.3974 36.9839 61.8103 36 59.1133 36C56.1978 36 49.2742 37.2742 49.2742 43.4704C49.2742 49.3002 57.4002 49.3726 57.4002 52.4348C57.4002 55.497 50.1115 54.9483 47.706 53.0173L46.8326 58.0841C46.8326 58.0841 49.4559 59.3584 53.464 59.3584C57.4732 59.3584 63.5215 57.2825 63.5215 51.6326C63.5215 45.7654 55.3225 45.2191 55.3225 42.6682C55.3231 40.1167 61.0449 40.4445 63.559 41.8298Z" fill="#2566AF"/>
<path d="M26.132 48.5825L24.1551 38.4344C24.1551 38.4344 23.9161 36.4026 21.3682 36.4026H12.1087L12 36.7847C12 36.7847 16.4505 37.707 20.7193 41.1628C24.801 44.4658 26.132 48.5825 26.132 48.5825Z" fill="#E6A540"/>
</svg>
