<svg width="72" height="72" viewBox="0 0 72 72" fill="none" xmlns="http://www.w3.org/2000/svg">
<path d="M31.9711 45.5023H27.0267L30.1169 26.5112H35.0617L31.9711 45.5023ZM22.8672 26.5112L18.1535 39.5735L17.5957 36.7606L17.5962 36.7617L15.9325 28.2212C15.9325 28.2212 15.7313 26.5112 13.587 26.5112H5.79432L5.70288 26.8328C5.70288 26.8328 8.08591 27.3286 10.8748 29.0035L15.1705 45.5028H20.3221L28.1885 26.5112H22.8672ZM61.7571 45.5023H66.2971L62.3388 26.5107H58.3642C56.5288 26.5107 56.0818 27.926 56.0818 27.926L48.7076 45.5023H53.8618L54.8925 42.6814H61.178L61.7571 45.5023ZM56.3165 38.7845L58.9144 31.6776L60.3759 38.7845H56.3165ZM49.0942 31.0781L49.7998 26.9999C49.7998 26.9999 47.6225 26.1719 45.3528 26.1719C42.8992 26.1719 37.0724 27.2443 37.0724 32.4589C37.0724 37.3652 43.9111 37.4261 43.9111 40.0032C43.9111 42.5803 37.777 42.1185 35.7526 40.4934L35.0175 44.7576C35.0175 44.7576 37.2253 45.83 40.5984 45.83C43.9726 45.83 49.0627 44.083 49.0627 39.3281C49.0627 34.3903 42.1626 33.9306 42.1626 31.7838C42.1631 29.6364 46.9784 29.9123 49.0942 31.0781Z" fill="#2566AF"/>
<path d="M17.5962 36.7612L15.9325 28.2207C15.9325 28.2207 15.7314 26.5107 13.5871 26.5107H5.79432L5.70288 26.8323C5.70288 26.8323 9.44839 27.6085 13.041 30.5168C16.4761 33.2966 17.5962 36.7612 17.5962 36.7612Z" fill="#E6A540"/>
</svg>
