<svg width="288" height="48" viewBox="0 0 288 48" fill="none" xmlns="http://www.w3.org/2000/svg">
<rect width="288" height="48" rx="4" fill="#9DE60B"/>
<path d="M40.4113 13.4977C37.4057 11.8051 33.6593 11.5498 30.4248 12.7183C28.3002 13.4837 26.3754 14.9058 25.1868 16.843C24.1094 18.5893 23.705 20.7679 24.226 22.7662C24.7472 24.9846 26.2843 26.8432 28.1569 28.0855C27.8048 29.1096 27.4574 30.1333 27.1302 31.1646C28.3139 30.5498 29.4837 29.9086 30.6628 29.2829C32.0849 29.7383 33.5792 29.9566 35.072 29.9086C34.6831 28.768 34.5908 27.5397 34.7678 26.3495C35.0507 24.6986 35.9439 23.1873 37.1783 22.0667C39.2568 20.1203 42.2038 19.2979 45.0078 19.4961C44.4838 16.9259 42.6774 14.7518 40.4113 13.4977ZM32.3542 18.1603C32.1453 19.1673 30.7952 19.6531 30.0068 18.9782C29.0935 18.334 29.3489 16.7337 30.4233 16.4125C31.4746 16.0066 32.6708 17.075 32.3542 18.1603ZM39.6548 17.8683C39.6639 19.0274 38.1204 19.75 37.2518 18.9627C36.351 18.3185 36.6064 16.7489 37.6638 16.4231C38.6095 16.0512 39.7285 16.8491 39.6548 17.8683Z" fill="white"/>
<path d="M52.37 24.9017C51.6365 23.2398 50.2515 21.9237 48.6449 21.1092C45.8083 19.6701 42.2787 19.681 39.4516 21.1429C37.4852 22.1529 35.8449 23.9608 35.3777 26.1607C34.9933 27.7795 35.3391 29.5228 36.1971 30.9357C37.4761 33.0557 39.7853 34.4085 42.1879 34.8436C43.9282 35.1973 45.727 34.9899 47.4165 34.4978C48.4281 34.8931 49.3349 35.5294 50.3174 36C50.0662 35.1504 49.7956 34.3067 49.5059 33.4695C50.6049 32.6841 51.6074 31.7093 52.21 30.4824C53.1065 28.7741 53.1603 26.6586 52.37 24.9017ZM42.4973 25.5365C42.2484 26.3219 41.1029 26.5587 40.5525 25.9591C39.9438 25.4072 40.1803 24.2496 40.9781 24.0037C41.8655 23.6302 42.8862 24.6509 42.4973 25.5365ZM48.2763 25.6455C47.9733 26.3529 46.914 26.5156 46.3916 25.9685C46.1381 25.7408 46.0764 25.395 45.975 25.0893C46.1104 24.5389 46.4778 23.9654 47.1032 23.9408C47.9687 23.8221 48.728 24.8722 48.2763 25.6455Z" fill="white"/>
<path d="M121.92 18.888H120.88V21.576H119.936V17.592H118.816V21.576H117.84V18.888H116.832V22.776H121.92V18.888ZM115.136 17.576C114.576 18.616 113.456 19.88 112.464 20.68C112.704 20.952 113.072 21.512 113.232 21.816C114.4 20.872 115.648 19.416 116.48 18.072L115.136 17.576ZM115.424 20.824C114.672 22.456 113.472 24.104 112.32 25.208C112.56 25.512 112.992 26.232 113.136 26.536C113.536 26.152 113.92 25.672 114.32 25.176V32.264H115.664V23.224C116.064 22.568 116.416 21.928 116.736 21.288L115.424 20.824ZM121.408 28.52V25.864H117.248V27.688C117.248 28.776 117.12 30.152 116.128 31.208C116.384 31.384 116.88 31.928 117.072 32.184C118.256 30.936 118.512 29.08 118.512 27.72V27.032H120.24V28.568C120.24 29.192 119.968 29.48 119.76 29.608C119.952 29.896 120.208 30.504 120.288 30.824C120.528 30.536 120.896 30.2 122.896 28.92C122.784 28.664 122.64 28.2 122.56 27.848L121.408 28.52ZM125.504 22.04C125.312 23.784 125.04 25.304 124.56 26.616C124.192 25.416 123.904 24.056 123.712 22.632C123.776 22.44 123.824 22.232 123.888 22.04H125.504ZM127.344 22.04V20.776H124.192C124.384 19.816 124.544 18.808 124.672 17.8L123.312 17.592C123.072 19.896 122.64 22.152 121.84 23.784H116.608V25.048H121.888L121.904 24.744C122.128 25.016 122.368 25.304 122.48 25.496C122.656 25.224 122.8 24.952 122.944 24.632C123.184 25.944 123.472 27.16 123.856 28.264C123.2 29.48 122.304 30.488 121.088 31.24C121.344 31.48 121.776 32.056 121.92 32.312C122.976 31.592 123.808 30.712 124.48 29.704C125.04 30.728 125.712 31.592 126.56 32.2C126.784 31.848 127.216 31.304 127.52 31.032C126.56 30.456 125.824 29.512 125.248 28.328C126.048 26.632 126.528 24.536 126.816 22.04H127.344ZM132 17.64C131.216 19.96 129.936 22.296 128.544 23.8C128.784 24.136 129.2 24.904 129.344 25.224C129.792 24.696 130.256 24.104 130.688 23.432V32.296H132.048V21.064C132.528 20.088 132.976 19.048 133.344 18.04L132 17.64ZM140.816 28.264V30.472H135.2V28.264H140.816ZM133.936 32.248H135.2V31.672H140.816V32.2H142.128V27.064H133.936V32.248ZM134.16 25.896H141.952V24.712H134.16V25.896ZM141.952 22.456H134.16V23.64H141.952V22.456ZM137.92 20.136L139.072 19.64C138.832 19.064 138.352 18.2 137.92 17.56L136.64 18.056C137.04 18.696 137.488 19.56 137.712 20.136H133.024V21.352H143.168V20.136H137.92ZM154.192 28.472C153.968 29.096 153.552 30.008 153.2 30.632H149.792L150.656 30.328C150.512 29.8 150.128 29.016 149.744 28.456L148.416 28.888C148.72 29.416 149.056 30.104 149.184 30.632H145.024V31.912H158.992V30.632H154.688C154.992 30.088 155.328 29.448 155.632 28.824L154.192 28.472ZM154.944 27.24H148.8V25.512H154.944V27.24ZM156.528 24.312H147.312V28.44H156.528V24.312ZM157.904 19.576C157.392 20.136 156.576 20.84 155.84 21.416C155.504 21.08 155.216 20.728 154.912 20.376C155.664 19.848 156.528 19.16 157.248 18.52L156.128 17.736C155.664 18.248 154.912 18.92 154.256 19.448C153.856 18.872 153.536 18.264 153.264 17.64L151.968 18.04C152.576 19.464 153.376 20.76 154.352 21.912H149.744C150.56 20.936 151.248 19.832 151.712 18.6L150.72 18.12L150.464 18.184H145.648V19.4H149.76C149.376 20.088 148.896 20.744 148.336 21.368C147.84 20.872 147.056 20.296 146.368 19.912L145.552 20.728C146.208 21.144 146.96 21.736 147.456 22.232C146.528 23.048 145.472 23.736 144.448 24.168C144.736 24.44 145.168 24.952 145.344 25.272C146.72 24.616 148.08 23.672 149.232 22.472V23.176H154.848V22.472C155.92 23.608 157.168 24.536 158.544 25.16C158.784 24.76 159.232 24.184 159.568 23.896C158.528 23.496 157.568 22.904 156.704 22.184C157.456 21.656 158.32 20.984 159.008 20.36L157.904 19.576ZM172.8 25.032C172.112 25.736 171.04 26.616 170.096 27.272C169.536 26.664 169.088 25.976 168.72 25.24V24.84H174.976V23.528H172.928C173.072 21.88 173.184 19.992 173.216 18.424L172.032 18.344L171.776 18.408H162.112V19.784H171.568C171.552 20.168 171.536 20.552 171.52 20.984H162.624V22.312H171.44C171.424 22.728 171.392 23.128 171.36 23.528H161.104V24.84H167.2V27.56C164.944 28.472 162.592 29.416 161.056 29.944L161.872 31.288C163.376 30.648 165.328 29.816 167.2 28.984V30.728C167.2 30.952 167.12 31.032 166.864 31.032C166.624 31.048 165.728 31.048 164.864 31.016C165.072 31.368 165.28 31.912 165.376 32.296C166.592 32.312 167.424 32.296 167.984 32.088C168.544 31.896 168.72 31.528 168.72 30.76V27.672C170.064 29.528 171.904 30.904 174.208 31.656C174.416 31.256 174.864 30.648 175.184 30.36C173.568 29.928 172.16 29.176 171.008 28.2C171.984 27.576 173.136 26.76 174.08 25.976L172.8 25.032ZM162.096 26.056C163.104 26.648 164.368 27.528 164.976 28.136L166.032 27.112C165.36 26.504 164.08 25.688 163.088 25.16L162.096 26.056Z" fill="#F8F8F8"/>
</svg>
